<?xml version="1.0" standalone="no"?>
<!DOCTYPE svg PUBLIC "-//W3C//DTD SVG 20010904//EN"
 "http://www.w3.org/TR/2001/REC-SVG-20010904/DTD/svg10.dtd">
<svg version="1.0" xmlns="http://www.w3.org/2000/svg"
 width="512.000000pt" height="512.000000pt" viewBox="0 0 512.000000 512.000000"
 preserveAspectRatio="xMidYMid meet">

<g transform="translate(0.000000,512.000000) scale(0.100000,-0.100000)"
fill="#313132" stroke="none">
<path d="M1235 4895 c-17 -9 -36 -24 -43 -35 -6 -11 -73 -263 -147 -561 -75
-299 -146 -565 -157 -593 -42 -99 -91 -162 -232 -301 -79 -77 -167 -174 -195
-215 -254 -363 -315 -835 -161 -1244 12 -32 132 -279 267 -549 294 -590 283
-556 283 -870 0 -179 3 -225 16 -252 33 -70 -93 -65 1694 -65 1412 0 1616 2
1644 15 59 28 60 36 67 320 5 223 9 269 26 320 11 33 131 282 267 554 309 620
339 707 338 991 0 222 -47 421 -145 616 -80 157 -159 255 -351 434 -158 147
-175 183 -390 827 -101 302 -189 560 -195 572 -25 46 -60 51 -357 51 -231 0
-281 -3 -309 -16 -67 -31 -65 -9 -65 -753 0 -447 -4 -688 -11 -723 -20 -95
-76 -197 -148 -268 -171 -169 -423 -206 -650 -94 -142 70 -244 208 -276 374
-8 43 -30 360 -50 734 -28 510 -40 667 -51 689 -28 53 -56 57 -361 57 -226 0
-284 -3 -308 -15z m479 -257 c3 -29 19 -307 36 -618 31 -572 40 -658 82 -765
87 -222 298 -404 534 -461 98 -24 267 -22 366 4 269 72 474 277 551 550 20 74
21 98 25 710 l3 632 174 0 173 0 167 -502 c116 -348 183 -532 216 -598 60
-118 152 -234 256 -323 181 -154 299 -343 360 -576 37 -142 43 -349 14 -489
-12 -57 -34 -135 -50 -175 -16 -40 -137 -288 -269 -553 -164 -329 -245 -503
-258 -552 l-18 -72 -1517 0 -1516 0 -7 33 c-14 75 -93 247 -297 652 -119 237
-231 470 -248 519 -82 232 -82 499 0 732 58 166 144 298 280 429 178 171 226
230 286 350 44 86 67 167 193 673 l112 452 174 0 173 0 5 -52z m2336 -4103 l0
-105 -1490 0 -1490 0 0 105 0 105 1490 0 1490 0 0 -105z"/>
</g>
</svg>
