<?xml version="1.0" encoding="UTF-8"?>
<svg version="1.1" xmlns="http://www.w3.org/2000/svg" width="512" height="512">
<path d="M0 0 C0.77408203 0.23525391 1.54816406 0.47050781 2.34570312 0.71289062 C28.0587994 8.68121727 51.8979719 21.34362389 73 38 C73.8765625 38.68320313 74.753125 39.36640625 75.65625 40.0703125 C101.52757382 60.69127942 121.59352768 85.82377066 137 115 C137.33209473 115.61939453 137.66418945 116.23878906 138.00634766 116.87695312 C148.57362611 136.86597711 155.54537301 159.71529694 159 182 C159.21011719 183.20011719 159.42023438 184.40023437 159.63671875 185.63671875 C168.5932588 242.3614724 153.83046842 303.49304456 120.69140625 350.2578125 C118.51003427 353.21419533 116.27625419 356.11620466 114 359 C113.31679688 359.8765625 112.63359375 360.753125 111.9296875 361.65625 C73.70198458 409.6172057 18.95733425 438.98800793 -41.70556641 446.63623047 C-72.64226054 450.05224309 -104.25240712 447.1863824 -134 438 C-134.77408203 437.76474609 -135.54816406 437.52949219 -136.34570312 437.28710938 C-162.0587994 429.31878273 -185.8979719 416.65637611 -207 400 C-207.8765625 399.31679688 -208.753125 398.63359375 -209.65625 397.9296875 C-257.78155498 359.57098853 -287.58062921 304.11585357 -294.79663086 243.12036133 C-297.7386166 212.44671649 -295.10476165 181.48328635 -286 152 C-285.76474609 151.22591797 -285.52949219 150.45183594 -285.28710938 149.65429688 C-275.64224188 118.53114924 -259.2146078 90.27808506 -237.171875 66.359375 C-235.70307187 64.76376872 -234.25550929 63.14838833 -232.828125 61.515625 C-196.26481755 19.76603281 -139.37151065 -5.47271821 -84.43359375 -9.3515625 C-55.84073598 -11.04193621 -27.44367919 -8.47490863 0 0 Z M-84 10 C-84.46664062 10.54269531 -84.93328125 11.08539063 -85.4140625 11.64453125 C-89.24659318 16.72959291 -89.81281721 21.45544767 -89.54296875 27.7421875 C-88.51385809 33.91685145 -85.78801204 38.72653632 -80.92578125 42.69140625 C-74.76760961 46.6868189 -69.29227731 47.77899698 -62 47 C-54.9003214 44.7398947 -49.23621529 39.81423999 -45.73828125 33.20703125 C-43.75843779 27.28845161 -43.90940656 20.94141807 -46.0703125 15.11328125 C-49.52073267 8.80636569 -54.04909084 4.49297844 -61.0078125 2.39453125 C-70.13036076 0.58790895 -78.04311376 2.75513836 -84 10 Z M-39 4 C-38.731875 4.639375 -38.46375 5.27875 -38.1875 5.9375 C-37.795625 6.948125 -37.40375 7.95875 -37 9 C-36.73574219 9.62003906 -36.47148437 10.24007812 -36.19921875 10.87890625 C-32.48410886 20.43959189 -33.01985138 29.87105012 -36.63671875 39.3671875 C-38.4410483 42.85176663 -40.66421706 45.84688671 -43 49 C-42.38705078 49.12528076 -41.77410156 49.25056152 -41.14257812 49.37963867 C-28.53107375 51.97952341 -16.19342159 54.84114068 -4 59 C-4.03480469 58.18917969 -4.06960938 57.37835938 -4.10546875 56.54296875 C-4.38634424 45.05382385 -3.10121249 35.59105324 5 27 C8.45687431 23.70773875 12.18293592 20.85762922 16 18 C-10.83993174 7.92445209 -10.83993174 7.92445209 -39 4 Z M-136 13.0625 C-137.47484863 13.55459961 -137.47484863 13.55459961 -138.97949219 14.05664062 C-144.56957256 15.98744398 -149.77309712 18.23245355 -155 21 C-152.58862917 22.83264183 -150.19407795 24.5074324 -147.625 26.125 C-139.95376748 31.65618911 -136.52387024 39.90448987 -135 49 C-134.92685881 51.11735632 -134.90329844 53.23701388 -134.9296875 55.35546875 C-134.94491455 56.94911255 -134.94491455 56.94911255 -134.96044922 58.57495117 C-134.97350098 59.37521729 -134.98655273 60.1754834 -135 61 C-134.01326294 60.66790527 -134.01326294 60.66790527 -133.0065918 60.32910156 C-119.12320182 55.68802399 -105.41175921 51.61095042 -91 49 C-91.48210937 48.28714844 -91.96421875 47.57429688 -92.4609375 46.83984375 C-98.79895766 37.22933563 -101.14152323 29.57638854 -100 18 C-98.96352008 14.18237712 -97.572135 10.62411842 -96 7 C-95.67 6.01 -95.34 5.02 -95 4 C-108.7085008 4 -123.11180366 8.75704571 -136 13.0625 Z M11.3046875 36.07421875 C7.3286399 42.22005232 6.11451743 47.72050953 7 55 C9.31214367 62.37941181 13.24207649 67.27730509 20 71 C26.63927645 73.7764247 32.6399291 73.29233496 39.25 70.75 C44.79418843 67.22188009 49.28519386 62.28701536 51.75 56.125 C52.61481803 48.77404674 52.06398168 43.31671804 48 37 C43.49782716 32.05606908 38.97750333 28.58509243 32.23828125 27.59375 C23.6432978 27.31834332 16.9162443 29.20846608 11.3046875 36.07421875 Z M-185.875 38.8125 C-190.04750919 43.98526824 -191.2563477 48.46396421 -190.8125 55.0625 C-189.77700872 62.67911364 -186.763348 66.58395662 -181.03515625 71.484375 C-176.70150787 74.71173694 -172.4284821 76.06506742 -167 76 C-160.56702528 74.89805526 -155.47576709 72.89211752 -151 68 C-146.7495454 61.66377855 -144.55655584 55.61949213 -146 48 C-148.38163108 40.61475866 -152.25492572 35.82409023 -159 32 C-169.37167151 28.54277616 -178.55550144 31.07216785 -185.875 38.8125 Z M63 46 C62.91363281 47.05058594 62.82726562 48.10117188 62.73828125 49.18359375 C61.57998875 61.44133733 59.08132846 69.09721802 49.359375 77.26953125 C46.06107712 79.68864708 42.74529547 81.36568925 39 83 C41.77368622 85.82682197 44.59453848 88.56830571 47.5234375 91.234375 C60.0261468 102.63092058 60.0261468 102.63092058 64.80078125 109.5234375 C65.19652344 110.01070313 65.59226562 110.49796875 66 111 C66.66 111 67.32 111 68 111 C68.32871094 110.2265625 68.65742188 109.453125 68.99609375 108.65625 C73.06773776 99.74056338 77.72664363 94.10197434 86.1875 89.125 C92.0213721 87.40352955 97.96959208 86.71093575 104 86 C98.63445397 78.39880979 92.38766414 71.73745391 86 65 C85.35804688 64.31550781 84.71609375 63.63101563 84.0546875 62.92578125 C77.81762316 56.46273632 70.81135434 50.45557395 63 46 Z M-222.8125 67.5625 C-227.90908723 72.75680941 -232.50398155 78.28426961 -237 84 C-237.74378906 84.88945313 -238.48757812 85.77890625 -239.25390625 86.6953125 C-241.20129457 88.78378407 -241.20129457 88.78378407 -241 91 C-240.10539062 91.08636719 -239.21078125 91.17273438 -238.2890625 91.26171875 C-227.84294597 92.47560649 -218.97232164 94.63321404 -212 103 C-209.00634527 106.79896536 -206.54512618 110.36462147 -205 115 C-201.29269253 112.22277142 -198.47827329 109.32877115 -195.625 105.6875 C-189.98944833 98.67105156 -183.89075133 92.76573071 -177 87 C-179.46110845 84.94907629 -181.83391998 83.62638867 -184.75 82.375 C-192.47084054 78.57219795 -197.47734545 71.61688675 -200.32421875 63.640625 C-201.4754815 59.14204916 -201.82399305 54.62898288 -202 50 C-207.6578635 50 -218.73237548 63.55761182 -222.8125 67.5625 Z M-187 112 C-204.02351781 131.75425275 -216.46945032 154.7237013 -223 180 C-223.21027832 180.80115234 -223.42055664 181.60230469 -223.63720703 182.42773438 C-233.6143551 222.27313013 -225.83537353 265.52730151 -205.37597656 300.71972656 C-183.16301269 337.53113228 -147.55806693 364.13247562 -106 375 C-105.19594727 375.21172852 -104.39189453 375.42345703 -103.56347656 375.64160156 C-63.72117531 385.61403 -20.46860049 377.83299112 14.71972656 357.37597656 C51.58436374 335.13089143 78.03562597 299.57325155 89 258 C90.20732363 253.03544054 91.19289142 248.04588023 92 243 C92.27457031 241.29263672 92.27457031 241.29263672 92.5546875 239.55078125 C97.4561945 198.31987693 87.03415769 155.48418549 61.28564453 122.61181641 C37.99191754 93.40840099 8.39386523 72.51707447 -28 63 C-28.80405273 62.78827148 -29.60810547 62.57654297 -30.43652344 62.35839844 C-86.82492468 48.24452252 -148.4314725 69.19095377 -187 112 Z M81.41015625 107.99609375 C77.78541321 113.14704439 77.06481387 118.86714781 78 125 C80.37333563 132.31870474 84.18542879 137.37146209 91 141 C96.51364049 143.30181108 101.20862383 143.21432081 107 142 C114.41825993 138.94542238 118.47497644 135.05004711 122 128 C124.09943855 122.57645042 123.56041521 116.75645733 121.5 111.4375 C118.72722673 105.73407314 114.27510263 101.57944466 108.578125 98.83203125 C97.3811433 95.21845988 88.47206979 99.26119841 81.41015625 107.99609375 Z M-254.3125 110.25 C-258.41107702 115.5243983 -260.34536991 120.33264655 -259.9375 127.0625 C-258.88176003 134.31932318 -255.7047339 139.17587896 -249.97265625 143.703125 C-244.60852965 147.22963991 -239.82340292 148.41925323 -233.4375 147.5625 C-226.86016379 146.02625504 -222.31562556 143.27576298 -218.3984375 137.734375 C-215.12838321 131.92500481 -213.74861351 126.60567953 -215 120 C-217.38163108 112.61475866 -221.25492572 107.82409023 -228 104 C-237.81497636 100.72834121 -247.30115593 102.75866171 -254.3125 110.25 Z M131 134 C129.91879223 135.56299986 129.91879223 135.56299986 128.875 137.5625 C124.60641944 144.59383532 118.74941024 149.5039398 111.0078125 152.35546875 C104.75913768 153.6944705 98.35098317 153.28366674 92 153 C92.19110352 153.61294922 92.38220703 154.22589844 92.57910156 154.85742188 C96.40383622 167.16469079 100.06670589 179.44695876 103 192 C103.53367187 191.60167969 104.06734375 191.20335937 104.6171875 190.79296875 C113.47301144 184.49583443 122.09583032 181.8194916 133 183 C138.21053896 184.15789755 143.05811568 186.01485111 148 188 C144.76635361 169.35897961 140.11006682 151.55755177 133 134 C132.34 134 131.68 134 131 134 Z M-269 139 C-273.3850584 151.19905922 -277.36670274 163.35453819 -280 176.0625 C-280.20713623 177.05378906 -280.41427246 178.04507813 -280.62768555 179.06640625 C-281.62587056 184.13699457 -282.22930041 188.83357503 -282 194 C-280.85337891 193.45859375 -280.85337891 193.45859375 -279.68359375 192.90625 C-269.41761679 188.45889536 -259.18477847 186.71841843 -248.375 190.75 C-244.8330052 192.39743944 -241.94791953 194.42057041 -239 197 C-238.34 197 -237.68 197 -237 197 C-236.80422363 195.95827637 -236.80422363 195.95827637 -236.60449219 194.89550781 C-235.99485979 191.67865593 -235.37249175 188.46438723 -234.75 185.25 C-234.54503906 184.15816406 -234.34007812 183.06632812 -234.12890625 181.94140625 C-232.81342108 175.20452766 -231.08562263 168.82137766 -228.77832031 162.35449219 C-227.89537869 160.09681094 -227.89537869 160.09681094 -228 158 C-229.54107422 158.06960937 -229.54107422 158.06960937 -231.11328125 158.140625 C-242.2651568 158.49692358 -251.04343657 157.62328355 -259.9375 150.1875 C-263.51591628 146.76940703 -265.86786775 143.44966731 -268 139 C-268.33 139 -268.66 139 -269 139 Z M108.41015625 203.99609375 C104.78541321 209.14704439 104.06481387 214.86714781 105 221 C107.38941317 228.36828341 111.21704493 233.26351611 118 237 C124.62970294 239.77242123 130.67940364 239.34101007 137.25 236.6875 C143.61374545 232.78247438 147.10246054 229.06010522 149.75 222 C150.67099056 214.63207555 149.71717532 208.91778767 145.48828125 202.8203125 C141.21713814 197.57976388 137.32428705 194.51217193 130.39453125 193.69140625 C120.49705848 193.24090059 114.58780503 196.35494731 108.41015625 203.99609375 Z M-279 207 C-282.67751858 213.02311537 -284.85803046 218.84974613 -284 226 C-282.07790146 233.13747421 -278.09225329 237.90446287 -272 242 C-266.21530615 244.78971526 -259.94939376 245.08522472 -253.75390625 243.3828125 C-247.3012939 240.54014117 -242.63145459 235.33384198 -239.5625 229.0625 C-238.17906848 221.53048393 -238.62900262 216.11914213 -242.3828125 209.30078125 C-246.50725759 203.4329113 -251.98494958 200.32359442 -259 199 C-266.51003124 198.011838 -273.93607916 201.70054796 -279 207 Z M103 241 C102.86948242 241.69448242 102.73896484 242.38896484 102.60449219 243.10449219 C101.99485979 246.32134407 101.37249175 249.53561277 100.75 252.75 C100.54503906 253.84183594 100.34007812 254.93367188 100.12890625 256.05859375 C98.81342108 262.79547234 97.08562263 269.17862234 94.77832031 275.64550781 C93.89537869 277.90318906 93.89537869 277.90318906 94 280 C95.02738281 279.95359375 96.05476563 279.9071875 97.11328125 279.859375 C108.2651568 279.50307642 117.04343657 280.37671645 125.9375 287.8125 C129.51591628 291.23059297 131.86786775 294.55033269 134 299 C140.91557687 288.62663469 143.42301325 274.14979729 145.9375 262.125 C146.14866455 261.12186768 146.3598291 260.11873535 146.57739258 259.08520508 C147.59684206 253.96111866 148.24007386 249.22342518 148 244 C147.23558594 244.3609375 146.47117187 244.721875 145.68359375 245.09375 C135.41761679 249.54110464 125.18477847 251.28158157 114.375 247.25 C110.8330052 245.60256056 107.94791953 243.57942959 105 241 C104.34 241 103.68 241 103 241 Z M-241.4375 248.8125 C-249.06237216 254.5515052 -257.60617302 256.01699551 -267 255 C-272.21053896 253.84210245 -277.05811568 251.98514889 -282 250 C-278.76635361 268.64102039 -274.11006682 286.44244823 -267 304 C-266.34 304 -265.68 304 -265 304 C-263.66830758 302.31493318 -263.66830758 302.31493318 -262.4375 300.1875 C-262.00308594 299.47980469 -261.56867188 298.77210938 -261.12109375 298.04296875 C-259.86926821 295.90641348 -259.86926821 295.90641348 -259 293 C-257.25390625 291.97265625 -257.25390625 291.97265625 -255 291 C-253.77603516 290.37931641 -253.77603516 290.37931641 -252.52734375 289.74609375 C-251.67269531 289.31425781 -250.81804687 288.88242187 -249.9375 288.4375 C-249.08027344 288.00308594 -248.22304687 287.56867188 -247.33984375 287.12109375 C-242.76058518 284.92702495 -238.78676883 284.88102359 -233.8125 284.9375 C-233.06291016 284.94201172 -232.31332031 284.94652344 -231.54101562 284.95117188 C-229.69397617 284.96293646 -227.84697787 284.98087135 -226 285 C-226.19110352 284.38705078 -226.38220703 283.77410156 -226.57910156 283.14257812 C-230.40383622 270.83530921 -234.06670589 258.55304124 -237 246 C-238.80506388 246 -240.10039404 247.70676449 -241.4375 248.8125 Z M86.47265625 297.2109375 C82.05877804 302.57315559 80.22533587 308.53680529 80.55859375 315.44921875 C81.72343545 322.18056059 84.72692331 327.38944809 90.125 331.5625 C96.07351194 335.64776209 101.97026073 335.6252627 109 335 C115.19652394 333.29415759 119.59259443 329.36507647 123 324 C125.99976593 318.01141619 126.72725041 312.49207912 125 306 C122.87344259 300.37899148 119.02324665 296.23132825 114 293 C104.26159938 288.68982601 94.41204662 289.59062429 86.47265625 297.2109375 Z M-252 303 C-256.14725483 308.91515512 -257.47859035 313.82114481 -257 321 C-255.55680674 327.60691227 -251.96460166 332.50082975 -247 337 C-241.28767883 340.51527457 -235.53577941 340.8205091 -229 340 C-222.30024884 338.14090675 -217.920697 333.57151679 -214 328 C-211.25193088 322.38438049 -210.9154762 316.34436875 -212.83984375 310.41015625 C-215.59846064 304.23345513 -219.04564515 300.24370569 -225 297 C-235.11115632 293.22973832 -244.44974174 295.27415434 -252 303 Z M70 323 C68.47816445 324.66575159 66.9575915 326.33265671 65.4375 328 C64.97859375 328.50257324 64.5196875 329.00514648 64.046875 329.52294922 C61.47588517 332.34689708 58.96315378 335.20701926 56.5 338.125 C52.41005233 342.85246949 47.71030098 346.90573436 43 351 C45.16929238 353.16929238 46.82919524 353.85502395 49.625 355.0625 C57.93117148 359.16757319 63.22452589 365.67477297 66.32421875 374.359375 C67.4754815 378.85795084 67.82399305 383.37101712 68 388 C72.38047331 385.21895435 76.26519929 382.16942241 80.0625 378.625 C80.61760254 378.10897217 81.17270508 377.59294434 81.74462891 377.0612793 C90.70130317 368.62235372 100.32111368 359.3947758 107 349 C107 348.34 107 347.68 107 347 C106.10539062 346.91363281 105.21078125 346.82726562 104.2890625 346.73828125 C93.91402959 345.53265376 84.86780154 343.39397967 78 335 C75.91960819 332.04886775 73.94305801 329.04279466 72 326 C71.34 325.01 70.68 324.02 70 323 Z M-202 327 C-202.32871094 327.7734375 -202.65742188 328.546875 -202.99609375 329.34375 C-206.91545691 337.92598695 -211.14916959 344.32422023 -219.9296875 348.33984375 C-225.91099915 350.47820071 -231.67537083 351.57835806 -238 352 C-232.63445397 359.60119021 -226.38766414 366.26254609 -220 373 C-219.35804688 373.68449219 -218.71609375 374.36898437 -218.0546875 375.07421875 C-211.81762316 381.53726368 -204.81135434 387.54442605 -197 392 C-196.99742187 391.20078125 -196.99484375 390.4015625 -196.9921875 389.578125 C-196.60866826 378.68617863 -193.71404502 370.07123418 -185.625 362.5 C-181.67313822 359.27946748 -177.66313276 357.03482157 -173 355 C-175.77368622 352.17317803 -178.59453848 349.43169429 -181.5234375 346.765625 C-194.0261468 335.36907942 -194.0261468 335.36907942 -198.80078125 328.4765625 C-199.19652344 327.98929687 -199.59226563 327.50203125 -200 327 C-200.66 327 -201.32 327 -202 327 Z M19.6875 367.0625 C14.95174437 372.23879104 11.77820381 377.88793282 11.375 385 C11.76695119 391.56002526 14.2453532 397.35789714 19.0078125 401.92578125 C25.73584734 407.12697424 31.60089886 407.74706109 40 407 C46.98405575 405.07735779 51.55826413 400.28640494 55.0703125 394.12109375 C57.97333794 387.64813163 57.13302546 381.39907637 54.9375 374.8125 C50.60193727 368.51894119 44.86825954 363.86702369 37.375 362.1875 C30.8512982 361.5180903 25.16355409 363.65288142 19.6875 367.0625 Z M-178.375 370.25 C-183.84512023 375.98060214 -186.43261742 381.81266598 -186.26953125 389.7890625 C-185.37340183 397.13992121 -181.62594737 401.94080371 -176.09765625 406.58984375 C-170.35337677 410.45145435 -164.74154878 410.7658702 -158 410 C-151.14950637 407.86283082 -146.26036846 403.49966245 -142.6875 397.3125 C-140.0852959 391.62817711 -139.94712023 386.28964277 -141.84765625 380.3515625 C-144.57120178 374.20281226 -148.08355614 370.21692575 -154 367 C-162.29151213 363.95977888 -171.21355699 364.71449686 -178.375 370.25 Z M-4.6796875 378.609375 C-17.34782948 383.00088686 -29.79958158 386.63388726 -43 389 C-42.51789063 389.71285156 -42.03578125 390.42570312 -41.5390625 391.16015625 C-35.20104234 400.77066437 -32.85847677 408.42361146 -34 420 C-35.03647992 423.81762288 -36.427865 427.37588158 -38 431 C-38.33 431.99 -38.66 432.98 -39 434 C-31.56872877 433.46116126 -24.48786201 432.18447174 -17.25 430.4375 C-16.17540527 430.17864014 -15.10081055 429.91978027 -13.99365234 429.65307617 C-6.3934802 427.75219722 1.00695795 425.47222258 8.375 422.8125 C9.30151367 422.47984131 10.22802734 422.14718262 11.18261719 421.80444336 C16.64474635 419.76963894 16.64474635 419.76963894 21 416 C20.03900391 415.52433594 20.03900391 415.52433594 19.05859375 415.0390625 C10.27025089 410.29781046 5.05311874 404.2199018 2.0625 394.625 C0.68703758 388.76251077 0.7178269 382.98834032 1 377 C-0.95294798 377 -2.86299814 377.96952216 -4.6796875 378.609375 Z M-130 379 C-129.94779297 380.23363281 -129.94779297 380.23363281 -129.89453125 381.4921875 C-129.63443641 392.21800329 -131.09817462 401.47005171 -138 410 C-141.72822791 413.69852091 -145.80100275 416.86044542 -150 420 C-123.16006826 430.07554791 -123.16006826 430.07554791 -95 434 C-95.268125 433.360625 -95.53625 432.72125 -95.8125 432.0625 C-96.204375 431.051875 -96.59625 430.04125 -97 429 C-97.39638672 428.06994141 -97.39638672 428.06994141 -97.80078125 427.12109375 C-101.51589114 417.56040811 -100.98014862 408.12894988 -97.36328125 398.6328125 C-95.5589517 395.14823337 -93.33578294 392.15311329 -91 389 C-91.61294922 388.87471924 -92.22589844 388.74943848 -92.85742188 388.62036133 C-105.46892625 386.02047659 -117.80657841 383.15885932 -130 379 Z M-83.92578125 398.265625 C-88.87408298 405.58769439 -90.03344545 411.09029557 -89 420 C-86.63312 426.49800266 -82.91809713 430.78115403 -76.9296875 434.16015625 C-71.04737554 436.72027178 -64.86169811 436.83652281 -58.8125 434.8125 C-55.01239297 433.20932985 -52.64487258 431.21673692 -50 428 C-49.53335938 427.45730469 -49.06671875 426.91460937 -48.5859375 426.35546875 C-44.75340682 421.27040709 -44.18718279 416.54455233 -44.45703125 410.2578125 C-45.48614191 404.08314855 -48.21198796 399.27346368 -53.07421875 395.30859375 C-63.01314219 388.86023492 -75.77080174 388.67153146 -83.92578125 398.265625 Z " fill="#313132" transform="translate(323,37)"/>
<path d="M0 0 C1.38288208 0.00323273 1.38288208 0.00323273 2.79370117 0.00653076 C17.18629429 0.06039246 31.26926369 0.57145237 45.4375 3.3125 C46.98848389 3.61051514 46.98848389 3.61051514 48.57080078 3.91455078 C97.41558762 13.63110426 141.64040621 36.76851335 177.4375 71.3125 C178.02595703 71.87904297 178.61441406 72.44558594 179.22070312 73.02929688 C186.82768189 80.39220145 194.00487093 87.88038587 200.4375 96.3125 C201.06470947 97.12509277 201.06470947 97.12509277 201.70458984 97.95410156 C225.82448972 129.33373051 242.27485332 165.23038273 250.1875 204 C250.48575684 205.45865479 250.48575684 205.45865479 250.79003906 206.94677734 C253.82276879 222.60721103 254.81724338 237.95540001 254.75 253.875 C254.74784485 254.79658905 254.7456897 255.7181781 254.74346924 256.66769409 C254.49702317 322.49372256 228.68392898 383.73615318 183.4375 431.3125 C182.89963867 431.87904297 182.36177734 432.44558594 181.80761719 433.02929688 C174.07310865 441.1167957 166.04156404 448.38516685 157.07519531 455.08056641 C155.54163397 456.23416667 154.03154901 457.41879119 152.5234375 458.60546875 C143.959496 465.27024416 134.81297739 470.87004143 125.4375 476.3125 C124.7559082 476.70969238 124.07431641 477.10688477 123.37207031 477.51611328 C86.24481255 498.86838745 43.39840917 508.8002388 0.8125 508.625 C-0.11003571 508.62317719 -1.03257141 508.62135437 -1.98306274 508.61947632 C-16.0484967 508.57276146 -29.71961857 507.98040079 -43.5625 505.3125 C-44.46242676 505.15152832 -45.36235352 504.99055664 -46.28955078 504.82470703 C-105.68241496 494.07388602 -162.77021291 460.54111078 -199.5625 412.3125 C-199.98063965 411.77077148 -200.3987793 411.22904297 -200.82958984 410.67089844 C-224.88151405 379.37970482 -241.04404685 343.73778063 -249.3125 305.1875 C-249.61075684 303.81283569 -249.61075684 303.81283569 -249.91503906 302.41040039 C-253.13987227 286.58908105 -253.94335751 270.79501396 -253.875 254.6875 C-253.87284485 253.76807617 -253.8706897 252.84865234 -253.86846924 251.90136719 C-253.81456052 237.52737206 -253.29999511 223.46237362 -250.5625 209.3125 C-250.26448486 207.76151611 -250.26448486 207.76151611 -249.96044922 206.17919922 C-240.24389574 157.33441238 -217.10648665 113.10959379 -182.5625 77.3125 C-181.99595703 76.72404297 -181.42941406 76.13558594 -180.84570312 75.52929688 C-173.48279855 67.92231811 -165.99461413 60.74512907 -157.5625 54.3125 C-157.02077148 53.89436035 -156.47904297 53.4762207 -155.92089844 53.04541016 C-124.54126949 28.92551028 -88.64461727 12.47514668 -49.875 4.5625 C-48.41634521 4.26424316 -48.41634521 4.26424316 -46.92822266 3.95996094 C-31.26778806 0.92723104 -15.91959952 -0.06723654 0 0 Z M-167.5625 79.3125 C-168.16143066 79.88274902 -168.76036133 80.45299805 -169.37744141 81.04052734 C-178.2715794 89.57201404 -186.23210515 98.41040877 -193.5625 108.3125 C-194.63757813 109.72982422 -194.63757813 109.72982422 -195.734375 111.17578125 C-232.92495408 160.97944433 -249.38487578 225.81283191 -240.5625 287.3125 C-234.52610597 326.52411744 -220.45412163 364.36965489 -196.5625 396.3125 C-195.73431502 397.44657078 -194.90618907 398.58068468 -194.078125 399.71484375 C-188.11978184 407.76287653 -181.50498436 415.10745907 -174.5625 422.3125 C-173.97807129 422.92416016 -173.39364258 423.53582031 -172.79150391 424.16601562 C-164.27204424 433.04602735 -155.46798405 441.01549756 -145.5625 448.3125 C-145.00240234 448.73337891 -144.44230469 449.15425781 -143.86523438 449.58789062 C-108.98512902 475.77814274 -67.74534569 491.19981402 -24.5625 496.3125 C-23.4796875 496.44398438 -22.396875 496.57546875 -21.28125 496.7109375 C36.01531742 502.2898138 96.26124808 485.64013854 142.4375 451.3125 C143.29045654 450.69060791 143.29045654 450.69060791 144.16064453 450.05615234 C152.82005067 443.73265547 160.7212417 436.74757262 168.4375 429.3125 C169.35499023 428.43585693 169.35499023 428.43585693 170.29101562 427.54150391 C179.17102735 419.02204424 187.14049756 410.21798405 194.4375 400.3125 C194.85837891 399.75240234 195.27925781 399.19230469 195.71289062 398.61523438 C233.53399841 348.2451876 249.98395209 283.65803824 241.4375 221.3125 C235.51404374 182.13079502 221.2872713 144.19939166 197.4375 112.3125 C196.60931502 111.17842922 195.78118907 110.04431532 194.953125 108.91015625 C188.99478184 100.86212347 182.37998436 93.51754093 175.4375 86.3125 C174.85307129 85.70083984 174.26864258 85.08917969 173.66650391 84.45898438 C165.14704424 75.57897265 156.34298405 67.60950244 146.4375 60.3125 C145.87740234 59.89162109 145.31730469 59.47074219 144.74023438 59.03710938 C69.70062636 2.69249021 -30.32429628 -2.7059768 -167.5625 79.3125 Z " fill="#313132" transform="translate(255.5625,1.6875)"/>
<path d="M0 0 C4.16954609 3.70831312 8.19290889 7.54472315 12.0859375 11.54296875 C12.5809375 11.99285156 13.0759375 12.44273437 13.5859375 12.90625 C31.06836551 29.2150891 42.14385289 53.80459163 48.0859375 76.54296875 C48.53646484 78.22326172 48.53646484 78.22326172 48.99609375 79.9375 C56.8615153 115.45993874 50.01062164 154.66666002 31.0859375 185.54296875 C24.26342725 196.23237939 16.17069401 205.69728478 7.0859375 214.54296875 C6.63605469 215.03796875 6.18617188 215.53296875 5.72265625 216.04296875 C-7.64456197 230.37209597 -26.67231714 240.03661318 -44.9140625 246.54296875 C-45.96851563 246.92195313 -47.02296875 247.3009375 -48.109375 247.69140625 C-71.75961452 255.57481942 -100.73255849 256.85449338 -124.9140625 250.54296875 C-125.59887695 250.3713623 -126.28369141 250.19975586 -126.98925781 250.02294922 C-149.15693689 244.39298261 -168.26205916 233.9527674 -185.9140625 219.54296875 C-187.07228516 218.599375 -187.07228516 218.599375 -188.25390625 217.63671875 C-192.96416826 213.65876235 -196.98644918 209.28558351 -200.9140625 204.54296875 C-201.83638672 203.46982422 -201.83638672 203.46982422 -202.77734375 202.375 C-217.01911188 185.33625135 -226.13306637 165.85411323 -231.9140625 144.54296875 C-232.25695312 143.29128906 -232.59984375 142.03960937 -232.953125 140.75 C-240.78321448 105.44141894 -233.69860258 66.19062737 -214.9140625 35.54296875 C-208.09155225 24.85355811 -199.99881901 15.38865272 -190.9140625 6.54296875 C-190.46417969 6.04796875 -190.01429688 5.55296875 -189.55078125 5.04296875 C-173.24194215 -12.43945926 -148.65243962 -23.51494664 -125.9140625 -29.45703125 C-124.79386719 -29.75738281 -123.67367187 -30.05773437 -122.51953125 -30.3671875 C-79.67681192 -39.85347448 -33.36665883 -28.13355014 0 0 Z M-150.9140625 -7.45703125 C-151.55230957 -7.12687012 -152.19055664 -6.79670898 -152.84814453 -6.45654297 C-162.0401511 -1.65027941 -170.14241169 3.60862781 -177.9140625 10.54296875 C-178.81511719 11.3009375 -179.71617187 12.05890625 -180.64453125 12.83984375 C-192.00720175 22.6479599 -200.55467599 34.5300138 -207.9140625 47.54296875 C-208.71263672 48.95255859 -208.71263672 48.95255859 -209.52734375 50.390625 C-225.65551977 80.68825799 -227.93109354 116.3398302 -218.36206055 148.96484375 C-216.15007364 156.15924052 -213.45034907 162.88787388 -209.9140625 169.54296875 C-209.58535156 170.17541504 -209.25664062 170.80786133 -208.91796875 171.45947266 C-204.10994848 180.65943452 -198.85403562 188.76500568 -191.9140625 196.54296875 C-191.15609375 197.44402344 -190.398125 198.34507812 -189.6171875 199.2734375 C-179.80907135 210.636108 -167.92701745 219.18358224 -154.9140625 226.54296875 C-153.50447266 227.34154297 -153.50447266 227.34154297 -152.06640625 228.15625 C-121.76877326 244.28442602 -86.11720105 246.55999979 -53.4921875 236.9909668 C-46.29779073 234.77897989 -39.56915737 232.07925532 -32.9140625 228.54296875 C-32.28161621 228.21425781 -31.64916992 227.88554687 -30.99755859 227.546875 C-21.79759673 222.73885473 -13.69202557 217.48294187 -5.9140625 210.54296875 C-5.01300781 209.785 -4.11195313 209.02703125 -3.18359375 208.24609375 C8.17907675 198.4379776 16.72655099 186.5559237 24.0859375 173.54296875 C24.88451172 172.13337891 24.88451172 172.13337891 25.69921875 170.6953125 C41.82739477 140.39767951 44.10296854 104.7461073 34.53393555 72.12109375 C32.32194864 64.92669698 29.62222407 58.19806362 26.0859375 51.54296875 C25.75722656 50.91052246 25.42851562 50.27807617 25.08984375 49.62646484 C20.28182348 40.42650298 15.02591062 32.32093182 8.0859375 24.54296875 C7.32796875 23.64191406 6.57 22.74085938 5.7890625 21.8125 C-16.03001957 -3.46483528 -48.90759091 -18.65596012 -81.9140625 -21.45703125 C-105.90895489 -22.78295679 -129.50670734 -18.57675283 -150.9140625 -7.45703125 Z " fill="#313132" transform="translate(347.9140625,145.45703125)"/>
</svg>
