<?xml version="1.0" encoding="UTF-8"?>
<svg version="1.1" xmlns="http://www.w3.org/2000/svg" width="512" height="512">
<path d="M0 0 C0.75144287 -0.00088623 1.50288574 -0.00177246 2.27709961 -0.00268555 C6.59785171 0.06202564 10.20941882 0.51957258 14.3125 2 C18.43200407 3.4854973 20.26591644 2.9859537 24.296875 1.1015625 C32.44667261 -1.51986921 42.95767862 -0.61098362 50.578125 3.05859375 C59.72803706 8.34118687 65.5571271 14.57265474 68.625 24.875 C71.18734177 35.87171678 69.1173977 45.68806149 63.6171875 55.55859375 C60.41896231 62.02707623 60.80796749 70.90711268 62.28125 77.796875 C64.71269876 84.61550304 68.82887402 89.54237326 73.91796875 94.4921875 C77.04866545 97.60285842 79.87405111 100.9677609 82.75 104.3125 C83.73118075 105.44191915 84.71300712 106.5707776 85.6953125 107.69921875 C96.15247683 119.71835122 106.47439189 131.78516806 116.24169922 144.37451172 C117.8527558 146.44452906 119.47451395 148.5058542 121.09765625 150.56640625 C133.26555498 166.05050735 144.71232807 182.00646878 155.75 198.3125 C156.16314453 198.92125977 156.57628906 199.53001953 157.00195312 200.15722656 C200.66148006 264.60865182 236.28658734 334.98208272 261.48925781 408.66357422 C262.64181967 411.99939712 263.82401661 415.32257912 265.01708984 418.64401245 C266.06670759 421.58077036 267.09512688 424.52469287 268.11950684 427.47033691 C268.61277804 428.87714417 269.11351752 430.28136128 269.62268066 431.68249512 C273.64412187 442.78389082 276.64744595 454.62089553 271.625 465.9375 C264.20916735 478.38623846 248.40555462 482.47780268 235.375 486.75 C234.6600235 486.98617035 233.945047 487.2223407 233.20840454 487.46566772 C173.4892793 507.08685355 108.04590185 512.39544515 45.51171875 512.515625 C44.48763224 512.51845238 43.46354572 512.52127975 42.40842628 512.52419281 C36.96490871 512.53905793 31.52141666 512.54836132 26.07788086 512.55273438 C21.69921311 512.55707056 17.32074781 512.57079032 12.94213867 512.59375 C-58.17183002 512.95869936 -131.68834313 509.21330887 -199.75 486.8125 C-200.42960785 486.59115387 -201.1092157 486.36980774 -201.80941772 486.14175415 C-229.30356462 477.11186917 -229.30356462 477.11186917 -235.25 467.3125 C-236.178125 465.8275 -236.178125 465.8275 -237.125 464.3125 C-241.57491411 452.27282568 -236.97034048 439.48496319 -232.875 428.125 C-232.32106688 426.53767231 -231.76901232 424.94968792 -231.21875 423.36108398 C-230.10879469 420.17005345 -228.98522035 416.98437441 -227.84863281 413.80273438 C-226.41916542 409.80005547 -225.02848082 405.78561 -223.6484375 401.765625 C-203.80137291 344.40917173 -176.6859864 289.16136009 -145.25 237.3125 C-144.66299316 236.34376953 -144.07598633 235.37503906 -143.47119141 234.37695312 C-124.65113013 203.42240757 -103.86444365 173.61656482 -81.25 145.3125 C-80.54359375 144.42304688 -79.8371875 143.53359375 -79.109375 142.6171875 C-77.16493316 140.17515227 -75.2105905 137.74158501 -73.25 135.3125 C-72.56679687 134.46558594 -71.88359375 133.61867187 -71.1796875 132.74609375 C-62.34629545 121.87057344 -53.22285431 111.28497091 -43.71875 100.9921875 C-33.01250786 89.3711715 -25.69711764 81.38962928 -25.92578125 64.8203125 C-26.39138591 59.78280662 -28.01384673 55.80089397 -30.25 51.3125 C-34.74465082 41.34610035 -35.53314545 32.63952081 -32.34375 22.08203125 C-28.79416418 13.09397286 -22.68237406 6.90012855 -14.25 2.3125 C-9.50412439 0.32786111 -5.08753037 -0.03467091 0 0 Z M-13.625 25.0625 C-16.01308837 29.83867675 -17.04991276 33.640451 -15.515625 38.765625 C-14.49756645 41.3186026 -13.39658974 43.81485871 -12.25 46.3125 C-10.29404373 50.88520859 -9.14988816 54.91933438 -8.5625 59.875 C-7.6590554 65.17814636 -5.8546319 67.68095543 -1.5703125 70.875 C7.59109743 76.55075564 16.95258613 78.12760047 27.5859375 75.65234375 C30.15249218 74.7402297 32.3904486 73.67016216 34.75 72.3125 C35.50410156 71.88453125 36.25820313 71.4565625 37.03515625 71.015625 C42.13699119 67.42304432 43.33348521 64.08434817 44.4375 58 C44.53587158 57.34338379 44.63424316 56.68676758 44.7355957 56.01025391 C45.37001854 51.83557584 46.35199005 48.57716553 48.375 44.875 C50.78554458 40.46297295 51.75 37.37812302 51.75 32.3125 C49.98300818 26.52069348 47.15489012 22.33973018 41.88671875 19.203125 C37.92680823 17.552559 33.94696917 17.65949724 29.75 18.3125 C27.57780317 19.4459918 25.6819763 20.77245642 23.6796875 22.1796875 C20.38425463 24.11425335 17.42010607 24.24801723 13.75 23.3125 C11.8203125 22.1796875 11.8203125 22.1796875 9.875 20.8125 C1.62329906 15.12223079 -7.39822217 17.85254673 -13.625 25.0625 Z M-10.25 86.3125 C-10.74306641 87.32957031 -10.74306641 87.32957031 -11.24609375 88.3671875 C-15.01498062 95.74154066 -19.54857951 101.35451558 -25.25 107.3125 C-31.90940873 114.58718019 -38.35436249 122.03497002 -44.74462891 129.54541016 C-46.18418965 131.23524808 -47.6286623 132.92075961 -49.07421875 134.60546875 C-55.15718452 141.71576545 -61.00615766 148.9818188 -66.74169922 156.37451172 C-68.3527558 158.44452906 -69.97451395 160.5058542 -71.59765625 162.56640625 C-103.41113928 203.03689159 -131.12683229 246.8734413 -155.25 292.3125 C-155.7538623 293.25706055 -156.25772461 294.20162109 -156.77685547 295.17480469 C-173.63169441 326.82219182 -188.11432799 359.30062043 -201.125 392.6875 C-201.38838165 393.36010864 -201.65176331 394.03271729 -201.92312622 394.72570801 C-202.66048847 396.61428293 -203.38906056 398.50628279 -204.1171875 400.3984375 C-204.73762939 402.0079126 -204.73762939 402.0079126 -205.37060547 403.64990234 C-206.40680728 406.3199316 -206.40680728 406.3199316 -206.25 409.3125 C-205.18523437 409.52003906 -204.12046875 409.72757812 -203.0234375 409.94140625 C-187.8577159 413.08416959 -173.65171428 418.27507748 -164.25 431.3125 C-162.50976562 430.879375 -162.50976562 430.879375 -160.734375 430.4375 C-142.78006355 426.10695708 -126.84561678 425.68371291 -110.29296875 435.30078125 C-101.7586216 440.94287211 -95.92389543 447.21170362 -91.25 456.3125 C-90.53457031 455.85359375 -89.81914062 455.3946875 -89.08203125 454.921875 C-75.06836869 446.29250452 -59.66680367 441.88102151 -43.32299805 445.44140625 C-36.46733439 447.08205029 -30.61861114 449.28793087 -24.58203125 453.04296875 C-22.01532337 454.44025528 -20.17104356 455.12849726 -17.25 455.3125 C-14.94755971 454.27257909 -14.94755971 454.27257909 -12.75 452.625 C-0.92859374 445.01541214 13.9040596 442.59289963 27.6640625 444.99609375 C35.41472521 446.69425697 42.23339697 449.15117299 49.19921875 453.04296875 C51.82027502 454.34747608 53.83130806 455.08432864 56.75 455.3125 C58.69913678 454.50819566 58.69913678 454.50819566 60.4375 453.125 C72.01323132 445.30649479 85.91740615 442.56448332 99.6171875 445 C107.2429184 446.64912557 113.81023353 448.93018982 120.515625 453.04296875 C122.62981018 454.24421033 124.37551751 454.86047696 126.75 455.3125 C127.15089844 454.6834375 127.55179687 454.054375 127.96484375 453.40625 C136.44520597 440.63763206 147.69174679 431.94656864 162.8125 428.375 C175.94281702 426.06383309 187.00390475 428.14013852 199.75 431.3125 C200.31920166 430.61761475 200.31920166 430.61761475 200.89990234 429.90869141 C211.64310937 417.04170995 225.61814442 412.24773408 241.75 409.3125 C234.40694109 364.01555827 202.90083099 312.01183739 180.14013672 272.72998047 C178.54693026 269.95935694 177.00359371 267.16389186 175.46533203 264.36254883 C155.66443485 228.48106554 131.83775035 194.65914259 106.75 162.3125 C106.26789063 161.68859375 105.78578125 161.0646875 105.2890625 160.421875 C99.48787457 152.92199668 93.52129007 145.59672774 87.359375 138.390625 C84.97527908 135.59583811 82.67194485 132.74198955 80.375 129.875 C75.75603658 124.1926781 70.77384297 118.882922 65.76953125 113.54296875 C57.86858522 105.11090763 50.64678679 96.8594254 45.75 86.3125 C45.04875 86.65023437 44.3475 86.98796875 43.625 87.3359375 C42.67625 87.78195313 41.7275 88.22796875 40.75 88.6875 C39.821875 89.12835938 38.89375 89.56921875 37.9375 90.0234375 C31.29314951 92.71049101 25.16699693 93.70219149 18.0625 93.6875 C16.89219238 93.68617065 16.89219238 93.68617065 15.69824219 93.68481445 C6.19976717 93.49301458 -1.86222145 90.6428768 -10.25 86.3125 Z M-213.25 427.3125 C-214.43362802 430.82785723 -215.59378134 434.35054195 -216.75 437.875 C-217.08386719 438.86564453 -217.41773438 439.85628906 -217.76171875 440.87695312 C-220.31786617 448.44165266 -220.31786617 448.44165266 -220.25 456.3125 C-216.53160574 461.60346517 -211.09321443 463.41976878 -205.25 465.625 C-204.24090576 466.00962402 -203.23181152 466.39424805 -202.19213867 466.79052734 C-141.72632318 489.19344523 -73.01858394 494.37598255 -8.984375 494.515625 C-6.99039183 494.52260269 -4.99640889 494.52964367 -3.00242615 494.53674316 C3.33171871 494.55601694 9.66582901 494.56091795 16 494.5625 C17.07648678 494.56308914 18.15297356 494.56367828 19.26208115 494.56428528 C50.05357037 494.57619226 80.75159276 494.55153876 111.42608643 491.54034424 C113.76890137 491.31064685 116.11254603 491.09178396 118.45654297 490.87451172 C157.06849579 487.23906436 196.06229907 481.15493738 232.75 468.3125 C233.61254395 468.01166504 234.47508789 467.71083008 235.36376953 467.40087891 C237.85552705 466.51868629 240.33559568 465.61049257 242.8125 464.6875 C243.5446875 464.42267822 244.276875 464.15785645 245.03125 463.88500977 C249.54077974 462.14118996 252.80882639 460.31433075 255.75 456.3125 C256.84952391 449.90130543 254.27777257 443.8917692 252.25 437.875 C251.91613281 436.85728516 251.58226562 435.83957031 251.23828125 434.79101562 C250.41799202 432.29499267 249.58838507 429.80249091 248.75 427.3125 C237.81288836 427.08503149 229.74322019 428.86567474 220.75 435.3125 C219.88375 435.93125 219.0175 436.55 218.125 437.1875 C215.53479491 439.50505192 213.4252483 442.00152016 211.27734375 444.7265625 C208.75790993 447.3426498 206.65479586 448.21167615 203.05078125 448.61328125 C196.29732913 448.63976538 191.01402739 447.7557306 184.75 445.3125 C174.57067924 442.58146272 164.55030516 444.95218542 155.5 450 C148.95576985 454.20404658 144.78217511 459.6073776 140.6875 466.125 C138.14051955 469.9921431 136.35751931 472.0084851 131.75 473.3125 C123.33599645 474.18031203 118.14488576 472.83678742 111.375 467.8125 C103.34500701 462.01693984 94.00016649 460.60300359 84.1953125 461.5625 C75.88950847 463.17192916 69.48688519 467.42495584 62.75 472.3125 C57.4367511 474.08358297 51.86827757 474.11744548 46.625 472.125 C45.04996654 471.13204413 43.47855164 470.1328907 41.92578125 469.10546875 C31.28378164 462.18503285 20.37393514 460.0832112 7.8515625 462.4453125 C1.66597433 464.17478425 -4.27488231 467.06499261 -9.40625 470.94140625 C-13.78512128 474.1977279 -19.04278154 473.76139814 -24.25 473.3125 C-27.84567655 471.97293423 -30.57963492 470.07770414 -33.625 467.8125 C-41.65499299 462.01693984 -50.99983351 460.60300359 -60.8046875 461.5625 C-69.11049153 463.17192916 -75.51311481 467.42495584 -82.25 472.3125 C-88.11109857 474.26619952 -94.11878313 474.0349464 -99.9375 472.0625 C-104.21613325 469.22026505 -106.52502777 464.54795704 -109.21484375 460.29296875 C-114.6774639 452.29300873 -122.42333463 447.38216806 -131.75 445.0625 C-138.77896694 443.7475572 -143.68522369 444.02661534 -150.4375 446.3125 C-158.11878142 448.81338232 -166.03623573 450.18528412 -173.625 446.8125 C-175.78259451 444.75764809 -177.6029062 442.71925799 -179.5 440.4375 C-185.49980215 433.35641482 -194.07443457 428.76529786 -203.25 427.3125 C-206.58566772 427.22397651 -209.91407844 427.24691513 -213.25 427.3125 Z " fill="#313132" transform="translate(238.25,-0.3125)"/>
<path d="M0 0 C6.92081805 2.24019246 11.18850132 9.30662666 15.28515625 14.88671875 C15.94257813 15.77528564 16.6 16.66385254 17.27734375 17.5793457 C33.33735963 39.44983487 47.38392398 62.77324019 60.16015625 86.69921875 C60.68432129 87.68051758 61.20848633 88.66181641 61.74853516 89.67285156 C75.75490003 116.02414768 87.94596847 143.06416521 99.16015625 170.69921875 C99.56962494 171.70378113 99.56962494 171.70378113 99.98736572 172.7286377 C101.61397887 176.72311147 103.21760646 180.72555735 104.7897644 184.74179077 C105.51513112 186.58581106 106.25649426 188.4235138 106.99829102 190.26098633 C109.42150652 196.5544838 111.04176956 201.09814909 109.16015625 207.69921875 C105.88016788 210.90111215 104.12095087 211.68265333 99.53515625 211.76171875 C95.39719388 210.45902689 94.58092304 209.24711977 92.16015625 205.69921875 C91.00115366 203.14325751 89.96000073 200.64476305 88.98046875 198.0234375 C88.69146698 197.27424042 88.40246521 196.52504333 88.10470581 195.75314331 C87.48288234 194.14103673 86.86459386 192.527563 86.24951172 190.91287231 C84.60118596 186.59504127 82.91678277 182.29139202 81.23046875 177.98828125 C80.8887262 177.1158931 80.54698364 176.24350494 80.19488525 175.34468079 C67.69239222 143.57217297 53.08266204 112.35543605 36.16015625 82.69921875 C35.65838867 81.81540527 35.15662109 80.9315918 34.63964844 80.02099609 C22.26730466 58.33626124 8.84122293 36.40396415 -7.6015625 17.51953125 C-10.12250305 14.34305817 -10.84426324 12.59927525 -11.09375 8.66796875 C-10.30686441 2.56657893 -5.97253323 0.03679179 0 0 Z " fill="#313132" transform="translate(325.83984375,178.30078125)"/>
<path d="M0 0 C3.92541039 3.20441664 4.83285283 4.61506627 5.4375 9.625 C4.3495557 14.97405949 0.43162659 18.59255366 -3.06640625 22.56640625 C-19.44197948 41.34934741 -32.00029597 64.28696613 -44 86 C-44.55155762 86.99483398 -45.10311523 87.98966797 -45.67138672 89.01464844 C-62.38744437 119.27802165 -77.17569605 150.60716115 -89.44140625 182.9453125 C-89.71366531 183.66126587 -89.98592438 184.37721924 -90.26643372 185.11486816 C-91.55265076 188.50783888 -92.81981853 191.90618461 -94.05688477 195.31738281 C-94.50475342 196.51975586 -94.95262207 197.72212891 -95.4140625 198.9609375 C-95.7951416 200.01071777 -96.1762207 201.06049805 -96.56884766 202.14208984 C-98.4673558 205.93327653 -100.93196287 209.29890408 -105.0625 210.69921875 C-109.2571013 210.67384818 -110.67326148 210.26672532 -114.0625 207.5 C-116.22207298 204.37740473 -116.14132151 202.12027325 -115.55053711 198.36962891 C-114.4322222 193.55616347 -112.57147854 189.02098199 -110.75 184.4375 C-110.30672363 183.30763672 -109.86344727 182.17777344 -109.40673828 181.01367188 C-107.9536225 177.33598982 -106.48112856 173.66645707 -105 170 C-104.50918945 168.78199707 -104.01837891 167.56399414 -103.51269531 166.30908203 C-87.35765843 126.37957744 -68.47537913 87.76122916 -46 51 C-45.45069824 50.09749512 -44.90139648 49.19499023 -44.33544922 48.26513672 C-13.25586971 -2.60563851 -13.25586971 -2.60563851 0 0 Z " fill="#313132" transform="translate(192,179)"/>
<path d="M0 0 C5.41119905 5.26544285 8.29266172 12.07332279 11.5 18.8125 C11.80202332 19.44225739 12.10404663 20.07201477 12.41522217 20.72085571 C19.78767907 36.14779766 26.05025972 51.97867494 32 68 C32.2548114 68.68535828 32.5096228 69.37071655 32.77215576 70.07684326 C47.95226167 111.02093874 60.16795486 153.02467213 70.3125 195.48828125 C70.56078552 196.51603165 70.56078552 196.51603165 70.81408691 197.56454468 C71.99322781 202.58869308 72.69515692 206.87321771 72 212 C69.87458538 215.40066339 68.4307695 215.88251741 64.5625 216.9375 C60.44567674 217.00972497 59.02766868 216.77536295 56 214 C53.69939373 208.51629657 52.14548092 203.02531784 50.79296875 197.24609375 C50.37513853 195.51081565 49.95656507 193.7757164 49.53735352 192.04077148 C49.31846466 191.12979706 49.09957581 190.21882263 48.87405396 189.28024292 C35.28355325 133.00746293 18.65554023 73.60811133 -8.50390625 22.16796875 C-8.88522705 21.44319336 -9.26654785 20.71841797 -9.65942383 19.97167969 C-10.35397498 18.6761793 -11.06688625 17.39023782 -11.8034668 16.11816406 C-14.42994081 11.27713091 -14.1151872 8.21156792 -13 3 C-9.65702812 -1.71055129 -5.20487938 -1.34608949 0 0 Z " fill="#313132" transform="translate(295,194)"/>
<path d="M0 0 C3.875 0.9375 3.875 0.9375 5.8125 2 C7.56200279 5.1902698 8.0200058 8.35444111 7.875 11.9375 C6.75261747 15.28204171 5.03786895 18.24421017 3.3125 21.3125 C-26.22855352 77.20852404 -44.86185472 142.36219655 -58.33935547 203.84887695 C-60.61291264 213.96371708 -60.61291264 213.96371708 -64.875 217.3125 C-68.26612087 218.25447802 -70.73491203 217.78502199 -74.125 216.9375 C-76.5625 215.4375 -76.5625 215.4375 -78.125 212.9375 C-78.90834248 206.49732604 -77.57632519 200.41821494 -75.9921875 194.2109375 C-75.76411407 193.28618118 -75.53604065 192.36142487 -75.30105591 191.40864563 C-74.54687823 188.37321041 -73.77495536 185.34269285 -73 182.3125 C-72.73445312 181.26260895 -72.46890625 180.2127179 -72.1953125 179.13101196 C-58.17879381 123.81738646 -41.17423369 68.36307911 -16.125 16.9375 C-15.59519531 15.84695312 -15.59519531 15.84695312 -15.0546875 14.734375 C-7.19734635 -1.22778261 -7.19734635 -1.22778261 0 0 Z " fill="#313132" transform="translate(223.125,193.0625)"/>
<path d="M0 0 C2.25976542 1.61411816 2.76855259 2.63016712 3.75 5.25 C3.94384765 7.95205004 4.02844653 10.55053748 4.01742554 13.25218201 C4.02195665 14.0646988 4.02648776 14.87721559 4.03115618 15.7143541 C4.04382932 18.440405 4.04217795 21.16625686 4.04052734 23.89233398 C4.04651071 25.84538022 4.05331582 27.7984241 4.06088257 29.75146484 C4.07856774 35.05925828 4.08323897 40.36698726 4.08451414 45.67480731 C4.08641204 50.10339862 4.0937682 54.53197486 4.10085833 58.96056038 C4.11714892 69.40673876 4.12202661 79.85288265 4.12060547 90.29907227 C4.11940337 101.0816225 4.14051735 111.86397278 4.1720928 122.64647239 C4.19822481 131.89921813 4.20897408 141.15189842 4.20769465 150.40468079 C4.20718418 155.93306603 4.21291466 161.46127357 4.23405075 166.98962212 C4.2533817 172.18777606 4.25359286 177.38558181 4.23901749 182.58374786 C4.236922 184.49253662 4.24167414 186.40134687 4.2537384 188.31009865 C4.26913224 190.9140893 4.25992216 193.5168705 4.24447632 196.12083435 C4.25476344 196.87784038 4.26505057 197.6348464 4.27564943 198.414792 C4.22810716 202.03662251 3.84256761 204.10220342 1.90268898 207.1994791 C-0.84729162 209.81894376 -2.47933063 210.17304756 -6.25 210.25 C-9.12814223 209.51373106 -10.7482665 208.73945648 -12.87114239 206.6685257 C-14.81565509 203.2578371 -14.66128973 200.0609327 -14.6242218 196.24108887 C-14.62819621 195.42786651 -14.63217061 194.61464416 -14.63626546 193.7767787 C-14.64589989 191.04827427 -14.63406349 188.32028686 -14.62231445 185.59179688 C-14.62474204 183.63712877 -14.62846104 181.6824619 -14.63337708 179.72779846 C-14.64279421 174.41588657 -14.63335367 169.10415867 -14.62004495 163.79226112 C-14.60874163 158.23809399 -14.61283709 152.68393607 -14.61479187 147.12976074 C-14.6156752 137.80180856 -14.6045863 128.47392899 -14.58618164 119.14599609 C-14.56501345 108.35552701 -14.56150392 97.56516434 -14.5677436 86.77467871 C-14.57343478 76.40242957 -14.56779449 66.03021797 -14.55657005 55.65797424 C-14.55192081 51.24019172 -14.55105163 46.82243213 -14.5531559 42.40464783 C-14.55503709 37.20410226 -14.54694789 32.00366527 -14.5310955 26.80314445 C-14.52684655 24.89233283 -14.52600619 22.9815102 -14.52878571 21.07069588 C-14.53199941 18.46664777 -14.52294617 15.86292571 -14.51069641 13.25891113 C-14.51447573 12.49899227 -14.51825506 11.7390734 -14.52214891 10.95612669 C-14.4912072 7.24932905 -14.39978501 4.35263437 -12.25 1.25 C-8.4667835 -1.4522975 -4.33054333 -1.44351444 0 0 Z " fill="#313132" transform="translate(261.25,208.75)"/>
</svg>
