<?xml version="1.0" encoding="UTF-8"?>
<svg version="1.1" xmlns="http://www.w3.org/2000/svg" width="512" height="512">
<path d="M0 0 C2.5 1.9375 2.5 1.9375 5 5 C5.54785156 5.57363281 6.09570312 6.14726563 6.66015625 6.73828125 C18.3707365 19.12215975 27.2452661 33.91544913 35 49 C35.36609375 49.7115625 35.7321875 50.423125 36.109375 51.15625 C46.17971808 71.00504216 52.09155133 91.81172692 54 114 C57.12627199 114 58.4864532 112.01613427 60.8125 110 C90.19279629 85.6181697 135.88243439 69.95798756 174 72 C176.8100346 73.79363911 178.50940468 75.01880935 180 78 C180.12422214 99.14260753 175.44860854 119.97515422 169 140 C168.78150391 140.69077637 168.56300781 141.38155273 168.33789062 142.09326172 C162.69503942 159.56439718 153.87366701 176.96968735 142 191 C141.45085937 191.67417969 140.90171875 192.34835938 140.3359375 193.04296875 C139.24264968 194.37751282 138.12572745 195.69270361 137 197 C139.1570778 198.0785389 140.66397995 198.27608406 143.05078125 198.54296875 C162.94695847 200.95036963 181.02551322 206.1332603 199 215 C199.78117187 215.38172363 200.56234375 215.76344727 201.3671875 216.15673828 C217.28612267 224.00995084 231.49032215 233.50289402 245 245 C246.20764597 245.98001429 247.41584937 246.95934277 248.625 247.9375 C251.85793597 250.74504966 251.94672242 251.45834457 252.375 255.8125 C252.31067516 259.06967593 252.14551965 259.81223271 250.0625 262.5 C248.5465625 263.7375 248.5465625 263.7375 247 265 C246.42636719 265.54785156 245.85273438 266.09570312 245.26171875 266.66015625 C232.86898802 278.37910745 218.07936121 287.21613275 203 295 C202.30970703 295.36077637 201.61941406 295.72155273 200.90820312 296.09326172 C181.37969922 306.18795308 159.9562672 312.46939483 138 314 C138 317.09862669 139.92533723 318.38641129 141.9375 320.6875 C147.47029304 327.34766466 151.79290167 334.44933554 156 342 C156.3388623 342.59312988 156.67772461 343.18625977 157.02685547 343.79736328 C171.36015394 369.14120924 181.64042404 404.57079273 180 434 C178.20636089 436.8100346 176.98119065 438.50940468 174 440 C133.43495322 440.23833753 88.98247688 425.84107722 57.890625 399.43359375 C56.12983889 397.7985979 56.12983889 397.7985979 54 398 C53.91081299 398.84256348 53.91081299 398.84256348 53.81982422 399.70214844 C49.41038273 439.7363041 32.10552246 473.95898661 7 505 C6.29617188 505.91523438 5.59234375 506.83046875 4.8671875 507.7734375 C2.0627614 511.11762762 0.50888164 511.95075339 -3.875 512.375 C-6.84175508 512.50297767 -7.92905134 512.0476775 -10.44140625 510.359375 C-13.28574153 507.73650704 -15.70527882 504.92846521 -18.0625 501.875 C-18.53437744 501.26519287 -19.00625488 500.65538574 -19.49243164 500.02709961 C-43.15044573 469.02144107 -57.44360174 435.56306258 -63 397 C-63.6084375 397.53367187 -64.216875 398.06734375 -64.84375 398.6171875 C-95.40134525 424.59114346 -141.61842277 442.03146585 -182 440 C-184.75329021 438.20437595 -186.52627461 436.94745078 -188 434 C-189.05746139 402.4005656 -178.90685573 369.56934255 -164 342 C-163.43539062 340.94296875 -162.87078125 339.8859375 -162.2890625 338.796875 C-157.57756667 330.34715009 -151.87105542 321.87105542 -145 315 C-146.5387269 313.4612731 -148.13783493 313.65833232 -150.27734375 313.421875 C-189.25457409 308.81983702 -222.823948 291.62946914 -253 267 C-253.56058105 266.54963379 -254.12116211 266.09926758 -254.69873047 265.63525391 C-258.88400132 262.23199737 -258.88400132 262.23199737 -260 260 C-260.58419603 252.87280839 -260.58419603 252.87280839 -258.36328125 249.5546875 C-255.73662661 246.71529555 -252.92727575 244.29484963 -249.875 241.9375 C-248.96790283 241.23294678 -248.96790283 241.23294678 -248.04248047 240.51416016 C-240.3069937 234.59579961 -232.23150429 229.20000449 -224 224 C-223.35369629 223.59007812 -222.70739258 223.18015625 -222.04150391 222.7578125 C-200.63192762 209.39994025 -175.91042266 201.10190829 -150.87109375 198.359375 C-147.93453677 198.08704111 -147.93453677 198.08704111 -145 197 C-145.58394531 196.39478516 -145.58394531 196.39478516 -146.1796875 195.77734375 C-173.80454685 165.79736967 -187.41725248 120.07719574 -188.23046875 80.0078125 C-187.9489828 77.55554504 -187.36583027 76.05951694 -186 74 C-182.35648338 71.13850646 -178.00328193 71.85054588 -173.625 72.125 C-172.79137939 72.17503174 -171.95775879 72.22506348 -171.09887695 72.27661133 C-133.70395561 74.948915 -90.16043071 87.83956929 -63 115 C-62.87044922 114.10087891 -62.87044922 114.10087891 -62.73828125 113.18359375 C-58.97333483 88.90141636 -52.67890574 66.66736839 -41 45 C-40.38511719 43.84242187 -39.77023438 42.68484375 -39.13671875 41.4921875 C-14.95357279 -2.46806541 -14.95357279 -2.46806541 0 0 Z M-5 21 C-6.72816933 23.04407125 -8.31012798 25.08432646 -9.875 27.25 C-10.35751221 27.91604248 -10.84002441 28.58208496 -11.3371582 29.26831055 C-21.29606902 43.26587277 -29.72160527 57.99973216 -36 74 C-36.24830566 74.63180176 -36.49661133 75.26360352 -36.75244141 75.91455078 C-42.49024982 90.89329249 -45.33045095 106.23374995 -45.625 122.25 C-45.66020752 123.27778564 -45.69541504 124.30557129 -45.73168945 125.36450195 C-45.71607612 134.77042254 -42.57644571 142.4908443 -39 151 C-38.29891261 152.70767119 -37.59909854 154.41586556 -36.90039062 156.12451172 C-35.00010301 160.75076484 -33.07151312 165.36460775 -31.1315918 169.97436523 C-29.93244419 172.82451671 -28.73834855 175.67674582 -27.54492188 178.52929688 C-23.82081512 187.4136493 -20.06165741 196.26375901 -16 205 C-8.08 205 -0.16 205 8 205 C13.15424384 194.13747309 17.775504 183.08642745 22.35058594 171.97021484 C23.62578178 168.87310126 24.90634599 165.77824672 26.1875 162.68359375 C27.01334119 160.68242384 27.83887263 158.68112607 28.6640625 156.6796875 C29.04019684 155.7710495 29.41633118 154.8624115 29.80386353 153.92623901 C35.27551649 141.82354569 35.27551649 141.82354569 37.53125 128.94140625 C37.53938721 127.90604736 37.54752441 126.87068848 37.5559082 125.80395508 C37.5374585 124.7342749 37.51900879 123.66459473 37.5 122.5625 C37.48864014 121.43158936 37.47728027 120.30067871 37.46557617 119.13549805 C37.22950843 108.76678895 35.72064359 98.99295993 33 89 C32.73509766 88.01845947 32.73509766 88.01845947 32.46484375 87.01708984 C26.2623223 64.9005064 14.81932194 44.33912821 0.77734375 26.28515625 C-0.55209252 24.57588105 -1.79884383 22.80173426 -3 21 C-3.66 21 -4.32 21 -5 21 Z M-170 90 C-171.25560498 123.27353207 -154.06634319 160.26424097 -133.0625 185.375 C-132.62131836 185.90955811 -132.18013672 186.44411621 -131.72558594 186.99487305 C-130.21511831 188.73897608 -128.63426575 190.37111381 -127 192 C-126.33846924 192.68022217 -125.67693848 193.36044434 -124.99536133 194.0612793 C-115.75296001 202.59193424 -104.07403062 206.4626326 -92.5625 211.0625 C-90.46868832 211.91557045 -88.37558359 212.77037824 -86.28320312 213.62695312 C-80.19919367 216.11079431 -74.10149199 218.55947818 -68 221 C-66.00241701 221.80055761 -64.00485797 222.601175 -62.00732422 223.40185547 C-57.33967534 225.27157187 -52.67037709 227.13710955 -48 229 C-47.53440674 228.37061523 -47.06881348 227.74123047 -46.58911133 227.09277344 C-43.26346176 222.62711185 -39.93166757 218.76782783 -35.578125 215.2890625 C-33.94025003 213.95119433 -32.48482163 212.50396393 -31 211 C-31.4218457 210.00073486 -31.84369141 209.00146973 -32.27832031 207.97192383 C-33.54629841 204.96793737 -34.81303256 201.96342888 -36.0793457 198.95874023 C-37.53518724 195.5048814 -38.99520154 192.05282448 -40.45776367 188.60180664 C-43.84550291 180.59395379 -47.20164677 172.5828737 -50.34765625 164.4765625 C-57.50521241 146.02385138 -57.50521241 146.02385138 -70 131 C-70.47985352 130.54109375 -70.95970703 130.0821875 -71.45410156 129.609375 C-94.36295163 107.76570395 -134.20650709 89.38287081 -166.375 89.9375 C-168.169375 89.9684375 -168.169375 89.9684375 -170 90 Z M144.1875 91.625 C142.81924072 91.89014404 142.81924072 91.89014404 141.42333984 92.16064453 C110.6420882 98.41050986 79.81515537 111.82255113 58 135 C57.2114563 135.8031665 57.2114563 135.8031665 56.40698242 136.62255859 C49.41667919 144.56540207 46.10421674 154.82625974 42.1875 164.5 C41.39255652 166.43446034 40.59648986 168.3684595 39.79931641 170.30200195 C37.51320612 175.86009004 35.25290486 181.42838427 33 187 C32.53711578 188.14248199 32.53711578 188.14248199 32.06488037 189.30804443 C29.00621202 196.85740479 25.97362511 204.4166819 23 212 C23.60908203 212.46108154 24.21816406 212.92216309 24.84570312 213.3972168 C25.64943359 214.01250244 26.45316406 214.62778809 27.28125 215.26171875 C28.47331055 216.16990356 28.47331055 216.16990356 29.68945312 217.09643555 C33.39376878 220.14826873 36.83851802 223.67703604 39 228 C44.80085928 227.38976035 49.72938447 225.23458992 55.05078125 222.9921875 C56.50909615 222.38662521 56.50909615 222.38662521 57.99687195 221.76882935 C61.10459055 220.47681716 64.20858519 219.17612016 67.3125 217.875 C70.36819646 216.6014905 73.42461891 215.32973492 76.4810791 214.05805969 C78.48082328 213.22458604 80.47961016 212.38881172 82.47741699 211.55070496 C86.97377339 209.66544027 91.4738279 207.80011594 96.01171875 206.0168457 C106.43015025 201.99104643 106.43015025 201.99104643 115.375 195.4375 C115.93477539 194.92993164 116.49455078 194.42236328 117.07128906 193.89941406 C123.1563913 188.20868457 128.24286679 181.81831715 133 175 C133.64146973 174.08806885 133.64146973 174.08806885 134.29589844 173.15771484 C147.93941468 153.43606892 155.56061822 130.5762325 160.375 107.25 C160.54298096 106.44038818 160.71096191 105.63077637 160.8840332 104.79663086 C161.85161762 99.77888755 162.15164559 95.10928997 162 90 C155.84821528 89.81551741 150.22125311 90.44897735 144.1875 91.625 Z M-232.4375 249.9375 C-233.09500244 250.41034424 -233.75250488 250.88318848 -234.42993164 251.37036133 C-235.99347777 252.52783526 -237.50292608 253.75774717 -239 255 C-239 255.66 -239 256.32 -239 257 C-237.55513121 258.36651156 -237.55513121 258.36651156 -235.625 259.72265625 C-234.89506836 260.25681152 -234.16513672 260.7909668 -233.41308594 261.34130859 C-232.61676758 261.90930176 -231.82044922 262.47729492 -231 263.0625 C-230.18563477 263.64596191 -229.37126953 264.22942383 -228.53222656 264.83056641 C-221.55966767 269.74815499 -214.39087911 274.07154473 -206.83789062 278.02978516 C-205.12271536 278.93521907 -203.42759578 279.87836456 -201.734375 280.82421875 C-182.06916025 291.39308416 -160.22783331 297.0659309 -138 297.5625 C-136.95602051 297.60181641 -135.91204102 297.64113281 -134.83642578 297.68164062 C-125.3186528 297.71115768 -117.60117408 294.62521565 -109 291 C-107.29275307 290.29859122 -105.58487911 289.59870719 -103.87646484 288.90014648 C-99.24978502 287.00016714 -94.6356479 285.0716207 -90.02563477 283.1315918 C-87.17548329 281.93244419 -84.32325418 280.73834855 -81.47070312 279.54492188 C-72.5863507 275.82081512 -63.73624099 272.06165741 -55 268 C-55 260.08 -55 252.16 -55 244 C-65.86252691 238.84575616 -76.91357255 234.224496 -88.02978516 229.64941406 C-91.12689874 228.37421822 -94.22175328 227.09365401 -97.31640625 225.8125 C-99.31757616 224.98665881 -101.31887393 224.16112737 -103.3203125 223.3359375 C-104.2289505 222.95980316 -105.1375885 222.58366882 -106.07376099 222.19613647 C-118.23310203 216.72437141 -118.23310203 216.72437141 -131.171875 214.43359375 C-132.23672119 214.42013916 -133.30156738 214.40668457 -134.39868164 214.39282227 C-135.5046167 214.40756592 -136.61055176 214.42230957 -137.75 214.4375 C-138.92232178 214.44773193 -140.09464355 214.45796387 -141.30249023 214.46850586 C-174.61651586 215.26260749 -205.86461253 230.7085762 -232.4375 249.9375 Z M101 221 C99.55551234 221.59246492 98.110104 222.18268975 96.66381836 222.77075195 C92.15934923 224.60967292 87.67289528 226.49013659 83.1875 228.375 C81.601989 229.0387341 80.0163762 229.70222509 78.43066406 230.36547852 C73.95213721 232.23975834 69.47581792 234.11926236 65 236 C63.2677417 236.72727295 63.2677417 236.72727295 61.50048828 237.46923828 C56.33110165 239.64013313 51.16380082 241.81585182 46 244 C46.16242188 245.051875 46.32484375 246.10375 46.4921875 247.1875 C46.89239105 250.1921051 47.13493207 252.98065182 47.125 256 C47.12757813 256.78375 47.13015625 257.5675 47.1328125 258.375 C46.96858168 261.62097376 46.47371376 264.78608502 46 268 C72.35907255 279.13120081 72.35907255 279.13120081 98.76016235 290.16223145 C100.59501074 290.92503257 102.42874094 291.69052159 104.26245117 292.45605469 C105.91531128 293.14103027 105.91531128 293.14103027 107.6015625 293.83984375 C109.02976318 294.43333618 109.02976318 294.43333618 110.48681641 295.03881836 C133.20973713 303.72933117 163.9543936 294.38361097 185.20410156 285.02978516 C189.89717504 282.85867018 194.45801897 280.4687031 199 278 C199.59474121 277.68450195 200.18948242 277.36900391 200.80224609 277.04394531 C209.39751145 272.47275155 217.16200638 267.17273921 224.91796875 261.3203125 C226.90466164 259.82462736 228.93088268 258.37941155 231 257 C229.56574163 252.6972249 226.3401916 251.05326058 222.75 248.5625 C221.99638184 248.0375293 221.24276367 247.51255859 220.46630859 246.97167969 C193.45894805 228.48977288 163.71405083 215.12112578 130.5625 214.5625 C129.48806641 214.51673828 128.41363281 214.47097656 127.30664062 214.42382812 C117.56093921 214.29127275 109.78975123 217.27049591 101 221 Z M-32 234 C-38.92962638 242.9419769 -39.87525179 251.88316559 -39 263 C-37.18183412 272.5911301 -31.58099961 280.08962856 -23.625 285.6640625 C-14.38974263 290.99929564 -4.67034135 292.84928778 5.8515625 290.3125 C16.79982229 286.24503506 24.44111511 278.89832092 29.375 268.375 C32.3160247 260.34278967 32.28344387 251.49288384 29.25 243.5 C24.86446782 234.18264097 18.55679242 226.56895002 8.875 222.5 C-7.43425205 217.37619571 -20.72867799 221.84779315 -32 234 Z M40 283 C39.38640625 283.78616699 38.7728125 284.57233398 38.140625 285.38232422 C33.51101737 291.314009 29.16431163 295.6693034 23 300 C25.42952599 306.19576031 27.89926049 312.37471797 30.39607239 318.54367065 C31.96476436 322.42229789 33.52035977 326.30574988 35.06298828 330.19482422 C36.94487238 334.93454053 38.85445875 339.66244835 40.77813721 344.38534546 C41.54281334 346.27477384 42.29900035 348.16766314 43.04608154 350.06411743 C47.79944658 362.10825131 52.80585227 371.79608543 62 381 C62.93138794 381.93755127 62.93138794 381.93755127 63.8815918 382.89404297 C86.35688919 404.24713893 127.08144996 422.60204397 158.375 422.0625 C160.169375 422.0315625 160.169375 422.0315625 162 422 C163.31204685 387.23075836 144.89090792 350.43837585 123.2265625 324.29296875 C122.16650586 323.18037079 121.08844647 322.08484035 120 321 C119.27458008 320.25588867 118.54916016 319.51177734 117.80175781 318.74511719 C108.19806851 309.80519688 96.54649836 305.65925464 84.5 300.875 C82.41064957 300.02672892 80.32210156 299.17647861 78.234375 298.32421875 C73.15548053 296.25699759 68.06704457 294.21486944 62.97314453 292.18493652 C59.98474662 290.99392082 56.99800224 289.79884551 54.01171875 288.60253906 C49.34225807 286.73223244 44.67153871 284.86510988 40 283 Z M-49 283 C-50.96398546 283.82110816 -52.92795755 284.64224832 -54.89187622 285.46351624 C-56.65210242 286.19951749 -58.41242004 286.93530014 -60.17282104 287.67088318 C-65.05979308 289.71366232 -69.94444796 291.76172477 -74.82519531 293.81933594 C-91.8748576 300.99916384 -91.8748576 300.99916384 -100.1171875 304.15234375 C-113.52372969 309.34653625 -123.70179128 314.87055004 -133 326 C-133.50515137 326.60360352 -134.01030273 327.20720703 -134.53076172 327.82910156 C-154.97720411 352.89850793 -170.64628796 389.32655337 -170 422 C-145.89375648 422.90966957 -118.72468252 412.80643944 -98 401 C-97.41686035 400.67 -96.8337207 400.34 -96.23291016 400 C-88.60418029 395.62730513 -81.71194499 390.66283103 -75 385 C-74.38769531 384.52175781 -73.77539062 384.04351562 -73.14453125 383.55078125 C-61.1689277 373.98674089 -56.01473599 362.18210219 -50.5625 348.3125 C-49.82486422 346.47621866 -49.08534907 344.64069118 -48.34399414 342.8059082 C-46.88699903 339.19569467 -45.43891614 335.58210827 -43.99707031 331.96582031 C-42.27446549 327.66105574 -40.49890747 323.38191747 -38.6796875 319.1171875 C-38.20716553 318.00690186 -37.73464355 316.89661621 -37.24780273 315.75268555 C-36.39946908 313.76818228 -35.54764262 311.78516696 -34.69165039 309.80395508 C-34.3280542 308.94439209 -33.96445801 308.0848291 -33.58984375 307.19921875 C-33.27909912 306.47565186 -32.96835449 305.75208496 -32.64819336 305.0065918 C-31.79507215 302.71705931 -31.79507215 302.71705931 -32 299 C-33.54396472 297.45039415 -33.54396472 297.45039415 -35.625 296.1875 C-39.23329122 293.67127568 -41.9302525 291.03535863 -44.67578125 287.61328125 C-46.02804476 285.96583337 -47.48428239 284.4963958 -49 283 Z M-16 306 C-27.13120081 332.35907255 -27.13120081 332.35907255 -38.16223145 358.76016235 C-38.92503257 360.59501074 -39.69052159 362.42874094 -40.45605469 364.26245117 C-40.91270508 365.36435791 -41.36935547 366.46626465 -41.83984375 367.6015625 C-42.43333618 369.02976318 -42.43333618 369.02976318 -43.03881836 370.48681641 C-51.99091667 393.89369981 -41.96454467 425.51664148 -32.28491211 447.38842773 C-26.20584605 460.58899071 -18.44486436 472.86644059 -9.9375 484.625 C-9.47239014 485.27098145 -9.00728027 485.91696289 -8.52807617 486.58251953 C-7.40481798 488.09565001 -6.20893086 489.55440013 -5 491 C-4.34 491 -3.68 491 -3 491 C-1.63348844 489.55513121 -1.63348844 489.55513121 -0.27734375 487.625 C0.25665039 486.89547119 0.79064453 486.16594238 1.34082031 485.41430664 C2.19305176 484.21922485 2.19305176 484.21922485 3.0625 483 C3.64741211 482.18200928 4.23232422 481.36401855 4.83496094 480.52124023 C10.15352491 472.96908384 14.79222221 465.21655199 19 457 C19.38140137 456.26168945 19.76280273 455.52337891 20.15576172 454.76269531 C26.06238063 443.20277228 30.6613262 431.54784902 34 419 C34.3403125 417.73414063 34.680625 416.46828125 35.03125 415.1640625 C36.92140639 406.81587176 37.3821864 398.53791045 37.5625 390 C37.62123291 388.43463501 37.62123291 388.43463501 37.68115234 386.83764648 C37.71218681 377.30341567 34.62663079 369.61543352 31 361 C30.22534785 359.11501942 29.45224772 357.22940052 28.68041992 355.34326172 C26.08689331 349.02907618 23.4511663 342.73292317 20.8125 336.4375 C19.90143399 334.25726955 18.99062507 332.07693165 18.08007812 329.89648438 C13.08316658 317.92998977 13.08316658 317.92998977 8 306 C7.05125 306.165 6.1025 306.33 5.125 306.5 C-2.03623326 307.51474965 -8.87079798 307.05080598 -16 306 Z " fill="#313132" transform="translate(260,0)"/>
</svg>
