<?xml version="1.0" encoding="UTF-8"?>
<svg version="1.1" xmlns="http://www.w3.org/2000/svg" width="512" height="512">
<path d="M0 0 C1.15628906 -0.05994141 1.15628906 -0.05994141 2.3359375 -0.12109375 C5.82857488 0.73120513 6.73160278 2.43203633 8.625 5.4375 C8.96027114 8.33684824 9.07012612 10.83546106 8.98046875 13.72167969 C8.97153091 14.54366348 8.96259308 15.36564728 8.9533844 16.21253967 C8.93261524 17.99467037 8.90327502 19.77671731 8.86633301 21.55858612 C8.81181168 24.39518661 8.78924443 27.2303652 8.77636719 30.06744385 C8.7372999 38.13228649 8.66777774 46.19577302 8.51220703 54.25927734 C8.41918911 59.19988728 8.38645768 64.13800358 8.39004517 69.07944489 C8.38016093 70.94683889 8.34857569 72.81426802 8.29330444 74.68087006 C7.85981774 89.70691981 11.92107006 98.10088721 21.625 109.4375 C22.3166626 110.30904724 23.0083252 111.18059448 23.72094727 112.07855225 C32.13624163 122.65343177 44.60844376 130.93505314 57.625 134.4375 C58.429375 134.664375 59.23375 134.89125 60.0625 135.125 C74.00004696 136.82470085 86.26234995 132.52864155 97.625 124.4375 C107.54094038 116.61790257 122.6208508 103.29001179 124.99308968 90.44428635 C125.1322671 88.2296538 125.15132629 86.04646596 125.12329102 83.82763672 C125.12880981 82.99583893 125.13432861 82.16404114 125.14001465 81.30703735 C125.14929586 79.51250436 125.14947206 77.71790548 125.14142036 75.92336655 C125.12874702 73.08148191 125.14011844 70.24056225 125.15745544 67.39871216 C125.18410621 62.39306912 125.18975279 57.38766432 125.18835449 52.38195801 C125.18612227 44.36349202 125.20024146 36.34531987 125.24394035 28.32696915 C125.25377337 25.52998611 125.24506606 22.73346637 125.23524475 19.93649292 C125.24138883 18.22051693 125.24830053 16.50454346 125.25610352 14.78857422 C125.24838425 14.0133844 125.24066498 13.23819458 125.23271179 12.43951416 C125.27495706 7.93601707 125.81947894 5.01117558 128.625 1.4375 C131.78296107 -0.14148053 135.23170636 -0.38178171 138.625 0.4375 C142.21109354 3.21810771 143.5053044 4.65818454 144.20367432 9.20513916 C144.20845717 10.69190875 144.18595926 12.17892363 144.14160156 13.66503906 C144.13762863 14.48036606 144.1336557 15.29569305 144.12956238 16.13572693 C144.11836794 17.90149083 144.09602148 19.66721174 144.06375885 21.43271637 C144.01509458 24.2336539 144.00106637 27.03283129 143.99676514 29.83416748 C143.97887082 37.79581411 143.90309865 45.75639912 143.79345703 53.71728516 C143.72872119 58.5927858 143.70808412 63.46692537 143.71361542 68.34282684 C143.70667291 70.19439696 143.68273975 72.0459884 143.64105988 73.89710236 C143.14078797 84.17390482 143.14078797 84.17390482 146.60427856 93.53427124 C148.83098379 95.77235565 151.06431827 97.60267685 153.625 99.4375 C156.78727483 102.98125561 159.70871778 106.68936023 162.625 110.4375 C163.06102539 110.99179688 163.49705078 111.54609375 163.94628906 112.1171875 C177.19242112 129.06319866 190.23670567 150.02203184 188.37841797 172.40795898 C187.34183178 180.37277306 185.10240644 187.36823136 182 194.75 C181.5570459 195.83015381 181.1140918 196.91030762 180.65771484 198.02319336 C176.76466881 207.38843452 172.54273028 216.63556133 167.47558594 225.43310547 C165.5118996 228.98776475 164.5781992 230.78228879 164.875 234.9375 C165.1225 235.7625 165.37 236.5875 165.625 237.4375 C166.44742188 237.51226562 167.26984375 237.58703125 168.1171875 237.6640625 C177.0321387 238.71409139 184.46457293 240.60240908 190.50390625 247.62109375 C195.62408099 254.93739163 197.4720681 261.55000769 196.625 270.4375 C195.30953419 277.12537241 192.22767644 282.43928105 187.625 287.4375 C186.635 288.0975 185.645 288.7575 184.625 289.4375 C184.18706482 292.71346701 184.18706482 292.71346701 184.1875 296.5 C183.87244421 304.46180137 182.45015942 310.17770067 177.1875 316.25 C175.9190625 317.3328125 175.9190625 317.3328125 174.625 318.4375 C173.8 319.159375 172.975 319.88125 172.125 320.625 C169.6679019 322.40639612 167.44567649 323.37034406 164.625 324.4375 C164.89127197 325.50669678 165.15754395 326.57589355 165.43188477 327.67749023 C181.66178657 392.97386387 181.66178657 392.97386387 185.625 424.4375 C185.728125 425.2310791 185.83125 426.0246582 185.9375 426.84228516 C186.94070471 435.90516484 186.84679922 445.03756487 186.86523438 454.14453125 C186.87500095 457.06278347 186.90613323 459.98034789 186.9375 462.8984375 C186.94402661 464.77864172 186.94927842 466.65885089 186.953125 468.5390625 C186.9716452 469.82848251 186.9716452 469.82848251 186.99053955 471.14395142 C186.96042463 479.41959321 185.19265224 486.75818625 179.38671875 492.8918457 C172.18674625 499.20878388 163.39287058 501.06355442 154.25 503 C153.57503479 503.14746674 152.90006958 503.29493347 152.20465088 503.4468689 C124.66407561 509.46391664 96.75827992 512.86923322 68.5625 512.8125 C67.62388123 512.81262085 66.68526245 512.8127417 65.71820068 512.81286621 C34.87333728 512.75700549 4.60431609 508.62296127 -25.375 501.4375 C-26.38530273 501.20047363 -27.39560547 500.96344727 -28.43652344 500.71923828 C-35.74936127 498.89040804 -41.07431453 496.33140221 -46.125 490.5625 C-46.69734375 489.92570312 -47.2696875 489.28890625 -47.859375 488.6328125 C-51.95100415 482.70627749 -51.6944614 476.38326314 -51.7109375 469.4609375 C-51.72357384 467.85592628 -51.72357384 467.85592628 -51.73646545 466.2184906 C-51.7561448 462.74967275 -51.75617283 459.28136421 -51.75 455.8125 C-51.74912384 454.6304599 -51.74824768 453.4484198 -51.74734497 452.2305603 C-51.70401824 434.58878533 -50.93164747 417.75944778 -47.375 400.4375 C-46.93054635 398.09253188 -46.48655645 395.74747583 -46.04296875 393.40234375 C-42.48915962 375.29277834 -37.97135979 357.40038514 -33.5 339.5 C-33.19634521 338.28428314 -32.89269043 337.06856628 -32.57983398 335.81600952 C-29.65545649 324.13765698 -26.70696113 312.47078651 -23.46875 300.875 C-23.25306366 300.09507187 -23.03737732 299.31514374 -22.81515503 298.51158142 C-21.85886227 295.05625777 -20.88453151 291.61119321 -19.86376953 288.17407227 C-16.58251187 276.4791508 -15.10020915 263.11621238 -19.9375 251.625 C-20.23487061 250.86405029 -20.53224121 250.10310059 -20.83862305 249.3190918 C-24.16519865 241.22662578 -28.46672419 233.60698528 -32.67718506 225.95025635 C-39.17410979 214.13246039 -44.59130301 202.04906478 -49.375 189.4375 C-49.77114502 188.43178955 -49.77114502 188.43178955 -50.17529297 187.40576172 C-56.50469676 171.17139619 -53.55410539 155.80992648 -46.79174805 140.21948242 C-40.62328145 126.63224672 -31.91880381 114.90129531 -22.2734375 103.59765625 C-21.83938599 103.08866287 -21.40533447 102.57966949 -20.95812988 102.05525208 C-19.375 100.4375 -19.375 100.4375 -17.15808105 98.83085632 C-13.06656849 95.5973212 -10.3079041 92.67153871 -9.56362915 87.41896057 C-9.17129003 82.40050026 -9.28515859 77.38751958 -9.3828125 72.359375 C-9.38477954 70.50091506 -9.38233733 68.64244572 -9.3757019 66.78399658 C-9.36810119 61.91249744 -9.41141664 57.04287587 -9.46832275 52.17175293 C-9.55121122 44.362989 -9.55763728 36.55385862 -9.56136703 28.74472809 C-9.57018785 26.02283767 -9.60160099 23.30192744 -9.63650513 20.58026123 C-9.64634101 18.91125768 -9.65571447 17.24225133 -9.66455078 15.57324219 C-9.68791252 14.44322281 -9.68791252 14.44322281 -9.71174622 13.29037476 C-9.71474829 8.79868483 -9.10127357 6.02838362 -6.375 2.4375 C-3.99374088 0.05624088 -3.26792462 0.09228359 0 0 Z M-5.6875 112.4375 C-19.76988174 126.77225418 -34.54162657 147.05306736 -36 167.6875 C-35.18356919 185.93867918 -22.9725853 205.98230735 -14.25 221.5 C-7.81526478 232.98358972 -2.51626827 244.7957281 -0.1875 257.8125 C0.65496477 261.11087721 1.1867167 262.13192113 4.01171875 264.1015625 C7.18124414 265.51852679 10.27615279 266.52453121 13.625 267.4375 C14.65367187 267.73011719 15.68234375 268.02273438 16.7421875 268.32421875 C30.40096766 271.81555283 44.16406731 272.62475664 58.1875 273.125 C59.4964624 273.17350098 60.8054248 273.22200195 62.15405273 273.27197266 C63.40387939 273.30983887 64.65370605 273.34770508 65.94140625 273.38671875 C67.05974854 273.42112061 68.17809082 273.45552246 69.33032227 273.4909668 C72.83651413 273.4340675 76.16711497 273.00199117 79.625 272.4375 C79.57859375 271.68726563 79.5321875 270.93703125 79.484375 270.1640625 C79.1599165 260.9633466 80.45370211 253.57327141 86.75 246.5625 C93.26680167 240.65838909 101.07866339 238.98887656 109.625 238.4375 C110.06199219 237.25994141 110.06199219 237.25994141 110.5078125 236.05859375 C114.14216886 226.74412698 117.48849999 220.38502466 126.79296875 216.1640625 C130.27463645 214.78327318 133.02367819 214.27654075 136.75 214.25 C137.63945312 214.23582031 138.52890625 214.22164063 139.4453125 214.20703125 C143.6201822 214.50963237 147.56632201 215.44504133 151.625 216.4375 C167.41387147 188.17522331 167.41387147 188.17522331 168.734375 157.06640625 C167.53792407 153.74426084 166.16480447 150.61456491 164.625 147.4375 C164.10550781 146.35597656 163.58601562 145.27445313 163.05078125 144.16015625 C157.60209504 133.47869913 150.3154492 124.36715183 142.6875 115.1875 C142.21473633 114.61386719 141.74197266 114.04023437 141.25488281 113.44921875 C140.09026251 112.07231108 138.86262859 110.74917475 137.625 109.4375 C136.965 109.4375 136.305 109.4375 135.625 109.4375 C134.41776536 110.97453057 133.28582023 112.57084569 132.1875 114.1875 C118.46772861 133.46464715 100.28655076 148.46618895 76.6171875 153.015625 C58.28127178 155.60084549 41.40545182 149.94903063 26.640625 139.28125 C24.24963249 137.38543345 21.93189364 135.43401159 19.625 133.4375 C18.77679688 132.77234375 17.92859375 132.1071875 17.0546875 131.421875 C10.38297012 125.97294826 5.4916453 118.69216001 0.4453125 111.78125 C-0.15539062 111.0078125 -0.75609375 110.234375 -1.375 109.4375 C-3.24422644 109.4375 -4.40965249 111.20991978 -5.6875 112.4375 Z M128.625 236.4375 C127.75199762 239.24357907 127.56222309 241.49953911 127.7578125 244.421875 C127.98936116 248.52800454 127.92301517 250.0767448 125.25 253.3125 C124.38375 254.01375 123.5175 254.715 122.625 255.4375 C121.965 256.0975 121.305 256.7575 120.625 257.4375 C118.53125 257.66796875 118.53125 257.66796875 116.125 257.625 C115.3309375 257.61855469 114.536875 257.61210937 113.71875 257.60546875 C111.625 257.4375 111.625 257.4375 109.625 256.4375 C104.98945612 256.02545166 102.32083902 256.56295854 98.625 259.4375 C96.5558007 262.07102638 96.62569278 263.4756031 96.6875 266.875 C97.83481136 271.23478315 99.0595511 272.70651786 102.625 275.4375 C104.67780378 276.34592466 106.71275355 277.09391267 108.85546875 277.76171875 C110.625 278.4375 110.625 278.4375 112.625 280.4375 C113.09790486 286.20693927 112.58763491 288.49977515 109.625 293.4375 C109.07768174 296.21970115 109.02506016 298.6620774 109.625 301.4375 C111.88046739 304.46627049 113.576118 306.00718943 117.0625 307.4375 C120.65412215 307.4375 122.63210122 306.38939051 125.625 304.4375 C127.84860124 301.57858412 128.65092744 299.33724723 129.5625 295.8125 C130.625 292.4375 130.625 292.4375 132.375 290.5 C135.44084645 289.05223918 137.26897416 288.88957741 140.625 289.4375 C145.21861029 292.74917253 146.35011081 296.23043096 147.8828125 301.4140625 C149.15701805 304.8879492 151.28544267 305.79081715 154.4375 307.3125 C157.99747344 307.51592705 160.51626996 306.0494341 163.625 304.4375 C166.0751123 300.76233155 166.22939314 297.71204858 165.625 293.4375 C165.13 292.798125 164.635 292.15875 164.125 291.5 C161.99989141 288.57797569 162.26228677 286.08934285 162.2265625 282.55859375 C162.72982459 279.87946319 163.45089536 279.05476269 165.625 277.4375 C167.74609375 276.69921875 167.74609375 276.69921875 170.0625 276.125 C173.5517666 275.02642177 174.61508635 274.44788572 177.25 271.6875 C178.95460721 267.65842842 178.86216346 265.61292667 177.625 261.4375 C175.73388889 259.1193638 174.28671969 257.76835985 171.625 256.4375 C167.47996339 256.18962983 167.47996339 256.18962983 163.625 257.4375 C157.65227297 258.04489597 154.70765658 257.41533269 149.97265625 253.7265625 C148.625 252.4375 148.625 252.4375 147.625 250.4375 C147.63070472 248.66618572 147.6781516 246.8948657 147.75 245.125 C147.78482791 240.68444196 147.65723558 237.90291209 144.625 234.4375 C142.30662542 232.11912542 140.99738931 231.50226336 137.75 230.9375 C133.43636382 231.62768179 131.5830521 233.27307217 128.625 236.4375 Z M0.625 282.4375 C-10.20960539 319.65973134 -20.16258744 357.30193506 -27.93359375 395.2923584 C-28.35716434 397.35082242 -28.79269536 399.40643121 -29.23046875 401.46191406 C-32.95733824 419.41906204 -33.85471098 436.89332682 -33.9375 455.1875 C-33.94653351 456.26539795 -33.95556702 457.3432959 -33.96487427 458.45385742 C-33.98200137 461.52721815 -33.96800907 464.59861304 -33.94140625 467.671875 C-33.94611938 468.59953674 -33.95083252 469.52719849 -33.95568848 470.48297119 C-33.88857206 475.54144088 -33.88857206 475.54144088 -31.62402344 479.95239258 C-29.31142419 481.47948129 -27.5048798 482.28857423 -24.82421875 482.96484375 C-23.91389893 483.19719727 -23.0035791 483.42955078 -22.06567383 483.66894531 C-21.07462646 483.90194336 -20.0835791 484.13494141 -19.0625 484.375 C-18.01795654 484.62733398 -16.97341309 484.87966797 -15.8972168 485.13964844 C-2.1856051 488.33244795 11.69477623 490.47298126 25.625 492.4375 C26.9847998 492.63883545 26.9847998 492.63883545 28.37207031 492.84423828 C64.27166386 498.00072535 136.58558838 501.89988651 166.625 479.4375 C169.0980125 475.83331926 168.93028955 472.08163383 168.92578125 467.8671875 C168.93431625 466.75036339 168.93431625 466.75036339 168.94302368 465.61097717 C168.95521338 463.17793559 168.94887421 460.74554062 168.9375 458.3125 C168.93376877 457.05833786 168.93376877 457.05833786 168.92996216 455.77883911 C168.86267929 441.15329218 168.0198518 426.88678182 165.625 412.4375 C165.42052246 411.19532715 165.21604492 409.9531543 165.00537109 408.67333984 C161.59258976 388.38933417 156.83704675 368.40602754 151.9375 348.4375 C151.65577942 347.27228821 151.37405884 346.10707642 151.08380127 344.90655518 C150.27567969 341.57949706 149.44777902 338.25802785 148.61328125 334.9375 C148.37175827 333.93496185 148.13023529 332.93242371 147.88139343 331.89950562 C146.29334061 325.71119153 144.70085648 322.63454034 139.4375 318.875 C135.39662231 318.24641903 133.25849903 320.02160714 129.90625 322.17578125 C124.39646315 325.22314624 117.81687615 325.30150014 111.83984375 323.68359375 C104.10754748 321.02984469 98.93220974 317.9663522 94.6953125 310.8515625 C91.84338251 304.41910726 91.58472152 297.37381524 91.625 290.4375 C90.93277344 290.44273682 90.24054688 290.44797363 89.52734375 290.45336914 C32.0827381 290.82706182 32.0827381 290.82706182 6.42578125 283.20703125 C3.62696301 282.30503116 3.62696301 282.30503116 0.625 282.4375 Z " fill="#313132" transform="translate(184.375,-0.4375)"/>
</svg>
