<?xml version="1.0" encoding="UTF-8"?>
<svg version="1.1" xmlns="http://www.w3.org/2000/svg" width="512" height="512">
<path d="M0 0 C1.05437071 -0.00525911 1.05437071 -0.00525911 2.13004184 -0.01062447 C4.48521763 -0.01992774 6.84014557 -0.01501797 9.19533157 -0.01015663 C10.90105238 -0.01389344 12.60677147 -0.01849508 14.31248784 -0.02388728 C18.99989679 -0.03612901 23.68723443 -0.03585542 28.37465572 -0.03349853 C33.43001469 -0.03309065 38.48535071 -0.04412669 43.54069901 -0.05361366 C53.44535304 -0.07023121 63.34998328 -0.07572356 73.25465009 -0.07683842 C81.30553143 -0.07778856 89.35640492 -0.08189717 97.40728378 -0.08823967 C120.23091901 -0.10585435 143.05453542 -0.11507822 165.87817749 -0.11357872 C167.72407227 -0.11345885 167.72407227 -0.11345885 169.60725784 -0.11333656 C171.45540545 -0.11321392 171.45540545 -0.11321392 173.34088936 -0.1130888 C193.3088849 -0.1122759 213.27680501 -0.13141408 233.24477872 -0.1596133 C253.74570731 -0.18833679 274.24659911 -0.20215388 294.74754834 -0.20042574 C306.25807584 -0.19976165 317.76852428 -0.20526265 329.27903366 -0.22678185 C339.07952878 -0.24498661 348.87990899 -0.24934676 358.68041369 -0.235763 C363.68013258 -0.22922975 368.67963096 -0.22912912 373.67932892 -0.2464695 C378.25892777 -0.26218939 382.83813109 -0.25934759 387.41772023 -0.24190123 C389.0718146 -0.23882896 390.72593841 -0.24247232 392.37999806 -0.25362138 C402.37021102 -0.31648389 411.4468649 -0.12423431 419.54671097 6.47577477 C422.55463104 8.82877571 424.47861645 8.75488848 428.26155472 8.76117516 C429.48616409 8.77986656 430.71077347 8.79855797 431.97249222 8.81781578 C433.24350784 8.81846031 434.51452347 8.81910484 435.82405472 8.81976891 C438.34496935 8.82871739 440.8658787 8.85035502 443.38655472 8.88617516 C444.50159378 8.88690025 445.61663284 8.88762535 446.76546097 8.88837242 C450.47723732 9.33604915 453.16089093 10.59410512 455.82405472 13.25726891 C456.29530296 20.56161673 456.29530296 20.56161673 454.51155472 23.19476891 C451.46618397 25.11222456 448.87341506 25.37840555 445.37483597 25.35492516 C444.22881912 25.35117882 444.22881912 25.35117882 443.05965042 25.3473568 C442.09502884 25.33825279 441.13040726 25.32914879 440.13655472 25.31976891 C435.52686722 25.28883141 435.52686722 25.28883141 430.82405472 25.25726891 C430.82405472 36.80726891 430.82405472 48.35726891 430.82405472 60.25726891 C437.18156877 60.09965664 437.18156877 60.09965664 443.53767776 59.89691734 C447.7314229 59.84452194 450.22241008 59.91681504 453.93733597 62.01898766 C455.94346998 64.39893545 456.46530844 65.26515721 456.32405472 68.31976891 C455.82405472 72.25726891 455.82405472 72.25726891 454.61189651 73.98505211 C452.20611144 75.69699339 450.65355889 75.60113314 447.71858597 75.55023766 C446.83275833 75.54274498 445.94693069 75.5352523 445.0342598 75.52753258 C443.91301712 75.50022057 442.79177444 75.47290855 441.63655472 75.44476891 C438.06842972 75.38289391 434.50030472 75.32101891 430.82405472 75.25726891 C430.82405472 87.13726891 430.82405472 99.01726891 430.82405472 111.25726891 C437.2260831 111.17837689 437.2260831 111.17837689 443.62776566 111.07709312 C444.4298848 111.07209801 445.23200394 111.06710289 446.05842972 111.06195641 C446.87537308 111.05148277 447.69231644 111.04100914 448.53401566 111.03021812 C451.08227891 111.28287109 452.66525291 111.89592156 454.82405472 113.25726891 C456.38180408 116.37276762 456.38886094 119.86170771 455.82405472 123.25726891 C454.14148528 125.50502576 453.2766494 126.19195706 450.4639473 126.59784508 C449.55797806 126.58213463 448.65200882 126.56642418 447.71858597 126.55023766 C446.83275833 126.54274498 445.94693069 126.5352523 445.0342598 126.52753258 C443.91301712 126.50022057 442.79177444 126.47290855 441.63655472 126.44476891 C438.06842972 126.38289391 434.50030472 126.32101891 430.82405472 126.25726891 C430.82405472 138.13726891 430.82405472 150.01726891 430.82405472 162.25726891 C437.55566796 162.09943376 437.55566796 162.09943376 444.28596878 161.89691734 C451.16175188 161.8154071 451.16175188 161.8154071 454.46467972 164.01898766 C456.73772984 167.76168226 456.37467323 169.92114809 455.82405472 174.25726891 C453.72842635 176.36271495 452.3934064 177.17585792 449.44221878 177.59784508 C448.58338089 177.58213463 447.724543 177.56642418 446.83967972 177.55023766 C445.99695511 177.54274498 445.1542305 177.5352523 444.28596878 177.52753258 C443.22603714 177.50022057 442.1661055 177.47290855 441.07405472 177.44476891 C437.69155472 177.38289391 434.30905472 177.32101891 430.82405472 177.25726891 C430.82405472 189.13726891 430.82405472 201.01726891 430.82405472 213.25726891 C437.55538102 213.13889949 437.55538102 213.13889949 444.28596878 212.98700523 C445.12869339 212.97951256 445.971418 212.97201988 446.83967972 212.96430016 C447.69851761 212.94858971 448.5573555 212.93287926 449.44221878 212.91669273 C452.3934064 213.33867989 453.72842635 214.15182286 455.82405472 216.25726891 C456.6642539 222.87383749 456.6642539 222.87383749 454.46467972 226.49555016 C450.25592233 229.30346374 446.00055707 228.67652849 441.07405472 228.50726891 C437.69155472 228.42476891 434.30905472 228.34226891 430.82405472 228.25726891 C430.82405472 240.13726891 430.82405472 252.01726891 430.82405472 264.25726891 C437.55538102 264.13889949 437.55538102 264.13889949 444.28596878 263.98700523 C445.55005569 263.97576622 445.55005569 263.97576622 446.83967972 263.96430016 C447.69851761 263.94858971 448.5573555 263.93287926 449.44221878 263.91669273 C452.3934064 264.33867989 453.72842635 265.15182286 455.82405472 267.25726891 C456.6642539 273.87383749 456.6642539 273.87383749 454.46467972 277.49555016 C450.25592233 280.30346374 446.00055707 279.67652849 441.07405472 279.50726891 C437.69155472 279.42476891 434.30905472 279.34226891 430.82405472 279.25726891 C430.82405472 291.13726891 430.82405472 303.01726891 430.82405472 315.25726891 C437.92950362 315.13874953 437.92950362 315.13874953 445.0342598 314.98700523 C446.36300125 314.97576622 446.36300125 314.97576622 447.71858597 314.96430016 C448.62455521 314.94858971 449.53052444 314.93287926 450.4639473 314.91669273 C453.27716595 315.32265529 454.13641028 316.01402417 455.82405472 318.25726891 C456.38001383 320.96075637 456.25578316 323.5362436 455.82405472 326.25726891 C454.2806738 328.43203292 453.18740199 329.07559527 450.82405472 330.25726891 C449.30257146 330.3409955 447.77749694 330.36456917 446.25374222 330.35492516 C445.44662796 330.3524276 444.6395137 330.34993004 443.80794144 330.3473568 C442.78200882 330.33825279 441.7560762 330.32914879 440.69905472 330.31976891 C435.81092972 330.28883141 435.81092972 330.28883141 430.82405472 330.25726891 C430.82405472 341.80726891 430.82405472 353.35726891 430.82405472 365.25726891 C436.85218263 365.13910433 436.85218263 365.13910433 442.87947464 364.98700523 C447.70577949 364.93936206 450.89063955 365.12787848 454.82405472 368.25726891 C455.82405472 369.25726891 455.82405472 369.25726891 456.07405472 373.13226891 C456.02613552 376.95895915 456.02613552 376.95895915 454.51155472 379.19476891 C450.94811181 381.43841815 447.81571075 381.36843351 443.72249222 381.36273766 C441.9029805 381.38497398 441.9029805 381.38497398 440.04671097 381.40765953 C437.50515717 381.43217198 434.96334186 381.43774055 432.42171097 381.42328453 C425.23362973 381.54852565 420.49999738 382.121478 414.87337112 386.77802086 C410.18415304 390.16281623 405.2856587 390.50818351 399.64810944 390.51453781 C398.94519563 390.51804389 398.24228182 390.52154996 397.5180676 390.52516228 C395.16289181 390.53446555 392.80796387 390.52955578 390.45277786 390.52469444 C388.74705706 390.52843125 387.04133797 390.53303289 385.3356216 390.53842509 C380.64821265 390.55066682 375.960875 390.55039323 371.27345371 390.54803634 C366.21809474 390.54762847 361.16275873 390.5586645 356.10741043 390.56815147 C346.20275639 390.58476902 336.29812616 390.59026137 326.39345935 390.59137623 C318.342578 390.59232637 310.29170451 390.59643498 302.24082565 390.60277748 C279.41719043 390.62039216 256.59357401 390.62961603 233.76993194 390.62811653 C231.92403717 390.62799666 231.92403717 390.62799666 230.04085159 390.62787437 C228.19270399 390.62775173 228.19270399 390.62775173 226.30722007 390.62762661 C206.33922453 390.62681371 186.37130443 390.64595189 166.40333071 390.67415111 C145.90240212 390.7028746 125.40151032 390.71669169 104.90056109 390.71496356 C93.39003359 390.71429946 81.87958516 390.71980047 70.36907578 390.74131966 C60.56858065 390.75952442 50.76820044 390.76388457 40.96769574 390.75030081 C35.96797686 390.74376756 30.96847847 390.74366693 25.96878052 390.76100731 C21.38918167 390.7767272 16.80997835 390.7738854 12.23038921 390.75643905 C10.57629484 390.75336677 8.92217103 390.75701014 7.26811138 390.7681592 C-2.72210159 390.8310217 -11.79875546 390.63877212 -19.89860153 384.03876305 C-22.90652161 381.6857621 -24.83050701 381.75964933 -28.61344528 381.75336266 C-30.45035934 381.72532555 -30.45035934 381.72532555 -32.32438278 381.69672203 C-33.59539841 381.6960775 -34.86641403 381.69543297 -36.17594528 381.69476891 C-38.69685992 381.68582043 -41.21776926 381.66418279 -43.73844528 381.62836266 C-44.85348434 381.62763756 -45.96852341 381.62691246 -47.11735153 381.62616539 C-50.82912788 381.17848866 -53.5127815 379.92043269 -56.17594528 377.25726891 C-56.64719353 369.95292108 -56.64719353 369.95292108 -54.86344528 367.31976891 C-51.81807454 365.40231325 -49.22530563 365.13613226 -45.72672653 365.15961266 C-44.9627153 365.16211021 -44.19870407 365.16460777 -43.41154099 365.16718102 C-41.96460861 365.18083702 -41.96460861 365.18083702 -40.48844528 365.19476891 C-35.87875778 365.22570641 -35.87875778 365.22570641 -31.17594528 365.25726891 C-31.17594528 353.70726891 -31.17594528 342.15726891 -31.17594528 330.25726891 C-37.57797366 330.33616092 -37.57797366 330.33616092 -43.97965622 330.43744469 C-44.78177536 330.4424398 -45.5838945 330.44743492 -46.41032028 330.45258141 C-47.22726364 330.46305504 -48.044207 330.47352867 -48.88590622 330.48431969 C-51.43416947 330.23166672 -53.01714347 329.61861626 -55.17594528 328.25726891 C-56.73369464 325.14177019 -56.7407515 321.6528301 -56.17594528 318.25726891 C-54.49337584 316.00951205 -53.62853997 315.32258075 -50.81583786 314.91669273 C-49.90986862 314.93240318 -49.00389938 314.94811363 -48.07047653 314.96430016 C-47.1846489 314.97179283 -46.29882126 314.97928551 -45.38615036 314.98700523 C-44.26490768 315.01431725 -43.14366501 315.04162926 -41.98844528 315.06976891 C-38.42032028 315.13164391 -34.85219528 315.19351891 -31.17594528 315.25726891 C-31.17594528 303.37726891 -31.17594528 291.49726891 -31.17594528 279.25726891 C-37.90755852 279.41510406 -37.90755852 279.41510406 -44.63785934 279.61762047 C-51.51267984 279.6991193 -51.51267984 279.6991193 -54.82047653 277.49555016 C-57.06802172 273.7841859 -56.65327259 271.5532147 -56.17594528 267.25726891 C-54.96769333 265.5294857 -54.96769333 265.5294857 -53.17594528 264.25726891 C-50.81583786 263.91669273 -50.81583786 263.91669273 -48.07047653 263.96430016 C-47.1846489 263.97179283 -46.29882126 263.97928551 -45.38615036 263.98700523 C-44.26490768 264.01431725 -43.14366501 264.04162926 -41.98844528 264.06976891 C-38.42032028 264.13164391 -34.85219528 264.19351891 -31.17594528 264.25726891 C-31.17594528 252.37726891 -31.17594528 240.49726891 -31.17594528 228.25726891 C-37.90755852 228.41510406 -37.90755852 228.41510406 -44.63785934 228.61762047 C-51.51364245 228.69913071 -51.51364245 228.69913071 -54.81657028 226.49555016 C-57.08962041 222.75285555 -56.7265638 220.59338972 -56.17594528 216.25726891 C-54.08031691 214.15182286 -52.74529697 213.33867989 -49.79410934 212.91669273 C-48.93527145 212.93240318 -48.07643356 212.94811363 -47.19157028 212.96430016 C-46.34884567 212.97179283 -45.50612106 212.97928551 -44.63785934 212.98700523 C-43.04796188 213.02797325 -43.04796188 213.02797325 -41.42594528 213.06976891 C-38.04344528 213.13164391 -34.66094528 213.19351891 -31.17594528 213.25726891 C-31.17594528 201.37726891 -31.17594528 189.49726891 -31.17594528 177.25726891 C-37.90727159 177.37563832 -37.90727159 177.37563832 -44.63785934 177.52753258 C-45.48058395 177.53502525 -46.32330856 177.54251793 -47.19157028 177.55023766 C-48.05040817 177.5659481 -48.90924606 177.58165855 -49.79410934 177.59784508 C-52.74529697 177.17585792 -54.08031691 176.36271495 -56.17594528 174.25726891 C-57.01614447 167.64070032 -57.01614447 167.64070032 -54.81657028 164.01898766 C-50.60781289 161.21107407 -46.35244764 161.83800932 -41.42594528 162.00726891 C-38.04344528 162.08976891 -34.66094528 162.17226891 -31.17594528 162.25726891 C-31.17594528 150.37726891 -31.17594528 138.49726891 -31.17594528 126.25726891 C-38.28139418 126.37578828 -38.28139418 126.37578828 -45.38615036 126.52753258 C-46.71489182 126.53877159 -46.71489182 126.53877159 -48.07047653 126.55023766 C-48.97644577 126.5659481 -49.88241501 126.58165855 -50.81583786 126.59784508 C-53.6285252 126.19195919 -54.49035144 125.50187814 -56.17594528 123.25726891 C-56.53922653 121.31976891 -56.53922653 121.31976891 -56.48844528 119.25726891 C-56.48457809 118.57664391 -56.48071091 117.89601891 -56.47672653 117.19476891 C-56.17594528 115.25726891 -56.17594528 115.25726891 -54.17594528 112.25726891 C-51.29329379 111.29638507 -49.49932257 111.1405595 -46.50797653 111.15961266 C-45.30105148 111.16335899 -45.30105148 111.16335899 -44.06974411 111.16718102 C-42.54450119 111.18083702 -42.54450119 111.18083702 -40.98844528 111.19476891 C-36.13125778 111.22570641 -36.13125778 111.22570641 -31.17594528 111.25726891 C-31.17594528 99.37726891 -31.17594528 87.49726891 -31.17594528 75.25726891 C-38.28139418 75.37578828 -38.28139418 75.37578828 -45.38615036 75.52753258 C-46.71489182 75.53877159 -46.71489182 75.53877159 -48.07047653 75.55023766 C-48.97644577 75.5659481 -49.88241501 75.58165855 -50.81583786 75.59784508 C-53.17594528 75.25726891 -53.17594528 75.25726891 -54.96378708 73.98505211 C-56.65910353 71.56858595 -56.63625573 69.17805541 -56.76969528 66.29242516 C-55.77866714 62.89554581 -54.23199751 61.98660335 -51.17594528 60.25726891 C-47.71843216 59.78196241 -44.34482359 59.88031586 -40.86344528 60.00726891 C-37.66657028 60.08976891 -34.46969528 60.17226891 -31.17594528 60.25726891 C-31.17594528 48.70726891 -31.17594528 37.15726891 -31.17594528 25.25726891 C-37.20407319 25.37543348 -37.20407319 25.37543348 -43.2313652 25.52753258 C-48.05767005 25.57517575 -51.24253011 25.38665933 -55.17594528 22.25726891 C-56.17594528 21.25726891 -56.17594528 21.25726891 -56.42594528 17.38226891 C-56.37802608 13.55557866 -56.37802608 13.55557866 -54.86344528 11.31976891 C-51.30000237 9.07611967 -48.16760132 9.1461043 -44.07438278 9.15180016 C-42.25487106 9.12956383 -42.25487106 9.12956383 -40.39860153 9.10687828 C-37.85704773 9.08236583 -35.31523242 9.07679726 -32.77360153 9.09125328 C-25.5855203 8.96601216 -20.85188795 8.39305982 -15.22526169 3.73651695 C-10.53604361 0.35172158 -5.63754926 0.0063543 0 0 Z M-13.55094528 21.81976891 C-20.05546349 31.57654622 -16.17594528 41.21080485 -16.17594528 54.25726891 C126.38405472 54.25726891 268.94405472 54.25726891 415.82405472 54.25726891 C418.05667994 29.82065342 418.05667994 29.82065342 411.82405472 20.25726891 C406.98949134 15.77645407 403.5775906 15.13242917 397.10257721 15.12304783 C396.06724598 15.11951948 396.06724598 15.11951948 395.01099896 15.11591986 C392.68102943 15.1092237 390.35111559 15.10968827 388.02113724 15.11009789 C386.3406175 15.10679965 384.66009857 15.10307417 382.97958064 15.09895641 C378.34802967 15.08892381 373.71649167 15.0852176 369.08493137 15.0825671 C364.09502294 15.07866782 359.1051248 15.06908927 354.11522293 15.06035423 C342.05849545 15.04057999 330.00176712 15.03052275 317.94502747 15.02162644 C312.27059571 15.01724544 306.59616488 15.01187817 300.92173386 15.00663757 C282.06467889 14.98962494 263.20762451 14.97512976 244.35056305 14.96788883 C239.45565922 14.96597887 234.5607554 14.96405854 229.66585159 14.96210289 C228.44921344 14.96161915 227.23257529 14.96113541 225.97906932 14.96063701 C206.26105429 14.95233297 186.54309986 14.92698989 166.8251113 14.89452221 C146.59210927 14.86147744 126.35913805 14.84344244 106.12610888 14.84024459 C94.761503 14.83807719 83.39698549 14.82929477 72.03240585 14.80378342 C62.35582444 14.78211175 52.67935288 14.7740086 43.00274995 14.7837502 C38.0641762 14.78830505 33.12582925 14.78633994 28.18728638 14.76698875 C23.66694354 14.74942892 19.14699417 14.75029617 14.62664756 14.76588605 C12.99068336 14.76827306 11.35469243 14.76388217 9.71876922 14.7520574 C7.49499974 14.73697819 5.27263165 14.74658161 3.04889679 14.76228428 C1.81377389 14.76130747 0.57865099 14.76033066 -0.69389987 14.75932425 C-6.10314739 15.53286554 -9.80160486 17.77442792 -13.55094528 21.81976891 Z M-16.17594528 69.25726891 C-16.17594528 93.67726891 -16.17594528 118.09726891 -16.17594528 143.25726891 C-11.37450244 139.14174647 -6.92102846 135.07520763 -2.57047653 130.53851891 C-1.32711384 129.26302052 -0.08294755 127.9883051 1.16194534 126.71430016 C3.08683041 124.74024723 5.00671535 122.76232511 6.91316605 120.7704525 C16.71689347 110.54741589 25.65395977 102.01456348 40.51155472 101.00726891 C56.18512072 101.30243964 65.58042879 112.72688908 75.85530472 123.09320641 C77.09896509 124.34060322 78.34307243 125.58755455 79.58760452 126.83408165 C82.84048005 130.09454388 86.08730076 133.3609698 89.33284378 136.62872887 C92.65436195 139.97081308 95.9816453 143.30714702 99.30842972 146.64398766 C105.81925285 153.17617301 112.32368591 159.71468121 118.82405472 166.25726891 C122.72531051 164.6648847 125.15651852 162.14714366 128.09236526 159.16840172 C128.60518555 158.65105461 129.11800583 158.1337075 129.64636612 157.60068321 C130.75726984 156.47883984 131.86588827 155.35472985 132.97246742 154.22862053 C134.73021093 152.44062188 136.49462643 150.65946107 138.26102066 148.8800106 C143.28145433 143.81991854 148.28922498 138.7473627 153.29353714 133.67133141 C156.35860281 130.56328124 159.4311597 127.46279075 162.50808525 124.36648369 C163.67309908 123.19097492 164.83519452 122.01256568 165.99416542 120.83109856 C175.67645218 110.96129651 185.22293972 101.58735293 199.82405472 100.88226891 C215.59461793 101.64382528 225.57582946 112.57692861 235.95296097 123.09320641 C237.19497138 124.34082248 238.43765355 125.58777015 239.68097305 126.83408165 C242.92786497 130.09234596 246.16563985 133.35952156 249.40150833 136.62872887 C252.71456256 139.97264911 256.03628541 143.30793446 259.35725784 146.64398766 C265.85463418 153.17339368 272.34239805 159.71226048 278.82405472 166.25726891 C282.79840477 164.66287388 285.42494362 161.89165335 288.35188675 158.87714195 C289.1625988 158.05482079 289.1625988 158.05482079 289.98968887 157.21588707 C291.16109547 156.02685128 292.33028128 154.83562444 293.49748993 153.6424675 C295.35141145 151.74902681 297.21284339 149.86328429 299.07670975 147.97963524 C304.37479842 142.62361891 309.66330435 137.25829866 314.93635941 131.87763023 C318.1655774 128.58360156 321.40718016 125.30218726 324.65666199 122.02815247 C325.88684236 120.78379961 327.11234735 119.53480511 328.3328476 118.28095627 C337.21867214 109.15589261 345.52628424 101.31087725 359.01155472 101.00726891 C372.87715326 101.26020686 381.43327573 109.51522268 390.66780472 118.94086266 C391.36297195 119.64123146 392.05813919 120.34160027 392.7743721 121.06319237 C394.96249919 123.26893135 397.14371084 125.48133829 399.32405472 127.69476891 C401.53390244 129.93222772 403.74521526 132.16819039 405.95943069 134.40132713 C407.32995044 135.7841231 408.69778844 137.16958306 410.06270218 138.55791283 C410.67424149 139.17598305 411.28578079 139.79405327 411.91585159 140.43085289 C412.4549617 140.97821602 412.99407181 141.52557915 413.54951859 142.08952904 C414.65884179 143.36985903 414.65884179 143.36985903 415.82405472 143.25726891 C415.82405472 118.83726891 415.82405472 94.41726891 415.82405472 69.25726891 C273.26405472 69.25726891 130.70405472 69.25726891 -16.17594528 69.25726891 Z M28.82796097 120.83539391 C25.45338754 123.98241227 22.03771371 126.8969231 18.35847855 129.6832943 C-0.3681081 143.94504837 -17.43616268 158.93872319 -20.87414169 183.31336021 C-22.68447748 202.48773789 -21.17782962 220.54199063 -8.85570908 235.85164452 C11.45034392 260.01001278 11.45034392 260.01001278 37.50764847 274.69086266 C38.41643753 274.69215172 39.32522659 274.69344078 40.26155472 274.69476891 C41.16776566 274.71410484 42.07397659 274.73344078 43.00764847 274.75336266 C49.39176597 273.6288371 53.87458736 268.4859463 58.25667191 264.03583336 C58.86881042 263.4223806 59.48094894 262.80892784 60.11163712 262.1768856 C62.11938857 260.16268033 64.12006499 258.14159457 66.12092972 256.12055016 C67.51952738 254.71567803 68.91864414 253.31132252 70.31825638 251.90746117 C73.99107367 248.22137537 77.65827085 244.52975332 81.32387161 240.83649254 C87.20378558 234.91335681 93.09053466 228.99703241 98.98046494 223.08385849 C101.0380422 221.01603916 103.09218561 218.94485287 105.14601517 216.873312 C106.40023442 215.61226798 107.65456195 214.35133165 108.90901566 213.09052086 C109.48149536 212.51130379 110.05397507 211.93208672 110.64380264 211.33531761 C115.53732099 206.42764949 115.53732099 206.42764949 120.03914261 205.83154869 C125.14869062 206.40626161 126.945054 208.44852199 130.38264847 212.06879234 C130.99665512 212.68659569 131.61066177 213.30439903 132.24327469 213.94092369 C134.26601276 215.98380472 136.26313294 218.04999414 138.26155472 220.11664391 C139.66791635 221.54369396 141.0760664 222.96898353 142.48591995 224.39258385 C146.19401607 228.14439291 149.88192825 231.91538781 153.5646553 235.69208336 C159.45415396 241.72699781 165.36974565 247.7361868 171.29283524 253.7381115 C173.35386879 255.8334145 175.40383044 257.93909646 177.45271683 260.04627037 C178.72330568 261.34055601 179.99420427 262.63453766 181.26546097 263.92816734 C182.1088855 264.80426659 182.1088855 264.80426659 182.96934891 265.6980648 C187.91677244 270.70059039 193.49394587 275.10767485 200.82405472 275.25726891 C212.32743185 272.9758058 220.56233998 261.58952143 228.38249779 253.59059906 C231.63053459 250.27320036 234.89580295 246.97280394 238.15803909 243.66937828 C242.29100089 239.48238493 246.41859108 235.29047786 250.52791214 231.08026695 C253.86764878 227.65944158 257.22419811 224.25594816 260.59268379 220.86343765 C261.86882521 219.57187502 263.13865509 218.27404391 264.40190697 216.96987152 C266.16548426 215.1507813 267.94972188 213.35464879 269.74031448 211.56220055 C270.25427277 211.02150429 270.76823105 210.48080803 271.29776382 209.92372704 C274.04223778 207.22463846 275.62407816 206.28449415 279.4793129 205.75963402 C282.87999083 206.26559115 284.02740907 206.57281853 286.42366409 208.91449547 C287.09615189 209.55874474 287.76863968 210.202994 288.46150589 210.86676598 C289.241147 211.65563194 290.02078812 212.44449791 290.82405472 213.25726891 C291.79786122 214.22296124 292.7722681 215.18804838 293.74715042 216.15265465 C296.63538168 219.0263866 299.49613453 221.92631841 302.35193253 224.83224297 C304.92664879 227.44949085 307.51110238 230.0570357 310.09493637 232.66527748 C314.88896024 237.50481475 319.67893136 242.3482028 324.45247269 247.2079525 C327.79002427 250.60502585 331.13977322 253.98964507 334.49780655 257.36646843 C335.76854902 258.64891055 337.03475692 259.93586325 338.29617691 261.22747612 C340.06154554 263.03405497 341.84209782 264.82429626 343.62678909 266.61176109 C344.1371521 267.14167152 344.64751511 267.67158195 345.17334366 268.21755028 C349.4156386 272.41340601 354.12477155 274.99217369 360.22249222 275.42914391 C364.73765489 274.46543329 367.53826014 272.86451614 370.85530472 269.66742516 C374.2163728 266.5212766 377.61634144 263.6119975 381.28743362 260.83197594 C400.01570455 246.57205714 417.0842921 231.5756729 420.52225113 207.2011776 C422.33258691 188.02679992 420.82593906 169.97254718 408.50381851 154.6628933 C397.28886434 141.36331385 378.59900264 119.89593439 361.51155472 115.38226891 C355.5216252 115.17922045 350.79057431 117.09510728 346.40782547 121.0789547 C345.25269354 122.22278944 344.11094986 123.3802553 342.980793 124.54877281 C342.34885529 125.18158669 341.71691757 125.81440056 341.06583023 126.46639061 C338.99670955 128.544037 336.94574893 130.63868152 334.89436722 132.73383141 C333.45444778 134.18562696 332.0133381 135.63624288 330.57109451 137.0857296 C326.78963555 140.89186892 323.02301246 144.71234939 319.2597847 148.53650475 C313.94005718 153.93688742 308.60020065 159.31738102 303.2627449 164.70023155 C300.42191994 167.56533267 297.58668207 170.43579295 294.75572586 173.31064415 C293.46748155 174.61529517 292.17922345 175.91993256 290.89094925 177.22455406 C290.00889061 178.12378845 290.00889061 178.12378845 289.1090126 179.04118919 C284.11867302 184.0857914 284.11867302 184.0857914 279.60995865 184.68298912 C274.49859589 184.1082227 272.69385407 182.06293134 269.24959183 178.44574547 C268.63397888 177.82794212 268.01836594 177.21013878 267.38409805 176.57361412 C265.35642229 174.53088763 263.35446233 172.46473534 261.35139847 170.39789391 C259.94256633 168.97091482 258.5320221 167.5456242 257.11984634 166.12195396 C253.40626608 162.37033004 249.71330376 158.59907286 246.02516556 154.82245445 C240.12409883 148.78693626 234.19159143 142.782311 228.26039696 136.77642632 C226.19499514 134.67946573 224.13790873 132.57462501 222.0820961 130.46826744 C220.81124732 129.1741621 219.54026341 127.88018944 218.26912308 126.58637047 C217.70324478 126.00230431 217.13736649 125.41823814 216.55434036 124.81647301 C211.34791115 119.5385716 206.56701851 115.39076828 198.82405472 115.25726891 C186.65360423 118.05048705 177.87350489 130.11404027 169.42454338 138.76500702 C166.3021211 141.95719334 163.16206677 145.13199538 160.02522659 148.31000328 C156.05909707 152.33018107 152.0984473 156.3553627 148.15584183 160.39862633 C144.94347515 163.69207965 141.71430498 166.96819052 138.47318459 170.23334122 C137.24727527 171.47466126 136.02767467 172.72224556 134.8146801 173.97618866 C133.12315555 175.72323133 131.41101317 177.44726327 129.69246292 179.1676693 C128.95429085 179.94594833 128.95429085 179.94594833 128.20120621 180.73995018 C125.50603527 183.38869996 123.96922768 184.23796746 120.18239212 184.74144554 C116.76531122 184.24879977 115.62788008 183.94950327 113.22224808 181.60004234 C112.54975021 180.95579308 111.87725235 180.31154381 111.18437576 179.64777184 C110.01601685 178.46447289 110.01601685 178.46447289 108.82405472 177.25726891 C107.85243727 176.29167827 106.88032677 175.32658361 105.90782547 174.36188316 C103.02741342 171.48817879 100.17474156 168.58808342 97.32674217 165.68229485 C94.08999381 162.38401735 90.8373154 159.10148094 87.58772659 155.81586266 C83.47391322 151.65415033 79.36484396 147.48802629 75.2710762 143.30658531 C71.94222751 139.90727943 68.59873762 136.52299424 65.24518013 133.14806938 C63.97714983 131.86650948 62.71453131 130.57956995 61.45766258 129.28706169 C52.59838554 119.91296116 52.59838554 119.91296116 40.82405472 115.25726891 C35.62929105 115.25726891 32.43778917 117.37734399 28.82796097 120.83539391 Z M278.82405472 223.25726891 C277.50568167 224.66416301 276.22144545 226.10305479 274.9507637 227.55316734 C269.74852122 233.39420522 264.30653632 238.97506849 258.79671097 244.52289391 C258.28788313 245.03579727 257.77905529 245.54870064 257.25480843 246.07714653 C254.5683058 248.78428982 251.87869617 251.48830222 249.18660355 254.18988609 C246.43378072 256.95381764 243.69286022 259.72925328 240.95432758 262.50733376 C238.81871901 264.66924255 236.67412287 266.8220697 234.52711678 268.97265434 C233.51319137 269.99139915 232.5025967 271.01347183 231.49567223 272.03913689 C222.1376045 281.56068424 213.54755994 288.47311526 199.94905472 289.56976891 C181.94050296 289.03802033 169.90536835 273.49705592 158.12874222 261.65961266 C157.04466343 260.57366309 155.96035943 259.48793831 154.87584305 258.40242577 C152.0559487 255.57875813 149.23907327 252.75209833 146.42287064 249.92474937 C143.53502056 247.02657204 140.64424981 244.13131095 137.75374222 241.23578453 C132.10769173 235.57908853 126.46483527 229.91922002 120.82405472 224.25726891 C116.84019538 225.85596569 114.19281233 228.64002567 111.24861526 231.653265 C110.70332169 232.2030854 110.15802811 232.75290581 109.59621048 233.31938744 C108.41491339 234.51162621 107.23590076 235.70613186 106.05892372 236.90263557 C104.19249478 238.79928101 102.31942121 240.68912603 100.44437027 242.57724571 C95.11515436 247.94616244 89.798661 253.32761395 84.48543167 258.71234703 C81.23227275 262.0083502 77.97173282 265.29690856 74.70681572 268.58126259 C73.46760013 269.83100999 72.23130576 271.08366135 70.99807167 272.3393116 C69.2681284 274.10064086 67.52898634 275.85239983 65.78767776 277.60248375 C65.03536629 278.3756871 65.03536629 278.3756871 64.2678566 279.16451073 C57.32902899 286.08563171 49.96949079 288.6985929 40.38655472 289.56976891 C27.42108481 288.43244698 18.58988236 281.5254497 9.76155472 272.45258141 C9.04419144 271.72860161 8.32682816 271.00462181 7.58772659 270.25870323 C5.32585123 267.97364735 3.07450735 265.67857035 0.82405472 263.38226891 C-1.45676138 261.06640764 -3.73972771 258.7527215 -6.02531052 256.44156456 C-7.44076678 255.00909599 -8.85312955 253.57356294 -10.26212692 252.13474083 C-10.89368698 251.49342216 -11.52524704 250.8521035 -12.17594528 250.19135094 C-12.73282028 249.62320671 -13.28969528 249.05506248 -13.86344528 248.46970177 C-15.00057115 247.14417718 -15.00057115 247.14417718 -16.17594528 247.25726891 C-16.17594528 271.67726891 -16.17594528 296.09726891 -16.17594528 321.25726891 C126.38405472 321.25726891 268.94405472 321.25726891 415.82405472 321.25726891 C415.82405472 296.83726891 415.82405472 272.41726891 415.82405472 247.25726891 C411.02261188 251.37279134 406.5691379 255.43933018 402.21858597 259.97601891 C400.97522328 261.25151729 399.73105698 262.52623271 398.48616409 263.80023766 C396.56127903 265.77429058 394.64139409 267.7522127 392.73494339 269.74408531 C382.93121597 279.96712192 373.99414966 288.49997433 359.13655472 289.50726891 C343.36171417 289.21019093 333.90946038 277.61871053 323.60921097 267.20258141 C322.34560014 265.93269135 321.08146689 264.66332095 319.81683731 263.39444542 C316.5102517 260.07463621 313.2093075 256.74927998 309.90999222 253.42224693 C304.60627974 248.07517943 299.29558392 242.73506718 293.98179817 237.39801216 C292.12637424 235.53233948 290.27438055 233.66331039 288.42270279 231.79392052 C287.29626433 230.66066014 286.16971901 229.52750597 285.04304886 228.39447594 C284.5262204 227.87091011 284.00939194 227.34734428 283.47690201 226.80791283 C282.27813614 225.60527641 281.05383922 224.42816772 279.82405472 223.25726891 C279.49405472 223.25726891 279.16405472 223.25726891 278.82405472 223.25726891 Z M-16.17594528 336.25726891 C-18.38641702 357.196674 -18.38641702 357.196674 -10.61203009 372.01252788 C-3.75019037 376.73484955 4.24804327 375.94825036 12.22824478 375.88545799 C13.9130866 375.89050578 15.59792305 375.8977364 17.28274721 375.90695614 C21.90318128 375.92587219 26.52308553 375.91364834 31.14350617 375.8962332 C36.1299411 375.88285891 41.11629854 375.89829648 46.10272598 375.91005516 C55.86713089 375.9284352 65.6313357 375.91991713 75.39573438 375.90196694 C83.33075789 375.8879427 91.26572708 375.88404776 99.2007618 375.88740921 C100.3300042 375.88788665 101.45924661 375.88836409 102.62270848 375.888856 C104.9167121 375.88988233 107.21071571 375.89093769 109.50471931 375.89202177 C129.78967129 375.90058947 150.07452664 375.88391109 170.35945511 375.85419273 C190.04601983 375.82535138 209.73244537 375.81827353 229.41902542 375.83368492 C250.85448915 375.85044242 272.28988679 375.85448618 293.72535223 375.83697456 C296.01062261 375.83513016 298.29589301 375.83329543 300.58116341 375.83147049 C302.26778156 375.83010235 302.26778156 375.83010235 303.98847281 375.82870658 C311.91516983 375.82309868 319.84183461 375.8264107 327.76852989 375.83301544 C337.42671665 375.8407434 347.08476635 375.83401525 356.74292547 375.8088404 C361.67139021 375.79633339 366.59964144 375.79021349 371.52811432 375.80138206 C376.03903498 375.81141148 380.54952953 375.80299253 385.06039827 375.77980088 C386.69283637 375.77463509 388.32531255 375.77621514 389.95773412 375.78519554 C392.1767256 375.79638799 394.39427566 375.78295772 396.61317921 375.76342678 C398.46179801 375.76163956 398.46179801 375.76163956 400.34776264 375.75981623 C405.75100135 374.97870144 409.45301717 372.73654626 413.19905472 368.69476891 C419.70357293 358.93799159 415.82405472 349.30373297 415.82405472 336.25726891 C273.26405472 336.25726891 130.70405472 336.25726891 -16.17594528 336.25726891 Z " fill="#313132" transform="translate(56.17594528198242,60.74273109436035)"/>
</svg>
