<?xml version="1.0" encoding="UTF-8"?>
<svg version="1.1" xmlns="http://www.w3.org/2000/svg" width="512" height="512">
<path d="M0 0 C1.57194374 -0.01913956 1.57194374 -0.01913956 3.17564392 -0.03866577 C4.87256126 -0.04200424 4.87256126 -0.04200424 6.60375977 -0.04541016 C8.34774803 -0.05539536 8.34774803 -0.05539536 10.12696838 -0.06558228 C12.5873964 -0.07571373 15.04785193 -0.08039914 17.50830078 -0.08007812 C21.27690785 -0.08445147 25.04434436 -0.12076854 28.81274414 -0.15869141 C31.201412 -0.16455931 33.59008544 -0.16852888 35.97875977 -0.17041016 C37.10801376 -0.18478119 38.23726776 -0.19915222 39.40074158 -0.21395874 C40.45185623 -0.20780548 41.50297089 -0.20165222 42.5859375 -0.1953125 C43.50954575 -0.19816254 44.43315399 -0.20101257 45.38475037 -0.20394897 C48.69991142 0.45894005 49.86413437 1.58919071 51.85766602 4.29052734 C52.33868408 6.78363037 52.33868408 6.78363037 52.31176758 9.60986328 C52.31146545 10.67066101 52.31116333 11.73145874 52.31085205 12.82440186 C52.29020691 13.96306702 52.26956177 15.10173218 52.24829102 16.27490234 C52.24263123 17.44563293 52.23697144 18.61636353 52.23114014 19.8225708 C52.20874726 23.56230534 52.15854282 27.30108231 52.10766602 31.04052734 C52.0876049 33.57566976 52.06935346 36.11082719 52.05297852 38.64599609 C52.01227446 44.86150566 51.93398286 51.07494454 51.85766602 57.29052734 C65.38766602 57.29052734 78.91766602 57.29052734 92.85766602 57.29052734 C92.85766602 52.34052734 92.85766602 47.39052734 92.85766602 42.29052734 C95.85766602 38.29052734 95.85766602 38.29052734 99.23266602 37.35302734 C103.23284534 37.28405873 104.76485735 37.8344734 107.85766602 40.29052734 C110.39625705 45.36770941 108.85766602 51.61406522 108.85766602 57.29052734 C118.75766602 57.29052734 128.65766602 57.29052734 138.85766602 57.29052734 C138.85766602 43.76052734 138.85766602 30.23052734 138.85766602 16.29052734 C126.29277219 16.40899286 126.29277219 16.40899286 113.72827148 16.56079102 C112.14380501 16.56955938 110.55933175 16.57720249 108.97485352 16.58349609 C108.16346924 16.59884399 107.35208496 16.61419189 106.51611328 16.63000488 C101.55381312 16.63227908 98.15417615 16.05990376 93.85766602 13.29052734 C92.31179726 10.19878983 92.5640708 7.69623182 92.85766602 4.29052734 C94.87994788 1.65483543 96.07718287 0.44632232 99.36854553 -0.2106781 C100.30991867 -0.21084427 101.25129181 -0.21101044 102.22119141 -0.21118164 C103.82789452 -0.22525307 103.82789452 -0.22525307 105.46705627 -0.23960876 C106.61818405 -0.22837479 107.76931183 -0.21714081 108.95532227 -0.20556641 C110.73403969 -0.20774925 110.73403969 -0.20774925 112.5486908 -0.2099762 C115.05445819 -0.20831666 117.56023572 -0.19674944 120.06591797 -0.17602539 C123.90904846 -0.14705646 127.75080134 -0.15541925 131.59399414 -0.16845703 C134.02694358 -0.16222027 136.45988864 -0.15382982 138.89282227 -0.14306641 C140.04597427 -0.14600204 141.19912628 -0.14893768 142.38722229 -0.15196228 C143.45520554 -0.13927811 144.52318878 -0.12659393 145.62353516 -0.11352539 C146.5641127 -0.10812241 147.50469025 -0.10271942 148.47377014 -0.09715271 C150.85766602 0.29052734 150.85766602 0.29052734 152.62229919 1.56578064 C155.0351726 4.93449298 154.98138828 8.2965125 154.97119141 12.33447266 C154.97111588 13.33520813 154.97104034 14.3359436 154.97096252 15.36700439 C154.96580124 16.44004822 154.96063995 17.51309204 154.95532227 18.61865234 C154.95319984 20.27486603 154.95319984 20.27486603 154.95103455 21.96453857 C154.94543859 25.48989576 154.9328868 29.01518936 154.92016602 32.54052734 C154.91515049 34.93115143 154.91058768 37.3217765 154.90649414 39.71240234 C154.89632154 45.57182153 154.87674518 51.43110328 154.85766602 57.29052734 C168.05766602 57.29052734 181.25766602 57.29052734 194.85766602 57.29052734 C194.83446289 53.73916016 194.81125977 50.18779297 194.78735352 46.52880859 C194.77175317 43.08683632 194.75961058 39.64486799 194.74780273 36.20288086 C194.73774915 33.81191239 194.72410438 31.42095619 194.70678711 29.0300293 C194.68251091 25.59209155 194.67117637 22.15431646 194.66235352 18.71630859 C194.65203094 17.64842606 194.64170837 16.58054352 194.631073 15.4803009 C194.63092194 14.47964096 194.63077087 13.47898102 194.63061523 12.44799805 C194.62617401 11.57085648 194.62173279 10.6937149 194.61715698 9.78999329 C194.99753208 5.83698334 196.04619776 3.1019956 198.85766602 0.29052734 C201.12130737 0.02310181 201.12130737 0.02310181 203.97827148 0 C205.04633026 -0.0127597 206.11438904 -0.02551941 207.21481323 -0.03866577 C208.37312653 -0.04089142 209.53143982 -0.04311707 210.72485352 -0.04541016 C212.50425827 -0.05539536 212.50425827 -0.05539536 214.3196106 -0.06558228 C216.83309372 -0.07572337 219.34660386 -0.08039885 221.86010742 -0.08007812 C225.71000508 -0.08444694 229.55875296 -0.12074153 233.40844727 -0.15869141 C235.84724542 -0.16456002 238.28604903 -0.16852911 240.72485352 -0.17041016 C241.87911835 -0.18478119 243.03338318 -0.19915222 244.22262573 -0.21395874 C245.29698883 -0.20780548 246.37135193 -0.20165222 247.47827148 -0.1953125 C248.42266083 -0.19816254 249.36705017 -0.20101257 250.34005737 -0.20394897 C253.68741825 0.45349661 254.8508289 1.56034722 256.85766602 4.29052734 C257.33868408 6.78363037 257.33868408 6.78363037 257.31176758 9.60986328 C257.31131439 11.20105988 257.31131439 11.20105988 257.31085205 12.82440186 C257.29020691 13.96306702 257.26956177 15.10173218 257.24829102 16.27490234 C257.24263123 17.44563293 257.23697144 18.61636353 257.23114014 19.8225708 C257.20874726 23.56230534 257.15854282 27.30108231 257.10766602 31.04052734 C257.0876049 33.57566976 257.06935346 36.11082719 257.05297852 38.64599609 C257.01227446 44.86150566 256.93398286 51.07494454 256.85766602 57.29052734 C270.38766602 57.29052734 283.91766602 57.29052734 297.85766602 57.29052734 C297.81125977 53.51099609 297.76485352 49.73146484 297.71704102 45.83740234 C297.6858538 42.18035221 297.66156112 38.52331683 297.63793945 34.86621094 C297.6178133 32.32284931 297.59050964 29.77953401 297.5559082 27.23632812 C297.50743632 23.5824033 297.48470685 19.92908979 297.46704102 16.27490234 C297.44639587 15.13623718 297.42575073 13.99757202 297.40447998 12.82440186 C297.40417786 11.76360413 297.40387573 10.7028064 297.40356445 9.60986328 C297.39468201 8.67720642 297.38579956 7.74454956 297.37664795 6.78363037 C298.0200905 3.44868586 299.1455967 2.29370557 301.85766602 0.29052734 C304.32385254 -0.2106781 304.32385254 -0.2106781 307.11352539 -0.21118164 C308.68535583 -0.22525307 308.68535583 -0.22525307 310.28894043 -0.23960876 C311.41505737 -0.22837479 312.54117432 -0.21714081 313.70141602 -0.20556641 C314.86265991 -0.20702164 316.02390381 -0.20847687 317.22033691 -0.2099762 C319.67483022 -0.20831664 322.12933386 -0.1967492 324.58374023 -0.17602539 C328.34346665 -0.14708197 332.10178249 -0.15541417 335.86157227 -0.16845703 C338.24569371 -0.16221939 340.6298107 -0.15382825 343.01391602 -0.14306641 C344.14003296 -0.14600204 345.2661499 -0.14893768 346.4263916 -0.15196228 C347.47427856 -0.13927811 348.52216553 -0.12659393 349.60180664 -0.11352539 C350.52239868 -0.10812241 351.44299072 -0.10271942 352.39147949 -0.09715271 C355.37377007 0.37165797 356.72451736 1.16877275 358.85766602 3.29052734 C360.03578912 6.25960953 359.97919498 9.16505753 359.97119141 12.33447266 C359.97111588 13.33520813 359.97104034 14.3359436 359.97096252 15.36700439 C359.96580124 16.44004822 359.96063995 17.51309204 359.95532227 18.61865234 C359.95319984 20.27486603 359.95319984 20.27486603 359.95103455 21.96453857 C359.94543859 25.48989576 359.9328868 29.01518936 359.92016602 32.54052734 C359.91515049 34.93115143 359.91058768 37.3217765 359.90649414 39.71240234 C359.89547049 45.57179903 359.87873635 51.43115864 359.85766602 57.29052734 C360.51499222 57.2816449 361.17231842 57.27276245 361.8495636 57.26361084 C368.67859214 57.175255 375.50745888 57.11484189 382.33691406 57.07080078 C384.88711133 57.05066038 387.4372623 57.02334638 389.98730469 56.98876953 C393.64863499 56.94035995 397.30935584 56.9175826 400.97094727 56.89990234 C402.68668694 56.86893463 402.68668694 56.86893463 404.43708801 56.83734131 C405.49796127 56.83703918 406.55883453 56.83673706 407.65185547 56.83642578 C409.05417168 56.82310211 409.05417168 56.82310211 410.4848175 56.80950928 C412.85766602 57.29052734 412.85766602 57.29052734 414.65777588 58.99041748 C416.0781865 61.71325051 416.24373684 63.48252414 416.26171875 66.54638672 C416.28074501 68.11821716 416.28074501 68.11821716 416.30015564 69.72180176 C416.29575218 71.41097717 416.29575218 71.41097717 416.29125977 73.13427734 C416.29650162 74.29552124 416.30174347 75.45676514 416.30714417 76.65319824 C416.31356584 79.10765788 416.31222554 81.56214829 416.30371094 84.01660156 C416.29519792 87.77643464 416.32396796 91.53475051 416.35571289 95.29443359 C416.35732486 97.67854772 416.35674745 100.06266454 416.35375977 102.44677734 C416.36499374 103.57289429 416.37622772 104.69901123 416.38780212 105.85925293 C416.37842117 106.90713989 416.36904022 107.95502686 416.359375 109.03466797 C416.35912575 110.41555603 416.35912575 110.41555603 416.35887146 111.82434082 C415.68744225 115.12811511 414.54778738 116.29828994 411.85766602 118.29052734 C409.40252686 118.77154541 409.40252686 118.77154541 406.63012695 118.74462891 C405.58934998 118.74432678 404.548573 118.74402466 403.47625732 118.74371338 C401.80107025 118.71274567 401.80107025 118.71274567 400.09204102 118.68115234 C398.94350647 118.67549255 397.79497192 118.66983276 396.6116333 118.66400146 C392.94322027 118.64161065 389.27578385 118.59140676 385.60766602 118.54052734 C383.12070095 118.52046596 380.63372058 118.50221456 378.14672852 118.48583984 C372.0496954 118.44513869 365.95477382 118.36684719 359.85766602 118.29052734 C359.85766602 131.82052734 359.85766602 145.35052734 359.85766602 159.29052734 C365.41868164 159.22091797 365.41868164 159.22091797 371.09204102 159.14990234 C374.67959219 159.11871434 378.26712831 159.09442211 381.85473633 159.07080078 C384.34959667 159.0506757 386.84440979 159.02337282 389.33911133 158.98876953 C392.9235397 158.94029278 396.50734486 158.91756714 400.09204102 158.89990234 C401.2088324 158.8792572 402.32562378 158.85861206 403.47625732 158.83734131 C404.5170343 158.83703918 405.55781128 158.83673706 406.63012695 158.83642578 C407.54501892 158.82754333 408.45991089 158.81866089 409.40252686 158.80950928 C412.71003973 159.4575269 413.86595744 160.60306236 415.85766602 163.29052734 C416.35887146 165.75671387 416.35887146 165.75671387 416.359375 168.54638672 C416.37344643 170.11821716 416.37344643 170.11821716 416.38780212 171.72180176 C416.37095116 173.41097717 416.37095116 173.41097717 416.35375977 175.13427734 C416.355215 176.29552124 416.35667023 177.45676514 416.35816956 178.65319824 C416.35651 181.10769154 416.34494256 183.56219519 416.32421875 186.01660156 C416.29527533 189.77632797 416.30360753 193.53464382 416.31665039 197.29443359 C416.31041275 199.67855504 416.30202161 202.06267203 416.29125977 204.44677734 C416.2941954 205.57289429 416.29713104 206.69901123 416.30015564 207.85925293 C416.28747147 208.90713989 416.27478729 209.95502686 416.26171875 211.03466797 C416.25631577 211.95526001 416.25091278 212.87585205 416.24534607 213.82434082 C415.77653539 216.80663139 414.97942061 218.15737868 412.85766602 220.29052734 C409.91406105 221.45497285 407.04694622 221.4121492 403.90551758 221.40405273 C402.4344455 221.40393944 402.4344455 221.40393944 400.93365479 221.40382385 C399.88248474 221.39866257 398.8313147 221.39350128 397.74829102 221.38818359 C396.6663446 221.38676865 395.58439819 221.3853537 394.46966553 221.38389587 C391.01563751 221.37830053 387.56167443 221.36574885 384.10766602 221.35302734 C381.76521904 221.34801174 379.42277104 221.34344894 377.08032227 221.33935547 C371.33939173 221.32918373 365.59860152 221.30960726 359.85766602 221.29052734 C359.85766602 234.49052734 359.85766602 247.69052734 359.85766602 261.29052734 C363.3368457 261.26732422 366.81602539 261.24412109 370.40063477 261.22021484 C373.77310827 261.20461394 377.14557774 261.19247167 380.51806641 261.18066406 C382.86053265 261.17061126 385.20298636 261.15696705 387.54541016 261.13964844 C390.91384984 261.11536882 394.28212349 261.10403692 397.65063477 261.09521484 C398.69664352 261.08489227 399.74265228 261.0745697 400.82035828 261.06393433 C402.29131706 261.06370773 402.29131706 261.06370773 403.79199219 261.06347656 C404.65136887 261.05903534 405.51074554 261.05459412 406.39616394 261.05001831 C410.32964319 261.43435164 413.06050827 262.49336959 415.85766602 265.29052734 C416.12509155 267.5541687 416.12509155 267.5541687 416.14819336 270.41113281 C416.16095306 271.47919159 416.17371277 272.54725037 416.18685913 273.64767456 C416.1901976 275.3851445 416.1901976 275.3851445 416.19360352 277.15771484 C416.20026031 278.34398468 416.20691711 279.53025452 416.21377563 280.75247192 C416.22391673 283.26595505 416.22859221 285.77946518 416.22827148 288.29296875 C416.2326403 292.14286641 416.26893489 295.99161428 416.30688477 299.84130859 C416.31275338 302.28010674 416.31672247 304.71891036 416.31860352 307.15771484 C416.33297455 308.31197968 416.34734558 309.46624451 416.3621521 310.65548706 C416.35599884 311.72985016 416.34984558 312.80421326 416.34350586 313.91113281 C416.3463559 314.85552216 416.34920593 315.7999115 416.35214233 316.7729187 C415.69524333 320.11749668 414.5826051 321.28253835 411.85766602 323.29052734 C409.40252686 323.77154541 409.40252686 323.77154541 406.63012695 323.74462891 C405.58934998 323.74432678 404.548573 323.74402466 403.47625732 323.74371338 C401.80107025 323.71274567 401.80107025 323.71274567 400.09204102 323.68115234 C398.94350647 323.67549255 397.79497192 323.66983276 396.6116333 323.66400146 C392.94322027 323.64161065 389.27578385 323.59140676 385.60766602 323.54052734 C383.12070095 323.52046596 380.63372058 323.50221456 378.14672852 323.48583984 C372.0496954 323.44513869 365.95477382 323.36684719 359.85766602 323.29052734 C359.85766602 336.82052734 359.85766602 350.35052734 359.85766602 364.29052734 C365.41868164 364.22091797 365.41868164 364.22091797 371.09204102 364.14990234 C374.67959219 364.11871434 378.26712831 364.09442211 381.85473633 364.07080078 C384.34959667 364.0506757 386.84440979 364.02337282 389.33911133 363.98876953 C392.9235397 363.94029278 396.50734486 363.91756714 400.09204102 363.89990234 C401.2088324 363.8792572 402.32562378 363.85861206 403.47625732 363.83734131 C404.5170343 363.83703918 405.55781128 363.83673706 406.63012695 363.83642578 C407.54501892 363.82754333 408.45991089 363.81866089 409.40252686 363.80950928 C412.71003973 364.4575269 413.86595744 365.60306236 415.85766602 368.29052734 C416.35887146 370.75671387 416.35887146 370.75671387 416.359375 373.54638672 C416.37344643 375.11821716 416.37344643 375.11821716 416.38780212 376.72180176 C416.37095116 378.41097717 416.37095116 378.41097717 416.35375977 380.13427734 C416.355215 381.29552124 416.35667023 382.45676514 416.35816956 383.65319824 C416.35651 386.10769154 416.34494256 388.56219519 416.32421875 391.01660156 C416.29527533 394.77632797 416.30360753 398.53464382 416.31665039 402.29443359 C416.31041275 404.67855504 416.30202161 407.06267203 416.29125977 409.44677734 C416.2941954 410.57289429 416.29713104 411.69901123 416.30015564 412.85925293 C416.28747147 413.90713989 416.27478729 414.95502686 416.26171875 416.03466797 C416.25631577 416.95526001 416.25091278 417.87585205 416.24534607 418.82434082 C415.77108364 421.84131214 415.07877736 423.19307466 412.85766602 425.29052734 C410.4848175 425.77154541 410.4848175 425.77154541 407.65185547 425.74462891 C406.59098221 425.74432678 405.53010895 425.74402466 404.43708801 425.74371338 C403.29326157 425.72306824 402.14943512 425.7024231 400.97094727 425.68115234 C399.79880173 425.67549255 398.62665619 425.66983276 397.41899109 425.66400146 C393.66897023 425.64158056 389.91989891 425.59137118 386.17016602 425.54052734 C383.63046626 425.52046985 381.09075155 425.50221778 378.55102539 425.48583984 C372.31958069 425.44169695 366.08869118 425.37472716 359.85766602 425.29052734 C359.86210724 425.90582809 359.86654846 426.52112885 359.87112427 427.15507507 C359.91539286 433.56275102 359.94554717 439.97038347 359.9675293 446.37817383 C359.97758288 448.7691423 359.99122765 451.16009849 360.00854492 453.55102539 C360.03282112 456.98896314 360.04415566 460.42673823 360.05297852 463.86474609 C360.06330109 464.93262863 360.07362366 466.00051117 360.08425903 467.10075378 C360.0844101 468.10141373 360.08456116 469.10207367 360.0847168 470.13305664 C360.08915802 471.01019821 360.09359924 471.88733978 360.09817505 472.7910614 C359.82278584 475.65301604 359.16224504 477.73024817 357.85766602 480.29052734 C354.56495509 482.48566796 353.54366236 482.54942785 349.71533203 482.58105469 C348.66736954 482.59381439 347.61940704 482.6065741 346.53968811 482.61972046 C344.84277077 482.62305893 344.84277077 482.62305893 343.11157227 482.62646484 C341.94891342 482.63312164 340.78625458 482.63977844 339.58836365 482.64663696 C337.12793563 482.65676842 334.66748011 482.66145383 332.20703125 482.66113281 C328.43842418 482.66550616 324.67098767 482.70182323 320.90258789 482.73974609 C318.51392003 482.745614 316.12524659 482.74958357 313.73657227 482.75146484 C312.60731827 482.76583588 311.47806427 482.78020691 310.31459045 482.79501343 C308.73791847 482.78578354 308.73791847 482.78578354 307.12939453 482.77636719 C306.20578629 482.77921722 305.28217804 482.78206726 304.33058167 482.78500366 C301.01542061 482.12211464 299.85119766 480.99186398 297.85766602 478.29052734 C297.37664795 475.79742432 297.37664795 475.79742432 297.40356445 472.97119141 C297.40401764 471.37999481 297.40401764 471.37999481 297.40447998 469.75665283 C297.43544769 468.04865509 297.43544769 468.04865509 297.46704102 466.30615234 C297.47270081 465.13542175 297.4783606 463.96469116 297.48419189 462.75848389 C297.50658477 459.01874935 297.55678921 455.27997238 297.60766602 451.54052734 C297.62772713 449.00538493 297.64597857 446.4702275 297.66235352 443.93505859 C297.70305757 437.71954902 297.78134917 431.50611014 297.85766602 425.29052734 C284.32766602 425.29052734 270.79766602 425.29052734 256.85766602 425.29052734 C256.90407227 429.07005859 256.95047852 432.84958984 256.99829102 436.74365234 C257.02947823 440.40070248 257.05377091 444.05773785 257.07739258 447.71484375 C257.09751873 450.25820538 257.12482239 452.80152068 257.15942383 455.34472656 C257.20789571 458.99865139 257.23062518 462.6519649 257.24829102 466.30615234 C257.26893616 467.4448175 257.2895813 468.58348267 257.31085205 469.75665283 C257.31115417 470.81745056 257.3114563 471.87824829 257.31176758 472.97119141 C257.32065002 473.90384827 257.32953247 474.83650513 257.33868408 475.79742432 C256.69460684 479.13565846 255.57589332 480.28865733 252.85766602 482.29052734 C250.3467865 482.79173279 250.3467865 482.79173279 247.49414062 482.79223633 C245.88743752 482.80630775 245.88743752 482.80630775 244.24827576 482.82066345 C243.09714798 482.80942947 241.9460202 482.7981955 240.76000977 482.78662109 C238.98129234 482.78880394 238.98129234 482.78880394 237.16664124 482.79103088 C234.66087384 482.78937135 232.15509631 482.77780413 229.64941406 482.75708008 C225.80628357 482.72811115 221.96453069 482.73647394 218.12133789 482.74951172 C215.68838845 482.74327495 213.25544339 482.7348845 210.82250977 482.72412109 C209.66935776 482.72705673 208.51620575 482.72999237 207.32810974 482.73301697 C206.2601265 482.72033279 205.19214325 482.70764862 204.09179688 482.69458008 C203.15121933 482.68917709 202.21064178 482.68377411 201.24156189 482.6782074 C198.85766602 482.29052734 198.85766602 482.29052734 197.09303284 481.01527405 C194.68015943 477.6465617 194.73394376 474.28454218 194.74414062 470.24658203 C194.74421616 469.24584656 194.74429169 468.24511108 194.74436951 467.21405029 C194.74953079 466.14100647 194.75469208 465.06796265 194.76000977 463.96240234 C194.76213219 462.30618866 194.76213219 462.30618866 194.76429749 460.61651611 C194.76989344 457.09115893 194.78244523 453.56586533 194.79516602 450.04052734 C194.80018154 447.64990326 194.80474435 445.25927818 194.80883789 442.86865234 C194.81901049 437.00923316 194.83858685 431.1499514 194.85766602 425.29052734 C181.65766602 425.29052734 168.45766602 425.29052734 154.85766602 425.29052734 C154.88086914 428.84189453 154.90407227 432.39326172 154.92797852 436.05224609 C154.94357886 439.49421837 154.95572145 442.9361867 154.9675293 446.37817383 C154.97758288 448.7691423 154.99122765 451.16009849 155.00854492 453.55102539 C155.03282112 456.98896314 155.04415566 460.42673823 155.05297852 463.86474609 C155.06330109 464.93262863 155.07362366 466.00051117 155.08425903 467.10075378 C155.0844101 468.10141373 155.08456116 469.10207367 155.0847168 470.13305664 C155.08915802 471.01019821 155.09359924 471.88733978 155.09817505 472.7910614 C154.82278584 475.65301604 154.16224504 477.73024817 152.85766602 480.29052734 C149.56495509 482.48566796 148.54366236 482.54942785 144.71533203 482.58105469 C143.66736954 482.59381439 142.61940704 482.6065741 141.53968811 482.61972046 C139.84277077 482.62305893 139.84277077 482.62305893 138.11157227 482.62646484 C136.94891342 482.63312164 135.78625458 482.63977844 134.58836365 482.64663696 C132.12793563 482.65676842 129.66748011 482.66145383 127.20703125 482.66113281 C123.43842418 482.66550616 119.67098767 482.70182323 115.90258789 482.73974609 C113.51392003 482.745614 111.12524659 482.74958357 108.73657227 482.75146484 C107.60731827 482.76583588 106.47806427 482.78020691 105.31459045 482.79501343 C103.73791847 482.78578354 103.73791847 482.78578354 102.12939453 482.77636719 C101.20578629 482.77921722 100.28217804 482.78206726 99.33058167 482.78500366 C96.01542061 482.12211464 94.85119766 480.99186398 92.85766602 478.29052734 C92.37664795 475.79742432 92.37664795 475.79742432 92.40356445 472.97119141 C92.40386658 471.91039368 92.4041687 470.84959595 92.40447998 469.75665283 C92.43544769 468.04865509 92.43544769 468.04865509 92.46704102 466.30615234 C92.47270081 465.13542175 92.4783606 463.96469116 92.48419189 462.75848389 C92.50658477 459.01874935 92.55678921 455.27997238 92.60766602 451.54052734 C92.62772713 449.00538493 92.64597857 446.4702275 92.66235352 443.93505859 C92.70305757 437.71954902 92.78134917 431.50611014 92.85766602 425.29052734 C79.32766602 425.29052734 65.79766602 425.29052734 51.85766602 425.29052734 C51.90407227 429.07005859 51.95047852 432.84958984 51.99829102 436.74365234 C52.02947823 440.40070248 52.05377091 444.05773785 52.07739258 447.71484375 C52.09751873 450.25820538 52.12482239 452.80152068 52.15942383 455.34472656 C52.20789571 458.99865139 52.23062518 462.6519649 52.24829102 466.30615234 C52.26893616 467.4448175 52.2895813 468.58348267 52.31085205 469.75665283 C52.31130524 471.34784943 52.31130524 471.34784943 52.31176758 472.97119141 C52.32509125 474.3701767 52.32509125 474.3701767 52.33868408 475.79742432 C51.69524153 479.13236883 50.56973533 480.28734912 47.85766602 482.29052734 C45.39147949 482.79173279 45.39147949 482.79173279 42.60180664 482.79223633 C41.0299762 482.80630775 41.0299762 482.80630775 39.4263916 482.82066345 C38.30027466 482.80942947 37.17415771 482.7981955 36.01391602 482.78662109 C34.85267212 482.78807632 33.69142822 482.78953156 32.49499512 482.79103088 C30.04050182 482.78937133 27.58599817 482.77780389 25.1315918 482.75708008 C21.37186539 482.72813665 17.61354954 482.73646886 13.85375977 482.74951172 C11.46963832 482.74327408 9.08552133 482.73488294 6.70141602 482.72412109 C5.57529907 482.72705673 4.44918213 482.72999237 3.28894043 482.73301697 C2.24105347 482.72033279 1.1931665 482.70764862 0.11352539 482.69458008 C-0.80706665 482.68917709 -1.72765869 482.68377411 -2.67614746 482.6782074 C-5.65843803 482.20939672 -7.00918533 481.41228194 -9.14233398 479.29052734 C-10.32045708 476.32144516 -10.26386295 473.41599716 -10.25585938 470.24658203 C-10.25578384 469.24584656 -10.25570831 468.24511108 -10.25563049 467.21405029 C-10.25046921 466.14100647 -10.24530792 465.06796265 -10.23999023 463.96240234 C-10.23857529 462.85825989 -10.23716034 461.75411743 -10.23570251 460.61651611 C-10.23010656 457.09115893 -10.21755477 453.56586533 -10.20483398 450.04052734 C-10.19981846 447.64990326 -10.19525565 445.25927818 -10.19116211 442.86865234 C-10.18013845 437.00925566 -10.16340432 431.14989605 -10.14233398 425.29052734 C-10.79966019 425.29940979 -11.45698639 425.30829224 -12.13423157 425.31744385 C-18.96326011 425.40579968 -25.79212684 425.46621279 -32.62158203 425.51025391 C-35.1717793 425.53039431 -37.72193026 425.55770831 -40.27197266 425.59228516 C-43.93330296 425.64069473 -47.59402381 425.66347208 -51.25561523 425.68115234 C-52.39944168 425.70179749 -53.54326813 425.72244263 -54.72175598 425.74371338 C-55.78262924 425.7440155 -56.8435025 425.74431763 -57.93652344 425.74462891 C-58.87140091 425.75351135 -59.80627838 425.7623938 -60.76948547 425.77154541 C-63.14233398 425.29052734 -63.14233398 425.29052734 -64.94244385 423.59063721 C-66.36285447 420.86780418 -66.52840481 419.09853055 -66.54638672 416.03466797 C-66.55907089 414.98678101 -66.57175507 413.93889404 -66.58482361 412.85925293 C-66.58188797 411.73313599 -66.57895233 410.60701904 -66.57592773 409.44677734 C-66.58379051 407.7049115 -66.58379051 407.7049115 -66.59181213 405.92785645 C-66.59823381 403.47339681 -66.5968935 401.0189064 -66.58837891 398.56445312 C-66.57986589 394.80462004 -66.60863592 391.04630418 -66.64038086 387.28662109 C-66.64199283 384.90250697 -66.64141542 382.51839014 -66.63842773 380.13427734 C-66.64966171 379.0081604 -66.66089569 377.88204346 -66.67247009 376.72180176 C-66.66308914 375.67391479 -66.65370819 374.62602783 -66.64404297 373.54638672 C-66.6438768 372.62579468 -66.64371063 371.70520264 -66.64353943 370.75671387 C-65.97211022 367.45293958 -64.83245535 366.28276475 -62.14233398 364.29052734 C-59.68719482 363.80950928 -59.68719482 363.80950928 -56.91479492 363.83642578 C-55.35362946 363.83687897 -55.35362946 363.83687897 -53.76092529 363.83734131 C-52.08573822 363.86830902 -52.08573822 363.86830902 -50.37670898 363.89990234 C-49.22817444 363.90556213 -48.07963989 363.91122192 -46.89630127 363.91705322 C-43.22788824 363.93944403 -39.56045182 363.98964793 -35.89233398 364.04052734 C-33.40536892 364.06058873 -30.91838855 364.07884013 -28.43139648 364.09521484 C-22.33436337 364.135916 -16.23944179 364.2142075 -10.14233398 364.29052734 C-10.14233398 350.76052734 -10.14233398 337.23052734 -10.14233398 323.29052734 C-15.70334961 323.36013672 -15.70334961 323.36013672 -21.37670898 323.43115234 C-24.96426016 323.46234035 -28.55179628 323.48663257 -32.1394043 323.51025391 C-34.63426464 323.53037898 -37.12907776 323.55768186 -39.6237793 323.59228516 C-43.20820767 323.64076191 -46.79201283 323.66348755 -50.37670898 323.68115234 C-51.49350037 323.70179749 -52.61029175 323.72244263 -53.76092529 323.74371338 C-55.32209076 323.74416656 -55.32209076 323.74416656 -56.91479492 323.74462891 C-57.82968689 323.75351135 -58.74457886 323.7623938 -59.68719482 323.77154541 C-62.99803586 323.12287572 -64.15187461 321.98416418 -66.14233398 319.29052734 C-66.64353943 316.77964783 -66.64353943 316.77964783 -66.64404297 313.92700195 C-66.65342392 312.85586655 -66.66280487 311.78473114 -66.67247009 310.68113708 C-66.65561913 308.95444542 -66.65561913 308.95444542 -66.63842773 307.19287109 C-66.63988297 306.00705948 -66.6413382 304.82124786 -66.64283752 303.59950256 C-66.64117799 301.09373517 -66.62961077 298.58795764 -66.60888672 296.08227539 C-66.57991779 292.2391449 -66.58828058 288.39739202 -66.60131836 284.55419922 C-66.59508159 282.12124978 -66.58669114 279.68830471 -66.57592773 277.25537109 C-66.57886337 276.10221909 -66.58179901 274.94906708 -66.58482361 273.76097107 C-66.57213943 272.69298782 -66.55945526 271.62500458 -66.54638672 270.5246582 C-66.54098373 269.58408066 -66.53558075 268.64350311 -66.53001404 267.67442322 C-66.14233398 265.29052734 -66.14233398 265.29052734 -64.86708069 263.52589417 C-61.5247362 261.13190699 -58.19713291 261.16667477 -54.19018555 261.17700195 C-53.20947083 261.17707748 -52.2287561 261.17715302 -51.21832275 261.17723083 C-50.16715271 261.18239212 -49.11598267 261.18755341 -48.03295898 261.19287109 C-46.95101257 261.19428604 -45.86906616 261.19570099 -44.7543335 261.19715881 C-41.30030548 261.20275416 -37.84634239 261.21530584 -34.39233398 261.22802734 C-32.049887 261.23304294 -29.70743901 261.23760575 -27.36499023 261.24169922 C-21.6240597 261.25187096 -15.88326949 261.27144743 -10.14233398 261.29052734 C-10.14233398 248.09052734 -10.14233398 234.89052734 -10.14233398 221.29052734 C-13.62151367 221.31373047 -17.10069336 221.33693359 -20.68530273 221.36083984 C-24.05777624 221.37644075 -27.43024571 221.38858302 -30.80273438 221.40039062 C-33.14520062 221.41044343 -35.48765433 221.42408764 -37.83007812 221.44140625 C-41.19851781 221.46568587 -44.56679146 221.47701777 -47.93530273 221.48583984 C-48.98131149 221.49616241 -50.02732025 221.50648499 -51.10502625 221.51712036 C-52.57598503 221.51734695 -52.57598503 221.51734695 -54.07666016 221.51757812 C-54.93603683 221.52201935 -55.79541351 221.52646057 -56.68083191 221.53103638 C-60.61431115 221.14670305 -63.34517623 220.08768509 -66.14233398 217.29052734 C-66.40975952 215.02688599 -66.40975952 215.02688599 -66.43286133 212.16992188 C-66.44562103 211.1018631 -66.45838074 210.03380432 -66.4715271 208.93338013 C-66.47375275 207.77506683 -66.47597839 206.61675354 -66.47827148 205.42333984 C-66.48825668 203.64393509 -66.48825668 203.64393509 -66.4984436 201.82858276 C-66.5085847 199.31509964 -66.51326018 196.8015895 -66.51293945 194.28808594 C-66.51730827 190.43818828 -66.55360286 186.5894404 -66.59155273 182.73974609 C-66.59742134 180.30094794 -66.60139044 177.86214433 -66.60327148 175.42333984 C-66.61764252 174.26907501 -66.63201355 173.11481018 -66.64682007 171.92556763 C-66.64066681 170.85120453 -66.63451355 169.77684143 -66.62817383 168.66992188 C-66.63102386 167.72553253 -66.6338739 166.78114319 -66.6368103 165.80813599 C-65.9799113 162.46355801 -64.86727307 161.29851633 -62.14233398 159.29052734 C-59.68719482 158.80950928 -59.68719482 158.80950928 -56.91479492 158.83642578 C-55.35362946 158.83687897 -55.35362946 158.83687897 -53.76092529 158.83734131 C-52.08573822 158.86830902 -52.08573822 158.86830902 -50.37670898 158.89990234 C-48.65390717 158.90839203 -48.65390717 158.90839203 -46.89630127 158.91705322 C-43.22788824 158.93944403 -39.56045182 158.98964793 -35.89233398 159.04052734 C-33.40536892 159.06058873 -30.91838855 159.07884013 -28.43139648 159.09521484 C-22.33436337 159.135916 -16.23944179 159.2142075 -10.14233398 159.29052734 C-10.14233398 145.76052734 -10.14233398 132.23052734 -10.14233398 118.29052734 C-15.70334961 118.36013672 -15.70334961 118.36013672 -21.37670898 118.43115234 C-24.96426016 118.46234035 -28.55179628 118.48663257 -32.1394043 118.51025391 C-34.63426464 118.53037898 -37.12907776 118.55768186 -39.6237793 118.59228516 C-43.20820767 118.64076191 -46.79201283 118.66348755 -50.37670898 118.68115234 C-51.49350037 118.70179749 -52.61029175 118.72244263 -53.76092529 118.74371338 C-55.32209076 118.74416656 -55.32209076 118.74416656 -56.91479492 118.74462891 C-57.82968689 118.75351135 -58.74457886 118.7623938 -59.68719482 118.77154541 C-62.9947077 118.12352779 -64.15062541 116.97799232 -66.14233398 114.29052734 C-66.64353943 111.82434082 -66.64353943 111.82434082 -66.64404297 109.03466797 C-66.6581144 107.46283752 -66.6581144 107.46283752 -66.67247009 105.85925293 C-66.66123611 104.73313599 -66.65000214 103.60701904 -66.63842773 102.44677734 C-66.63988297 101.28553345 -66.6413382 100.12428955 -66.64283752 98.92785645 C-66.64117797 96.47336314 -66.62961053 94.0188595 -66.60888672 91.56445312 C-66.5799433 87.80472671 -66.5882755 84.04641086 -66.60131836 80.28662109 C-66.59508072 77.90249965 -66.58668958 75.51838266 -66.57592773 73.13427734 C-66.57886337 72.0081604 -66.58179901 70.88204346 -66.58482361 69.72180176 C-66.57213943 68.67391479 -66.55945526 67.62602783 -66.54638672 66.54638672 C-66.54098373 65.62579468 -66.53558075 64.70520264 -66.53001404 63.75671387 C-66.05575161 60.73974254 -65.36344533 59.38798003 -63.14233398 57.29052734 C-60.76948547 56.80950928 -60.76948547 56.80950928 -57.93652344 56.83642578 C-56.87565018 56.83672791 -55.81477692 56.83703003 -54.72175598 56.83734131 C-53.57792953 56.85798645 -52.43410309 56.87863159 -51.25561523 56.89990234 C-50.0834697 56.90556213 -48.91132416 56.91122192 -47.70365906 56.91705322 C-43.9536382 56.93947413 -40.20456688 56.98968351 -36.45483398 57.04052734 C-33.91513422 57.06058484 -31.37541951 57.07883691 -28.83569336 57.09521484 C-22.60424866 57.13935774 -16.37335915 57.20632753 -10.14233398 57.29052734 C-10.14677521 56.67522659 -10.15121643 56.05992584 -10.15579224 55.42597961 C-10.20006083 49.01830367 -10.23021514 42.61067122 -10.25219727 36.20288086 C-10.26225085 33.81191239 -10.27589562 31.42095619 -10.29321289 29.0300293 C-10.31748909 25.59209155 -10.32882363 22.15431646 -10.33764648 18.71630859 C-10.34796906 17.64842606 -10.35829163 16.58054352 -10.368927 15.4803009 C-10.36915359 13.97931099 -10.36915359 13.97931099 -10.36938477 12.44799805 C-10.37382599 11.57085648 -10.37826721 10.6937149 -10.38284302 9.78999329 C-10.10745381 6.92803864 -9.44691301 4.85080652 -8.14233398 2.29052734 C-4.84962306 0.09538672 -3.82833032 0.03162684 0 0 Z M6.85766602 16.29052734 C6.85766602 63.48052734 6.85766602 110.67052734 6.85766602 159.29052734 C16.42766602 159.29052734 25.99766602 159.29052734 35.85766602 159.29052734 C35.85766602 112.10052734 35.85766602 64.91052734 35.85766602 16.29052734 C26.28766602 16.29052734 16.71766602 16.29052734 6.85766602 16.29052734 Z M210.85766602 16.29052734 C210.85766602 63.48052734 210.85766602 110.67052734 210.85766602 159.29052734 C220.75766602 159.29052734 230.65766602 159.29052734 240.85766602 159.29052734 C241.02783922 153.21823612 241.02783922 153.21823612 241.15551758 147.14501953 C241.40590684 140.91691612 241.40590684 140.91691612 243.71704102 137.71240234 C246.66637299 135.75335702 248.38691536 135.7120689 251.85766602 136.29052734 C255.85766602 140.29052734 255.85766602 140.29052734 256.85766602 159.29052734 C270.38766602 159.29052734 283.91766602 159.29052734 297.85766602 159.29052734 C297.85766602 145.76052734 297.85766602 132.23052734 297.85766602 118.29052734 C294.15032227 118.26474609 290.44297852 118.23896484 286.62329102 118.21240234 C283.0356484 118.17399823 279.4481503 118.12883252 275.8605957 118.08300781 C273.36587413 118.05476936 270.8710626 118.03356922 268.3762207 118.01953125 C264.79144135 117.99814235 261.20774684 117.95151026 257.62329102 117.89990234 C256.50649963 117.89867371 255.38970825 117.89744507 254.23907471 117.8961792 C253.19829773 117.87646057 252.15752075 117.85674194 251.08520508 117.83642578 C249.71286713 117.82310211 249.71286713 117.82310211 248.31280518 117.80950928 C244.87818897 117.08347965 243.81941339 116.22129686 241.85766602 113.29052734 C241.26456784 110.17226358 241.29392204 107.09882792 241.31176758 103.93212891 C241.3014299 102.98544846 241.29109222 102.03876801 241.28044128 101.06340027 C241.25095499 97.93581186 241.24951286 94.80886898 241.24829102 91.68115234 C241.23331334 89.5120927 241.21658707 87.34304449 241.19818115 85.17401123 C241.15444936 79.46612023 241.13449552 73.75838309 241.1194458 68.050354 C241.09989582 62.2253711 241.05792342 56.40055486 241.01782227 50.57568359 C240.94245672 39.14732131 240.89427576 27.71907957 240.85766602 16.29052734 C230.95766602 16.29052734 221.05766602 16.29052734 210.85766602 16.29052734 Z M313.85766602 16.29052734 C313.85766602 29.82052734 313.85766602 43.35052734 313.85766602 57.29052734 C323.42766602 57.29052734 332.99766602 57.29052734 342.85766602 57.29052734 C342.85766602 43.76052734 342.85766602 30.23052734 342.85766602 16.29052734 C333.28766602 16.29052734 323.71766602 16.29052734 313.85766602 16.29052734 Z M-50.14233398 73.29052734 C-50.14233398 82.86052734 -50.14233398 92.43052734 -50.14233398 102.29052734 C-36.94233398 102.29052734 -23.74233398 102.29052734 -10.14233398 102.29052734 C-10.14233398 92.72052734 -10.14233398 83.15052734 -10.14233398 73.29052734 C-23.34233398 73.29052734 -36.54233398 73.29052734 -50.14233398 73.29052734 Z M51.85766602 73.29052734 C51.85766602 82.86052734 51.85766602 92.43052734 51.85766602 102.29052734 C99.04766602 102.29052734 146.23766602 102.29052734 194.85766602 102.29052734 C194.85766602 92.72052734 194.85766602 83.15052734 194.85766602 73.29052734 C147.66766602 73.29052734 100.47766602 73.29052734 51.85766602 73.29052734 Z M256.85766602 73.29052734 C256.85766602 82.86052734 256.85766602 92.43052734 256.85766602 102.29052734 C304.04766602 102.29052734 351.23766602 102.29052734 399.85766602 102.29052734 C399.85766602 92.72052734 399.85766602 83.15052734 399.85766602 73.29052734 C352.66766602 73.29052734 305.47766602 73.29052734 256.85766602 73.29052734 Z M51.85766602 118.29052734 C51.85766602 131.82052734 51.85766602 145.35052734 51.85766602 159.29052734 C65.38766602 159.29052734 78.91766602 159.29052734 92.85766602 159.29052734 C92.85766602 145.76052734 92.85766602 132.23052734 92.85766602 118.29052734 C79.32766602 118.29052734 65.79766602 118.29052734 51.85766602 118.29052734 Z M108.85766602 118.29052734 C108.85766602 165.48052734 108.85766602 212.67052734 108.85766602 261.29052734 C118.75766602 261.29052734 128.65766602 261.29052734 138.85766602 261.29052734 C138.85766602 214.10052734 138.85766602 166.91052734 138.85766602 118.29052734 C128.95766602 118.29052734 119.05766602 118.29052734 108.85766602 118.29052734 Z M154.85766602 118.29052734 C154.85766602 131.82052734 154.85766602 145.35052734 154.85766602 159.29052734 C168.05766602 159.29052734 181.25766602 159.29052734 194.85766602 159.29052734 C194.85766602 145.76052734 194.85766602 132.23052734 194.85766602 118.29052734 C181.65766602 118.29052734 168.45766602 118.29052734 154.85766602 118.29052734 Z M313.85766602 118.29052734 C313.85766602 165.48052734 313.85766602 212.67052734 313.85766602 261.29052734 C323.42766602 261.29052734 332.99766602 261.29052734 342.85766602 261.29052734 C342.85766602 214.10052734 342.85766602 166.91052734 342.85766602 118.29052734 C333.28766602 118.29052734 323.71766602 118.29052734 313.85766602 118.29052734 Z M-50.14233398 175.29052734 C-50.14233398 185.19052734 -50.14233398 195.09052734 -50.14233398 205.29052734 C-2.95233398 205.29052734 44.23766602 205.29052734 92.85766602 205.29052734 C92.85766602 195.39052734 92.85766602 185.49052734 92.85766602 175.29052734 C45.66766602 175.29052734 -1.52233398 175.29052734 -50.14233398 175.29052734 Z M154.85766602 175.29052734 C154.85766602 185.19052734 154.85766602 195.09052734 154.85766602 205.29052734 C202.04766602 205.29052734 249.23766602 205.29052734 297.85766602 205.29052734 C297.85766602 195.39052734 297.85766602 185.49052734 297.85766602 175.29052734 C250.66766602 175.29052734 203.47766602 175.29052734 154.85766602 175.29052734 Z M359.85766602 175.29052734 C359.85766602 185.19052734 359.85766602 195.09052734 359.85766602 205.29052734 C373.05766602 205.29052734 386.25766602 205.29052734 399.85766602 205.29052734 C399.85766602 195.39052734 399.85766602 185.49052734 399.85766602 175.29052734 C386.65766602 175.29052734 373.45766602 175.29052734 359.85766602 175.29052734 Z M6.85766602 221.29052734 C6.85766602 268.48052734 6.85766602 315.67052734 6.85766602 364.29052734 C16.42766602 364.29052734 25.99766602 364.29052734 35.85766602 364.29052734 C35.89525024 359.91432129 35.89525024 359.91432129 35.93359375 355.44970703 C36.01700994 345.81845868 36.10570333 336.18726416 36.19700527 326.55608749 C36.25220764 320.71579628 36.30562344 314.87550003 36.35498047 309.03515625 C36.40266351 303.40062326 36.4550079 297.76615122 36.51060677 292.13169098 C36.53101243 289.98029342 36.54972846 287.82887916 36.56674004 285.67745209 C36.59082351 282.66788183 36.62087289 279.65842658 36.65234375 276.64892578 C36.65809921 275.75628525 36.66385468 274.86364471 36.66978455 273.94395447 C36.67957336 273.12228287 36.68936218 272.30061127 36.69944763 271.45404053 C36.70590018 270.74241634 36.71235273 270.03079216 36.71900082 269.29760361 C36.86420295 267.19591012 37.28737682 265.31492034 37.85766602 263.29052734 C41.28910019 262.52287574 44.50172726 262.14746803 48.01513672 262.08520508 C49.01579666 262.06525986 50.0164566 262.04531464 51.04743958 262.02476501 C52.64926338 261.99969627 52.64926338 261.99969627 54.28344727 261.97412109 C55.38617477 261.95334 56.48890228 261.9325589 57.62504578 261.91114807 C61.14002379 261.84587802 64.65507514 261.78687239 68.17016602 261.72802734 C70.55624124 261.68482069 72.94230911 261.64120571 75.32836914 261.59716797 C81.1713941 261.48945307 87.01447646 261.39021152 92.85766602 261.29052734 C92.85766602 248.09052734 92.85766602 234.89052734 92.85766602 221.29052734 C79.32766602 221.29052734 65.79766602 221.29052734 51.85766602 221.29052734 C51.52766602 227.23052734 51.19766602 233.17052734 50.85766602 239.29052734 C46.85766602 243.29052734 46.85766602 243.29052734 43.85766602 243.79052734 C40.03438701 243.15331418 39.1397583 242.41641846 36.85766602 239.29052734 C36.22799416 236.2108053 36.16249394 233.17690866 36.10766602 230.04052734 C35.98391602 225.70927734 35.98391602 225.70927734 35.85766602 221.29052734 C26.28766602 221.29052734 16.71766602 221.29052734 6.85766602 221.29052734 Z M154.85766602 221.29052734 C154.85766602 234.49052734 154.85766602 247.69052734 154.85766602 261.29052734 C168.05766602 261.29052734 181.25766602 261.29052734 194.85766602 261.29052734 C194.85766602 248.09052734 194.85766602 234.89052734 194.85766602 221.29052734 C181.65766602 221.29052734 168.45766602 221.29052734 154.85766602 221.29052734 Z M210.85766602 221.29052734 C210.8430835 224.24352783 210.82850098 227.19652832 210.81347656 230.23901367 C210.76320028 239.98209234 210.69661774 249.72501002 210.6219511 259.46793079 C210.57717209 265.37663733 210.53793262 271.28527372 210.51123047 277.1940918 C210.48527261 282.89355913 210.44492372 288.59275755 210.39447975 294.29205894 C210.37776006 296.46938426 210.36627768 298.64675613 210.36005211 300.82413673 C210.35046646 303.86766559 210.3224737 306.9104985 210.29003906 309.95385742 C210.29147415 310.85944397 210.29290924 311.76503052 210.29438782 312.69805908 C210.28184967 313.52677017 210.26931152 314.35548126 210.25639343 315.20930481 C210.24947999 316.28918529 210.24947999 316.28918529 210.24242687 317.39088154 C209.74295258 319.85689185 208.81640014 320.75612154 206.85766602 322.29052734 C204.52278137 322.68925476 204.52278137 322.68925476 201.74365234 322.72290039 C200.70279984 322.74269455 199.66194733 322.76248871 198.58955383 322.78288269 C197.46760117 322.78927261 196.3456485 322.79566254 195.18969727 322.80224609 C194.03974777 322.8201973 192.88979828 322.8381485 191.70500183 322.85664368 C188.0267607 322.91088996 184.34865038 322.94468906 180.67016602 322.97802734 C178.1786113 323.01118768 175.68707387 323.04567613 173.19555664 323.08154297 C167.08290609 323.16912843 160.97085921 323.22907757 154.85766602 323.29052734 C154.85766602 336.82052734 154.85766602 350.35052734 154.85766602 364.29052734 C168.05766602 364.29052734 181.25766602 364.29052734 194.85766602 364.29052734 C195.18766602 358.68052734 195.51766602 353.07052734 195.85766602 347.29052734 C198.85766602 342.29052734 198.85766602 342.29052734 201.73266602 341.29052734 C205.64188564 341.29052734 206.94937092 341.65232267 209.85766602 344.29052734 C210.64591342 347.67640825 210.6473777 351.01283089 210.67016602 354.47802734 C210.73204102 357.71615234 210.79391602 360.95427734 210.85766602 364.29052734 C220.75766602 364.29052734 230.65766602 364.29052734 240.85766602 364.29052734 C240.85766602 317.10052734 240.85766602 269.91052734 240.85766602 221.29052734 C230.95766602 221.29052734 221.05766602 221.29052734 210.85766602 221.29052734 Z M256.85766602 221.29052734 C256.85766602 234.49052734 256.85766602 247.69052734 256.85766602 261.29052734 C270.38766602 261.29052734 283.91766602 261.29052734 297.85766602 261.29052734 C297.85766602 248.09052734 297.85766602 234.89052734 297.85766602 221.29052734 C284.32766602 221.29052734 270.79766602 221.29052734 256.85766602 221.29052734 Z M-50.14233398 277.29052734 C-50.14233398 287.19052734 -50.14233398 297.09052734 -50.14233398 307.29052734 C-36.94233398 307.29052734 -23.74233398 307.29052734 -10.14233398 307.29052734 C-10.14233398 297.39052734 -10.14233398 287.49052734 -10.14233398 277.29052734 C-23.34233398 277.29052734 -36.54233398 277.29052734 -50.14233398 277.29052734 Z M51.85766602 277.29052734 C51.85766602 287.19052734 51.85766602 297.09052734 51.85766602 307.29052734 C99.04766602 307.29052734 146.23766602 307.29052734 194.85766602 307.29052734 C194.85766602 297.39052734 194.85766602 287.49052734 194.85766602 277.29052734 C147.66766602 277.29052734 100.47766602 277.29052734 51.85766602 277.29052734 Z M256.85766602 277.29052734 C256.85766602 287.19052734 256.85766602 297.09052734 256.85766602 307.29052734 C304.04766602 307.29052734 351.23766602 307.29052734 399.85766602 307.29052734 C399.85766602 297.39052734 399.85766602 287.49052734 399.85766602 277.29052734 C352.66766602 277.29052734 305.47766602 277.29052734 256.85766602 277.29052734 Z M51.85766602 323.29052734 C51.85766602 336.82052734 51.85766602 350.35052734 51.85766602 364.29052734 C65.38766602 364.29052734 78.91766602 364.29052734 92.85766602 364.29052734 C92.85766602 350.76052734 92.85766602 337.23052734 92.85766602 323.29052734 C79.32766602 323.29052734 65.79766602 323.29052734 51.85766602 323.29052734 Z M108.85766602 323.29052734 C108.85766602 370.48052734 108.85766602 417.67052734 108.85766602 466.29052734 C118.75766602 466.29052734 128.65766602 466.29052734 138.85766602 466.29052734 C138.85766602 419.10052734 138.85766602 371.91052734 138.85766602 323.29052734 C128.95766602 323.29052734 119.05766602 323.29052734 108.85766602 323.29052734 Z M256.85766602 323.29052734 C256.85766602 336.82052734 256.85766602 350.35052734 256.85766602 364.29052734 C270.38766602 364.29052734 283.91766602 364.29052734 297.85766602 364.29052734 C297.85766602 350.76052734 297.85766602 337.23052734 297.85766602 323.29052734 C284.32766602 323.29052734 270.79766602 323.29052734 256.85766602 323.29052734 Z M313.85766602 323.29052734 C313.85766602 370.48052734 313.85766602 417.67052734 313.85766602 466.29052734 C323.42766602 466.29052734 332.99766602 466.29052734 342.85766602 466.29052734 C342.85766602 419.10052734 342.85766602 371.91052734 342.85766602 323.29052734 C333.28766602 323.29052734 323.71766602 323.29052734 313.85766602 323.29052734 Z M-50.14233398 380.29052734 C-50.14233398 389.86052734 -50.14233398 399.43052734 -50.14233398 409.29052734 C-2.95233398 409.29052734 44.23766602 409.29052734 92.85766602 409.29052734 C92.85766602 399.72052734 92.85766602 390.15052734 92.85766602 380.29052734 C45.66766602 380.29052734 -1.52233398 380.29052734 -50.14233398 380.29052734 Z M154.85766602 380.29052734 C154.85766602 389.86052734 154.85766602 399.43052734 154.85766602 409.29052734 C202.04766602 409.29052734 249.23766602 409.29052734 297.85766602 409.29052734 C297.85766602 399.72052734 297.85766602 390.15052734 297.85766602 380.29052734 C250.66766602 380.29052734 203.47766602 380.29052734 154.85766602 380.29052734 Z M359.85766602 380.29052734 C359.85766602 389.86052734 359.85766602 399.43052734 359.85766602 409.29052734 C373.05766602 409.29052734 386.25766602 409.29052734 399.85766602 409.29052734 C399.85766602 399.72052734 399.85766602 390.15052734 399.85766602 380.29052734 C386.65766602 380.29052734 373.45766602 380.29052734 359.85766602 380.29052734 Z M6.85766602 425.29052734 C6.85766602 438.82052734 6.85766602 452.35052734 6.85766602 466.29052734 C16.42766602 466.29052734 25.99766602 466.29052734 35.85766602 466.29052734 C35.85766602 452.76052734 35.85766602 439.23052734 35.85766602 425.29052734 C26.28766602 425.29052734 16.71766602 425.29052734 6.85766602 425.29052734 Z M210.85766602 425.29052734 C210.85766602 438.82052734 210.85766602 452.35052734 210.85766602 466.29052734 C220.75766602 466.29052734 230.65766602 466.29052734 240.85766602 466.29052734 C240.85766602 452.76052734 240.85766602 439.23052734 240.85766602 425.29052734 C230.95766602 425.29052734 221.05766602 425.29052734 210.85766602 425.29052734 Z " fill="#313132" transform="translate(81.142333984375,14.70947265625)"/>
</svg>
