<?xml version="1.0" encoding="UTF-8"?>
<svg version="1.1" xmlns="http://www.w3.org/2000/svg" width="512" height="512">
<path d="M0 0 C15.50257838 5.52757444 32.34185766 14.38843423 40.33984375 29.4140625 C42.42905008 34.58733531 42.62171349 40.02457234 43.11352539 45.52661133 C43.86231942 53.07467376 45.88842478 59.51176648 48.96484375 66.4765625 C49.31160156 67.34796875 49.65835937 68.219375 50.015625 69.1171875 C51.135747 71.44704125 51.91601483 72.89381788 53.96484375 74.4765625 C56.84646367 74.85091192 59.46878673 74.7262596 62.36328125 74.50390625 C64.96484375 74.4765625 64.96484375 74.4765625 68.08984375 76.2890625 C71.22366825 79.94519108 71.07723095 83.0245531 71.02734375 87.6640625 C71.01832031 88.75074219 71.00929688 89.83742188 71 90.95703125 C70.98839844 91.78847656 70.97679687 92.61992188 70.96484375 93.4765625 C71.54717773 93.75870605 72.12951172 94.04084961 72.72949219 94.33154297 C74.80885753 95.3966613 76.75721986 96.54835943 78.73046875 97.796875 C101.37674535 111.98582445 124.77060776 121.74512335 150.7043457 128.47460938 C161.54094043 131.45087457 170.12630339 136.67477455 175.96484375 146.4765625 C183.27441369 160.37625652 179.37669733 176.09317818 176.90234375 190.7890625 C176.66667191 192.21126602 176.66667191 192.21126602 176.42623901 193.66220093 C173.58289801 210.77020175 170.16050775 227.64384976 165.96484375 244.4765625 C165.67029297 245.67893555 165.37574219 246.88130859 165.07226562 248.12011719 C158.5351645 274.58619941 150.11441299 300.563118 140.08984375 325.9140625 C139.6621167 327.02096436 139.23438965 328.12786621 138.79370117 329.26831055 C136.38505909 335.16165731 134.43903435 339.06532394 128.96484375 342.4765625 C125.02733208 343.02919572 122.77981119 342.83877025 119.15234375 341.2265625 C115.83829331 338.57532215 115.12379079 336.80232532 114.62109375 332.609375 C114.69616871 326.73077789 117.54367539 321.43055836 119.77734375 316.1015625 C120.80496423 313.57505718 121.81692369 311.04248299 122.82421875 308.5078125 C123.08533951 307.85096466 123.34646027 307.19411682 123.61549377 306.5173645 C139.65561788 265.854966 149.60346058 222.8837123 156.40234375 179.7890625 C156.64863525 178.23106934 156.64863525 178.23106934 156.89990234 176.64160156 C158.89366047 165.05766466 158.89366047 165.05766466 154.96484375 154.4765625 C148.47004701 150.70245658 141.73493813 148.837708 134.52734375 146.8515625 C111.33744184 140.18774312 87.91165988 131.33299374 67.96484375 117.4765625 C67.84238281 118.78238281 67.71992188 120.08820313 67.59375 121.43359375 C64.23569762 151.36406065 49.50459647 181.41498624 31.96484375 205.4765625 C31.56056152 206.0348877 31.1562793 206.59321289 30.73974609 207.16845703 C22.59603046 218.32047348 13.24419933 228.2576473 3.52734375 238.0390625 C2.93598633 238.63517334 2.34462891 239.23128418 1.73535156 239.84545898 C-2.71526374 244.27885844 -2.71526374 244.27885844 -5.41796875 245.94921875 C-7.36542173 247.46951686 -7.36542173 247.46951686 -7.46875 250.59375 C-7.47068359 252.45386719 -7.47068359 252.45386719 -7.47265625 254.3515625 C-8.10022733 272.90525321 -19.53341628 286.97869472 -32.45703125 299.29296875 C-40.41970661 306.57627175 -49.20740345 313.12852072 -60.359375 312.84765625 C-74.2789443 310.91720503 -88.03746579 296.48885522 -96.37841797 285.74658203 C-103.34362019 276.11985814 -108.13258992 267.04615846 -108.03515625 254.9765625 C-108.24032433 250.45830539 -108.49361867 248.18312204 -111.265625 244.56640625 C-113.86783021 242.23232787 -116.51043446 240.04616466 -119.26757812 237.90283203 C-130.60356093 228.75575861 -139.60115622 217.24161465 -148.03515625 205.4765625 C-148.47811035 204.8676416 -148.92106445 204.2587207 -149.37744141 203.63134766 C-166.1542765 180.39643005 -184.03515625 146.85728322 -184.03515625 117.4765625 C-185.54529297 118.40275391 -185.54529297 118.40275391 -187.0859375 119.34765625 C-209.67698072 133.0313583 -233.69655049 142.91204305 -259.31201172 149.44995117 C-264.91342591 150.92962327 -270.22833683 152.51994891 -273.41015625 157.7265625 C-274.79382604 163.8147096 -273.97151537 169.88145235 -272.96875 175.97265625 C-272.85484924 176.6703009 -272.74094849 177.36794556 -272.62359619 178.08673096 C-272.24824812 180.36398484 -271.86170015 182.63911057 -271.47265625 184.9140625 C-271.3388858 185.7042276 -271.20511536 186.4943927 -271.06729126 187.3085022 C-257.39663934 267.76437771 -232.03563523 351.74708813 -179.03515625 415.4765625 C-178.56400391 416.04922852 -178.09285156 416.62189453 -177.60742188 417.21191406 C-166.33470713 430.87010983 -154.28690949 442.93925232 -140.03515625 453.4765625 C-139.03355469 454.23453125 -138.03195313 454.9925 -137 455.7734375 C-108.25204376 476.69453081 -74.18032813 486.97072889 -38.75390625 481.93798828 C-5.85637009 476.35462412 21.28751955 458.10009758 44.96484375 435.4765625 C45.84011719 434.64253906 46.71539062 433.80851562 47.6171875 432.94921875 C53.55926114 427.15363691 58.804899 420.96926785 63.96484375 414.4765625 C65.58625047 412.47364831 67.21118149 410.47358134 68.83984375 408.4765625 C69.55914062 407.5896875 70.2784375 406.7028125 71.01953125 405.7890625 C74.50441793 401.64638596 76.19915713 399.86854561 81.8984375 399.34375 C85.4136826 399.56968258 87.3881905 401.20665368 89.96484375 403.4765625 C92.22079363 406.22293627 91.95803089 407.60764196 91.76953125 411.234375 C91.16507948 415.61454637 89.47087405 418.15819056 86.65234375 421.6015625 C86.20503906 422.15303955 85.75773437 422.7045166 85.296875 423.27270508 C83.86875044 425.02112208 82.41720342 426.74825937 80.96484375 428.4765625 C80.06424294 429.58132974 79.16449508 430.68679288 78.265625 431.79296875 C66.5605876 446.00104831 53.51790845 459.40137174 38.61962891 470.26171875 C36.96758018 471.47455358 35.34668989 472.72151359 33.7265625 473.9765625 C1.29537448 498.65466212 -38.11106614 507.88570759 -78.28759766 504.17626953 C-83.99819169 503.39406463 -89.50673881 502.08948107 -95.03515625 500.4765625 C-96.15301514 500.16307861 -96.15301514 500.16307861 -97.29345703 499.84326172 C-127.28670322 491.25630404 -152.74147014 473.9155386 -175.03515625 452.4765625 C-175.5755957 451.95803711 -176.11603516 451.43951172 -176.67285156 450.90527344 C-184.01218513 443.82151736 -190.74985857 436.52579856 -197.03515625 428.4765625 C-198.09132408 427.17096507 -199.14870722 425.86635021 -200.20703125 424.5625 C-213.24918264 408.33942588 -224.13036837 390.80953009 -233.953125 372.48046875 C-234.95024472 370.63381742 -235.97127712 368.80352173 -237.00390625 366.9765625 C-264.70196825 317.02923759 -310.36400619 211.06023047 -294.84765625 153.2265625 C-291.30149288 142.93444182 -285.24741166 136.27030741 -275.47338867 131.50292969 C-270.58414898 129.44481778 -265.45003118 128.14787908 -260.34765625 126.7265625 C-236.30600769 119.78419334 -213.47240752 110.88350874 -192.90625 96.41015625 C-190.03515625 94.4765625 -190.03515625 94.4765625 -187.03515625 93.4765625 C-187.08736328 92.26419922 -187.08736328 92.26419922 -187.140625 91.02734375 C-187.16769531 89.95871094 -187.19476563 88.89007813 -187.22265625 87.7890625 C-187.27486328 86.20544922 -187.27486328 86.20544922 -187.328125 84.58984375 C-186.9957868 81.05819651 -186.15194121 79.29400821 -184.03515625 76.4765625 C-180.49411401 74.11586767 -179.77149216 74.48375813 -175.72265625 74.9765625 C-171.46851284 75.06062074 -171.46851284 75.06062074 -168.12109375 72.6796875 C-166.46612494 70.01476336 -165.22193879 67.38014696 -164.03515625 64.4765625 C-163.45314453 63.13851562 -163.45314453 63.13851562 -162.859375 61.7734375 C-160.51332298 55.66517116 -159.66676184 49.81207582 -159.09765625 43.3515625 C-158.33236497 34.81541661 -156.53713613 28.34717184 -150.66015625 21.8515625 C-147.13369293 20.00436743 -144.97089911 19.92417754 -141.03515625 20.4765625 C-135.49669471 23.55348558 -135.49669471 23.55348558 -134.03515625 26.4765625 C-133.8671875 28.53515625 -133.8671875 28.53515625 -133.84765625 30.9140625 C-133.83347656 31.69652344 -133.81929687 32.47898438 -133.8046875 33.28515625 C-134.03515625 35.4765625 -134.03515625 35.4765625 -136.03515625 38.4765625 C-136.5802897 43.22701117 -136.67007673 45.40376583 -134.22265625 49.5390625 C-115.91684321 68.30252087 -83.5429321 70.70684592 -59.03515625 71.4765625 C-34.70510591 71.71376355 -4.23687496 68.35627987 15.21484375 52.2265625 C18.54944726 48.89195899 19.85968991 47.39290314 20.40234375 42.6640625 C20.26818821 38.98820084 19.38796718 36.68057652 16.74609375 33.97265625 C1.11780488 20.8462645 -19.77295896 16.33178214 -39.62890625 14.70703125 C-40.38869781 14.64449661 -41.14848938 14.58196198 -41.93130493 14.51753235 C-45.77607926 14.20824283 -49.62041949 13.92943252 -53.47021484 13.69067383 C-54.905935 13.58820075 -56.34164509 13.48558632 -57.77734375 13.3828125 C-59.05464355 13.30353516 -60.33194336 13.22425781 -61.64794922 13.14257812 C-65.50077165 12.38501004 -67.2563806 11.20193727 -70.03515625 8.4765625 C-71.63602252 5.27482996 -71.53432714 1.95079191 -71.03515625 -1.5234375 C-60.56657209 -17.92421935 -15.95993219 -5.25038845 0 0 Z M-143.03515625 70.4765625 C-143.92654297 72.09111328 -143.92654297 72.09111328 -144.8359375 73.73828125 C-150.5584479 83.89296638 -156.75749756 93.19890381 -165.03515625 101.4765625 C-165.70164881 125.23226148 -155.1942497 150.98667108 -144.03515625 171.4765625 C-143.71434082 172.07662109 -143.39352539 172.67667969 -143.06298828 173.29492188 C-133.28894823 191.50273239 -120.48134378 207.0970422 -106.03515625 221.7890625 C-105.40005127 222.44189209 -104.76494629 223.09472168 -104.1105957 223.76733398 C-103.50820068 224.36876221 -102.90580566 224.97019043 -102.28515625 225.58984375 C-101.7540625 226.12391846 -101.22296875 226.65799316 -100.67578125 227.20825195 C-98.789468 228.6664956 -97.3849128 229.14264498 -95.03515625 229.4765625 C-93.20552123 228.71356332 -93.20552123 228.71356332 -91.34765625 227.5390625 C-84.50937813 224.30106988 -76.42969617 224.31573856 -69.03515625 225.4765625 C-66.09918311 226.59624418 -63.70485304 227.81622907 -61.11328125 229.578125 C-59.02765466 230.74018473 -59.02765466 230.74018473 -56.70703125 229.8125 C-55.38445312 229.15121094 -55.38445312 229.15121094 -54.03515625 228.4765625 C-48.6417605 225.85673012 -44.54429334 224.96097791 -38.66015625 225.0390625 C-37.53915527 225.04172119 -37.53915527 225.04172119 -36.39550781 225.04443359 C-31.2485283 225.16655392 -27.31744627 226.00056923 -22.89453125 228.796875 C-20.96315947 229.71548196 -20.96315947 229.71548196 -18.67138672 228.74658203 C-15.88496393 227.40420647 -14.18146318 226.01006697 -11.99609375 223.8359375 C-11.25617188 223.10221924 -10.51625 222.36850098 -9.75390625 221.61254883 C-8.98046875 220.82517334 -8.20703125 220.03779785 -7.41015625 219.2265625 C-6.60835937 218.41533936 -5.8065625 217.60411621 -4.98046875 216.76831055 C1.56785348 210.05429992 7.538628 203.12220009 12.96484375 195.4765625 C13.38668945 194.88311035 13.80853516 194.2896582 14.24316406 193.67822266 C32.59447017 167.56610342 44.88167037 138.28233411 48.96484375 106.4765625 C49.08085937 105.6 49.196875 104.7234375 49.31640625 103.8203125 C48.79383319 100.33649209 46.94271638 98.92458125 44.46484375 96.4765625 C38.89262817 90.63599659 34.97019659 84.50779325 30.96484375 77.4765625 C30.22272709 76.17964696 29.48053972 74.88277188 28.73828125 73.5859375 C28.15304687 72.55984375 27.5678125 71.53375 26.96484375 70.4765625 C26.12824219 70.98445313 25.29164063 71.49234375 24.4296875 72.015625 C12.80678397 78.94641952 1.06470976 83.86836066 -12.03515625 87.2265625 C-12.8048877 87.42531982 -13.57461914 87.62407715 -14.36767578 87.82885742 C-27.85895825 91.09188479 -41.20104918 91.82588316 -55.01245117 91.79223633 C-57.70207727 91.7890866 -60.39058763 91.81259915 -63.08007812 91.83789062 C-78.88064217 91.89640856 -94.58831791 90.32111857 -109.78515625 85.7890625 C-110.64512207 85.53850098 -111.50508789 85.28793945 -112.39111328 85.02978516 C-123.38193768 81.66474853 -133.11687451 76.18401363 -143.03515625 70.4765625 Z M-85.34765625 248.0390625 C-87.96356437 251.81759645 -87.80580425 255.02782179 -87.03515625 259.4765625 C-83.13467949 272.0196746 -70.70413623 283.36390918 -60.03515625 290.4765625 C-50.93273467 289.77185889 -42.67030549 280.00147215 -37.03515625 273.4765625 C-34.81424128 270.24959204 -32.86013436 266.94102913 -31.03515625 263.4765625 C-30.66132813 262.81140625 -30.2875 262.14625 -29.90234375 261.4609375 C-28.33485939 257.87408141 -28.367723 254.29727733 -29.03515625 250.4765625 C-31.29151526 247.38212728 -32.94617723 245.92332312 -36.47265625 244.4765625 C-41.15394315 244.4765625 -44.54857899 247.17019904 -48.41015625 249.6015625 C-52.82229679 252.11308865 -57.09236739 253.15268348 -62.109375 252 C-66.55564821 250.45862529 -70.14864311 248.12645782 -74.03515625 245.4765625 C-78.51196102 243.57731199 -81.53032639 245.45978557 -85.34765625 248.0390625 Z " fill="#313132" transform="translate(314.03515625,7.5234375)"/>
<path d="M0 0 C3.47919003 3.10906343 4.84826979 4.91892228 5.5 9.5625 C4.97300076 13.18561975 4.22264703 15.11879089 2 18 C-2.00254616 20.66836411 -5.29313299 20.8340238 -10 20 C-12.75569447 17.81840855 -14.43588747 16.12822506 -16 13 C-16.08363487 9.90550996 -15.78865237 6.9947475 -15 4 C-10.40811718 -0.83356087 -6.39387309 -1.65358787 0 0 Z " fill="#313132" transform="translate(425,370)"/>
<path d="M0 0 C2.46810594 2.1516821 3.74159986 3.68402403 4.37890625 6.9296875 C4.60432912 10.78369142 4.24527155 12.61574124 2.125 15.9375 C-1.36158203 19.3215355 -4.03592714 19.38966392 -8.73828125 19.359375 C-12.32520929 18.78943134 -13.86838894 16.79773951 -16 14 C-17.43304064 11.13391871 -17.30644155 9.18699217 -17 6 C-15.15602845 2.31205689 -13.84112479 0.44859989 -10.1875 -1.5 C-6.12765138 -2.136839 -3.77517685 -1.60794569 0 0 Z " fill="#313132" transform="translate(215,7)"/>
</svg>
