<?xml version="1.0" encoding="UTF-8"?>
<svg version="1.1" xmlns="http://www.w3.org/2000/svg" width="512" height="512">
<path d="M0 0 C3.02135762 2.16740473 5.43602369 4.82462574 7.9375 7.5625 C9.27735043 8.98292339 10.61979279 10.40090645 11.96484375 11.81640625 C12.62830811 12.51789795 13.29177246 13.21938965 13.9753418 13.94213867 C17.14537394 17.16415735 20.55616812 20.0772057 24 23 C24.97582031 23.85722656 25.95164063 24.71445312 26.95703125 25.59765625 C48.7550359 44.41371772 72.94140368 59.92673797 98 74 C98.86963379 74.48855469 99.73926758 74.97710937 100.63525391 75.48046875 C159.38549961 108.13092637 227.25966867 125.85534518 294 131 C294.68594238 131.05784668 295.37188477 131.11569336 296.07861328 131.17529297 C358.51052254 136.3434466 425.79540206 128.23288883 483.66967773 103.79345703 C492.03129918 100.31999118 492.03129918 100.31999118 497 101 C499.60327641 102.64417457 500.69017576 103.89249395 501.5234375 106.87109375 C501.77742313 109.18761784 501.64583838 110.75873316 501 113 C495.56276395 118.22484402 487.18830276 120.39628132 480.25 122.8125 C478.43640991 123.45227783 478.43640991 123.45227783 476.58618164 124.10498047 C442.49260493 136 442.49260493 136 434 136 C434.33 137.65 434.66 139.3 435 141 C435.75023437 141.20753906 436.50046875 141.41507813 437.2734375 141.62890625 C449.23984669 145.23088584 459.210013 151.51560814 465.46875 162.6015625 C471.74284861 175.55101021 472.34263 187.3719091 468 201 C464.150373 211.57864981 456.82838504 219.31568314 446.875 224.5 C435.49039659 229.61440306 423.3709756 231.20965374 411.3046875 226.9765625 C398.53421335 221.56534464 390.08662303 213.78385632 384.671875 200.8203125 C380.45465042 188.43592765 380.95942538 177.04843831 386.2890625 165.11328125 C392.16248622 153.60199893 400.82103787 146.26501241 413.125 142.125 C414.4129088 141.73729043 415.70326294 141.35707252 417 141 C413.16655254 141 409.75531013 141.43316076 405.97265625 142.0234375 C404.54211715 142.24211141 403.111447 142.45992923 401.68066406 142.67700195 C400.55295593 142.84844223 400.55295593 142.84844223 399.40246582 143.02334595 C375.55782814 146.60675875 351.97694072 148.16187136 327.875 148.1875 C327.0032312 148.18867828 326.1314624 148.18985657 325.23327637 148.19107056 C322.75698787 148.19068948 320.28093583 148.18151688 317.8046875 148.16796875 C317.05921661 148.16675018 316.31374573 148.16553162 315.54568481 148.16427612 C312.42995234 148.13586796 309.97853757 147.99284586 307 147 C307 147.99 307 148.98 307 150 C308.258125 150.20625 309.51625 150.4125 310.8125 150.625 C322.77361365 153.33317668 331.75161087 160.66563471 338.3125 170.8125 C344.40446275 181.70167592 345.77578044 193.62594972 342.8125 205.75 C339.31779127 216.94932239 332.6133206 226.45774054 322.56640625 232.6796875 C310.94089599 238.66054361 298.76626809 239.86015344 286.1875 236.375 C274.31614724 232.26402122 264.71777268 224.24635435 259 213 C253.91659576 201.49879791 253.74419584 188.52315611 258.2265625 176.7890625 C263.39205121 165.82275758 270.14864889 158.53670575 281 153 C283.69305468 152.10594946 286.32383289 151.37472854 289.1015625 150.80078125 C289.72804688 150.53652344 290.35453125 150.27226562 291 150 C291.64582387 147.98318207 291.64582387 147.98318207 292 146 C291.44852295 146.01885254 290.8970459 146.03770508 290.32885742 146.05712891 C282.57052188 146.20011798 274.99808036 145.35684098 267.3125 144.375 C266.6218042 144.28796814 265.9311084 144.20093628 265.21948242 144.11126709 C242.1314361 141.1714807 219.42381293 136.46474185 196.93823242 130.45556641 C195.00735129 129.92373102 195.00735129 129.92373102 193 130 C193.56847656 130.35191406 194.13695312 130.70382812 194.72265625 131.06640625 C205.51761849 137.96869429 212.90815503 146.42882223 216.5715332 158.95410156 C219.21700991 171.58606441 216.94821797 183.9292262 210.1875 194.75 C202.73103295 205.1298462 193.55103059 211.02201983 181 214 C168.24271408 215.13927995 156.76169099 213.50871397 146.16015625 205.8125 C137.33179063 198.40497442 131.11586167 189.51028751 129 178 C128.14497558 163.1028438 130.31658283 151.90426503 139.67578125 139.83984375 C145.22782973 133.66958003 154.4781406 127.35387083 162.92578125 126.8125 C163.61027344 126.874375 164.29476562 126.93625 165 127 C165 124.69 165 122.38 165 120 C163.82953125 119.79375 162.6590625 119.5875 161.453125 119.375 C154.26037187 117.76912381 147.53982196 114.80235804 140.75 112 C140.04866943 111.71331451 139.34733887 111.42662903 138.62475586 111.1312561 C126.53619819 106.18751818 114.68901278 100.83134309 103 95 C103.77095749 97.31287246 104.60655353 99.54761319 105.5 101.8125 C109.52948187 112.66261705 108.88167679 124.17748107 105 135 C103.24687912 138.52588456 101.23606268 141.7628047 99 145 C98.4225 145.886875 97.845 146.77375 97.25 147.6875 C88.51076977 156.66948662 76.9712934 162.04536664 64.4375 162.25 C51.56125417 162.09200925 41.0279377 158.01150989 31.6875 149.125 C22.04189745 138.87654729 19.03190261 127.95739245 19 114 C19.79251483 102.09504901 26.20809413 90.87055161 35 83 C40.82690913 78.70747889 48.51366674 74 56 74 C55.97914087 70.64585141 55.95107543 68.00005374 53.54931641 65.47460938 C51.52355541 63.96465982 49.45041615 62.59653028 47.3125 61.25 C45.74794558 60.20619783 44.18547345 59.15926838 42.625 58.109375 C41.84253906 57.58923828 41.06007812 57.06910156 40.25390625 56.53320312 C-2.91661195 27.1667761 -2.91661195 27.1667761 -11 11 C-11.57636888 3.73775216 -11.57636888 3.73775216 -9.4375 1 C-5.90510397 -0.44918811 -3.8202768 -0.53188813 0 0 Z M40 100 C34.93679678 107.96064322 34.13073063 115.66784376 35 125 C37.32096749 132.72268107 42.22474599 139.03355433 49.0625 143.28125 C56.10244667 146.80122333 63.98108792 148.17474256 71.625 145.9375 C80.99622445 142.18230451 86.74212692 137.23498148 91 128 C93.77803293 121.18353031 93.46974582 114.34992035 91.12890625 107.421875 C87.71130547 99.71157843 82.00524825 93.52511284 74.25 90 C61.1143093 85.98850164 48.95354037 89.95258819 40 100 Z M150 152 C144.86862093 159.0042563 143.00367532 166.44926413 144 175 C146.05166157 183.13293389 150.33469136 189.83200325 157.3125 194.5703125 C164.79437766 198.87731444 172.04131051 200.48967237 180.59375 198.3515625 C190.18184646 194.88919433 196.87249737 188.56775553 201.25 179.375 C203.18005573 170.68974922 202.8303434 162.60672846 198 155 C193.05467714 148.28250333 187.35790626 142.8573125 179 141 C166.85015692 139.85280452 158.31540711 143.02463994 150 152 Z M403 167 C398.1932112 174.09687181 396.21834797 181.25160071 397.375 189.7578125 C399.29024651 198.3524812 403.63282501 205.0308184 411 209.9375 C418.85736302 214.31949091 426.46840051 215.10425986 435.0625 212.8125 C443.83812135 209.89625217 448.54754322 205.05026241 453 197 C456.20241834 190.39842771 456.12609504 182.37001653 454.3125 175.33203125 C453.37467017 173.06170154 452.3174772 171.07150503 451 169 C450.61070312 168.37609375 450.22140625 167.7521875 449.8203125 167.109375 C445.6190898 161.39173463 439.63046628 158.22852964 433 156 C420.93496803 154.15790304 411.0293015 157.85114448 403 167 Z M277 175 C271.54992135 183.03614702 269.61839655 190.36513384 271 200 C272.77948807 207.76603746 276.77229424 213.11486124 283 218 C289.688103 222.18006438 296.13391034 223.83936932 304 223 C312.65707969 220.95869996 319.7657699 217.16186351 324.56640625 209.5 C328.29910393 202.35363864 330.35235487 195.45015306 328.3515625 187.38671875 C325.41018343 178.29861164 320.45034977 171.67466158 312 167 C300.39165836 161.47221827 285.12049093 165.18033092 277 175 Z " fill="#313132" transform="translate(11,257)"/>
<path d="M0 0 C3.23512995 2.12837497 3.88517436 3.45718788 4.6875 7.25 C3.6956831 12.65991037 0.82508214 15.21007487 -3 19 C-3.721875 19.74636719 -4.44375 20.49273437 -5.1875 21.26171875 C-9.91831687 26.09930753 -14.84711807 30.62005036 -20 35 C-20.93328125 35.81082031 -21.8665625 36.62164062 -22.828125 37.45703125 C-28.73048049 42.5570527 -34.76314648 47.43895188 -41 52.125 C-41.66781494 52.62757324 -42.33562988 53.13014648 -43.02368164 53.64794922 C-46.24415027 56.0440498 -49.48839958 58.34966454 -52.87109375 60.51171875 C-53.47373047 60.90278809 -54.07636719 61.29385742 -54.69726562 61.69677734 C-56.3259288 62.74096796 -57.97294556 63.75637513 -59.62109375 64.76953125 C-62.73236446 67.68666684 -62.80393564 69.83237561 -63 74 C-61.14375 74.2784375 -61.14375 74.2784375 -59.25 74.5625 C-48.24968819 77.07043272 -39.47064543 83.93048878 -33 93 C-26.0107774 104.99131328 -24.42585485 117.55670648 -27.75390625 131.05859375 C-29.80646912 137.25063487 -32.70847361 142.11618062 -37 147 C-37.50144531 147.60585937 -38.00289063 148.21171875 -38.51953125 148.8359375 C-45.72213258 156.86219398 -56.30373939 161.34149642 -66.921875 162.25 C-80.51986059 162.77049706 -91.57144739 158.56476742 -101.6875 149.625 C-110.92205064 139.14253711 -115.35728928 129.06254726 -115.22265625 114.9453125 C-114.67537765 107.7058728 -112.33240764 101.39411549 -109 95 C-110.14210938 95.52207031 -111.28421875 96.04414062 -112.4609375 96.58203125 C-163.94809368 120 -163.94809368 120 -172 120 C-172 122.31 -172 124.62 -172 127 C-171.05125 127.061875 -170.1025 127.12375 -169.125 127.1875 C-158.52618485 128.78691878 -149.45918502 136.10448802 -143.14453125 144.453125 C-135.93710919 155.77144705 -134.00580297 168.25434783 -136.69140625 181.37890625 C-138.71200903 187.9987053 -141.70007194 193.59108807 -146 199 C-146.47824219 199.61488281 -146.95648438 200.22976562 -147.44921875 200.86328125 C-153.2779939 207.48488727 -163.23245919 212.89741532 -172 214 C-186.37473151 214.89658346 -197.3556912 213.09849984 -209 204 C-209.61617188 203.52175781 -210.23234375 203.04351562 -210.8671875 202.55078125 C-217.30796726 196.86858221 -222.2360731 187.42262531 -224 179 C-224.9481432 163.31677893 -222.95034839 151.20299308 -212.26953125 139.02734375 C-208.80459049 135.42472322 -205.18153162 132.7573303 -201 130 C-201.84143555 130.21092285 -202.68287109 130.4218457 -203.54980469 130.63916016 C-220.2947821 134.79944505 -237.03187818 138.57441895 -254.0625 141.375 C-254.79069946 141.49578918 -255.51889893 141.61657837 -256.26916504 141.74102783 C-264.20832575 143.04790127 -272.16002549 144.19362809 -280.1484375 145.15625 C-280.83893692 145.24055267 -281.52943634 145.32485535 -282.24085999 145.41171265 C-287.84175854 146.05986662 -293.36995722 146.21887855 -299 146 C-298.89259072 147.96226621 -298.89259072 147.96226621 -298 150 C-295.72919005 151.18930049 -295.72919005 151.18930049 -292.9375 151.9375 C-287.70824409 153.66702044 -283.48487759 155.83481053 -279 159 C-278.154375 159.556875 -277.30875 160.11375 -276.4375 160.6875 C-267.59490032 169.07663303 -262.67384419 180.05360306 -261.96484375 192.17578125 C-262.1400308 206.24914061 -267.41422706 218.14163949 -277.44921875 227.96875 C-288.4035116 236.69192348 -300.30417803 238.93898877 -314 238 C-326.44173231 235.70773855 -336.68227416 229.36055572 -344 219 C-350.70878722 207.81274047 -352.79396965 196.46399559 -350.34765625 183.55859375 C-347.06598829 171.62909691 -340.24245335 161.87289695 -329.515625 155.53125 C-324.79229915 153.06939532 -320.176646 151.23789361 -315 150 C-315 149.34 -315 148.68 -315 148 C-316.71654785 148.02356567 -316.71654785 148.02356567 -318.46777344 148.04760742 C-351.93442447 148.46446396 -384.73359666 147.50137131 -417.70874023 141.31958008 C-420.16589175 140.97686177 -422.52222364 140.94599824 -425 141 C-424.24976563 141.20753906 -423.49953125 141.41507813 -422.7265625 141.62890625 C-410.67163728 145.25752984 -401.15177927 151.5324479 -394.53125 162.4140625 C-388.56407019 173.61987111 -387.15363392 185.33057848 -390.625 197.625 C-394.82180138 209.86445212 -401.48619428 218.77565613 -413.0625 224.875 C-424.23554922 229.94899942 -436.98799968 231.13381407 -448.7265625 226.98046875 C-460.4170965 221.93867488 -468.9860249 214.9226314 -474.296875 203.1171875 C-478.85903017 190.98449946 -478.96350901 180.35070974 -475 168 C-473.31007681 164.4107826 -471.31249201 161.21812312 -469 158 C-468.55914062 157.36449219 -468.11828125 156.72898438 -467.6640625 156.07421875 C-461.33250995 147.82124129 -451.95419891 143.26722535 -442 141 C-441.67 139.35 -441.34 137.7 -441 136 C-441.65121826 135.89768066 -442.30243652 135.79536133 -442.97338867 135.68994141 C-450.28630802 134.46086845 -457.24335533 132.59631717 -464.3125 130.375 C-465.43172852 130.02671143 -466.55095703 129.67842285 -467.70410156 129.31958008 C-475.27701048 126.93311874 -482.78462891 124.39121269 -490.25 121.6875 C-491.14759033 121.36249512 -492.04518066 121.03749023 -492.9699707 120.70263672 C-504.59369235 116.40630765 -504.59369235 116.40630765 -508 113 C-508.67386609 106.03671706 -508.67386609 106.03671706 -506.375 102.5 C-503.31921774 100.57003226 -501.57966271 100.76067884 -498 101 C-495.3605957 101.79101563 -495.3605957 101.79101563 -492.67578125 102.90625 C-491.66136963 103.31649414 -490.64695801 103.72673828 -489.60180664 104.14941406 C-488.51633545 104.59510742 -487.43086426 105.04080078 -486.3125 105.5 C-439.20448889 124.16938149 -388.35653365 132.25296683 -337.8125 132.1875 C-336.50699188 132.18659363 -336.50699188 132.18659363 -335.17510986 132.18566895 C-238.98721021 132.00580878 -141.91213561 103.52297948 -28.33203125 20.11328125 C-26.24965264 18.22623463 -24.13496936 16.38941767 -22 14.5625 C-17.81768457 10.93498151 -13.96645019 6.99967496 -10.1015625 3.0390625 C-6.7774774 -0.18616505 -4.58967584 -0.45896758 0 0 Z M-94 100 C-98.8067888 107.09687181 -100.78165203 114.25160071 -99.625 122.7578125 C-97.71518469 131.32810872 -93.3760467 137.9994163 -86.0625 142.9375 C-79.52505385 146.5974602 -72.17441938 148.24367624 -64.7734375 146.46484375 C-54.8874996 143.43954837 -48.45614555 137.57442831 -43.0625 128.875 C-40.50350777 121.90174618 -40.82864157 112.88374253 -43.625 106.0625 C-44.72618099 103.94997566 -44.72618099 103.94997566 -46 102 C-46.38929688 101.37609375 -46.77859375 100.7521875 -47.1796875 100.109375 C-51.3809102 94.39173463 -57.36953372 91.22852964 -64 89 C-76.06503197 87.15790304 -85.9706985 90.85114448 -94 100 Z M-204 153 C-208.82167701 160.34671313 -209.75085854 167.39730646 -209 176 C-206.89840728 184.12784655 -201.45439863 190.32107861 -194.9375 195.375 C-187.19115479 199.66021224 -179.01722141 200.31391626 -170.4375 198.0625 C-163.2672965 195.32853751 -156.94897832 189.48144719 -153.4375 182.6875 C-150.44717142 175.01665712 -149.71658946 167.75598303 -152.5625 159.875 C-156.66191225 150.69462608 -162.81548046 145.74867535 -171.8125 141.75 C-185.15231606 138.61121975 -195.02973914 143.01332469 -204 153 Z M-456 166 C-461.66038767 174.23329116 -463.56378105 182.09605336 -462 192 C-460.75504528 195.66651371 -459.12491682 198.77259011 -457 202 C-456.401875 202.928125 -455.80375 203.85625 -455.1875 204.8125 C-449.24796038 210.75203962 -442.15621799 213.91213542 -433.75 214.375 C-425.83583965 214.15891371 -418.22990346 211.16786949 -412.49609375 205.6953125 C-406.40745741 198.79591779 -403.63561566 191.82241707 -404.0625 182.625 C-405.13047423 173.86275689 -408.84045566 166.96451265 -415.7734375 161.47265625 C-428.62289714 152.97397856 -445.72805944 153.60369217 -456 166 Z M-330 176 C-334.6420383 183.49423596 -337.24891248 190.5120055 -335.5390625 199.39453125 C-333.08589229 208.78873009 -328.41033246 214.75602771 -320.15234375 219.8125 C-313.57463331 223.44158162 -306.92896477 224.02753663 -299.6015625 222.5 C-290.12065818 219.6524929 -284.8045541 214.56530731 -280 206 C-276.91597452 199.69176607 -276.98091576 191.9331143 -278.72265625 185.2109375 C-282.40158435 175.3508144 -288.39818282 170.08084802 -297.8125 165.6875 C-310.19620055 163.01650576 -321.67678809 166.215602 -330 176 Z " fill="#313132" transform="translate(508,17)"/>
</svg>
