<?xml version="1.0" encoding="UTF-8"?>
<svg version="1.1" xmlns="http://www.w3.org/2000/svg" width="512" height="512">
<path d="M0 0 C3.25207092 1.41738489 5.31361067 3.12526412 7.75 5.6875 C10.41015854 8.42155183 13.10249898 11.01887216 16 13.5 C19.51001511 16.51641923 22.75051276 19.73095132 25.99609375 23.02734375 C28.58246151 25.57337829 31.3153528 27.92021557 34.06640625 30.28515625 C36.56569138 32.50169397 38.88281884 34.87162281 41.22265625 37.25390625 C43.06593574 39.06477643 44.97822799 40.75321354 46.9375 42.4375 C49.74576347 44.85617779 52.39970593 47.35899683 55 50 C57.58009215 52.62040609 60.21103607 55.10323412 63 57.5 C65.78896393 59.89676588 68.41990785 62.37959391 71 65 C76.00438154 70.07333956 81.26077526 74.77176584 87 79 C87.6290625 78.35933594 88.258125 77.71867187 88.90625 77.05859375 C93.51303302 72.40324524 98.16105797 67.90226102 103.13671875 63.64453125 C105.61630858 61.4560463 107.9062118 59.10455987 110.22265625 56.74609375 C112.06593574 54.93522357 113.97822799 53.24678646 115.9375 51.5625 C118.74576347 49.14382221 121.39970593 46.64100317 124 44 C127.2215855 40.72797872 130.58592145 37.70683945 134.06640625 34.71484375 C135.95494597 33.03995701 137.73155648 31.30052413 139.5 29.5 C141.89053167 27.06610268 144.35046262 24.78644441 146.9375 22.5625 C150.46214666 19.52682167 153.72236889 16.29775129 156.984375 12.984375 C159.63087803 10.37890303 162.41992982 7.96405644 165.234375 5.54296875 C167.24941639 3.78203656 169.14694398 1.93026669 171 0 C174.25207092 1.41738489 176.31361067 3.12526412 178.75 5.6875 C181.41015854 8.42155183 184.10249898 11.01887216 187 13.5 C190.51001511 16.51641923 193.75051276 19.73095132 196.99609375 23.02734375 C199.58246151 25.57337829 202.3153528 27.92021557 205.06640625 30.28515625 C207.56569138 32.50169397 209.88281884 34.87162281 212.22265625 37.25390625 C214.06593574 39.06477643 215.97822799 40.75321354 217.9375 42.4375 C221.46634763 45.47679651 224.73005027 48.71016847 227.99609375 52.02734375 C230.58246151 54.57337829 233.3153528 56.92021557 236.06640625 59.28515625 C237.95494597 60.96004299 239.73155648 62.69947587 241.5 64.5 C246.65784499 69.7402763 252.24603319 74.43067341 258 79 C258.6290625 78.35933594 259.258125 77.71867187 259.90625 77.05859375 C264.51303302 72.40324524 269.16105797 67.90226102 274.13671875 63.64453125 C276.61630858 61.4560463 278.9062118 59.10455987 281.22265625 56.74609375 C283.06593574 54.93522357 284.97822799 53.24678646 286.9375 51.5625 C289.74576347 49.14382221 292.39970593 46.64100317 295 44 C298.2215855 40.72797872 301.58592145 37.70683945 305.06640625 34.71484375 C306.95494597 33.03995701 308.73155648 31.30052413 310.5 29.5 C312.89053167 27.06610268 315.35046262 24.78644441 317.9375 22.5625 C320.74576347 20.14382221 323.39970593 17.64100317 326 15 C331.33677607 9.58983016 337.05326196 4.72452418 343 0 C345.07423667 21.09605062 345.07423667 21.09605062 340.890625 26.44921875 C338.30098381 28.73440212 335.71616413 30.71401631 332.86523438 32.64648438 C329.36922322 35.18338043 326.35462814 38.25778408 323.25 41.25 C321.88322642 42.53698108 320.51471878 43.82212295 319.14453125 45.10546875 C318.45955566 45.74919434 317.77458008 46.39291992 317.06884766 47.05615234 C313.69386916 50.22721427 310.3158287 53.395008 306.9375 56.5625 C306.27524414 57.18350586 305.61298828 57.80451172 304.93066406 58.44433594 C299.84614091 63.21061021 294.75292346 67.96749698 289.65527344 72.71972656 C286.3827149 75.7717019 283.11540947 78.82907779 279.85546875 81.89453125 C272.64053507 88.67788133 265.40908687 95.42799747 258 102 C252.20037161 97.98487265 247.35078792 93.48013655 242.43359375 88.46484375 C239.04193121 85.0130758 235.54578886 81.77864672 231.859375 78.640625 C229.10917227 76.21397553 226.57611823 73.58513769 224.00390625 70.97265625 C221.41753849 68.42662171 218.6846472 66.07978443 215.93359375 63.71484375 C213.43430862 61.49830603 211.11718116 59.12837719 208.77734375 56.74609375 C206.93406426 54.93522357 205.02177201 53.24678646 203.0625 51.5625 C199.53365237 48.52320349 196.26994973 45.28983153 193.00390625 41.97265625 C190.42244207 39.43144882 187.69764369 37.08734833 184.9453125 34.734375 C182.39037707 32.45648076 180.05782048 29.99570111 177.73828125 27.48046875 C175.64723194 25.6995526 173.57813602 24.90037118 171 24 C162.56334644 31.46239627 154.38809834 39.19422129 146.19921875 46.92578125 C142.76414437 50.16561161 139.32029221 53.39604206 135.875 56.625 C135.21677246 57.24197754 134.55854492 57.85895508 133.88037109 58.49462891 C128.81184919 63.24348054 123.7354024 67.98380178 118.6550293 72.7199707 C115.38254035 75.7718521 112.1153257 78.82915656 108.85546875 81.89453125 C101.64053507 88.67788133 94.40908687 95.42799747 87 102 C81.20126052 97.98548805 76.35217244 93.48164264 71.43579102 88.46704102 C68.02205208 84.99273836 64.50293995 81.73343134 60.79296875 78.57421875 C58.33279825 76.41419977 56.07035076 74.08069726 53.77734375 71.74609375 C51.93406426 69.93522357 50.02177201 68.24678646 48.0625 66.5625 C45.25423653 64.14382221 42.60029407 61.64100317 40 59 C37.41990785 56.37959391 34.78896393 53.89676588 32 51.5 C28.48998489 48.48358077 25.24948724 45.26904868 22.00390625 41.97265625 C19.42244207 39.43144882 16.69764369 37.08734833 13.9453125 34.734375 C11.39037707 32.45648076 9.05782048 29.99570111 6.73828125 27.48046875 C4.64723194 25.6995526 2.57813602 24.90037118 0 24 C-8.43665356 31.46239627 -16.61190166 39.19422129 -24.80078125 46.92578125 C-28.23585563 50.16561161 -31.67970779 53.39604206 -35.125 56.625 C-35.78322754 57.24197754 -36.44145508 57.85895508 -37.11962891 58.49462891 C-42.18815081 63.24348054 -47.2645976 67.98380178 -52.3449707 72.7199707 C-55.61745965 75.7718521 -58.8846743 78.82915656 -62.14453125 81.89453125 C-69.35946493 88.67788133 -76.59091313 95.42799747 -84 102 C-89.79962839 97.98487265 -94.64921208 93.48013655 -99.56640625 88.46484375 C-102.95806879 85.0130758 -106.45421114 81.77864672 -110.140625 78.640625 C-112.89082773 76.21397553 -115.42388177 73.58513769 -117.99609375 70.97265625 C-120.58246151 68.42662171 -123.3153528 66.07978443 -126.06640625 63.71484375 C-128.56569138 61.49830603 -130.88281884 59.12837719 -133.22265625 56.74609375 C-135.06593574 54.93522357 -136.97822799 53.24678646 -138.9375 51.5625 C-142.46634763 48.52320349 -145.73005027 45.28983153 -148.99609375 41.97265625 C-151.57598216 39.43300002 -154.30083052 37.09121633 -157.046875 34.734375 C-159.63953956 32.43208887 -162.05222488 29.97666918 -164.45703125 27.48046875 C-166.13707372 25.78164495 -166.13707372 25.78164495 -169 24 C-169.34057617 21.66162109 -169.34057617 21.66162109 -169.29296875 18.7734375 C-169.28330078 17.7421875 -169.27363281 16.7109375 -169.26367188 15.6484375 C-169.23853516 14.56820313 -169.21339844 13.48796875 -169.1875 12.375 C-169.17396484 11.28703125 -169.16042969 10.1990625 -169.14648438 9.078125 C-169.11104754 6.38492591 -169.06164331 3.69270626 -169 1 C-164.62849641 4.7076409 -160.32604968 8.47431786 -156.125 12.375 C-155.30588135 13.13321045 -155.30588135 13.13321045 -154.47021484 13.90673828 C-149.10079142 18.88696458 -143.77091814 23.90923062 -138.44213867 28.93286133 C-133.78580795 33.32225202 -129.11823444 37.69914551 -124.4375 42.0625 C-117.30785262 48.70922908 -110.19537922 55.37411804 -103.08642578 62.04296875 C-99.3916729 65.50858297 -95.6957587 68.97295847 -92 72.4375 C-90.64582848 73.70702607 -89.29166135 74.97655682 -87.9375 76.24609375 C-87.36902344 76.77904053 -86.80054687 77.3119873 -86.21484375 77.86108398 C-85.81394531 78.23692627 -85.41304688 78.61276855 -85 79 C-80.20898273 74.9589444 -75.56457648 70.79437419 -71 66.5 C-69.67582339 65.25906962 -68.35160342 64.01818549 -67.02734375 62.77734375 C-66.35815918 62.14940918 -65.68897461 61.52147461 -64.99951172 60.87451172 C-61.8596523 57.93094143 -58.71052782 54.99732806 -55.5625 52.0625 C-49.69301572 46.58636336 -43.83524259 41.09782943 -37.98071289 35.60571289 C-33.49334375 31.39713674 -28.99909734 27.19603397 -24.5 23 C-19.03506994 17.90285959 -13.57731659 12.79813158 -8.125 7.6875 C-7.42826172 7.03458984 -6.73152344 6.38167969 -6.01367188 5.70898438 C-5.37236328 5.10763672 -4.73105469 4.50628906 -4.0703125 3.88671875 C-3.50070801 3.35264404 -2.93110352 2.81856934 -2.34423828 2.26831055 C-1.55336471 1.52210855 -0.76886229 0.76886229 0 0 Z " fill="#313132" transform="translate(169,1)"/>
<path d="M0 0 C3.48654476 1.4841373 5.64191072 3.46214052 8.25 6.1875 C11.73304157 9.75619013 15.31881213 13.0758191 19.1015625 16.3203125 C21.59096719 18.5228722 23.8945103 20.88352636 26.22265625 23.25390625 C28.06593574 25.06477643 29.97822799 26.75321354 31.9375 28.4375 C35.46634763 31.47679651 38.73005027 34.71016847 41.99609375 38.02734375 C44.58246151 40.57337829 47.3153528 42.92021557 50.06640625 45.28515625 C52.56569138 47.50169397 54.88281884 49.87162281 57.22265625 52.25390625 C59.06593574 54.06477643 60.97822799 55.75321354 62.9375 57.4375 C65.74576347 59.85617779 68.39970593 62.35899683 71 65 C76.00438154 70.07333956 81.26077526 74.77176584 87 79 C87.556875 78.43152344 88.11375 77.86304688 88.6875 77.27734375 C92.99983616 72.91401713 97.37905737 68.73835279 102.03515625 64.74609375 C104.81424514 62.2764064 107.38860496 59.62096678 109.99609375 56.97265625 C112.58246151 54.42662171 115.3153528 52.07978443 118.06640625 49.71484375 C119.95494597 48.03995701 121.73155648 46.30052413 123.5 44.5 C125.89053167 42.06610268 128.35046262 39.78644441 130.9375 37.5625 C133.74576347 35.14382221 136.39970593 32.64100317 139 30 C142.20029522 26.74970017 145.54224576 23.75275755 149 20.78125 C151.78473876 18.30109205 154.36914046 15.64079434 156.984375 12.984375 C159.63087803 10.37890303 162.41992982 7.96405644 165.234375 5.54296875 C167.24941639 3.78203656 169.14694398 1.93026669 171 0 C174.48654476 1.4841373 176.64191072 3.46214052 179.25 6.1875 C182.73304157 9.75619013 186.31881213 13.0758191 190.1015625 16.3203125 C192.59096719 18.5228722 194.8945103 20.88352636 197.22265625 23.25390625 C199.06593574 25.06477643 200.97822799 26.75321354 202.9375 28.4375 C206.46634763 31.47679651 209.73005027 34.71016847 212.99609375 38.02734375 C215.58246151 40.57337829 218.3153528 42.92021557 221.06640625 45.28515625 C223.56569138 47.50169397 225.88281884 49.87162281 228.22265625 52.25390625 C230.06593574 54.06477643 231.97822799 55.75321354 233.9375 57.4375 C236.74576347 59.85617779 239.39970593 62.35899683 242 65 C247.00438154 70.07333956 252.26077526 74.77176584 258 79 C258.8353125 78.14728516 258.8353125 78.14728516 259.6875 77.27734375 C263.99983616 72.91401713 268.37905737 68.73835279 273.03515625 64.74609375 C275.81424514 62.2764064 278.38860496 59.62096678 280.99609375 56.97265625 C283.58246151 54.42662171 286.3153528 52.07978443 289.06640625 49.71484375 C290.95494597 48.03995701 292.73155648 46.30052413 294.5 44.5 C296.89053167 42.06610268 299.35046262 39.78644441 301.9375 37.5625 C304.74576347 35.14382221 307.39970593 32.64100317 310 30 C313.2215855 26.72797872 316.58592145 23.70683945 320.06640625 20.71484375 C321.95494597 19.03995701 323.73155648 17.30052413 325.5 15.5 C330.98003534 9.93258368 336.99841312 4.98855307 343 0 C344.94643679 19.79626035 344.94643679 19.79626035 340.92578125 26.4140625 C338.34248704 28.69074471 335.75539262 30.66145543 332.91699219 32.59472656 C329.2027738 35.31747759 325.99346874 38.61765626 322.6875 41.8125 C321.22586288 43.19472508 319.76231915 44.5749368 318.296875 45.953125 C317.57693359 46.63181641 316.85699219 47.31050781 316.11523438 48.00976562 C312.89810765 51.03677591 309.66877842 54.05061086 306.4375 57.0625 C301.28380125 61.86665659 296.13842294 66.67950728 291 71.5 C288.33360644 74.00029142 285.66687026 76.50021706 283 79 C282.3390332 79.6197168 281.67806641 80.23943359 280.99707031 80.87792969 C273.40014339 87.99748467 265.7801864 95.08021069 258 102 C252.20126052 97.98548805 247.35217244 93.48164264 242.43579102 88.46704102 C239.02205208 84.99273836 235.50293995 81.73343134 231.79296875 78.57421875 C229.33279825 76.41419977 227.07035076 74.08069726 224.77734375 71.74609375 C222.93406426 69.93522357 221.02177201 68.24678646 219.0625 66.5625 C215.53365237 63.52320349 212.26994973 60.28983153 209.00390625 56.97265625 C206.41753849 54.42662171 203.6846472 52.07978443 200.93359375 49.71484375 C198.43430862 47.49830603 196.11718116 45.12837719 193.77734375 42.74609375 C191.30547002 40.31768153 188.67761148 38.08939781 186.046875 35.8359375 C183.19104574 33.27441125 180.5734174 30.50288306 177.95703125 27.69921875 C175.76226151 25.79358035 173.73609155 24.9309327 171 24 C165.76331138 28.64663919 160.61536447 33.32378361 155.7109375 38.3203125 C153.23409169 40.75191912 150.59746251 42.98526307 147.96875 45.25 C146.06976929 46.93798286 144.27994012 48.68769734 142.5 50.5 C140.10946833 52.93389732 137.64953738 55.21355559 135.0625 57.4375 C132.25423653 59.85617779 129.60029407 62.35899683 127 65 C123.7784145 68.27202128 120.41407855 71.29316055 116.93359375 74.28515625 C115.04505403 75.96004299 113.26844352 77.69947587 111.5 79.5 C108.48603856 82.56863648 105.30457033 85.37080904 102.04296875 88.171875 C99.23818727 90.68169858 96.64479379 93.37640826 94.0546875 96.10546875 C91.5607784 98.4049857 88.85442605 100.17656353 86 102 C78.09702913 94.7430111 70.25068349 87.42891001 62.44384766 80.06860352 C57.78681634 75.67886433 53.11880356 71.30134297 48.4375 66.9375 C43.28382418 62.13331848 38.13846143 57.32045197 33 52.5 C31.00141107 50.62618579 29.00268556 48.75251738 27.00390625 46.87890625 C25.65722783 45.61623116 24.3108787 44.35320477 22.96484375 43.08984375 C12.63843008 33.37239528 12.63843008 33.37239528 2 24 C-3.25644327 25.47497184 -6.16197511 28.85974594 -9.8125 32.6875 C-11.0542434 33.95873926 -12.29772032 35.22828766 -13.54296875 36.49609375 C-14.13770996 37.10308105 -14.73245117 37.71006836 -15.34521484 38.33544922 C-19.6113334 42.62674404 -23.58055085 46.29027543 -29 49 C-32.3 45.7 -35.6 42.4 -39 39 C-35.23809046 31.47618091 -28.28539775 26.16549946 -21.96484375 20.74609375 C-19.18987445 18.28006735 -16.61912598 15.62887599 -14.015625 12.984375 C-11.36912197 10.37890303 -8.58007018 7.96405644 -5.765625 5.54296875 C-3.75058361 3.78203656 -1.85305602 1.93026669 0 0 Z " fill="#313132" transform="translate(169,155)"/>
<path d="M0 0 C3.48654476 1.4841373 5.64191072 3.46214052 8.25 6.1875 C11.73304157 9.75619013 15.31881213 13.0758191 19.1015625 16.3203125 C21.59096719 18.5228722 23.8945103 20.88352636 26.22265625 23.25390625 C28.06593574 25.06477643 29.97822799 26.75321354 31.9375 28.4375 C35.46634763 31.47679651 38.73005027 34.71016847 41.99609375 38.02734375 C44.58246151 40.57337829 47.3153528 42.92021557 50.06640625 45.28515625 C52.56569138 47.50169397 54.88281884 49.87162281 57.22265625 52.25390625 C59.06593574 54.06477643 60.97822799 55.75321354 62.9375 57.4375 C65.74576347 59.85617779 68.39970593 62.35899683 71 65 C76.00438154 70.07333956 81.26077526 74.77176584 87 79 C87.8353125 78.14728516 87.8353125 78.14728516 88.6875 77.27734375 C92.99983616 72.91401713 97.37905737 68.73835279 102.03515625 64.74609375 C104.81424514 62.2764064 107.38860496 59.62096678 109.99609375 56.97265625 C112.58246151 54.42662171 115.3153528 52.07978443 118.06640625 49.71484375 C119.95494597 48.03995701 121.73155648 46.30052413 123.5 44.5 C125.89053167 42.06610268 128.35046262 39.78644441 130.9375 37.5625 C133.74576347 35.14382221 136.39970593 32.64100317 139 30 C142.2215855 26.72797872 145.58592145 23.70683945 149.06640625 20.71484375 C151.56156388 18.50196658 153.87511246 16.13630102 156.2109375 13.7578125 C158.74812236 11.26494528 161.43941096 8.96588705 164.1328125 6.64453125 C166.53512038 4.52869105 168.77208834 2.2975339 171 0 C174.48654476 1.4841373 176.64191072 3.46214052 179.25 6.1875 C182.73304157 9.75619013 186.31881213 13.0758191 190.1015625 16.3203125 C192.58821332 18.52043565 194.88937141 20.87824378 197.21484375 23.24609375 C199.72861319 25.71585847 202.39757968 27.98960569 205.06640625 30.2890625 C207.83844894 32.74190028 210.41571701 35.35110994 213 38 C211.52278578 41.45201639 209.56205999 43.64961936 206.875 46.25 C206.15054687 46.95640625 205.42609375 47.6628125 204.6796875 48.390625 C204.12539063 48.92171875 203.57109375 49.4528125 203 50 C199.993182 48.66000502 198.00237391 47.20154709 195.75 44.8125 C193.2797959 42.26329151 190.75845477 39.87180507 188.0625 37.5625 C184.4615518 34.47796685 181.1908211 31.16447988 177.95703125 27.69921875 C175.76226151 25.79358035 173.73609155 24.9309327 171 24 C165.76331138 28.64663919 160.61536447 33.32378361 155.7109375 38.3203125 C153.23409169 40.75191912 150.59746251 42.98526307 147.96875 45.25 C146.06976929 46.93798286 144.27994012 48.68769734 142.5 50.5 C140.10946833 52.93389732 137.64953738 55.21355559 135.0625 57.4375 C132.25423653 59.85617779 129.60029407 62.35899683 127 65 C123.7784145 68.27202128 120.41407855 71.29316055 116.93359375 74.28515625 C115.04505403 75.96004299 113.26844352 77.69947587 111.5 79.5 C108.48603856 82.56863648 105.30457033 85.37080904 102.04296875 88.171875 C99.23818727 90.68169858 96.64479379 93.37640826 94.0546875 96.10546875 C91.5607784 98.4049857 88.85442605 100.17656353 86 102 C78.09702913 94.7430111 70.25068349 87.42891001 62.44384766 80.06860352 C57.78681634 75.67886433 53.11880356 71.30134297 48.4375 66.9375 C43.28382418 62.13331848 38.13846143 57.32045197 33 52.5 C31.00141107 50.62618579 29.00268556 48.75251738 27.00390625 46.87890625 C25.65722783 45.61623116 24.3108787 44.35320477 22.96484375 43.08984375 C12.63843008 33.37239528 12.63843008 33.37239528 2 24 C-3.25606012 25.47486433 -6.16261155 28.85949581 -9.8125 32.6875 C-11.05799763 33.9653945 -12.30537799 35.24145686 -13.5546875 36.515625 C-14.14991211 37.12341797 -14.74513672 37.73121094 -15.35839844 38.35742188 C-17.88005255 40.88057608 -20.55747322 43.19199961 -23.27734375 45.49609375 C-25.71840029 47.62717486 -27.95314124 49.9432209 -30.22265625 52.25390625 C-32.06593574 54.06477643 -33.97822799 55.75321354 -35.9375 57.4375 C-38.74576347 59.85617779 -41.39970593 62.35899683 -44 65 C-47.2215855 68.27202128 -50.58592145 71.29316055 -54.06640625 74.28515625 C-55.95494597 75.96004299 -57.73155648 77.69947587 -59.5 79.5 C-62.51396144 82.56863648 -65.69542967 85.37080904 -68.95703125 88.171875 C-71.76181273 90.68169858 -74.35520621 93.37640826 -76.9453125 96.10546875 C-79.4392216 98.4049857 -82.14557395 100.17656353 -85 102 C-92.90297087 94.7430111 -100.74931651 87.42891001 -108.55615234 80.06860352 C-113.21318366 75.67886433 -117.88119644 71.30134297 -122.5625 66.9375 C-127.71617582 62.13331848 -132.86153857 57.32045197 -138 52.5 C-139.99858893 50.62618579 -141.99731444 48.75251738 -143.99609375 46.87890625 C-145.34277217 45.61623116 -146.6891213 44.35320477 -148.03515625 43.08984375 C-150.02223874 41.22527887 -152.01095423 39.36247013 -154 37.5 C-154.58652344 36.94892578 -155.17304688 36.39785156 -155.77734375 35.83007812 C-156.34582031 35.29833984 -156.91429687 34.76660156 -157.5 34.21875 C-158.33821289 33.41836304 -158.33821289 33.41836304 -159.19335938 32.60180664 C-161.00526168 30.93432886 -161.00526168 30.93432886 -163.19726562 29.45874023 C-166.50362819 27.03560914 -168.67617559 25.38599847 -169.6328125 21.29150391 C-169.78659641 18.17687384 -169.70086456 15.17396928 -169.5 12.0625 C-169.46390625 10.99708984 -169.4278125 9.93167969 -169.390625 8.83398438 C-169.29680984 6.21888684 -169.16573994 3.61136019 -169 1 C-164.20898273 5.0410556 -159.56457648 9.20562581 -155 13.5 C-153.67582339 14.74093038 -152.35160342 15.98181451 -151.02734375 17.22265625 C-150.35815918 17.85059082 -149.68897461 18.47852539 -148.99951172 19.12548828 C-146.47328649 21.49378588 -143.94100074 23.85553264 -141.40820312 26.21679688 C-134.92140092 32.26428126 -128.44869854 38.3266894 -121.98071289 44.39428711 C-116.88742696 49.17113543 -111.78413792 53.93715094 -106.67749023 58.69970703 C-99.43879937 65.45274108 -92.21921963 72.22616369 -85 79 C-80.62849641 75.2923591 -76.32604968 71.52568214 -72.125 67.625 C-71.5789209 67.11952637 -71.0328418 66.61405273 -70.47021484 66.09326172 C-65.10079142 61.11303542 -59.77091814 56.09076938 -54.44213867 51.06713867 C-49.17457173 46.10155295 -43.88942862 41.15533757 -38.59423828 36.21923828 C-33.39043833 31.36739943 -28.19950238 26.50196345 -23.01098633 21.63378906 C-17.58243983 16.54198449 -12.14228897 11.46270835 -6.6953125 6.390625 C-4.43656179 4.28542971 -2.18352345 2.18352345 0 0 Z " fill="#313132" transform="translate(169,309)"/>
<path d="M0 0 C4.79101727 4.0410556 9.43542352 8.20562581 14 12.5 C15.32417661 13.74093038 16.64839658 14.98181451 17.97265625 16.22265625 C18.64184082 16.85059082 19.31102539 17.47852539 20.00048828 18.12548828 C22.52671351 20.49378588 25.05899926 22.85553264 27.59179688 25.21679688 C34.07859908 31.26428126 40.55130146 37.3266894 47.01928711 43.39428711 C52.11257304 48.17113543 57.21586208 52.93715094 62.32250977 57.69970703 C69.56120063 64.45274108 76.78078037 71.22616369 84 78 C88.4420886 74.23586677 92.79930703 70.40281907 97.0625 66.4375 C97.60543701 65.93444336 98.14837402 65.43138672 98.70776367 64.91308594 C100.47309805 63.27673839 102.23661069 61.63844328 104 60 C105.31764231 58.7772726 106.63535181 57.55461759 107.953125 56.33203125 C111.30351838 53.22289636 114.65218553 50.1119115 118 47 C121.35861695 48.43409972 123.35874939 50.19369321 125.75 52.9375 C126.36359375 53.62714844 126.9771875 54.31679687 127.609375 55.02734375 C129 57 129 57 129 60 C127.53125 61.796875 127.53125 61.796875 125.5 63.75 C124.76910156 64.45511719 124.03820312 65.16023438 123.28515625 65.88671875 C120.55193792 68.41436168 117.75643278 70.85850515 114.93359375 73.28515625 C113.04505403 74.96004299 111.26844352 76.69947587 109.5 78.5 C106.48603856 81.56863648 103.30457033 84.37080904 100.04296875 87.171875 C97.23818727 89.68169858 94.64479379 92.37640826 92.0546875 95.10546875 C89.5607784 97.4049857 86.85442605 99.17656353 84 101 C76.09702913 93.7430111 68.25068349 86.42891001 60.44384766 79.06860352 C55.78681634 74.67886433 51.11880356 70.30134297 46.4375 65.9375 C41.28382418 61.13331848 36.13846143 56.32045197 31 51.5 C29.00141107 49.62618579 27.00268556 47.75251738 25.00390625 45.87890625 C23.65722783 44.61623116 22.3108787 43.35320477 20.96484375 42.08984375 C18.97776126 40.22527887 16.98904577 38.36247013 15 36.5 C14.41347656 35.94892578 13.82695312 35.39785156 13.22265625 34.83007812 C12.65417969 34.29833984 12.08570313 33.76660156 11.5 33.21875 C10.66178711 32.41836304 10.66178711 32.41836304 9.80664062 31.60180664 C7.99473832 29.93432886 7.99473832 29.93432886 5.80273438 28.45874023 C2.49637181 26.03560914 0.32382441 24.38599847 -0.6328125 20.29150391 C-0.78659641 17.17687384 -0.70086456 14.17396928 -0.5 11.0625 C-0.46390625 9.99708984 -0.4278125 8.93167969 -0.390625 7.83398438 C-0.29680984 5.21888684 -0.16573994 2.61136019 0 0 Z " fill="#313132" transform="translate(0,156)"/>
<path d="M0 0 C0.33 0 0.66 0 1 0 C2.94643679 19.79626035 2.94643679 19.79626035 -1.07421875 26.4140625 C-3.65751296 28.69074471 -6.24460738 30.66145543 -9.08300781 32.59472656 C-12.7972262 35.31747759 -16.00653126 38.61765626 -19.3125 41.8125 C-20.77413712 43.19472508 -22.23768085 44.5749368 -23.703125 45.953125 C-24.42306641 46.63181641 -25.14300781 47.31050781 -25.88476562 48.00976562 C-29.10189235 51.03677591 -32.33122158 54.05061086 -35.5625 57.0625 C-40.71619875 61.86665659 -45.86157706 66.67950728 -51 71.5 C-53.66639356 74.00029142 -56.33312974 76.50021706 -59 79 C-59.9914502 79.9295752 -59.9914502 79.9295752 -61.00292969 80.87792969 C-68.59985661 87.99748467 -76.2198136 95.08021069 -84 102 C-89.79873948 97.98548805 -94.64782756 93.48164264 -99.56420898 88.46704102 C-102.97794792 84.99273836 -106.49706005 81.73343134 -110.20703125 78.57421875 C-112.65990192 76.42060899 -114.91729396 74.09747509 -117.1953125 71.76171875 C-119.78844567 69.23032685 -122.58211026 66.9538529 -125.3984375 64.67578125 C-127.31543226 62.66995015 -128.04643638 61.80166174 -128 59 C-125.91015625 56.421875 -125.91015625 56.421875 -123.0625 53.75 C-122.12535156 52.85796875 -121.18820312 51.9659375 -120.22265625 51.046875 C-119.48917969 50.37140625 -118.75570313 49.6959375 -118 49 C-111.67580005 53.30045596 -106.50036824 58.38191651 -101.15820312 63.80834961 C-95.74705662 69.29627589 -90.19976713 74.4110894 -84 79 C-83.443125 78.43152344 -82.88625 77.86304688 -82.3125 77.27734375 C-78.00016384 72.91401713 -73.62094263 68.73835279 -68.96484375 64.74609375 C-66.18575486 62.2764064 -63.61139504 59.62096678 -61.00390625 56.97265625 C-58.41753849 54.42662171 -55.6846472 52.07978443 -52.93359375 49.71484375 C-51.04505403 48.03995701 -49.26844352 46.30052413 -47.5 44.5 C-45.10946833 42.06610268 -42.64953738 39.78644441 -40.0625 37.5625 C-37.25423653 35.14382221 -34.60029407 32.64100317 -32 30 C-28.7784145 26.72797872 -25.41407855 23.70683945 -21.93359375 20.71484375 C-19.43843612 18.50196658 -17.12488754 16.13630102 -14.7890625 13.7578125 C-12.25111133 11.26419236 -9.55973697 8.96400675 -6.86328125 6.64453125 C-5.19371777 5.17097523 -3.61837241 3.65424266 -2.0625 2.0625 C-1.381875 1.381875 -0.70125 0.70125 0 0 Z " fill="#313132" transform="translate(511,309)"/>
<path d="M0 0 C5.99435404 5.20562325 9.61117602 12.22207189 10.4140625 20.1015625 C10.52759763 30.13806788 9.0571627 38.62608773 2.0546875 46.203125 C-5.82998705 52.59189292 -14.90955367 55.65079916 -24.921875 54.8046875 C-34.61291346 53.03723381 -42.01649408 48.21840227 -47.6640625 40.1328125 C-51.7484957 32.5728057 -52.9125539 24.13808124 -50.921875 15.8046875 C-48.5615308 8.16227572 -44.26189319 1.5375427 -37.421875 -2.76953125 C-24.40041409 -9.53216497 -11.98278401 -8.42146708 0 0 Z M-33.421875 15.4296875 C-35.4632913 20.02287417 -35.69550282 23.8566929 -34.921875 28.8046875 C-32.75557434 33.67886398 -29.83423044 36.05230797 -25.07421875 38.1796875 C-20.45550559 39.52087462 -16.58373198 38.48453808 -12.171875 36.6796875 C-8.59702057 33.70064214 -6.41915787 30.36142468 -5.53515625 25.81640625 C-5.29012032 21.46490605 -6.15977081 18.01746162 -8.51953125 14.34765625 C-11.69893 10.849432 -15.86307289 9.21644792 -20.421875 8.3046875 C-25.70457007 9.36122651 -29.70952779 11.53172293 -33.421875 15.4296875 Z " fill="#313132" transform="translate(275.921875,136.1953125)"/>
<path d="M0 0 C5.63476419 4.57247258 8.68244319 10.33177136 10.625 17.25 C11.68877633 27.68985145 10.40775838 36.46808847 4.125 45 C-1.11968939 50.67502288 -9.69888031 54.67576221 -17.3828125 55.453125 C-27.15052074 55.66938422 -35.2260027 52.99926842 -42.375 46.25 C-48.60157602 39.93870866 -51.1596805 32.3955773 -51.46875 23.57421875 C-50.92040994 14.7596523 -47.40577232 7.48715934 -41.4375 1.04296875 C-29.16969571 -9.62165657 -12.97240795 -8.94143373 0 0 Z M-32.875 15.875 C-34.9164163 20.46818667 -35.14862782 24.3020054 -34.375 29.25 C-32.20869934 34.12417648 -29.28735544 36.49762047 -24.52734375 38.625 C-19.90863059 39.96618712 -16.03685698 38.92985058 -11.625 37.125 C-8.05014557 34.14595464 -5.87228287 30.80673718 -4.98828125 26.26171875 C-4.74324532 21.91021855 -5.61289581 18.46277412 -7.97265625 14.79296875 C-11.152055 11.2947445 -15.31619789 9.66176042 -19.875 8.75 C-25.15769507 9.80653901 -29.16265279 11.97703543 -32.875 15.875 Z " fill="#313132" transform="translate(275.375,291.75)"/>
<path d="M0 0 C5.42870914 4.52392428 10.03109844 10.84690062 11.25 17.9375 C12.05969882 28.47685845 11.11134636 37.04886692 4.75 45.6875 C-0.49468939 51.36252288 -9.07388031 55.36326221 -16.7578125 56.140625 C-26.48774141 56.35604778 -34.65322201 53.7144661 -41.75 46.9375 C-47.88346216 40.10891213 -50.60190031 33.11968049 -50.75 23.9375 C-49.97662866 14.82890417 -46.61069563 7.28910235 -39.875 1.0625 C-28.2436349 -8.40030551 -12.1878348 -8.67054019 0 0 Z M-32.25 16.5625 C-34.2914163 21.15568667 -34.52362782 24.9895054 -33.75 29.9375 C-31.58369934 34.81167648 -28.66235544 37.18512047 -23.90234375 39.3125 C-19.28363059 40.65368712 -15.41185698 39.61735058 -11 37.8125 C-7.42514557 34.83345464 -5.24728287 31.49423718 -4.36328125 26.94921875 C-4.11824532 22.59771855 -4.98789581 19.15027412 -7.34765625 15.48046875 C-10.527055 11.9822445 -14.69119789 10.34926042 -19.25 9.4375 C-24.53269507 10.49403901 -28.53765279 12.66453543 -32.25 16.5625 Z " fill="#313132" transform="translate(103.75,291.0625)"/>
<path d="M0 0 C5.42870914 4.52392428 10.03109844 10.84690062 11.25 17.9375 C12.05969882 28.47685845 11.11134636 37.04886692 4.75 45.6875 C-0.49468939 51.36252288 -9.07388031 55.36326221 -16.7578125 56.140625 C-26.48774141 56.35604778 -34.65322201 53.7144661 -41.75 46.9375 C-47.88346216 40.10891213 -50.60190031 33.11968049 -50.75 23.9375 C-49.97662866 14.82890417 -46.61069563 7.28910235 -39.875 1.0625 C-28.2436349 -8.40030551 -12.1878348 -8.67054019 0 0 Z M-32.25 16.5625 C-34.2914163 21.15568667 -34.52362782 24.9895054 -33.75 29.9375 C-31.58369934 34.81167648 -28.66235544 37.18512047 -23.90234375 39.3125 C-19.28363059 40.65368712 -15.41185698 39.61735058 -11 37.8125 C-7.42514557 34.83345464 -5.24728287 31.49423718 -4.36328125 26.94921875 C-4.11824532 22.59771855 -4.98789581 19.15027412 -7.34765625 15.48046875 C-10.527055 11.9822445 -14.69119789 10.34926042 -19.25 9.4375 C-24.53269507 10.49403901 -28.53765279 12.66453543 -32.25 16.5625 Z " fill="#313132" transform="translate(103.75,135.0625)"/>
<path d="M0 0 C7.35122722 5.91294364 12.70467144 12.71580585 13.875 22.3125 C14.49164627 31.40803247 12.46481847 39.38579428 6.58984375 46.49609375 C-0.32464418 53.82009577 -7.86782319 56.98577853 -17.98828125 57.44140625 C-27.42321176 57.00102053 -35.25764206 53.12264136 -41.65625 46.2109375 C-48.00094709 38.01007902 -48.95467723 29.45559624 -48.125 19.3125 C-46.05850081 10.76309762 -41.47382567 4.3481548 -34.1875 -0.5 C-22.98715118 -6.92435102 -11.08758316 -5.9872949 0 0 Z M-29.453125 16.890625 C-32.08907709 21.01162053 -32.75259606 24.38138812 -32.125 29.3125 C-30.0137121 34.97964122 -26.92858314 37.59919919 -21.875 40.6875 C-16.60547046 41.88512035 -11.8255507 40.31064932 -7.25 37.625 C-4.14842526 34.2497569 -2.34981914 30.96850287 -1.95703125 26.328125 C-2.21828686 21.33524004 -4.09676774 18.29176119 -7.51953125 14.72265625 C-10.72205217 11.90973641 -13.32540349 11.40134406 -17.5 10.9375 C-22.54403978 11.45929722 -26.14258235 12.95692138 -29.453125 16.890625 Z " fill="#313132" transform="translate(358.125,380.6875)"/>
<path d="M0 0 C6.6049914 4.52913696 11.34778178 11.15706245 13.80078125 18.78125 C15.01102682 29.40580964 14.13705194 37.85731909 7.80078125 46.78125 C2.20796074 53.22146755 -5.68802298 57.26035434 -14.15234375 57.9375 C-23.39949701 58.32549244 -31.02917002 55.81879061 -38.15234375 49.8828125 C-45.89580409 41.93246582 -47.57693766 34.13467357 -47.4765625 23.39453125 C-46.8507506 15.24134809 -43.39996675 8.15888986 -37.19921875 2.78125 C-25.63213618 -5.1552884 -12.51309769 -6.93443424 0 0 Z M-28.6015625 17.32421875 C-31.35925123 21.61286635 -32.14553276 25.77367168 -31.19921875 30.78125 C-29.74911336 35.24032406 -27.51280756 37.94548635 -23.44921875 40.28125 C-19.14612602 42.13685876 -15.64504625 42.21716944 -11.19921875 40.78125 C-6.86658218 38.49230992 -4.00299413 36.39089818 -2.19921875 31.78125 C-1.41980028 26.68904934 -1.41483301 22.26910703 -4.26171875 17.84375 C-7.64878471 13.77543281 -11.44207493 12.27612197 -16.63671875 11.34375 C-21.2368566 12.12913939 -25.4151098 13.81823319 -28.6015625 17.32421875 Z " fill="#313132" transform="translate(443.19921875,133.21875)"/>
<path d="M0 0 C7.36362623 5.09702765 11.18104745 10.54314236 14 19 C14.97089006 29.60605212 14.37502886 38.00161856 8 47 C2.47531237 53.49808498 -5.13469491 56.85854533 -13.5 57.875 C-23.01100454 58.39089593 -30.42442743 55.82339932 -38 50 C-40.42541578 47.53382093 -42.26841963 44.98883344 -44 42 C-44.33902344 41.41863281 -44.67804688 40.83726562 -45.02734375 40.23828125 C-48.53193822 32.79303679 -48.35642216 23.31272686 -45.93359375 15.609375 C-41.89476543 6.84940948 -36.62205687 1.24068652 -27.6875 -2.4375 C-17.99327364 -5.52628109 -9.02511006 -4.74584813 0 0 Z M-28.875 18.0625 C-31.26399286 22.1768766 -31.63516098 26.35097453 -31 31 C-28.749429 35.33443305 -26.14200933 38.39920345 -22 41 C-16.37454522 42.56262633 -13.06811185 41.81561769 -8 39 C-4.41341162 35.88122749 -2.32332619 33.78272537 -1.76171875 28.94921875 C-1.58091356 23.43941848 -2.14756437 20.24755724 -6 16 C-9.37784262 13.3161201 -12.21420776 12.11225603 -16.5 11.5 C-21.6692187 12.23845981 -25.29491403 14.12440544 -28.875 18.0625 Z " fill="#313132" transform="translate(443,440)"/>
<path d="M0 0 C7.35122722 5.91294364 12.70467144 12.71580585 13.875 22.3125 C14.50433747 31.59522765 12.35373631 39.38637364 6.40234375 46.6328125 C0.38682706 53.24834237 -7.5437638 56.85225591 -16.44921875 57.40625 C-27.25935443 57.02750072 -34.42143051 53.01606949 -41.875 45.5625 C-47.37825331 37.61335632 -49.34510275 29.94882174 -48.125 20.3125 C-45.98607499 11.20404408 -41.9742 4.69615377 -34.1875 -0.5 C-22.98715118 -6.92435102 -11.08758316 -5.9872949 0 0 Z M-29.453125 16.890625 C-32.08907709 21.01162053 -32.75259606 24.38138812 -32.125 29.3125 C-30.0137121 34.97964122 -26.92858314 37.59919919 -21.875 40.6875 C-16.60547046 41.88512035 -11.8255507 40.31064932 -7.25 37.625 C-4.14842526 34.2497569 -2.34981914 30.96850287 -1.95703125 26.328125 C-2.21828686 21.33524004 -4.09676774 18.29176119 -7.51953125 14.72265625 C-10.72205217 11.90973641 -13.32540349 11.40134406 -17.5 10.9375 C-22.54403978 11.45929722 -26.14258235 12.95692138 -29.453125 16.890625 Z " fill="#313132" transform="translate(187.125,380.6875)"/>
<path d="M0 0 C6.63059452 4.71706724 11.004164 10.87186701 13.578125 18.59375 C14.54840206 29.19310577 13.96024097 37.60525113 7.578125 46.59375 C1.98530449 53.03396755 -5.91067923 57.07285434 -14.375 57.75 C-23.62215326 58.13799244 -31.25182627 55.63129061 -38.375 49.6953125 C-46.11846034 41.74496582 -47.79959391 33.94717357 -47.69921875 23.20703125 C-47.07340685 15.05384809 -43.622623 7.97138986 -37.421875 2.59375 C-25.81741289 -5.36843568 -12.45329495 -7.23094546 0 0 Z M-28.82421875 17.13671875 C-31.58190748 21.42536635 -32.36818901 25.58617168 -31.421875 30.59375 C-29.97176961 35.05282406 -27.73546381 37.75798635 -23.671875 40.09375 C-19.36878227 41.94935876 -15.8677025 42.02966944 -11.421875 40.59375 C-7.08923843 38.30480992 -4.22565038 36.20339818 -2.421875 31.59375 C-1.64245653 26.50154934 -1.63748926 22.08160703 -4.484375 17.65625 C-7.87144096 13.58793281 -11.66473118 12.08862197 -16.859375 11.15625 C-21.45951285 11.94163939 -25.63776605 13.63073319 -28.82421875 17.13671875 Z " fill="#313132" transform="translate(443.421875,289.40625)"/>
<path d="M0 0 C8.21189237 5.74050381 12.91038913 12.91605475 14.80078125 22.74609375 C15.87606223 30.63148759 13.65387248 38.51306976 9.11328125 44.99609375 C2.81871562 52.65164654 -4.43249052 56.68699445 -14.26171875 58.02734375 C-22.11776476 58.40747501 -30.17239488 55.72477434 -36.19921875 50.74609375 C-43.82049031 43.47589803 -47.22660493 37.29483627 -47.57421875 26.74609375 C-47.33018276 18.39581866 -45.09366865 10.86048581 -39.19921875 4.74609375 C-27.65057108 -4.80288536 -13.42388867 -7.65376246 0 0 Z M-28.01171875 17.37109375 C-30.90551438 21.13583758 -31.47648356 25.07460182 -31.19921875 29.74609375 C-29.51066298 34.91108787 -26.70636346 37.76967743 -22.19921875 40.74609375 C-17.87092757 42.18006014 -14.81337227 41.93033981 -10.44921875 40.62109375 C-6.22115967 38.18182889 -4.26112651 35.61707409 -1.88671875 31.43359375 C-0.92792774 27.68559252 -1.09207335 24.41261423 -2.19921875 20.74609375 C-5.19589605 16.20826812 -8.08561639 13.62455992 -13.19921875 11.74609375 C-19.52972026 10.95478106 -23.44036342 13.10449544 -28.01171875 17.37109375 Z " fill="#313132" transform="translate(357.19921875,229.25390625)"/>
<path d="M0 0 C8.21189237 5.74050381 12.91038913 12.91605475 14.80078125 22.74609375 C15.87606223 30.63148759 13.65387248 38.51306976 9.11328125 44.99609375 C2.81871562 52.65164654 -4.43249052 56.68699445 -14.26171875 58.02734375 C-22.11776476 58.40747501 -30.17239488 55.72477434 -36.19921875 50.74609375 C-43.82049031 43.47589803 -47.22660493 37.29483627 -47.57421875 26.74609375 C-47.33018276 18.39581866 -45.09366865 10.86048581 -39.19921875 4.74609375 C-27.65057108 -4.80288536 -13.42388867 -7.65376246 0 0 Z M-28.01171875 17.37109375 C-30.90551438 21.13583758 -31.47648356 25.07460182 -31.19921875 29.74609375 C-29.51066298 34.91108787 -26.70636346 37.76967743 -22.19921875 40.74609375 C-17.87092757 42.18006014 -14.81337227 41.93033981 -10.44921875 40.62109375 C-6.22115967 38.18182889 -4.26112651 35.61707409 -1.88671875 31.43359375 C-0.92792774 27.68559252 -1.09207335 24.41261423 -2.19921875 20.74609375 C-5.19589605 16.20826812 -8.08561639 13.62455992 -13.19921875 11.74609375 C-19.52972026 10.95478106 -23.44036342 13.10449544 -28.01171875 17.37109375 Z " fill="#313132" transform="translate(357.19921875,73.25390625)"/>
<path d="M0 0 C6.62812905 4.3585312 11.1239649 10.29973952 13.609375 17.8515625 C15.19976888 26.59872886 14.93993898 35.45165666 10 43 C4.83176926 50.19627065 -1.14955937 55.29946483 -9.875 57.375 C-20.20677123 58.98146443 -28.19913898 56.63407721 -37 51 C-43.30170382 45.7191722 -46.77634048 38.11933651 -47.875 30.0625 C-48.44974858 20.54230551 -46.08584961 13.33964733 -40 6 C-29.59701456 -5.67735115 -13.44551267 -6.896181 0 0 Z M-28.25 17.25 C-31.13353321 21.78126647 -32.26853521 25.26943976 -31.4375 30.625 C-29.25492082 35.74931633 -26.48535174 38.11450184 -21.75 40.9375 C-16.93786621 42.30093791 -13.54462825 42.12797475 -9 40 C-4.85112545 36.37947899 -2.15689108 32.85131475 -1.6875 27.3125 C-1.77072828 22.726622 -3.00365574 19.48104701 -6 16 C-9.35442413 13.18527282 -12.21566368 12.096322 -16.5625 11.5625 C-21.57231437 12.20011274 -24.67758097 13.67758097 -28.25 17.25 Z " fill="#313132" transform="translate(272,440)"/>
<path d="M0 0 C8.21189237 5.74050381 12.91038913 12.91605475 14.80078125 22.74609375 C15.87606223 30.63148759 13.65387248 38.51306976 9.11328125 44.99609375 C2.81871562 52.65164654 -4.43249052 56.68699445 -14.26171875 58.02734375 C-22.11776476 58.40747501 -30.17239488 55.72477434 -36.19921875 50.74609375 C-43.82049031 43.47589803 -47.22660493 37.29483627 -47.57421875 26.74609375 C-47.23980547 16.96140886 -44.53153226 11.11352036 -37.74609375 3.984375 C-26.98896362 -5.46936053 -12.50521881 -7.12997378 0 0 Z M-28.01171875 17.37109375 C-30.90551438 21.13583758 -31.47648356 25.07460182 -31.19921875 29.74609375 C-29.51066298 34.91108787 -26.70636346 37.76967743 -22.19921875 40.74609375 C-17.92044945 42.1636535 -14.83620476 41.92963209 -10.51171875 40.68359375 C-6.25490043 38.19375662 -3.15575829 35.65113976 -1.56640625 30.82421875 C-0.64378573 25.75962103 -1.56912572 22.24270442 -4.19921875 17.74609375 C-8.11102839 13.46173081 -11.36492706 11.93071057 -17.02734375 11.6171875 C-21.89284225 11.90596709 -24.55381647 14.14371829 -28.01171875 17.37109375 Z " fill="#313132" transform="translate(186.19921875,229.25390625)"/>
<path d="M0 0 C8.21189237 5.74050381 12.91038913 12.91605475 14.80078125 22.74609375 C15.87606223 30.63148759 13.65387248 38.51306976 9.11328125 44.99609375 C2.81871562 52.65164654 -4.43249052 56.68699445 -14.26171875 58.02734375 C-22.11776476 58.40747501 -30.17239488 55.72477434 -36.19921875 50.74609375 C-43.82049031 43.47589803 -47.22660493 37.29483627 -47.57421875 26.74609375 C-47.23980547 16.96140886 -44.53153226 11.11352036 -37.74609375 3.984375 C-26.98896362 -5.46936053 -12.50521881 -7.12997378 0 0 Z M-28.01171875 17.37109375 C-30.90551438 21.13583758 -31.47648356 25.07460182 -31.19921875 29.74609375 C-29.51066298 34.91108787 -26.70636346 37.76967743 -22.19921875 40.74609375 C-17.92044945 42.1636535 -14.83620476 41.92963209 -10.51171875 40.68359375 C-6.25490043 38.19375662 -3.15575829 35.65113976 -1.56640625 30.82421875 C-0.64378573 25.75962103 -1.56912572 22.24270442 -4.19921875 17.74609375 C-8.11102839 13.46173081 -11.36492706 11.93071057 -17.02734375 11.6171875 C-21.89284225 11.90596709 -24.55381647 14.14371829 -28.01171875 17.37109375 Z " fill="#313132" transform="translate(186.19921875,73.25390625)"/>
<path d="M0 0 C6.62812905 4.3585312 11.1239649 10.29973952 13.609375 17.8515625 C15.23785126 26.80818194 14.66029484 35.15706478 10 43 C9.443125 44.051875 8.88625 45.10375 8.3125 46.1875 C2.92033262 52.74554141 -4.81127574 56.9110625 -13.25 57.75 C-22.88831087 58.43384267 -30.31510031 55.92050946 -38 50 C-44.42721249 43.34324421 -48 35.2767725 -48 26 C-46.98263607 15.76277542 -43.49507144 8.37069769 -35.55078125 1.765625 C-24.50614856 -5.87935812 -11.79260408 -6.04840695 0 0 Z M-28.3125 17.5625 C-31.57966522 22.28173865 -31.62434609 26.3548708 -31 32 C-28.81545725 36.4499945 -26.54146346 38.99330685 -22 41 C-16.35409232 42.46375384 -13.05542166 41.90218651 -8 39 C-4.35227055 35.46508693 -2.12122699 32.43047844 -1.6875 27.3125 C-1.77072828 22.726622 -3.00365574 19.48104701 -6 16 C-9.35442413 13.18527282 -12.21566368 12.096322 -16.5625 11.5625 C-21.72701881 12.21980239 -24.81580191 13.6877805 -28.3125 17.5625 Z " fill="#313132" transform="translate(101,440)"/>
<path d="M0 0 C3.48654476 1.4841373 5.64191072 3.46214052 8.25 6.1875 C11.73304157 9.75619013 15.31881213 13.0758191 19.1015625 16.3203125 C21.59096719 18.5228722 23.8945103 20.88352636 26.22265625 23.25390625 C28.06593574 25.06477643 29.97822799 26.75321354 31.9375 28.4375 C35.46013897 31.47144917 38.71967271 34.6969001 41.9765625 38.01171875 C44.64653707 40.6353038 47.46878189 43.05250434 50.3359375 45.45703125 C52 47 52 47 54 50 C32.77581816 51.47128171 32.77581816 51.47128171 26.68359375 48.2421875 C24.51298836 45.95120864 22.77431196 43.60510744 21 41 C19.68483956 39.76944052 18.33040596 38.57931286 16.9375 37.4375 C13.37410929 34.39938999 10.15077745 31.12156994 6.95703125 27.69921875 C4.76226151 25.79358035 2.73609155 24.9309327 0 24 C-5.2310931 28.64167415 -10.37465995 33.31304213 -15.2734375 38.3046875 C-17.81283081 40.79811894 -20.50030389 43.10826013 -23.203125 45.421875 C-25.00437458 46.91160645 -25.00437458 46.91160645 -26.26586914 48.58032227 C-28.71399516 50.58452511 -30.41202472 50.34266627 -33.54296875 50.29296875 C-35.15268555 50.2784668 -35.15268555 50.2784668 -36.79492188 50.26367188 C-37.91447266 50.23853516 -39.03402344 50.21339844 -40.1875 50.1875 C-41.31865234 50.17396484 -42.44980469 50.16042969 -43.61523438 50.14648438 C-46.41063317 50.11109958 -49.20507892 50.06172948 -52 50 C-48.45308323 45.7223153 -44.84155887 41.77169584 -40.6875 38.0625 C-39.63436456 37.11314499 -38.58234909 36.16254661 -37.53125 35.2109375 C-36.96664063 34.70014648 -36.40203125 34.18935547 -35.8203125 33.66308594 C-32.40606404 30.54373769 -29.04990146 27.3625101 -25.6875 24.1875 C-19.35963414 18.21737063 -13.01348302 12.26765056 -6.64526367 6.34057617 C-4.40306295 4.25209094 -2.16691104 2.16691104 0 0 Z " fill="#313132" transform="translate(340,462)"/>
<path d="M0 0 C3.48654476 1.4841373 5.64191072 3.46214052 8.25 6.1875 C11.73304157 9.75619013 15.31881213 13.0758191 19.1015625 16.3203125 C21.59096719 18.5228722 23.8945103 20.88352636 26.22265625 23.25390625 C28.06593574 25.06477643 29.97822799 26.75321354 31.9375 28.4375 C35.46013897 31.47144917 38.71967271 34.6969001 41.9765625 38.01171875 C44.64653707 40.6353038 47.46878189 43.05250434 50.3359375 45.45703125 C52 47 52 47 54 50 C32.77581816 51.47128171 32.77581816 51.47128171 26.68359375 48.2421875 C24.51298836 45.95120864 22.77431196 43.60510744 21 41 C19.68483956 39.76944052 18.33040596 38.57931286 16.9375 37.4375 C13.37410929 34.39938999 10.15077745 31.12156994 6.95703125 27.69921875 C4.76226151 25.79358035 2.73609155 24.9309327 0 24 C-6.70804738 29.96621626 -13.29560346 36.0478754 -19.82055664 42.21337891 C-20.43406982 42.79007324 -21.04758301 43.36676758 -21.6796875 43.9609375 C-22.22351074 44.47446777 -22.76733398 44.98799805 -23.32763672 45.51708984 C-23.8795166 46.0064502 -24.43139648 46.49581055 -25 47 C-25.61665527 47.55163818 -26.23331055 48.10327637 -26.86865234 48.67163086 C-29.56611596 50.35283355 -31.26090216 50.34565163 -34.421875 50.29296875 C-35.95908203 50.2784668 -35.95908203 50.2784668 -37.52734375 50.26367188 C-38.59082031 50.23853516 -39.65429688 50.21339844 -40.75 50.1875 C-42.36841797 50.16719727 -42.36841797 50.16719727 -44.01953125 50.14648438 C-46.6801942 50.11116584 -49.33984296 50.06184199 -52 50 C-49.62978576 46.92343052 -47.29957993 44.22983994 -44.3125 41.75 C-41.23194665 39.12095632 -38.34166042 36.38583131 -35.5 33.5 C-32.13885518 30.0928121 -28.66298797 26.92541826 -25.03125 23.8125 C-21.96299674 21.07467401 -19.11729652 18.1257963 -16.23046875 15.19921875 C-13.54420354 12.55058948 -10.72549244 10.0955877 -7.86328125 7.640625 C-5.11033016 5.21664291 -2.56087877 2.62490074 0 0 Z " fill="#313132" transform="translate(169,462)"/>
<path d="M0 0 C5.61 0 11.22 0 17 0 C16.9175 1.69125 16.835 3.3825 16.75 5.125 C16.76982709 10.26682429 17.28575276 13.19051566 21 17 C25.47018306 19.66491682 29.02091581 20.53744497 34.07421875 19.64453125 C38.05481691 18.31228237 40.91755008 15.72241186 43.15625 12.16015625 C44.17390022 9.55478322 44.198365 7.53786989 44.125 4.75 C44.08375 3.1825 44.0425 1.615 44 0 C49.61 0 55.22 0 61 0 C61.44427802 10.44053339 60.61369533 17.47317184 54.875 26.25 C47.66980976 33.14192109 40.00159813 36.51600015 30.125 37.3125 C20.42679636 36.98922655 12.98506109 33.05288505 6.27734375 26.25390625 C1.77897939 20.93765746 -0.23401139 14.88529089 -1 8 C-0.67 5.36 -0.34 2.72 0 0 Z " fill="#313132" transform="translate(225,0)"/>
<path d="M0 0 C5.61 0 11.22 0 17 0 C16.9175 1.69125 16.835 3.3825 16.75 5.125 C16.76982709 10.26682429 17.28575276 13.19051566 21 17 C26.49588705 20.2763942 29.9670839 20.26496628 36 19 C38.84575944 18.39735818 38.84575944 18.39735818 41 17 C42.31068333 14.55711372 42.31068333 14.55711372 43 12 C43.33 11.34 43.66 10.68 44 10 C44.06996014 8.29297265 44.08440154 6.58331997 44.0625 4.875 C44.041875 3.26625 44.02125 1.6575 44 0 C49.61 0 55.22 0 61 0 C61.44427802 10.44053339 60.61369533 17.47317184 54.875 26.25 C47.66980976 33.14192109 40.00159813 36.51600015 30.125 37.3125 C20.93604555 36.98881863 13.43609282 33.52223556 7 27 C1.68989712 20.42775275 -0.60701754 13.41935147 -1 5 C-0.67 3.35 -0.34 1.7 0 0 Z " fill="#313132" transform="translate(54,0)"/>
<path d="M0 0 C5.61 0 11.22 0 17 0 C16.9071875 2.3203125 16.9071875 2.3203125 16.8125 4.6875 C16.79410174 9.02335675 17.34530128 11.46040171 20 15 C20 15.66 20 16.32 20 17 C24.85345717 19.27505805 29.9321165 20.92036505 35.1875 19.34375 C38.31547391 17.9177619 40.60260952 16.40980894 43 13.9375 C44.58544714 9.28024901 44.17709437 4.89961078 44 0 C49.61 0 55.22 0 61 0 C61.66563082 11.09384706 60.72643328 19.23735498 53.359375 27.9375 C47.1414299 33.74866365 39.16976159 36.5945285 30.8125 37.25 C22.17925102 36.68388531 14.52001526 33.75955459 8 28 C0.55043933 19.09881187 -0.23168041 11.3523399 0 0 Z " fill="#313132" transform="translate(396,0)"/>
<path d="M0 0 C9.84521487 0.54695638 17.52152056 2.9000811 24.30859375 10.45703125 C29.53086709 17.07397699 31.66806238 25.05354806 31.33984375 33.4296875 C30.10805616 42.74596603 26.01904716 49.81808691 19 56 C13.25929413 60.13236905 6.87956713 60.96806493 0 62 C0 56.72 0 51.44 0 46 C2.35125 44.9790625 2.35125 44.9790625 4.75 43.9375 C9.95944832 41.29952404 12.06022976 39.54220068 14 34 C14.39468466 29.08360194 13.50991619 25.83440832 10.9375 21.625 C7.36080529 18.42880473 4.55741556 17.39039797 0 16 C0 10.72 0 5.44 0 0 Z " fill="#313132" transform="translate(0,376)"/>
<path d="M0 0 C0 5.28 0 10.56 0 16 C-1.216875 16.37125 -2.43375 16.7425 -3.6875 17.125 C-8.15871066 18.83737855 -10.45753209 20.83959796 -13 25 C-14.43258794 29.62641634 -14.63302992 33.51561979 -12.375 37.875 C-8.76925232 42.61940484 -5.51026045 43.79589582 0 46 C0 51.28 0 56.56 0 62 C-10.95455973 60.35681604 -17.99286197 58.25020512 -25.234375 49.5546875 C-30.16811002 42.4160532 -32.09890366 34.58772859 -31 26 C-29.41261346 17.38088463 -25.64287535 10.60978797 -18.6875 5.1875 C-12.68104544 1.25406958 -7.14002383 0 0 0 Z " fill="#313132" transform="translate(512,376)"/>
<path d="M0 0 C0 5.28 0 10.56 0 16 C-1.4025 16.556875 -2.805 17.11375 -4.25 17.6875 C-8.31283397 19.52727387 -10.83857167 20.94732188 -13 25 C-14.18655022 29.48067914 -14.37422789 32.89810678 -12.875 37.3125 C-9.20631885 42.57094298 -6.15958338 43.94680554 0 46 C0 51.28 0 56.56 0 62 C-9.86857949 61.52248809 -17.7523743 58.23298395 -24.53125 50.89453125 C-30.36916485 43.36424215 -31.77940234 35.35282812 -31 26 C-28.91493293 16.43322169 -23.79645666 9.76704191 -16 4 C-10.87468045 1.09987063 -5.84563599 0 0 0 Z " fill="#313132" transform="translate(512,225)"/>
<path d="M0 0 C9.86857949 0.47751191 17.7523743 3.76701605 24.53125 11.10546875 C30.36916485 18.63575785 31.77940234 26.64717188 31 36 C28.9104592 45.58730486 23.78428833 52.19850209 16 58 C10.66733496 60.90872638 5.96181178 61.54139909 0 62 C0 56.72 0 51.44 0 46 C1.4025 45.443125 2.805 44.88625 4.25 44.3125 C8.31283397 42.47272613 10.83857167 41.05267812 13 37 C14.18655022 32.51932086 14.37422789 29.10189322 12.875 24.6875 C9.20631885 19.42905702 6.15958338 18.05319446 0 16 C0 10.72 0 5.44 0 0 Z " fill="#313132" transform="translate(0,225)"/>
<path d="M0 0 C9.86857949 0.47751191 17.7523743 3.76701605 24.53125 11.10546875 C30.36916485 18.63575785 31.77940234 26.64717188 31 36 C28.9104592 45.58730486 23.78428833 52.19850209 16 58 C10.66733496 60.90872638 5.96181178 61.54139909 0 62 C0 56.72 0 51.44 0 46 C1.4025 45.443125 2.805 44.88625 4.25 44.3125 C8.31283397 42.47272613 10.83857167 41.05267812 13 37 C14.18655022 32.51932086 14.37422789 29.10189322 12.875 24.6875 C9.20631885 19.42905702 6.15958338 18.05319446 0 16 C0 10.72 0 5.44 0 0 Z " fill="#313132" transform="translate(0,69)"/>
<path d="M0 0 C0 5.28 0 10.56 0 16 C-1.4025 16.556875 -2.805 17.11375 -4.25 17.6875 C-8.31283397 19.52727387 -10.83857167 20.94732188 -13 25 C-14.18655022 29.48067914 -14.37422789 32.89810678 -12.875 37.3125 C-9.20631885 42.57094298 -6.15958338 43.94680554 0 46 C0 51.28 0 56.56 0 62 C-9.81080611 61.52528358 -17.76884659 58.25356629 -24.53125 50.96484375 C-30.09799516 43.51784157 -31.74870475 35.10478451 -31 26 C-28.91835406 16.43361242 -23.79478858 9.76580803 -16 4 C-10.87468045 1.09987063 -5.84563599 0 0 0 Z " fill="#313132" transform="translate(512,69)"/>
<path d="M0 0 C0.33 0 0.66 0 1 0 C2.94643679 19.79626035 2.94643679 19.79626035 -1.07421875 26.4140625 C-3.66550506 28.69778822 -6.27070686 30.60609115 -9.12255859 32.53320312 C-11.29410722 34.22977844 -12.95027044 36.10763366 -14.73828125 38.203125 C-20.54335115 44.81848891 -25.27803027 50.16466416 -34.42578125 51.01953125 C-40.32584743 51.16369929 -46.15117456 50.76812457 -52 50 C-48.45308323 45.7223153 -44.84155887 41.77169584 -40.6875 38.0625 C-39.63436456 37.11314499 -38.58234909 36.16254661 -37.53125 35.2109375 C-36.96664063 34.70014648 -36.40203125 34.18935547 -35.8203125 33.66308594 C-32.40606404 30.54373769 -29.04990146 27.3625101 -25.6875 24.1875 C-19.35963414 18.21737063 -13.01348302 12.26765056 -6.64526367 6.34057617 C-4.40306295 4.25209094 -2.16691104 2.16691104 0 0 Z " fill="#313132" transform="translate(511,462)"/>
<path d="M0 0 C4.7910186 4.04105672 9.43540461 8.20564438 14 12.5 C15.32288032 13.73962212 16.64579805 14.97920433 17.96875 16.21875 C18.63777344 16.84652344 19.30679687 17.47429687 19.99609375 18.12109375 C22.54228474 20.50845801 25.09380825 22.89006366 27.64624023 25.27075195 C28.87801969 26.41979632 30.10930576 27.56936984 31.34008789 28.71948242 C34.64476016 31.80712623 37.9564676 34.88681559 41.27734375 37.95703125 C42.32148437 38.92479492 42.32148437 38.92479492 43.38671875 39.91210938 C44.73236436 41.15907431 46.07995888 42.40394009 47.4296875 43.64648438 C48.97194797 45.07763576 50.48886533 46.5360213 52 48 C52 48.33 52 48.66 52 49 C30.77581816 50.47128171 30.77581816 50.47128171 24.68359375 47.2421875 C22.51298836 44.95120864 20.77431196 42.60510744 19 40 C17.68483956 38.76944052 16.33040596 37.57931286 14.9375 36.4375 C11.35213884 33.36843084 8.04426898 30.08830205 4.76171875 26.69921875 C2.90690694 24.80910864 2.90690694 24.80910864 0 23 C-0.34057617 20.66162109 -0.34057617 20.66162109 -0.29296875 17.7734375 C-0.28330078 16.7421875 -0.27363281 15.7109375 -0.26367188 14.6484375 C-0.23853516 13.56820313 -0.21339844 12.48796875 -0.1875 11.375 C-0.17396484 10.28703125 -0.16042969 9.1990625 -0.14648438 8.078125 C-0.11104754 5.38492591 -0.06164331 2.69270626 0 0 Z " fill="#313132" transform="translate(0,463)"/>
</svg>
