<?xml version="1.0" encoding="UTF-8"?>
<svg version="1.1" xmlns="http://www.w3.org/2000/svg" width="512" height="512">
<path d="M0 0 C1.1772818 -0.00480972 1.1772818 -0.00480972 2.37834707 -0.0097166 C5.01222931 -0.01802786 7.64588483 -0.01208837 10.27977085 -0.00622082 C12.18561963 -0.00924098 14.09146719 -0.01312978 15.99731261 -0.01781338 C21.23779014 -0.02811944 26.47819945 -0.02590493 31.71868265 -0.02163279 C37.36907817 -0.01917031 43.01945706 -0.02817375 48.66984653 -0.03567028 C59.74057442 -0.04843239 70.81127806 -0.05020911 81.88201206 -0.04787002 C90.87828478 -0.04608848 99.87455012 -0.04783298 108.87082195 -0.05209446 C110.78989629 -0.05298724 110.78989629 -0.05298724 112.74773981 -0.05389806 C115.34662449 -0.05510979 117.94550917 -0.05632392 120.54439384 -0.05754044 C137.99896514 -0.06532984 155.45353152 -0.06924523 172.90810394 -0.06522369 C173.59071276 -0.06506732 174.27332157 -0.06491094 174.9766155 -0.06474983 C178.43638058 -0.06394404 181.89614565 -0.06309827 185.35591071 -0.06223653 C186.38659927 -0.06197989 186.38659927 -0.06197989 187.43810982 -0.06171808 C188.82764463 -0.06137142 190.21717944 -0.06102289 191.60671425 -0.06067249 C213.23111207 -0.05531449 234.85546913 -0.06324779 256.47985935 -0.08170605 C280.77265293 -0.10241771 305.06541374 -0.11311931 329.35821825 -0.10913056 C342.22176204 -0.10721592 355.08526868 -0.10973168 367.94880581 -0.1238451 C378.89890831 -0.13573739 389.84895079 -0.13718797 400.79905408 -0.12505493 C406.38771237 -0.11915127 411.97626076 -0.11810787 417.56491184 -0.13005733 C422.67906149 -0.14086535 427.79300881 -0.13787356 432.90714879 -0.12379565 C434.75903317 -0.12113468 436.61093315 -0.12355889 438.46280228 -0.13153151 C440.9775271 -0.14160793 443.49154459 -0.13324115 446.00624084 -0.12025452 C446.72734426 -0.12756386 447.44844767 -0.13487321 448.1914027 -0.14240405 C453.87293202 -0.08147307 458.73455046 1.08393476 462.97973156 5.03605843 C464.45509155 8.0489789 464.44373511 10.39604952 464.44699192 13.74915028 C464.45167189 14.39958626 464.45635186 15.05002225 464.46117365 15.72016841 C464.4731323 17.8980718 464.46366333 20.07534692 464.45422459 22.25325489 C464.45829012 23.81558061 464.4636319 25.37790344 464.47015476 26.94022083 C464.48384206 31.18432614 464.47852243 35.42821286 464.46901751 39.67232203 C464.46142149 44.11774741 464.46846698 48.56315409 464.473176 53.00858021 C464.47863657 60.47949549 464.47143704 67.95032186 464.45715427 75.42122364 C464.44085702 84.04514206 464.44609372 92.66884737 464.46263349 101.29276055 C464.47627549 108.70355473 464.47815388 116.11428496 464.47031748 123.52508765 C464.46565201 127.9480334 464.46498441 132.37087924 464.47492695 136.79381847 C464.4836328 140.95779594 464.47750903 145.12150081 464.46024418 149.28544903 C464.45629729 150.80875923 464.45738237 152.33209261 464.46403217 153.85539341 C464.51421716 166.52600069 463.16714013 175.90740081 454.06604099 185.25447559 C446.84679714 191.22374437 439.92913821 193.50153 430.51716995 193.5117445 C429.78608832 193.51525057 429.05500669 193.51875665 428.30177107 193.52236897 C425.85680006 193.53165838 423.41206851 193.52676606 420.96708775 193.52190113 C419.19450716 193.52563862 417.42192822 193.53024054 415.64935189 193.53563178 C410.78177782 193.54786481 405.91427247 193.54760095 401.04668653 193.54524302 C395.79570638 193.54483494 390.54474829 193.55587319 385.29377842 193.56535816 C375.00758825 193.58197054 364.721421 193.58746781 354.43521854 193.58858292 C346.07448323 193.58953323 337.71375549 193.59364268 329.35302258 193.59998417 C305.64989519 193.61759682 281.94678592 193.62682294 258.24365195 193.62532322 C256.96582891 193.62524331 255.68800587 193.6251634 254.37146091 193.62508106 C253.09207818 193.6249993 251.81269544 193.62491754 250.49454353 193.6248333 C229.75709613 193.62402028 209.01972134 193.64316202 188.28229495 193.6713578 C166.99032622 193.7000792 145.69839291 193.71389852 124.40640432 193.71217024 C112.45211554 193.71150611 100.49790289 193.7170087 88.54363155 193.73852634 C78.36620461 193.75672827 68.18888832 193.76109352 58.01145216 193.7475075 C52.81932899 193.74097306 47.62741816 193.74087801 42.43531513 193.758214 C37.67997096 193.77392834 32.92500779 193.77109771 28.169673 193.75364573 C26.451679 193.75057226 24.73365668 193.75422131 23.01569607 193.76536588 C10.35742898 193.84202664 -0.44314795 192.46015498 -9.93395901 183.25447559 C-15.67475569 176.26346096 -18.175199 169.48907024 -18.20138454 160.37212086 C-18.20591566 159.71629933 -18.21044677 159.06047781 -18.21511519 158.38478291 C-18.22768469 156.20699632 -18.22614376 154.0294622 -18.22448635 151.85164356 C-18.23047598 150.28238577 -18.23728253 148.71313091 -18.24484158 147.14387989 C-18.26245736 142.8961444 -18.26719488 138.64848956 -18.26847315 134.40072107 C-18.26989698 131.74577437 -18.27417082 129.09084804 -18.27946758 126.43590641 C-18.29794808 117.17115194 -18.30614004 107.90645492 -18.30456448 98.64168262 C-18.30336126 90.00793404 -18.32450386 81.37443471 -18.3560518 72.74074924 C-18.38219262 65.32232039 -18.39293281 57.90397312 -18.39165366 50.48549855 C-18.39114369 46.05708196 -18.39684693 41.62888737 -18.41800976 37.2005167 C-18.43735711 33.03893505 -18.43754092 28.87778817 -18.42297649 24.71619129 C-18.42088343 23.18957478 -18.42561894 21.66293128 -18.43769741 20.13636112 C-18.45312594 18.05134955 -18.44386046 15.96784201 -18.42843533 13.88286304 C-18.42952486 12.71666872 -18.4306144 11.5504744 -18.43173695 10.34894085 C-17.81250191 6.49943055 -16.76054115 4.92023676 -13.93395901 2.25447559 C-9.27783191 0.2830935 -4.98647594 -0.03030359 0 0 Z M3.06604099 22.25447559 C3.06604099 51.62447559 3.06604099 80.99447559 3.06604099 111.25447559 C148.26604099 111.25447559 293.46604099 111.25447559 443.06604099 111.25447559 C443.06604099 81.88447559 443.06604099 52.51447559 443.06604099 22.25447559 C437.12604099 22.25447559 431.18604099 22.25447559 425.06604099 22.25447559 C425.05145847 23.6771172 425.03687595 25.0997588 425.02185154 26.56551075 C424.96378283 31.8548261 424.88654974 37.14371957 424.80358982 42.43269825 C424.77038093 44.71973786 424.74233649 47.00685863 424.71960545 49.29402637 C424.68598589 52.58588137 424.63366475 55.87699532 424.57775974 59.16853809 C424.57136982 60.18751179 424.5649799 61.20648548 424.55839634 62.25633717 C424.4474354 67.64089235 424.14223377 71.62616701 421.06604099 76.25447559 C417.98854469 78.1879461 414.60691954 78.54826177 411.05822849 77.87166309 C408.06081459 76.78055427 406.35001545 75.81262936 404.89065647 72.94424915 C404.06420609 70.24849041 403.79168289 68.0908555 403.74719334 65.28059864 C403.7173888 63.83967098 403.7173888 63.83967098 403.68698215 62.36963367 C403.66965534 60.83343121 403.66965534 60.83343121 403.65197849 59.26619434 C403.62292927 57.67869122 403.62292927 57.67869122 403.59329319 56.05911732 C403.53362851 52.68681811 403.48716406 49.31448453 403.44104099 45.94197559 C403.40284919 43.65224736 403.36379675 41.36253332 403.32385349 39.07283497 C403.22793755 33.46683068 403.14385771 27.86075915 403.06604099 22.25447559 C398.11604099 22.25447559 393.16604099 22.25447559 388.06604099 22.25447559 C387.85681825 26.96519032 387.85681825 26.96519032 387.67810154 31.67708302 C387.43923238 35.98079622 386.74323835 38.85746574 384.06604099 42.25447559 C378.36858276 44.82391754 374.77657341 44.05780162 369.06604099 42.25447559 C366.78019201 35.70170852 366.46009731 29.15046121 366.06604099 22.25447559 C362.76604099 22.25447559 359.46604099 22.25447559 356.06604099 22.25447559 C356.04622166 23.68235401 356.02640232 25.11023243 356.0059824 26.58137989 C355.92985756 31.88364132 355.84115034 37.18563079 355.74865818 42.48762989 C355.71039695 44.78152055 355.6755391 47.07547062 355.64416599 49.36946583 C355.59845393 52.66859119 355.54046878 55.96730856 355.48010349 59.26619434 C355.46855228 60.29032932 355.45700108 61.3144643 355.44509983 62.36963367 C355.42523014 63.33025211 355.40536045 64.29087055 355.38488865 65.28059864 C355.37156498 66.12221043 355.35824131 66.96382221 355.34451389 67.83093739 C355.02195761 70.63813144 354.34728268 72.73618616 353.06604099 75.25447559 C349.05755877 77.73973457 346.47585289 78.65720668 341.81604099 77.75447559 C339.20597392 77.1280595 338.23430133 76.45294117 336.48571873 74.39046192 C334.35283422 69.67904292 334.58557988 65.16421347 334.55432224 60.04744434 C334.52739544 58.42664715 334.52739544 58.42664715 334.49992466 56.77310658 C334.44583836 53.32943567 334.41193054 49.88590327 334.37854099 46.44197559 C334.34536653 44.10406571 334.31087675 41.76617409 334.27502537 39.42830372 C334.19011245 33.70379428 334.12329266 27.97932581 334.06604099 22.25447559 C329.11604099 22.25447559 324.16604099 22.25447559 319.06604099 22.25447559 C318.85681825 26.96519032 318.85681825 26.96519032 318.67810154 31.67708302 C318.43923238 35.98079622 317.74323835 38.85746574 315.06604099 42.25447559 C309.36858276 44.82391754 305.77657341 44.05780162 300.06604099 42.25447559 C297.78019201 35.70170852 297.46009731 29.15046121 297.06604099 22.25447559 C293.76604099 22.25447559 290.46604099 22.25447559 287.06604099 22.25447559 C287.04622166 23.6771172 287.02640232 25.0997588 287.0059824 26.56551075 C286.92978422 31.85475018 286.8410884 37.14371962 286.74865818 42.43269825 C286.7104272 44.71975331 286.67556414 47.0068673 286.64416599 49.29402637 C286.59838808 52.58574417 286.54041389 55.87705839 286.48010349 59.16853809 C286.46855228 60.18751179 286.45700108 61.20648548 286.44509983 62.25633717 C286.34177033 67.25150426 286.19321807 71.6312715 284.06604099 76.25447559 C280.70530265 78.23258839 276.79181955 78.60157767 272.98791599 77.83650684 C270.35106304 76.83383797 268.4474331 75.84299202 266.89456272 73.44679737 C265.94634861 70.93776184 265.78863615 68.98229593 265.74719334 66.30232716 C265.7173888 64.83125507 265.7173888 64.83125507 265.68698215 63.33046436 C265.66965534 61.7537093 265.66965534 61.7537093 265.65197849 60.14510059 C265.62292927 58.52218098 265.62292927 58.52218098 265.59329319 56.86647511 C265.53353863 53.41255533 265.48712802 49.95860216 265.44104099 46.50447559 C265.40285746 44.16201318 265.36380552 41.81956476 265.32385349 39.47713184 C265.22784026 33.73636007 265.14379356 27.99552256 265.06604099 22.25447559 C260.11604099 22.25447559 255.16604099 22.25447559 250.06604099 22.25447559 C249.85681825 26.96519032 249.85681825 26.96519032 249.67810154 31.67708302 C249.43923238 35.98079622 248.74323835 38.85746574 246.06604099 42.25447559 C242.11492809 44.03635004 238.97520605 44.49902379 234.75354099 43.75447559 C231.06604099 42.25447559 231.06604099 42.25447559 229.87463474 39.62166309 C229.00488469 35.99980539 228.65145457 32.59678216 228.44104099 28.87947559 C228.32889256 27.01162403 228.32889256 27.01162403 228.21447849 25.10603809 C228.16549412 24.16502247 228.11650974 23.22400684 228.06604099 22.25447559 C224.76604099 22.25447559 221.46604099 22.25447559 218.06604099 22.25447559 C218.04622166 23.64158741 218.02640232 25.02869923 218.0059824 26.45784473 C217.92969923 31.62224931 217.84101691 36.78638048 217.74865818 41.95052052 C217.71046216 44.18223629 217.67559318 46.41401166 217.64416599 48.64583302 C217.5983117 51.86064874 217.54035062 55.07505751 217.48010349 58.28963184 C217.46855228 59.28157047 217.45700108 60.2735091 217.44509983 61.29550648 C217.33198865 66.64913938 216.82012845 71.18608606 215.06604099 76.25447559 C206.64139463 78.909863 206.64139463 78.909863 202.12854099 77.12947559 C198.93492441 75.17420013 198.33181833 74.60380383 197.06604099 71.25447559 C196.78756809 68.91322803 196.78756809 68.91322803 196.74719334 66.30232716 C196.7173888 64.83125507 196.7173888 64.83125507 196.68698215 63.33046436 C196.66965534 61.7537093 196.66965534 61.7537093 196.65197849 60.14510059 C196.62292927 58.52218098 196.62292927 58.52218098 196.59329319 56.86647511 C196.53353863 53.41255533 196.48712802 49.95860216 196.44104099 46.50447559 C196.40285746 44.16201318 196.36380552 41.81956476 196.32385349 39.47713184 C196.22784026 33.73636007 196.14379356 27.99552256 196.06604099 22.25447559 C191.11604099 22.25447559 186.16604099 22.25447559 181.06604099 22.25447559 C180.85681825 26.96519032 180.85681825 26.96519032 180.67810154 31.67708302 C180.43923238 35.98079622 179.74323835 38.85746574 177.06604099 42.25447559 C173.11492809 44.03635004 169.97520605 44.49902379 165.75354099 43.75447559 C162.06604099 42.25447559 162.06604099 42.25447559 160.87463474 39.62166309 C160.00488469 35.99980539 159.65145457 32.59678216 159.44104099 28.87947559 C159.32889256 27.01162403 159.32889256 27.01162403 159.21447849 25.10603809 C159.16549412 24.16502247 159.11650974 23.22400684 159.06604099 22.25447559 C155.76604099 22.25447559 152.46604099 22.25447559 149.06604099 22.25447559 C149.04622166 23.64158741 149.02640232 25.02869923 149.0059824 26.45784473 C148.92969923 31.62224931 148.84101691 36.78638048 148.74865818 41.95052052 C148.71046216 44.18223629 148.67559318 46.41401166 148.64416599 48.64583302 C148.5983117 51.86064874 148.54035062 55.07505751 148.48010349 58.28963184 C148.46855228 59.28157047 148.45700108 60.2735091 148.44509983 61.29550648 C148.33198865 66.64913938 147.82012845 71.18608606 146.06604099 76.25447559 C137.64139463 78.909863 137.64139463 78.909863 133.12854099 77.12947559 C129.93492441 75.17420013 129.33181833 74.60380383 128.06604099 71.25447559 C127.78756809 68.91322803 127.78756809 68.91322803 127.74719334 66.30232716 C127.72732365 65.32161243 127.70745396 64.34089771 127.68698215 63.33046436 C127.67543095 62.27929432 127.66387974 61.22812428 127.65197849 60.14510059 C127.63261234 59.06315418 127.61324619 57.98120777 127.59329319 56.86647511 C127.53353863 53.41255533 127.48712802 49.95860216 127.44104099 46.50447559 C127.40285746 44.16201318 127.36380552 41.81956476 127.32385349 39.47713184 C127.22784026 33.73636007 127.14379356 27.99552256 127.06604099 22.25447559 C122.11604099 22.25447559 117.16604099 22.25447559 112.06604099 22.25447559 C111.85681825 26.96519032 111.85681825 26.96519032 111.67810154 31.67708302 C111.43946834 35.97654499 110.77906934 38.88355353 108.06604099 42.25447559 C104.22599476 44.38319687 100.46029586 44.30534719 96.19104099 43.75447559 C93.06604099 42.25447559 93.06604099 42.25447559 91.90979099 39.62166309 C91.00092873 35.99462945 90.65223837 32.61062923 90.44104099 28.87947559 C90.32889256 27.01162403 90.32889256 27.01162403 90.21447849 25.10603809 C90.16549412 24.16502247 90.11650974 23.22400684 90.06604099 22.25447559 C86.76604099 22.25447559 83.46604099 22.25447559 80.06604099 22.25447559 C80.04622166 23.64158741 80.02640232 25.02869923 80.0059824 26.45784473 C79.92969923 31.62224931 79.84101691 36.78638048 79.74865818 41.95052052 C79.71046216 44.18223629 79.67559318 46.41401166 79.64416599 48.64583302 C79.5983117 51.86064874 79.54035062 55.07505751 79.48010349 58.28963184 C79.46855228 59.28157047 79.45700108 60.2735091 79.44509983 61.29550648 C79.33198865 66.64913938 78.82012845 71.18608606 77.06604099 76.25447559 C68.64139463 78.909863 68.64139463 78.909863 64.12854099 77.12947559 C60.93492441 75.17420013 60.33181833 74.60380383 59.06604099 71.25447559 C58.78756809 68.91322803 58.78756809 68.91322803 58.74719334 66.30232716 C58.72732365 65.32161243 58.70745396 64.34089771 58.68698215 63.33046436 C58.67543095 62.27929432 58.66387974 61.22812428 58.65197849 60.14510059 C58.63261234 59.06315418 58.61324619 57.98120777 58.59329319 56.86647511 C58.53353863 53.41255533 58.48712802 49.95860216 58.44104099 46.50447559 C58.40285746 44.16201318 58.36380552 41.81956476 58.32385349 39.47713184 C58.22784026 33.73636007 58.14379356 27.99552256 58.06604099 22.25447559 C53.11604099 22.25447559 48.16604099 22.25447559 43.06604099 22.25447559 C42.96291599 24.44072559 42.85979099 26.62697559 42.75354099 28.87947559 C42.50850936 34.07414627 41.90316428 37.83170835 39.06604099 42.25447559 C35.98854469 44.1879461 32.60691954 44.54826177 29.05822849 43.87166309 C26.15989206 42.81662012 24.37819851 41.83871636 22.90979099 39.09041309 C21.28324101 33.62339788 21.38387335 27.92248595 21.06604099 22.25447559 C15.12604099 22.25447559 9.18604099 22.25447559 3.06604099 22.25447559 Z M3.06604099 132.25447559 C0.82997302 158.90037363 0.82997302 158.90037363 6.06604099 168.25447559 C10.59575075 172.49194601 15.06249486 172.37998446 21.06674004 172.38590336 C21.77499844 172.38795599 22.48325684 172.39000863 23.21297762 172.39212346 C25.59828631 172.3978007 27.98353739 172.39633532 30.36885166 172.39491749 C32.09148226 172.3975007 33.81411227 172.40051374 35.53674144 172.40392089 C40.2800506 172.41199916 45.02334463 172.41378092 49.76665986 172.41451836 C54.8785681 172.41636745 59.99046847 172.42391402 65.10237217 172.43065357 C76.28406581 172.44424284 87.46575588 172.45026241 98.64745641 172.45466423 C105.6266581 172.4574254 112.60585841 172.4616625 119.58505917 172.4661684 C138.901098 172.47836137 158.21713573 172.48866094 177.53317833 172.4920435 C179.38801846 172.49237284 179.38801846 172.49237284 181.2803301 172.49270885 C183.13965157 172.49303626 183.13965157 172.49303626 185.03653508 172.49337029 C187.54840489 172.49381376 190.0602747 172.49426033 192.57214451 172.49470997 C193.8181233 172.4949314 195.0641021 172.49515283 196.34783783 172.49538097 C216.54429988 172.49933032 236.74072588 172.5167884 256.937174 172.54006949 C277.66289331 172.56376827 298.38859452 172.57624466 319.11432761 172.57741141 C330.75500367 172.57832895 342.39563275 172.5841012 354.03629589 172.60223103 C363.94706683 172.61761205 373.85777627 172.62276426 383.76855687 172.61449292 C388.82658876 172.61057947 393.88449673 172.61154995 398.94251347 172.62555027 C403.57193414 172.63824729 408.20113723 172.63712872 412.83055743 172.62495956 C414.50619269 172.62299527 416.18184314 172.62611461 417.85745702 172.63480392 C420.13450874 172.64586547 422.41078833 172.63843033 424.68781853 172.62641239 C425.95277698 172.62700948 427.21773543 172.62760657 428.52102596 172.62822175 C433.36618814 172.11740283 437.51383684 170.91016002 440.94104099 167.25447559 C446.94426841 156.58207129 443.06604099 145.15190919 443.06604099 132.25447559 C297.86604099 132.25447559 152.66604099 132.25447559 3.06604099 132.25447559 Z " fill="#313132" transform="translate(32.933959007263184,204.7455244064331)"/>
<path d="M0 0 C5.53846154 3.07692308 5.53846154 3.07692308 7 6 C7 11.61 7 17.22 7 23 C152.2 23 297.4 23 447 23 C447 17.39 447 11.78 447 6 C452.91836735 0.08163265 452.91836735 0.08163265 457.3125 -0.25 C461.24058469 0.01631083 462.95647943 0.56518354 466 3 C467.96313135 6.12728275 468.26012334 8.58056485 468.29052734 12.23999023 C468.30328705 13.28464951 468.31604675 14.32930878 468.32919312 15.40562439 C468.33253159 17.09009422 468.33253159 17.09009422 468.3359375 18.80859375 C468.3425943 19.96746597 468.3492511 21.1263382 468.35610962 22.32032776 C468.36623247 24.77058322 468.37092675 27.22086623 468.37060547 29.67114258 C468.37497946 33.41989514 468.41130742 37.16747129 468.44921875 40.91601562 C468.45508675 43.29687097 468.45905625 45.67773191 468.4609375 48.05859375 C468.47530853 49.17954941 468.48967957 50.30050507 468.50448608 51.45542908 C468.45881415 59.23270129 468.45881415 59.23270129 466.09619141 63.18383789 C462.51828955 66.28376939 459.86061119 66.32999687 455.26171875 66.29296875 C451.9457722 65.86344199 450.25012373 64.39075646 448 62 C445.31258075 56.6251615 447 50.00925213 447 44 C301.8 44 156.6 44 7 44 C7 49.28 7 54.56 7 60 C2.32724902 65.84093872 2.32724902 65.84093872 -0.98828125 66.23828125 C-5.15410332 66.3713075 -7.37869331 66.38831668 -11 64.125 C-13.97769551 60.96119852 -14.12970209 59.23129779 -14.16113281 54.98706055 C-14.17074036 53.94225021 -14.1803479 52.89743988 -14.19024658 51.82096863 C-14.19449646 50.68766617 -14.19874634 49.55436371 -14.203125 48.38671875 C-14.20882507 47.22501663 -14.21452515 46.06331451 -14.22039795 44.8664093 C-14.22985796 42.40419427 -14.23638589 39.94196652 -14.24023438 37.47973633 C-14.2499331 33.71347927 -14.28094508 29.94776935 -14.3125 26.18164062 C-14.31903055 23.79166991 -14.32428082 21.40169529 -14.328125 19.01171875 C-14.3404718 17.88448898 -14.3528186 16.75725922 -14.36553955 15.59587097 C-14.36253845 14.54160416 -14.35953735 13.48733734 -14.35644531 12.40112305 C-14.36009094 11.47671921 -14.36373657 10.55231537 -14.36749268 9.59989929 C-13.92331912 6.45750603 -12.82114999 4.57545682 -11 2 C-7.57234748 -0.57073939 -4.16028704 -0.43037452 0 0 Z " fill="#313132" transform="translate(29,114)"/>
</svg>
