<?xml version="1.0" encoding="UTF-8"?>
<svg version="1.1" xmlns="http://www.w3.org/2000/svg" width="512" height="512">
<path d="M0 0 C0.81574592 -0.00523668 1.63149184 -0.01047336 2.47195733 -0.01586872 C5.21492537 -0.03091232 7.95770759 -0.03157483 10.70071411 -0.03224182 C12.66346554 -0.03986035 14.62621398 -0.04828732 16.58895874 -0.0574646 C21.92779524 -0.07944612 27.26657446 -0.08821336 32.60545111 -0.09329104 C35.93912406 -0.09693017 39.27278191 -0.10316788 42.60644913 -0.11029243 C54.231302 -0.13479918 65.85611016 -0.14784157 77.48098755 -0.15138245 C88.32547253 -0.15501914 99.16967473 -0.18492106 110.01407325 -0.22678703 C119.31775413 -0.26144872 128.62134111 -0.27693017 137.92508614 -0.27762848 C143.48483211 -0.27842267 149.04429017 -0.28722666 154.60396957 -0.31562614 C159.83253122 -0.34173624 165.0605648 -0.34405144 170.28916168 -0.3279705 C172.20924401 -0.32615041 174.12935621 -0.33289704 176.04937363 -0.34878922 C178.66896237 -0.3691516 181.28668636 -0.35875699 183.90625 -0.34057617 C184.66782909 -0.35377614 185.42940819 -0.36697611 186.21406543 -0.38057607 C190.20770311 -0.317176 191.90273119 0.12950272 195.0404377 2.68831348 C198.17468703 6.66183235 198.2058121 9.51541922 198.14260864 14.46311951 C198.12895264 16.0165657 198.12895264 16.0165657 198.11502075 17.60139465 C198.10349976 18.71801483 198.09197876 19.83463501 198.08010864 20.98509216 C198.07894927 23.36920682 198.08033506 25.75332381 198.08401489 28.13743591 C198.08841321 31.88137768 198.08047182 35.62282246 198.02883911 39.36643982 C197.83457798 54.76623524 197.9131645 65.27267044 208.08010864 77.27415466 C209.12379278 78.90827471 210.1322152 80.56585238 211.09182739 82.25071716 C211.53171997 83.00739685 211.97161255 83.76407654 212.42483521 84.54368591 C260.90420686 169.58531823 290.10710744 267.06846493 328.837677 400.51145935 C329.13068632 401.53627962 329.13068632 401.53627962 329.42961502 402.58180332 C330.34300771 405.77676679 331.25496964 408.97211331 332.1640625 412.16830444 C334.10966559 418.98494953 336.14766242 425.76031657 338.31343079 432.51055908 C339.82319162 437.95269925 339.3842935 440.9602783 336.62698364 445.85227966 C307.83139331 486.43819045 220.52135334 498.68716607 173.68899536 506.68089294 C147.41853222 510.99947131 121.21127598 512.66654016 94.60224152 512.59221268 C92.54731671 512.58656453 90.49240018 512.58374904 88.43746948 512.58113098 C68.49766896 512.54420883 48.85364581 512.07765923 29.08010864 509.27415466 C27.82488403 509.1078656 26.56965942 508.94157654 25.27639771 508.77024841 C-5.66252311 504.62767037 -36.22254547 497.90937088 -65.91989136 488.27415466 C-67.09599976 487.89533142 -68.27210815 487.51650818 -69.4838562 487.12620544 C-139.83824073 464.2556431 -139.83824073 464.2556431 -153.41989136 443.83665466 C-156.63356431 436.20418139 -152.71353417 427.6074076 -150.41207886 420.05540466 C-150.05506897 418.86624954 -149.69805908 417.67709442 -149.33023071 416.4519043 C-148.36060978 413.22862026 -147.38508149 410.00725451 -146.40610504 406.78680801 C-145.79039025 404.75933305 -145.17687782 402.73120478 -144.56411743 400.70283508 C-141.699793 391.22137183 -138.81583366 381.74600573 -135.91989136 372.27415466 C-135.57901489 371.15873291 -135.23813843 370.04331116 -134.88693237 368.89408875 C-108.7814029 283.56242351 -81.77835391 197.2305632 -43.91989136 116.27415466 C-43.25425171 114.83652771 -43.25425171 114.83652771 -42.57516479 113.36985779 C-25.56952681 76.73702303 -25.56952681 76.73702303 -17.28927612 67.26487732 C-13.72871542 62.29180489 -14.24819602 56.92695751 -14.31832886 51.02415466 C-14.31032257 49.85207458 -14.30231628 48.67999451 -14.29406738 47.47239685 C-14.27104617 43.739295 -14.28044426 40.00728531 -14.29489136 36.27415466 C-14.29874371 32.54122893 -14.29526144 28.80878436 -14.27429199 25.07591248 C-14.26224059 22.75758217 -14.26480922 20.43911658 -14.28399658 18.12083435 C-14.2631223 12.07959893 -13.99289664 7.54679425 -10.91989136 2.27415466 C-7.19246955 -0.21079321 -4.3146302 -0.01360267 0 0 Z M7.08010864 20.27415466 C7.08010864 30.83415466 7.08010864 41.39415466 7.08010864 52.27415466 C18.96010864 52.27415466 30.84010864 52.27415466 43.08010864 52.27415466 C43.08010864 41.71415466 43.08010864 31.15415466 43.08010864 20.27415466 C31.20010864 20.27415466 19.32010864 20.27415466 7.08010864 20.27415466 Z M64.08010864 20.27415466 C64.08010864 30.83415466 64.08010864 41.39415466 64.08010864 52.27415466 C82.56010864 52.27415466 101.04010864 52.27415466 120.08010864 52.27415466 C120.08010864 41.71415466 120.08010864 31.15415466 120.08010864 20.27415466 C101.60010864 20.27415466 83.12010864 20.27415466 64.08010864 20.27415466 Z M141.08010864 20.27415466 C141.08010864 30.83415466 141.08010864 41.39415466 141.08010864 52.27415466 C152.96010864 52.27415466 164.84010864 52.27415466 177.08010864 52.27415466 C177.08010864 41.71415466 177.08010864 31.15415466 177.08010864 20.27415466 C165.20010864 20.27415466 153.32010864 20.27415466 141.08010864 20.27415466 Z M-6.72457886 88.02415466 C-7.24503784 89.04767029 -7.76549683 90.07118591 -8.30172729 91.12571716 C-9.93468439 94.30293725 -11.68532267 97.37924842 -13.49020386 100.46165466 C-56.94003947 175.07082821 -82.24203059 260.7948968 -106.14547729 343.17210388 C-107.55102873 348.01456187 -108.97285426 352.85198285 -110.4032135 357.68716431 C-111.38152904 360.9993899 -112.35136944 364.31404506 -113.31835938 367.6295929 C-113.75543196 369.12344148 -114.19551864 370.61641204 -114.63885498 372.1084137 C-115.23291384 374.11156298 -115.81446349 376.11790977 -116.39254761 378.12571716 C-116.7148938 379.2273822 -117.03723999 380.32904724 -117.36935425 381.46409607 C-117.92248608 384.28739866 -118.1966755 385.70388943 -116.91989136 388.27415466 C-114.9527047 389.66930708 -114.9527047 389.66930708 -112.40817261 390.68431091 C-110.95435181 391.32445129 -110.95435181 391.32445129 -109.47116089 391.9775238 C-108.40236694 392.42603699 -107.333573 392.87455017 -106.23239136 393.33665466 C-105.11461304 393.81417175 -103.99683472 394.29168884 -102.84518433 394.78367615 C-60.16348786 412.76158127 -15.77669462 424.81974978 30.12527466 431.00987244 C31.98396342 431.26115639 33.84163994 431.51989446 35.69924927 431.77903748 C73.98685241 436.90741028 114.84106312 436.71954229 153.08010864 431.27415466 C153.79350403 431.17469543 154.50689941 431.07523621 155.24191284 430.97276306 C176.82896201 427.95688686 198.01884413 423.95271404 219.08010864 418.27415466 C220.11877075 417.99458923 221.15743286 417.7150238 222.22756958 417.42698669 C249.0956947 410.09114061 278.13609635 401.80312394 302.08010864 387.27415466 C300.8204514 380.38096152 299.15947719 373.7170145 297.13088989 367.01243591 C296.84183777 366.04515564 296.55278564 365.07787537 296.25497437 364.08128357 C295.30637525 360.91471698 294.35015578 357.75052613 293.39260864 354.58665466 C292.89565994 352.93855301 292.89565994 352.93855301 292.38867188 351.25715637 C270.05444565 277.22712507 246.41782638 202.70975702 213.22366333 132.70530701 C212.15446368 130.43223055 211.11533593 128.14839091 210.08792114 125.85618591 C202.27130334 108.54839258 192.64759418 92.04074635 182.08010864 76.27415466 C181.42010864 75.28415466 180.76010864 74.29415466 180.08010864 73.27415466 C177.6591151 72.85770117 177.6591151 72.85770117 174.85354614 72.98118591 C173.30667114 72.99568787 173.30667114 72.99568787 171.72854614 73.01048279 C170.64831177 73.03561951 169.56807739 73.06075623 168.45510864 73.08665466 C167.36713989 73.10018982 166.27917114 73.11372498 165.15823364 73.12767029 C162.46503456 73.16310712 159.7728149 73.21251135 157.08010864 73.27415466 C158.46913874 77.82132781 160.33380316 81.943408 162.51760864 86.14915466 C179.37224835 119.41908591 192.69477996 154.32919956 205.38204956 189.36009216 C206.09588334 191.31740854 206.82262692 193.26958487 207.55130005 195.22142029 C208.01419487 196.47721814 208.47692967 197.73307498 208.93948364 198.98899841 C209.55388306 200.64016663 209.55388306 200.64016663 210.18069458 202.32469177 C211.48941728 206.61640702 211.50007592 209.01425284 210.08010864 213.27415466 C207.33091486 216.50850028 205.79217435 217.18514645 201.58010864 217.71165466 C197.60460148 217.21471627 196.15556618 216.83245541 193.08010864 214.27415466 C191.3268032 210.99044733 190.14951761 207.53034019 188.92776489 204.02024841 C188.55121262 202.98464279 188.17466034 201.94903717 187.78669739 200.88204956 C186.97861656 198.65586133 186.17794709 196.42697168 185.38394165 194.19572449 C183.29562853 188.33442162 181.14743776 182.4950764 179.00588989 176.65306091 C178.58201996 175.49262268 178.15815002 174.33218445 177.72143555 173.13658142 C165.17480788 138.88110011 150.32318309 105.41865148 133.08010864 73.27415466 C122.85010864 73.27415466 112.62010864 73.27415466 102.08010864 73.27415466 C102.06609009 78.87722595 102.06609009 78.87722595 102.05178833 84.5934906 C102.01805941 96.91899267 101.96273526 109.24431781 101.8962059 121.56968307 C101.85638868 129.04441948 101.82400992 136.51905019 101.80911255 143.99388123 C101.79610982 150.50861326 101.76918083 157.02311302 101.72549558 163.53771424 C101.70284925 166.98752479 101.68719983 170.43704852 101.68822479 173.88694 C101.68910789 177.73728024 101.65890073 181.5870333 101.62600708 185.4372406 C101.63355263 187.15490631 101.63355263 187.15490631 101.64125061 188.90727234 C101.6273378 189.9561261 101.61342499 191.00497986 101.59909058 192.08561707 C101.59355982 193.45171427 101.59355982 193.45171427 101.58791733 194.84540939 C100.9216642 198.03196209 99.54884924 199.22346176 97.08010864 201.27415466 C94.26009537 202.6841613 92.21003609 202.51963917 89.08010864 202.27415466 C84.4477557 200.00944878 84.4477557 200.00944878 83.08010864 197.27415466 C82.97548216 195.62728897 82.93355795 193.97627069 82.92189026 192.3261261 C82.90720703 190.75696945 82.90720703 190.75696945 82.89222717 189.15611267 C82.88647171 188.00381165 82.88071625 186.85151062 82.87478638 185.66429138 C82.86488678 184.45455658 82.85498718 183.24482178 82.8447876 181.99842834 C82.8185656 178.6763439 82.79671773 175.35428392 82.77678561 172.03215933 C82.75494128 168.56210824 82.72754501 165.09210117 82.70072937 161.62208557 C82.65078144 155.04897271 82.60585042 148.47583545 82.56270701 141.90267479 C82.51335256 134.42027502 82.4584278 126.93791942 82.40302742 119.45556235 C82.28917512 104.06179901 82.18307858 88.66799523 82.08010864 73.27415466 C71.85010864 73.27415466 61.62010864 73.27415466 51.08010864 73.27415466 C31.21836279 110.88843442 14.75551813 149.52451864 0.35745239 189.55149841 C-0.23416643 191.18569991 -0.82580023 192.81989599 -1.41744995 194.4540863 C-2.52364633 197.51266932 -3.60517311 200.57847181 -4.67233276 203.65086365 C-5.16430561 205.02294207 -5.65694245 206.39478265 -6.15036011 207.76634216 C-6.56696899 208.95598572 -6.98357788 210.14562927 -7.41281128 211.37132263 C-9.15907614 214.73485562 -10.48533513 215.76225161 -13.91989136 217.27415466 C-17.96583 217.77989699 -20.16778878 217.66655601 -23.79489136 215.77415466 C-26.65771486 212.40612702 -27.13323453 209.57588347 -26.91989136 205.27415466 C-25.78483242 200.60220559 -24.11142722 196.14242666 -22.41989136 191.64915466 C-21.92285351 190.29359503 -21.42670087 188.93771054 -20.93136597 187.58152771 C-19.29510016 183.13257758 -17.61369769 178.70147524 -15.91989136 174.27415466 C-15.62415222 173.50093872 -15.32841309 172.72772278 -15.02371216 171.93107605 C-5.08025139 145.99600121 5.51459281 120.37217586 17.01760864 95.08665466 C17.45427856 94.12453064 17.89094849 93.16240662 18.34085083 92.17112732 C20.72660713 86.98665998 23.27997705 81.98421958 26.16433716 77.05809021 C27.23233694 75.31182165 27.23233694 75.31182165 27.08010864 73.27415466 C9.79495052 70.22501524 1.71073563 72.41145717 -6.72457886 88.02415466 Z M-123.91989136 408.27415466 C-126.04719529 413.80514488 -127.9662761 419.34879733 -129.66989136 425.02415466 C-129.90321167 425.7653656 -130.13653198 426.50657654 -130.37692261 427.27024841 C-131.93276159 432.3001035 -131.93276159 432.3001035 -130.91989136 437.27415466 C-73.28331675 487.87933286 49.523083 495.92246248 122.08010864 491.27415466 C177.47725901 487.58438096 274.75560187 477.59866143 316.08010864 436.27415466 C315.84352892 429.91433502 313.34850666 423.32664293 311.64260864 417.21165466 C311.43756714 416.44909363 311.23252563 415.68653259 311.02127075 414.90086365 C310.47044258 412.99481307 309.78476756 411.1288504 309.08010864 409.27415466 C305.6663495 408.13623495 305.40820603 408.30083638 302.36135864 409.79368591 C301.23177734 410.33037903 301.23177734 410.33037903 300.07937622 410.87791443 C299.25461792 411.27679871 298.42985962 411.67568298 297.58010864 412.08665466 C254.37254335 432.21143514 207.47567693 443.74757981 160.45510864 450.46165466 C159.3855896 450.61666443 158.31607056 450.77167419 157.21414185 450.93138123 C135.72675378 453.85171911 114.24474506 454.65166336 92.58010864 454.58665466 C91.31152008 454.58483185 90.04293152 454.58300903 88.73590088 454.58113098 C68.99932776 454.53352365 49.65678768 453.89262569 30.08010864 451.27415466 C28.11654419 451.02472107 28.11654419 451.02472107 26.11331177 450.77024841 C-5.13549501 446.76700804 -35.94865324 439.99976863 -65.91989136 430.27415466 C-66.99351929 429.92771912 -68.06714722 429.58128357 -69.17330933 429.22434998 C-84.90363595 424.09586467 -100.1263662 418.03657876 -115.26461792 411.3681488 C-118.11137401 410.19526226 -120.98962774 409.21663868 -123.91989136 408.27415466 Z " fill="#313132" transform="translate(163.91989135742188,-0.2741546630859375)"/>
<path d="M0 0 C2.8100346 1.79363911 4.50940468 3.01880935 6 6 C6.42071592 9.05920574 6.48514117 11.9467746 6 15 C3.81840855 17.75569447 2.12822506 19.43588747 -1 21 C-6.26883876 21.59873168 -8.8846468 20.25400021 -13 17 C-14.72869779 13.54260443 -14.48966895 9.78024432 -14 6 C-10.38599231 0.2175877 -6.68966949 -0.96115941 0 0 Z " fill="#313132" transform="translate(260,227)"/>
</svg>
