<?xml version="1.0" encoding="UTF-8"?>
<svg version="1.1" xmlns="http://www.w3.org/2000/svg" width="512" height="512">
<path d="M0 0 C2.20710596 -0.00570878 4.41420897 -0.012675 6.62130737 -0.02079773 C12.59245565 -0.03868842 18.56345663 -0.03756837 24.53462362 -0.03185534 C29.52947067 -0.02875746 34.52428968 -0.03486265 39.51913273 -0.04089409 C51.980678 -0.05572536 64.44215804 -0.05213722 76.90370013 -0.04003078 C87.69985014 -0.03010202 98.49582867 -0.04303753 109.29195224 -0.06696498 C120.40604894 -0.09140953 131.52007668 -0.10055189 142.63420117 -0.09431225 C148.86247942 -0.09094934 155.09061605 -0.09331352 161.31887436 -0.11056328 C167.17787148 -0.1260832 173.03654242 -0.12202072 178.89552689 -0.10325813 C181.0380014 -0.09958619 183.18050036 -0.10263973 185.32295227 -0.11314392 C201.87417191 -0.18805804 215.30648364 0.81724307 228.21142578 12.40405273 C236.97023871 21.49759737 240.56782031 34.74013177 244.8536377 46.35028076 C246.48985979 50.77962665 248.14140187 55.20324857 249.79345703 59.62670898 C250.14640839 60.57199463 250.49935974 61.51728027 250.86300659 62.49121094 C255.15090258 73.95050133 259.5574634 85.3639899 263.96142578 96.77905273 C270.59101416 113.97005918 277.17947698 131.17570644 283.71142578 148.40405273 C290.57713103 166.5103462 297.5038406 184.5923065 304.46664429 202.66146851 C309.05613685 214.57376583 313.63380297 226.49028677 318.16845703 238.42358398 C318.57330826 239.48892868 318.97815948 240.55427338 319.39527893 241.65190125 C321.39416505 246.91527862 323.3885544 252.18031339 325.37670898 257.44775391 C329.08052003 267.24890663 332.83541049 277.02267177 336.73486328 286.74780273 C337.78950606 289.40094458 338.84264474 292.05467859 339.89535522 294.70858765 C340.8627182 297.12606847 341.85339574 299.53300642 342.84545898 301.94042969 C346.7335491 311.60715518 349.93565265 321.61682676 345.77392578 331.84155273 C339.66554444 341.82461495 326.02463658 344.60343639 315.64892578 348.09155273 C313.9746821 348.66390631 312.30085013 349.23746569 310.62744141 349.81225586 C308.26246061 350.62456499 305.89712197 351.43531112 303.52818298 352.23600769 C299.96747492 353.44113124 296.43623066 354.68900811 292.92651367 356.03613281 C286.03695694 358.57291315 280.14229756 359.11923962 273.21142578 356.40405273 C270.66987605 355.00371948 268.27628871 353.46891566 266.21142578 351.40405273 C266.28361328 352.59256836 266.35580078 353.78108398 266.43017578 355.00561523 C268.07024615 383.44124238 269.40162427 407.95336154 249.57080078 430.91186523 C236.69372718 444.51380722 219.64743653 452.01680107 200.99365234 452.80224609 C184.68198869 453.09945952 171.45730368 447.81196037 157.46923828 439.84155273 C151.5940323 436.620256 146.91487156 435.37975711 140.21142578 436.40405273 C135.91126082 437.78624861 132.39000211 439.90640383 128.58642578 442.27905273 C112.5587036 452.05620648 94.20633773 454.74956206 75.89892578 451.21655273 C67.48196859 449.17202511 60.26026066 445.71453679 52.89892578 441.21655273 C46.16777909 437.10600946 40.12939979 435.13672828 32.21142578 436.40405273 C28.00668348 438.04052446 24.14380596 440.20230442 20.21142578 442.40405273 C2.6268279 452.02887883 -15.43298799 455.56031905 -34.97290039 450.30444336 C-54.7677029 444.40300911 -68.50104953 432.39655971 -78.34326172 414.59155273 C-88.00466523 394.9257373 -85.07556702 372.5934699 -83.78857422 351.40405273 C-84.97 352.35731445 -84.97 352.35731445 -86.17529297 353.32983398 C-90.76933709 356.97622775 -94.87177491 358.32458271 -100.78857422 358.40405273 C-107.24699712 357.46301777 -113.40937005 355.30948008 -119.53857422 353.13842773 C-120.43672852 352.822547 -121.33488281 352.50666626 -122.26025391 352.18121338 C-124.14701178 351.51503603 -126.03274358 350.84594606 -127.91748047 350.17407227 C-130.7763923 349.15838063 -133.64152098 348.16182484 -136.50732422 347.16577148 C-138.35148786 346.51198919 -140.1952518 345.85707809 -142.03857422 345.20092773 C-142.88258789 344.91006287 -143.72660156 344.619198 -144.59619141 344.31951904 C-151.57052485 341.79679568 -159.40283967 338.45305645 -163.35107422 331.84155273 C-167.30243366 322.34690914 -164.63713251 312.10492917 -160.93310547 303.03686523 C-160.31985413 301.45831253 -160.31985413 301.45831253 -159.69421387 299.84786987 C-158.34976995 296.4000674 -156.97542375 292.96503036 -155.60107422 289.52905273 C-154.64392848 287.08855187 -153.68913657 284.64712669 -152.73657227 282.20483398 C-151.00573818 277.77006765 -149.26813426 273.33808065 -147.52154255 268.90949631 C-143.05826191 257.5889389 -138.73101464 246.21718175 -134.40853882 234.84222412 C-132.22492284 229.1000832 -130.03197682 223.3615097 -127.83935547 217.62280273 C-127.41286209 216.50618256 -126.98636871 215.38956238 -126.54695129 214.23910522 C-121.93727629 202.17174824 -117.31588111 190.10888559 -112.69351196 178.04638672 C-106.10018868 160.83981027 -99.52544561 143.62617579 -92.9553833 126.41070557 C-88.25756709 114.10141264 -83.55723818 101.793105 -78.84326172 89.48999023 C-78.25145363 87.94527542 -78.25145363 87.94527542 -77.64768982 86.36935425 C-75.74072603 81.39259029 -73.83257176 76.41628702 -71.92260742 71.44067383 C-68.71898945 63.0905285 -65.52719434 54.73697767 -62.40185547 46.35717773 C-61.89424328 45.00055561 -61.38659496 43.643947 -60.87890625 42.28735352 C-59.98503217 39.89789067 -59.10055255 37.50568676 -58.22167969 35.1105957 C-53.00296061 21.13817694 -46.66921748 10.10390922 -32.78857422 3.40405273 C-22.32665709 -0.8466214 -11.07306024 -0.02587457 0 0 Z M-3.78857422 21.40405273 C3.15604219 42.23790197 17.11504697 57.40427712 36.21142578 68.02905273 C37.23743896 68.61388428 38.26345215 69.19871582 39.32055664 69.80126953 C41.49485385 71.04032154 43.67191644 72.27453204 45.8515625 73.50415039 C50.38945019 76.07019036 54.90524001 78.67374136 59.41967773 81.28076172 C61.63869467 82.56139242 63.85985878 83.83831046 66.08325195 85.11132812 C70.77698728 87.80433777 75.44305856 90.51310107 80.00830078 93.41967773 C80.70109131 93.85691162 81.39388184 94.29414551 82.10766602 94.74462891 C83.86724647 95.86664447 85.61237413 97.01124151 87.35595703 98.15795898 C90.08650551 99.72029463 90.08650551 99.72029463 92.52929688 98.68212891 C95.42598687 97.30181104 98.19790244 95.79872 100.98095703 94.20092773 C102.10574463 93.55696045 103.23053223 92.91299316 104.3894043 92.24951172 C105.60101288 91.55120133 106.81251767 90.85271083 108.02392578 90.15405273 C109.27505424 89.43522353 110.52627611 88.7165569 111.77758789 87.99804688 C115.59210395 85.80564147 119.40208864 83.60544044 123.21142578 81.40405273 C124.37223169 80.73396571 125.53303894 80.06388099 126.69384766 79.39379883 C129.88948235 77.54694042 133.08242901 75.69555118 136.27392578 73.84155273 C137.2166333 73.2953125 138.15934082 72.74907227 139.13061523 72.1862793 C149.65778756 66.04644458 159.48235981 59.97724253 168.21142578 51.40405273 C168.98486328 50.65510742 169.75830078 49.90616211 170.55517578 49.13452148 C177.9497478 41.49937264 184.11115169 31.90542318 186.21142578 21.40405273 C123.51142578 21.40405273 60.81142578 21.40405273 -3.78857422 21.40405273 Z M-29.16357422 26.52905273 C-39.43030498 37.77356738 -38.31074733 54.26879603 -39.484375 68.87451172 C-39.64194745 70.79625827 -39.79988638 72.7179748 -39.9581604 74.6396637 C-40.38342777 79.81651173 -40.80340756 84.99377589 -41.22222757 90.17114902 C-41.66257906 95.60529439 -42.10734776 101.03907848 -42.55148315 106.47291565 C-43.29574244 115.58701094 -44.03662179 124.70137609 -44.77539062 133.81591797 C-45.62889364 144.3455604 -46.48743412 154.87478277 -47.34872448 165.40379089 C-48.17900334 175.5547695 -49.00606192 185.70600788 -49.83153915 195.85737801 C-50.18222287 200.16948538 -50.53397129 204.48150393 -50.88656998 208.79345512 C-51.3012484 213.86666748 -51.71308507 218.94010282 -52.12273788 224.01372337 C-52.27333601 225.87337859 -52.4248923 227.7329565 -52.57748413 229.59244919 C-52.7858222 232.13328162 -52.99065402 234.67437356 -53.1946106 237.21556091 C-53.285947 238.31459036 -53.285947 238.31459036 -53.37912858 239.43582243 C-53.72311627 243.77850816 -53.84263074 248.05273626 -53.78857422 252.40405273 C-49.71332009 248.46025841 -45.88211104 244.31774182 -42.14013672 240.05639648 C-40.63794146 238.36205997 -39.09384615 236.70339696 -37.49951172 235.09545898 C-33.35965748 230.63194342 -31.37160392 227.10642499 -30.72216797 221.02124023 C-30.64893311 220.35223694 -30.57569824 219.68323364 -30.50024414 218.99395752 C-29.00933631 204.66910162 -28.06027751 190.2797181 -26.96582031 175.91967773 C-26.7021212 172.46437886 -26.43318442 169.00951647 -26.16136169 165.55484772 C-26.01222661 163.63890879 -25.86910892 161.72250442 -25.72619629 159.80609131 C-25.27649881 154.08857824 -24.74018602 148.38874558 -23.96240234 142.70581055 C-23.77007019 141.27921112 -23.77007019 141.27921112 -23.57385254 139.8237915 C-22.59706979 136.81395534 -21.4955734 135.96832463 -18.78857422 134.40405273 C-15.49636486 133.49344164 -13.4187687 133.24284019 -10.10107422 134.09155273 C-7.45623623 135.592677 -6.38580628 136.83114091 -4.78857422 139.40405273 C-3.3998058 148.39817795 -5.33187427 158.43021808 -6.10107422 167.48999023 C-6.23604626 169.12135154 -6.37055952 170.75275086 -6.50463867 172.38418579 C-6.85592775 176.64695035 -7.21220538 180.90928138 -7.56994629 185.17150879 C-8.14354664 192.01275788 -8.71057416 198.85455013 -9.27548218 205.69652176 C-9.47291794 208.07693606 -9.67318288 210.45709999 -9.8737793 212.83724976 C-9.99520532 214.29749837 -10.11654771 215.75775394 -10.23779297 217.21801758 C-10.34438232 218.48833832 -10.45097168 219.75865906 -10.56079102 221.06747437 C-11.26476941 227.17526951 -11.26476941 227.17526951 -8.47998047 232.34936523 C-7.44816895 233.4201257 -6.40443397 234.47948319 -5.35107422 235.52905273 C-4.23786911 236.68286903 -3.12721733 237.83915386 -2.01904297 238.99780273 C-1.19218994 239.85825195 -1.19218994 239.85825195 -0.34863281 240.73608398 C1.83581635 243.07163277 3.8388446 245.53297284 5.83642578 248.02905273 C8.8630649 251.80003709 11.99716033 255.41048916 15.27392578 258.96655273 C18.50383035 262.49926086 21.69849874 266.04800762 24.77392578 269.71655273 C25.41458984 270.47581055 26.05525391 271.23506836 26.71533203 272.01733398 C28.57304237 274.98093978 29.1026052 276.9000299 29.21142578 280.40405273 C27.5099848 285.75823763 24.96592694 289.15297177 21.08642578 293.15405273 C20.09310416 294.19731147 19.10225779 295.242932 18.11376953 296.29077148 C17.62247559 296.81074707 17.13118164 297.33072266 16.625 297.86645508 C14.5265772 300.1489882 12.58911383 302.54909917 10.64892578 304.96655273 C6.84164148 309.69681505 2.81552458 314.1679396 -1.30419922 318.62670898 C-3.83122841 321.4517369 -6.18656589 324.36997174 -8.53857422 327.34155273 C-15.45323272 335.84816248 -15.45323272 335.84816248 -21.78857422 336.90405273 C-28.5854113 335.77124655 -32.66490546 330.61950897 -36.85107422 325.59155273 C-37.98105729 324.26063229 -39.11127304 322.92990935 -40.24169922 321.59936523 C-40.81984375 320.91390625 -41.39798828 320.22844727 -41.99365234 319.5222168 C-44.99819881 315.97659041 -48.05186551 312.47375538 -51.10107422 308.96655273 C-52.20155996 307.6972168 -53.30184161 306.42770388 -54.40185547 305.15795898 C-55.18947266 304.24916992 -55.97708984 303.34038086 -56.78857422 302.40405273 C-60.2103133 308.1164958 -60.24862291 314.93745288 -59.78857422 321.40405273 C-55.48088994 332.86277725 -45.38671453 340.03259714 -34.78076172 345.17749023 C-23.46672519 349.815359 -10.37960628 350.27560626 1.11376953 345.88061523 C5.6882646 343.70008669 10.04136609 341.16887432 14.42602539 338.63305664 C25.1123965 332.50861365 35.24602197 330.7309316 47.53955078 333.02514648 C53.56624655 334.66283555 58.4645904 337.02793777 63.71142578 340.40405273 C75.8500265 348.19601679 88.47754363 350.27782869 102.59033203 347.81420898 C109.77273629 345.90183877 115.59941425 342.52299183 121.83666992 338.63305664 C132.33805222 332.13951392 142.48327905 331.15265254 154.76220703 332.73217773 C160.75783896 334.18189875 165.89474084 337.38542209 171.21142578 340.40405273 C184.03719771 347.67424852 195.83767903 350.6156146 210.58642578 347.74780273 C222.0433258 344.28686419 230.96593974 337.84359441 238.21142578 328.40405273 C238.67806641 327.86393555 239.14470703 327.32381836 239.62548828 326.76733398 C243.82740099 321.0933226 242.12191221 313.98756996 241.21142578 307.40405273 C240.8973887 305.73364272 240.57183616 304.06507448 240.21142578 302.40405273 C236.59797303 305.12202505 233.81226418 307.91442933 231.02392578 311.46655273 C227.01061846 316.47816187 222.79137602 321.23363452 218.43798828 325.95092773 C216.65839514 327.91160228 214.97797432 329.89195764 213.33642578 331.96655273 C210.41390944 335.31885089 208.70412842 336.20935239 204.33642578 336.77905273 C197.52258295 335.96139159 193.49960421 330.79144528 189.39892578 325.77905273 C188.34530227 324.51904767 187.29060732 323.25993781 186.23486328 322.00170898 C185.72149414 321.3869873 185.208125 320.77226562 184.67919922 320.13891602 C182.68320087 317.77970705 180.60979922 315.49637581 178.52392578 313.21655273 C174.67880053 308.98345088 171.07050674 304.59217434 167.48486328 300.13842773 C165.19210375 297.38081318 162.78720673 294.77139161 160.33642578 292.15405273 C156.88912608 288.33244028 154.44547257 285.43516657 153.21142578 280.40405273 C154.01295733 269.98414254 165.05822848 261.41616832 171.74267578 254.15405273 C174.94892784 250.58253145 177.9558822 246.88341084 180.88720703 243.08374023 C183.21142578 240.40405273 183.21142578 240.40405273 186.06689453 238.28686523 C190.22432789 234.97238733 192.87713333 232.20152432 193.51367188 226.87475586 C193.56284585 220.40127578 192.78784301 213.99250608 192.02250671 207.5723114 C190.86356446 197.78492191 190.13792477 187.95888119 189.35357666 178.13580322 C189.09068378 174.89405827 188.81479458 171.65366949 188.53515625 168.41333008 C186.22424297 141.34044978 186.22424297 141.34044978 188.83642578 136.21655273 C191.8244366 133.93622869 193.44399405 133.40405273 197.21142578 133.40405273 C203.56523377 135.41609193 203.56523377 135.41609193 205.37365723 138.1809845 C206.34973024 140.77105178 206.6371882 143.02612037 206.86572266 145.78564453 C206.95921997 146.86585373 207.05271729 147.94606293 207.14904785 149.05900574 C207.24182007 150.22861343 207.33459229 151.39822113 207.43017578 152.60327148 C207.53358276 153.82569046 207.63698975 155.04810944 207.74353027 156.30757141 C208.07386444 160.23496599 208.39276052 164.16319589 208.71142578 168.09155273 C208.92552677 170.65606798 209.14036309 173.22052194 209.35595703 175.78491211 C209.56844988 178.32851076 209.78069041 180.87213049 209.99267578 183.41577148 C210.09741211 184.67098602 210.20214844 185.92620056 210.31005859 187.2194519 C210.81616275 193.35383291 211.2934435 199.4878275 211.70751953 205.62915039 C211.78772339 206.76608841 211.86792725 207.90302643 211.95056152 209.07441711 C212.09879849 211.19626066 212.23728458 213.31881843 212.3638916 215.44206238 C212.99698444 224.32369693 215.06323826 229.68427125 221.39892578 236.21655273 C225.80063282 240.82814444 229.85538892 245.58274774 233.75048828 250.63842773 C234.23259766 251.22108398 234.71470703 251.80374023 235.21142578 252.40405273 C235.54142578 252.40405273 235.87142578 252.40405273 236.21142578 252.40405273 C235.60615508 239.77422434 234.78525112 227.18027862 233.75268555 214.57861328 C233.60778436 212.78575872 233.4631075 210.99288602 233.31863403 209.19999695 C232.93064719 204.39433905 232.53926026 199.5889642 232.14695859 194.78365684 C231.81797175 190.7504214 231.49060155 186.71705533 231.16318363 182.68369228 C230.39036617 173.16440981 229.61465971 163.64536579 228.8371582 154.12646484 C228.03822761 144.34452101 227.24445792 134.56216785 226.45316273 124.77960366 C225.77000476 116.3363564 225.08351744 107.89338418 224.39442676 99.45061904 C223.98445104 94.42709369 223.57571919 89.4034754 223.17025948 84.37958336 C222.78911813 79.65868849 222.40379027 74.93815297 222.01536942 70.21785164 C221.87443054 68.49678824 221.73491402 66.77560761 221.59700966 65.0542984 C220.796231 42.57570402 220.796231 42.57570402 209.21142578 24.40405273 C208.55142578 24.40405273 207.89142578 24.40405273 207.21142578 24.40405273 C206.88271484 25.3850293 206.55400391 26.36600586 206.21533203 27.37670898 C200.14665828 44.84105193 190.8529561 60.74881474 176.21142578 72.40405273 C175.63263672 72.88100586 175.05384766 73.35795898 174.45751953 73.84936523 C161.20749819 84.32346418 145.31771473 91.99184 130.73095703 100.37963867 C125.93895728 103.13537316 121.14973162 105.89591628 116.36108398 108.6574707 C114.09949972 109.96169721 111.83763057 111.26542988 109.57543945 112.56860352 C108.55168213 113.15883301 107.5279248 113.7490625 106.47314453 114.35717773 C105.5755542 114.87441406 104.67796387 115.39165039 103.75317383 115.92456055 C102.00912917 116.93972822 100.27929985 117.97959819 98.56225586 119.03979492 C95.63300701 120.73972665 93.60356632 121.26836711 90.21142578 121.40405273 C84.97907486 119.40438749 80.14929284 116.8340161 75.27392578 114.09155273 C74.11981201 113.44621582 74.11981201 113.44621582 72.94238281 112.7878418 C64.39350978 107.98343263 55.93053086 103.0312409 47.47314453 98.06811523 C43.23765903 95.5833858 38.9898184 93.12192925 34.73095703 90.67749023 C33.67021973 90.06615234 32.60948242 89.45481445 31.51660156 88.82495117 C29.511214 87.66977256 27.5032712 86.51901258 25.4921875 85.3737793 C0.33221542 70.83495672 -15.59559359 51.838791 -24.78857422 24.40405273 C-27.07130831 24.18178778 -27.07130831 24.18178778 -29.16357422 26.52905273 Z M-64.78857422 112.40405273 C-74.96884879 138.82842478 -85.12960311 165.26003476 -95.22607422 191.71655273 C-95.65773895 192.84760437 -96.08940369 193.97865601 -96.53414917 195.14398193 C-100.96923183 206.76572892 -105.40147051 218.38855988 -109.83293152 230.01168823 C-111.62525339 234.71201359 -113.41846113 239.41200082 -115.2116394 244.11199951 C-116.52430499 247.55413526 -117.83534634 250.99688647 -119.14624023 254.43969727 C-123.35364942 265.47951308 -127.59804937 276.50282584 -131.92138672 287.49780273 C-132.73045853 289.56260299 -133.53938141 291.62746162 -134.34814453 293.69238281 C-135.8536168 297.53568964 -137.37310662 301.37303166 -138.90087891 305.20751953 C-139.56972728 306.9121362 -140.23805395 308.61695771 -140.90576172 310.32202148 C-141.37116867 311.47250977 -141.37116867 311.47250977 -141.84597778 312.64624023 C-143.80029584 317.50331546 -143.80029584 317.50331546 -142.78857422 322.40405273 C-141.16167803 323.51109605 -141.16167803 323.51109605 -139.06665039 324.14331055 C-137.88488472 324.56329315 -137.88488472 324.56329315 -136.679245 324.99176025 C-135.82200333 325.27734802 -134.96476166 325.56293579 -134.08154297 325.85717773 C-133.20460281 326.16226257 -132.32766266 326.46734741 -131.42414856 326.78167725 C-129.56639697 327.42450815 -127.70591604 328.05949647 -125.84301758 328.68725586 C-122.99245853 329.64852758 -120.15095359 330.63337993 -117.31005859 331.62280273 C-115.50520325 332.24400009 -113.69987903 332.86383714 -111.89404297 333.48217773 C-111.04287399 333.77586243 -110.19170502 334.06954712 -109.31474304 334.37213135 C-108.51744278 334.63951111 -107.72014252 334.90689087 -106.89868164 335.18237305 C-106.19998459 335.41901672 -105.50128754 335.6556604 -104.78141785 335.8994751 C-102.48492289 336.56768568 -102.48492289 336.56768568 -98.78857422 336.40405273 C-96.59878956 331.64047269 -94.41182682 326.87561034 -92.22729492 322.10961914 C-91.48617791 320.49371736 -90.74433552 318.87814805 -90.00170898 317.26293945 C-88.21570317 313.37780476 -86.44132728 309.48839875 -84.69238281 305.58642578 C-83.59536298 303.14381122 -82.4612207 300.76952925 -81.23242188 298.38769531 C-76.34568911 288.41850792 -76.32449657 277.47942917 -75.53857422 266.59155273 C-75.34953036 264.17749906 -75.15844168 261.76360487 -74.96557617 259.34985352 C-74.63436939 255.18146196 -74.30554261 251.01296959 -73.98652649 246.84362793 C-72.96771921 233.53427352 -71.88016961 220.2309342 -70.78247452 206.92787361 C-69.94852913 196.81726614 -69.1190178 186.70629268 -68.28926086 176.59534073 C-68.0802354 174.04829294 -67.87111858 171.50125265 -67.66191101 168.95421982 C-67.05771 161.59442138 -66.45698313 154.2343543 -65.86125374 146.87386513 C-65.67636857 144.5958563 -65.49034705 142.31793938 -65.3031292 140.04012108 C-65.04418816 136.88741783 -64.78929633 133.73441182 -64.53540039 130.58129883 C-64.45908764 129.66313479 -64.38277489 128.74497076 -64.30414963 127.79898357 C-63.89438389 122.64755977 -63.71686731 117.57187294 -63.78857422 112.40405273 C-64.11857422 112.40405273 -64.44857422 112.40405273 -64.78857422 112.40405273 Z M246.21142578 112.40405273 C246.85673178 129.91675535 248.23956498 147.3599922 249.6701057 164.82172322 C249.93235148 168.02760397 250.19243236 171.23365904 250.45256907 174.43971151 C251.066463 182.00483285 251.68401915 189.56964891 252.30395508 197.13427734 C252.94027942 204.89969307 253.57024853 212.66560629 254.19716638 220.4317866 C254.73960183 227.14856768 255.28600149 233.86501843 255.83552366 240.58122343 C256.16199095 244.57175833 256.48701468 248.56239645 256.80817986 252.55336189 C257.10979399 256.29926063 257.41640219 260.04471915 257.72668648 263.78990936 C257.89187881 265.79815716 258.05212491 267.80680997 258.2121582 269.81547546 C259.13930311 280.90259663 260.12247556 291.33371473 265.02001953 301.42358398 C265.38740738 302.21125656 265.75479523 302.99892914 266.13331604 303.81047058 C267.29146543 306.28590333 268.46945338 308.75122034 269.64892578 311.21655273 C270.43481564 312.88452083 271.21933088 314.55313731 272.00244141 316.22241211 C273.10704963 318.57650984 274.21336794 320.92955836 275.33091736 323.27754211 C277.3936513 327.61421727 279.34798369 331.97787879 281.21142578 336.40405273 C286.75622839 335.79402362 291.69125485 334.42546589 296.95361328 332.60327148 C297.76259064 332.32562454 298.57156799 332.0479776 299.40505981 331.76191711 C301.10214861 331.17617197 302.79800824 330.58685447 304.49267578 329.99414062 C307.0940899 329.08888573 309.70305716 328.20823032 312.31298828 327.32788086 C313.96454823 326.75450174 315.61560907 326.17968254 317.26611328 325.60327148 C318.04832245 325.34269455 318.83053162 325.08211761 319.63644409 324.81364441 C322.05696975 323.99077638 322.05696975 323.99077638 325.21142578 322.40405273 C326.86363936 318.32076228 325.33545381 315.28799345 323.76611328 311.41577148 C323.48931229 310.7065303 323.21251129 309.99728912 322.92732239 309.26655579 C322.31596079 307.70379488 321.69950088 306.14302155 321.07870483 304.58398438 C320.06336664 302.0336322 319.0611109 299.47848084 318.06225586 296.92163086 C316.96945333 294.12430962 315.87592109 291.32730004 314.77870178 288.53170776 C310.5240795 277.68537551 306.37968039 266.79736338 302.2338562 255.90908813 C299.98727704 250.01039906 297.73591253 244.11353707 295.48486328 238.21655273 C295.04019211 237.05142654 294.59552094 235.88630035 294.13737488 234.68586731 C287.95898739 218.49927137 281.75903825 202.32093441 275.55923462 186.14253235 C272.81632081 178.98436833 270.07603063 171.82520249 267.33642578 164.66577148 C266.12286775 161.49494122 264.90926645 158.32412753 263.69564819 155.15332031 C262.93053168 153.15403369 262.16557108 151.15468738 261.40078735 149.15527344 C256.709093 136.88987956 251.98540475 124.63766781 247.21142578 112.40405273 C246.88142578 112.40405273 246.55142578 112.40405273 246.21142578 112.40405273 Z M-22.78857422 248.40405273 C-24.63566024 250.38547228 -26.37527651 252.38291391 -28.10107422 254.46655273 C-29.17437098 255.74727388 -30.24862492 257.02719336 -31.32373047 258.30639648 C-31.88592285 258.97654785 -32.44811523 259.64669922 -33.02734375 260.3371582 C-34.81188452 262.43140857 -36.63386387 264.48581188 -38.47216797 266.53295898 C-39.06795654 267.20125732 -39.66374512 267.86955566 -40.27758789 268.55810547 C-41.43587157 269.85449035 -42.60123809 271.14458754 -43.77416992 272.42773438 C-47.24990746 276.28198723 -47.24990746 276.28198723 -47.78857422 281.40405273 C-45.89388878 283.93463391 -45.89388878 283.93463391 -43.35107422 286.46655273 C-42.428163 287.43960066 -41.50764554 288.41492377 -40.58935547 289.39233398 C-39.88673584 290.13797607 -39.88673584 290.13797607 -39.16992188 290.89868164 C-37.02519903 293.23596708 -35.03421041 295.68925505 -33.03857422 298.15405273 C-31.94609375 299.50176758 -31.94609375 299.50176758 -30.83154297 300.87670898 C-29.82027344 302.12774414 -29.82027344 302.12774414 -28.78857422 303.40405273 C-26.83892158 305.80458864 -24.87305993 308.11620256 -22.78857422 310.40405273 C-22.12857422 310.40405273 -21.46857422 310.40405273 -20.78857422 310.40405273 C-19.41645121 308.87210001 -18.11702962 307.27484193 -16.85107422 305.65405273 C-13.40459228 301.34039146 -9.8569033 297.20037372 -6.10107422 293.15405273 C-2.23138548 288.98175166 1.54864294 284.75979449 5.21142578 280.40405273 C3.64910557 276.72448982 1.37558496 274.2388948 -1.35107422 271.34155273 C-6.98675854 265.24980147 -12.23946598 258.88804802 -17.39013672 252.38061523 C-18.48171187 251.0209339 -19.62798361 249.70532099 -20.78857422 248.40405273 C-21.44857422 248.40405273 -22.10857422 248.40405273 -22.78857422 248.40405273 Z M203.21142578 248.40405273 C201.81816624 249.95645614 200.4976245 251.57435259 199.21142578 253.21655273 C195.17908734 258.26021721 190.95885451 263.05528649 186.58642578 267.81030273 C183.40081253 271.28932774 180.2979606 274.83716316 177.21142578 278.40405273 C178.773746 282.08361564 181.0472666 284.56921067 183.77392578 287.46655273 C188.82755327 292.9291443 193.5399642 298.61070471 198.21142578 304.40405273 C199.86982445 306.41118009 201.53932351 308.40831776 203.21142578 310.40405273 C206.96030976 309.15442474 207.85761897 307.62508287 210.27392578 304.52905273 C214.30156166 299.47810872 218.52818739 294.68822537 222.90283203 289.93139648 C225.74843741 286.81615675 228.48946756 283.62742431 231.21142578 280.40405273 C229.71136187 276.95626187 227.70733316 274.5804474 225.14892578 271.84155273 C220.28002853 266.53429817 215.7465243 260.99620429 211.21142578 255.40405273 C209.26128532 253.00387986 207.2959326 250.69192607 205.21142578 248.40405273 C204.55142578 248.40405273 203.89142578 248.40405273 203.21142578 248.40405273 Z M21.02392578 358.27905273 C6.63520954 368.25192157 -11.92138343 370.47993706 -28.97070312 368.09936523 C-40.78642536 365.86557545 -51.26359665 360.60070245 -60.78857422 353.40405273 C-61.11857422 353.40405273 -61.44857422 353.40405273 -61.78857422 353.40405273 C-65.41322809 369.94343971 -66.95307101 391.91407436 -58.32763672 406.95092773 C-56.89505853 409.17615071 -55.38075879 411.29134628 -53.78857422 413.40405273 C-52.92232422 414.70342773 -52.92232422 414.70342773 -52.03857422 416.02905273 C-44.11234791 424.39562495 -32.15862762 430.78367211 -20.57373047 431.64233398 C-7.02519618 431.91245167 2.5581111 428.67160856 14.03955078 421.31030273 C24.8678374 414.8026625 37.80314344 413.33530059 50.08642578 416.27905273 C55.92287023 418.31341408 61.18885364 421.7162127 66.53808594 424.76635742 C78.5953265 431.55059831 90.84476637 433.64758565 104.46142578 430.02905273 C110.99615636 427.81606422 116.87018309 424.46827873 122.76904297 420.93383789 C133.17797469 414.78776692 144.62138323 413.77080758 156.45751953 416.02124023 C162.08661928 417.71071772 166.7116582 420.23853189 171.64892578 423.40405273 C183.32053479 430.84279522 195.76791237 433.62767162 209.47705078 430.70874023 C223.50810678 426.4274693 233.74538818 418.3857184 241.39892578 406.02905273 C247.14508364 395.18588455 246.62816014 384.3652654 246.21142578 372.40405273 C246.18532227 371.64141113 246.15921875 370.87876953 246.13232422 370.09301758 C246.08880785 361.40663083 246.08880785 361.40663083 243.21142578 353.40405273 C242.37482422 353.99573242 241.53822266 354.58741211 240.67626953 355.19702148 C224.09833811 366.57464665 206.01299818 370.77836786 185.95996094 368.10375977 C174.63565104 365.97757386 164.40177188 360.8027741 154.93017578 354.38452148 C150.44186082 351.82414181 145.22968745 351.83564122 140.21142578 352.40405273 C134.82956646 354.01666762 130.17369434 357.01307959 125.39892578 359.90405273 C109.86926961 369.14647901 90.50385116 371.12916215 72.96142578 366.96655273 C65.61457152 365.04739723 59.27558259 361.45986077 52.83251953 357.52514648 C41.52036191 350.70960569 31.88999127 350.59957476 21.02392578 358.27905273 Z " fill="#313132" transform="translate(164.78857421875,29.595947265625)"/>
<path d="M0 0 C5.78547432 4.31905707 10.09665775 10.48877834 14.58203125 16.078125 C17.12600252 19.15226153 19.78147613 22.08143203 22.5 25 C27.58420884 30.47245109 32.33601416 36.16364614 37 42 C37.75925781 42.93714844 38.51851563 43.87429688 39.30078125 44.83984375 C45.81242103 52.9013232 45.81242103 52.9013232 46.4375 56.5625 C45.40057453 64.70977154 38.65344415 70.64827961 33.24316406 76.41430664 C30.16695715 79.69562864 27.25917569 83.05541728 24.4375 86.5625 C20.58292142 91.34796965 16.52263688 95.89636752 12.36328125 100.41796875 C9.68039903 103.34918387 7.067423 106.33458561 4.47265625 109.34375 C3.98667969 109.8903125 3.50070312 110.436875 3 111 C2.27876953 111.82177734 2.27876953 111.82177734 1.54296875 112.66015625 C-1.21121828 115.05176676 -4.50637223 115.17500547 -8 115 C-14.34998333 112.69091515 -17.52270861 108.22563738 -21.61328125 102.99609375 C-23.96640213 100.04217605 -26.43550438 97.27124566 -29 94.5 C-33.08735886 90.0594126 -36.91447698 85.4685268 -40.69921875 80.76953125 C-43.90253744 76.91358397 -47.30657789 73.25821581 -50.73828125 69.60546875 C-54.59966329 65.15720999 -57.92213075 61.30918013 -57.5703125 55.12890625 C-56.36011325 50.61138165 -53.07431393 47.39703197 -50 44 C-49.28972656 43.2059375 -48.57945312 42.411875 -47.84765625 41.59375 C-46.34333895 39.92287384 -44.83272276 38.25765081 -43.31640625 36.59765625 C-40.98133202 33.97906542 -38.76495377 31.29323192 -36.5625 28.5625 C-32.6896639 23.77205814 -28.6008889 19.23499157 -24.41796875 14.71484375 C-22.05623206 12.06313616 -19.90141386 9.32347457 -17.75 6.5 C-12.97096797 0.48797771 -7.80685539 -3.08437198 0 0 Z M-6 26 C-12.22365087 32.66570457 -18.25906383 39.40266015 -23.984375 46.5078125 C-26.59099903 49.73073136 -29.28543427 52.86780877 -32 56 C-30.58088666 60.46007051 -28.13429223 63.32902329 -24.9375 66.625 C-20.37624942 71.44375268 -16.1624127 76.39706971 -12.0703125 81.625 C-9.91181302 84.10116544 -7.61997089 86.02817522 -5 88 C0.84761675 81.68848046 6.47554402 75.29029602 11.8828125 68.59375 C14.83123725 64.98165769 17.89831792 61.48066574 21 58 C15.65149735 46.02822205 3.21043915 35.11104592 -6 26 Z " fill="#313132" transform="translate(264,252)"/>
<path d="M0 0 C3.18637361 0.64073817 4.95955678 2.09960721 7.15625 4.43359375 C8.76302955 7.64715286 8.62456682 10.94797858 8.15625 14.43359375 C6.15868339 18.10911631 4.65588533 19.20734379 0.84375 20.93359375 C-3.78434379 21.56113189 -5.88245946 20.87131101 -9.84375 18.43359375 C-12.32189609 15.02614288 -12.84375 13.08302468 -12.84375 8.87109375 C-10.79298323 1.82158298 -7.02870459 -0.38657875 0 0 Z " fill="#313132" transform="translate(360.84375,125.56640625)"/>
<path d="M0 0 C3.348157 2.37161121 4.65750859 4.01533721 6 7.875 C6 12.0430077 5.15607248 14.42900496 3 18 C-0.95901909 20.51245442 -3.03051132 21.13145609 -7.6875 20.5 C-11.49963533 18.77375004 -13.00243339 17.67552256 -15 14 C-15.86071831 9.61654798 -15.5439996 6.85226605 -13.125 3.0625 C-9.22986962 -0.71806772 -5.22963138 -0.79483171 0 0 Z " fill="#313132" transform="translate(158,126)"/>
</svg>
