<?xml version="1.0" encoding="UTF-8"?>
<svg version="1.1" xmlns="http://www.w3.org/2000/svg" width="512" height="512">
<path d="M0 0 C4.12661117 1.51511692 8.00726661 3.47606027 11.9375 5.4375 C67.32676994 31.9717507 128.41184751 40.93355338 189 46 C189.15073975 45.21463867 189.30147949 44.42927734 189.45678711 43.62011719 C191.38155158 34.33626446 198.16599472 26.29049154 205.9375 21.125 C207.2739018 20.38369459 208.62838074 19.67391698 210 19 C210.61746094 18.68160156 211.23492187 18.36320312 211.87109375 18.03515625 C221.02348119 14.16367852 233.81176315 14.51625195 243.125 17.625 C253.80800897 22.29677456 261.83498951 30.2961049 266.37109375 41.01953125 C267 43 267 43 267 46 C328.67103935 40.84300121 391.3257004 31.75656143 447.32446289 3.80957031 C453.19938213 0.95182813 457.44077352 -0.833991 464 0 C466.5 1.5 466.5 1.5 468 4 C468.54686219 6.77988279 468.72991469 9.25208587 468 12 C463.78961132 16.77665648 458.60537946 18.93909867 452.9375 21.625 C451.27388428 22.4145105 451.27388428 22.4145105 449.57666016 23.2199707 C396.29185133 48.03012555 327.16160712 65.24664331 268 63 C267.690625 64.918125 267.690625 64.918125 267.375 66.875 C265.4157594 75.5888253 260.11393768 83.60147992 253 89 C241.48031496 96 241.48031496 96 238 96 C237.67 99.3 237.34 102.6 237 106 C269.28474176 122.32113346 298.68168013 130.63983147 334.76811218 133.24234009 C340.1223825 133.63961016 344.90472294 134.28386067 350 136 C353.33904271 130.21232596 354.62357396 125.38251133 355.3125 118.734375 C356.15675637 115.37653715 357.26708349 114.08872905 360 112 C362 111.46875 362 111.46875 364 111.5 C364.99 111.48453125 364.99 111.48453125 366 111.46875 C368.99747585 112.26495452 370.13017656 113.5413811 372 116 C372.8359375 119.3203125 372.8359375 119.3203125 373.375 123.125 C374.87698142 131.94980898 377.81654419 138.7793762 384.9375 144.4375 C391.45828431 148.79696974 397.50317296 150.41434666 405.23046875 151.27734375 C408.59422189 152.15505085 409.90277066 153.25444683 412 156 C412.53125 158 412.53125 158 412.5 160 C412.51546875 160.99 412.51546875 160.99 412.53125 162 C411.73846221 164.98461287 410.43465271 166.12444506 408 168 C404.7578125 168.94140625 404.7578125 168.94140625 401.125 169.5625 C396.22372552 170.41466543 392.36622152 171.58989913 388 174 C388.72703125 174.84820312 389.4540625 175.69640625 390.203125 176.5703125 C398.46875 186.21354167 406.734375 195.85677083 415 205.5 C415.49540283 206.07790283 415.99080566 206.65580566 416.5012207 207.2512207 C417.49742001 208.41358845 418.49335267 209.57618479 419.48901367 210.73901367 C422.04498414 213.72341985 424.60599394 216.70326021 427.17578125 219.67578125 C444.13696116 239.32193559 444.13696116 239.32193559 444.3125 246.75 C444.34988281 247.77609375 444.38726562 248.8021875 444.42578125 249.859375 C442.93356192 260.86620379 429.07158757 269.0172186 421.015625 275.51953125 C417.45325709 278.44971729 413.97618586 281.46860514 410.5 284.5 C408.59602549 286.15168106 406.69090846 287.8020307 404.78515625 289.45166016 C403.64475154 290.44078032 402.50650596 291.43239901 401.37109375 292.42724609 C390.4638387 301.95714636 390.4638387 301.95714636 383.0078125 302.015625 C375.16397823 301.48283626 370.08796369 296.37995462 364.625 291.1875 C361.06290626 287.83057588 357.47613746 284.51932683 353.78662109 281.30200195 C353.07492767 280.68090042 352.36323425 280.05979889 351.62997437 279.4198761 C351.09208282 278.95131699 350.55419128 278.48275787 350 278 C349.99641747 279.37768083 349.99641747 279.37768083 349.99276257 280.78319359 C349.93357489 303.15191565 349.85800059 325.5205303 349.76428509 347.88913536 C349.71935796 358.70651652 349.67993615 369.52386497 349.65356445 380.34130859 C349.63055945 389.77199545 349.59713339 399.20257858 349.55129844 408.63318312 C349.52740004 413.62461541 349.50864908 418.61594517 349.50238609 423.60743332 C349.49631996 428.31062982 349.47626491 433.0135641 349.44572449 437.71666336 C349.43696874 439.43788072 349.43321655 441.15913238 349.43499184 442.88037109 C349.45070366 465.15339127 349.45070366 465.15339127 342.8125 472.375 C342.01779297 473.28378906 342.01779297 473.28378906 341.20703125 474.2109375 C335.30824232 478.99261065 329.76551978 480.59446759 322.27124023 480.50793457 C321.00763625 480.51729451 321.00763625 480.51729451 319.71850491 480.52684355 C316.91491068 480.54271176 314.11219337 480.53019371 311.30859375 480.51757812 C309.29085791 480.52300199 307.27312602 480.53012613 305.25540161 480.53881836 C299.78847125 480.5570231 294.32184351 480.54999584 288.85490799 480.53730202 C283.12779182 480.52715965 277.40070119 480.53657114 271.67358398 480.54284668 C262.05675617 480.55011946 252.44005132 480.540545 242.82324219 480.52148438 C231.71232594 480.49971642 220.60170332 480.50676805 209.49079418 480.52879 C199.94321527 480.54695444 190.39572465 480.54949718 180.84813404 480.53903532 C175.14926657 480.53280617 169.45053702 480.53194894 163.75167847 480.54518127 C158.3933834 480.55675426 153.03546611 480.54868728 147.67721176 480.52560425 C145.71325177 480.52032494 143.74925986 480.52181758 141.78531265 480.53065491 C139.09936895 480.54162478 136.41462737 480.5278297 133.72875977 480.50793457 C132.56959628 480.5213189 132.56959628 480.5213189 131.38701534 480.53497362 C124.84551295 480.44131901 119.68968822 478.35699159 114.7578125 474.03515625 C114.21898437 473.38417969 113.68015625 472.73320312 113.125 472.0625 C112.57070312 471.41410156 112.01640625 470.76570313 111.4453125 470.09765625 C107.56267712 464.46258814 107.73337043 459.29019365 107.8046875 452.66796875 C107.8075174 451.67622147 107.81034729 450.68447418 107.81326294 449.66267395 C107.82443196 446.50415841 107.84953073 443.34592943 107.875 440.1875 C107.88503403 438.04232181 107.89415914 435.89713917 107.90234375 433.75195312 C107.92436055 428.50120479 107.95780557 423.25062287 108 418 C98.44426635 425.47327364 94.73331616 434.54538451 93.0625 446.3125 C92.95035156 447.29863281 92.83820313 448.28476562 92.72265625 449.30078125 C91.83606981 452.61230141 90.70325548 453.92540858 88 456 C86 456.53125 86 456.53125 84 456.5 C83.01 456.51546875 83.01 456.51546875 82 456.53125 C78.98755772 455.73107002 77.86998844 454.48270806 76 452 C75.3835535 449.44203509 74.95406726 447.09064013 74.625 444.5 C72.92267362 433.7897331 69.0294952 423.60694771 60 417 C52.83359828 412.36872661 45.80306988 410.17562604 37.43188477 409.11230469 C34.21103474 408.65887822 32.1827339 408.13763611 29.5625 406.1640625 C27.89344276 403.85241822 27.45606192 402.81203694 27.5 400 C27.4896875 399.34 27.479375 398.68 27.46875 398 C28.26892998 394.98755772 29.51729194 393.86998844 32 392 C34.55796491 391.3835535 36.90935987 390.95406726 39.5 390.625 C50.2102669 388.92267362 60.39305229 385.0294952 67 376 C71.63127339 368.83359828 73.82437396 361.80306988 74.88769531 353.43188477 C75.34112178 350.21103474 75.86236389 348.1827339 77.8359375 345.5625 C80.14758178 343.89344276 81.18796306 343.45606192 84 343.5 C84.99 343.48453125 84.99 343.48453125 86 343.46875 C89.01645225 344.26999513 90.12797287 345.51191299 92 348 C92.64014308 350.60076068 93.09204587 352.98964335 93.4375 355.625 C95.04503345 365.64744428 98.54969473 373.85557237 106 381 C106.66 381.33 107.32 381.66 108 382 C107.67 347.35 107.34 312.7 107 277 C97.0047131 286.31555878 97.0047131 286.31555878 87.0625 295.6875 C82.00215324 300.10345803 77.78773997 301.95575016 71.0625 302.0625 C62.7904699 300.53064257 56.52849519 293.82959003 50.58203125 288.33984375 C48.05576995 286.05053888 45.46472932 283.8914296 42.8125 281.75 C36.292841 276.47129882 29.98166451 270.96293286 23.66503906 265.44482422 C22.23277921 264.20199228 20.78573096 262.97623945 19.3359375 261.75390625 C18.62695312 261.15449219 17.91796875 260.55507813 17.1875 259.9375 C16.31158203 259.20853516 16.31158203 259.20853516 15.41796875 258.46484375 C12.09744391 255.03454949 11.68446975 251.79932209 11.625 247.125 C11.59664062 246.11695313 11.56828125 245.10890625 11.5390625 244.0703125 C12.51622927 237.5613881 17.76938998 232.78602354 22 228 C23.16572489 226.66828406 24.33108128 225.33624547 25.49609375 224.00390625 C26.08245605 223.33504395 26.66881836 222.66618164 27.27294922 221.97705078 C29.88988663 218.98129744 32.4774709 215.96078569 35.0625 212.9375 C36.05338542 211.77994792 37.04427083 210.62239583 38.03515625 209.46484375 C38.52387207 208.89362793 39.01258789 208.32241211 39.51611328 207.73388672 C42.00895524 204.82105954 44.50462766 201.91065939 47 199 C48.0000134 197.83334482 49.00001341 196.66667816 50 195.5 C56 188.5 62 181.5 68 174.5 C68.74286255 173.6332666 68.74286255 173.6332666 69.50073242 172.74902344 C70.4981301 171.58547402 71.49568803 170.42206196 72.4934082 169.25878906 C75.03457301 166.29554935 77.57268199 163.3297803 80.10546875 160.359375 C82.12637966 157.9893165 84.15537076 155.62660555 86.19140625 153.26953125 C87.95764033 151.2245755 89.68698986 149.16332454 91.40234375 147.07421875 C92.50255859 145.76904297 92.50255859 145.76904297 93.625 144.4375 C94.23601562 143.69371094 94.84703125 142.94992188 95.4765625 142.18359375 C103.20419808 135.49667689 111.72710399 134.02670476 121.625 132.9375 C122.9556508 132.76810471 124.28596931 132.59608145 125.6159668 132.42163086 C132.19658857 131.57632573 138.72475399 130.92466369 145.35546875 130.6015625 C172.04331523 128.89017042 195.06450134 117.20927379 219 106 C219.05333496 105.18450684 219.10666992 104.36901367 219.16162109 103.52880859 C219.27884521 101.9173999 219.27884521 101.9173999 219.3984375 100.2734375 C219.47239746 99.21044434 219.54635742 98.14745117 219.62255859 97.05224609 C220.4602605 90.27802277 223.57318275 85.63769153 228.86328125 81.44921875 C233.88246435 78.04498305 239.23598605 74.92133798 245 73 C246.12516085 71.16715557 246.12516085 71.16715557 247 69 C247.66177822 67.66423363 248.32776042 66.33053229 249 65 C248.3702829 64.99413376 247.7405658 64.98826752 247.09176636 64.98222351 C162.76737134 64.16372828 78.29967007 57.15740731 1 20.5625 C-0.61370483 19.79993896 -0.61370483 19.79993896 -2.26000977 19.02197266 C-3.24670654 18.54163574 -4.23340332 18.06129883 -5.25 17.56640625 C-6.12140625 17.14302979 -6.9928125 16.71965332 -7.890625 16.28344727 C-10 15 -10 15 -12 12 C-12.65753425 5.09589041 -12.65753425 5.09589041 -10.5 1.5 C-6.96782777 -0.61930334 -3.96619946 -0.63328551 0 0 Z M213 38 C208.74347201 41.90804177 208.74347201 41.90804177 207 47 C220.86 47 234.72 47 249 47 C246.19523368 39.98808419 241.83675241 35.9763448 235 33 C226.91394734 30.90361598 219.42145889 32.7201338 213 38 Z M216.05859375 125.6484375 C215.21329605 126.02102692 214.36799835 126.39361633 213.49708557 126.77749634 C210.80585263 127.96636797 208.12166493 129.17026762 205.4375 130.375 C203.62871247 131.17811397 201.81947186 131.98020835 200.00976562 132.78125 C197.45775406 133.91099437 194.90649622 135.04215631 192.35874939 136.18148804 C188.59875219 137.86223363 184.84163332 139.51145729 181 141 C181.80574574 151.87756754 185.8555385 159.85227369 193 168 C193.52335938 168.6290625 194.04671875 169.258125 194.5859375 169.90625 C202.67096659 178.89837992 214.98456029 183.19667135 226.796875 183.953125 C240.01927204 184.14662349 251.93994195 179.30257036 261.5 170.1875 C269.02702184 162.01777679 275 152.3995572 275 141 C268.850303 138.27867301 262.6932284 135.57460788 256.53076172 132.88232422 C254.43592972 131.96472103 252.34280827 131.04320232 250.25146484 130.11767578 C247.24238836 128.78682057 244.22740991 127.47023998 241.2109375 126.15625 C239.81371964 125.53284729 239.81371964 125.53284729 238.38827515 124.89685059 C229.53355997 121.0712555 224.68486257 121.73785081 216.05859375 125.6484375 Z M146.53125 146.953125 C145.65150513 147.05461853 144.77176025 147.15611206 143.86535645 147.26068115 C142.01620426 147.47660012 140.16736907 147.69524981 138.31884766 147.91650391 C135.50956996 148.24886778 132.69843146 148.56010054 129.88671875 148.87109375 C128.08057464 149.08463454 126.2745791 149.29943652 124.46875 149.515625 C123.63831177 149.60434875 122.80787354 149.69307251 121.95227051 149.78448486 C112.88466481 150.92362553 106.88807461 154.24795889 101.25 161.375 C100.2152283 162.63182713 99.18006068 163.88832837 98.14453125 165.14453125 C97.62455566 165.78471191 97.10458008 166.42489258 96.56884766 167.08447266 C94.07941117 170.12401805 91.50574673 173.08957501 88.9375 176.0625 C85.10612732 180.52581328 81.29528575 185.00597771 77.5 189.5 C72.2034411 195.77168949 66.86395577 202.00591071 61.51611328 208.23388672 C59.00899011 211.15442279 56.50466014 214.07735171 54 217 C53.50870605 217.57306885 53.01741211 218.1461377 52.51123047 218.73657227 C49.94759621 221.72691947 47.38505821 224.71819643 44.82421875 227.7109375 C44.04159668 228.62504395 44.04159668 228.62504395 43.24316406 229.55761719 C42.21983035 230.7531125 41.19702874 231.94906353 40.17480469 233.14550781 C36.87727872 236.99887093 33.52932186 240.80121892 30.109375 244.546875 C28.79772819 245.96024896 28.79772819 245.96024896 29 248 C30.48738235 249.35382149 32.04430551 250.63139886 33.625 251.875 C38.11319769 255.46555815 42.5225725 259.12112983 46.875 262.875 C48.05844954 263.89339677 49.24204419 264.91162495 50.42578125 265.9296875 C51.01439941 266.4359668 51.60301758 266.94224609 52.20947266 267.46386719 C55.15082497 269.98731807 58.10511564 272.49537204 61.0625 275 C61.58634277 275.44456543 62.11018555 275.88913086 62.64990234 276.34716797 C65.7264877 278.95027947 68.84179785 281.49661775 72 284 C75.25207092 282.58261511 77.31361067 280.87473588 79.75 278.3125 C82.29937933 275.63993637 84.93812018 273.15918355 87.73046875 270.74609375 C90.65282735 268.21372238 93.47835633 265.61436845 96.25390625 262.921875 C96.96353516 262.23609375 97.67316406 261.5503125 98.40429688 260.84375 C99.85293302 259.43837629 101.29558636 258.0268113 102.73242188 256.609375 C106.92598745 252.57988888 110.39611053 249.71210856 116 248 C119.375 248.6875 119.375 248.6875 122 250 C123.31165046 252.62330091 123.13968432 254.57851338 123.15821838 257.51748657 C123.1680072 258.68980331 123.17779602 259.86212006 123.18788147 261.06996155 C123.19363693 262.36252365 123.1993924 263.65508575 123.20532227 264.98681641 C123.2148986 266.35655515 123.22490853 267.72629092 123.23532104 269.09602356 C123.26240274 272.82097397 123.28339459 276.54593709 123.30332303 280.27093172 C123.32516248 284.16138823 123.35256114 288.05180542 123.37937927 291.94223022 C123.42933381 299.31220492 123.47426238 306.6822014 123.51740164 314.05221879 C123.56675044 322.44149061 123.6216773 330.83072297 123.67708123 339.21995664 C123.79094365 356.47993464 123.89777339 373.73994924 124 391 C124.83144531 391.10957031 125.66289062 391.21914063 126.51953125 391.33203125 C127.60621094 391.49058594 128.69289063 391.64914062 129.8125 391.8125 C131.43091797 392.03873047 131.43091797 392.03873047 133.08203125 392.26953125 C136.08151006 393.02040479 137.19472964 393.54650515 139 396 C139.3984375 397.9375 139.3984375 397.9375 139.375 400 C139.38660156 401.0209375 139.38660156 401.0209375 139.3984375 402.0625 C138.86506881 404.65613598 138.08833653 405.3700788 136 407 C133.08203125 407.73046875 133.08203125 407.73046875 129.8125 408.1875 C128.18248047 408.42533203 128.18248047 408.42533203 126.51953125 408.66796875 C125.68808594 408.77753906 124.85664063 408.88710938 124 409 C123.92378965 415.58358323 123.87133285 422.16705222 123.83520508 428.75097656 C123.82014036 430.98962658 123.79968467 433.22824719 123.77368164 435.46679688 C123.73719717 438.68887602 123.72025017 441.91056411 123.70703125 445.1328125 C123.69154739 446.12991241 123.67606354 447.12701233 123.66011047 448.15432739 C123.65883491 453.44882783 123.74866257 457.56784619 127 462 C131.18390853 464.24146535 135.21305059 464.28475498 139.84996033 464.26069641 C140.63404111 464.26452196 141.41812189 464.26834751 142.2259627 464.27228898 C144.84984762 464.28259699 147.47351282 464.27863103 150.09741211 464.2746582 C151.98001813 464.27900588 153.86262238 464.28418922 155.745224 464.29014587 C160.85675794 464.30354075 165.96821796 464.30411402 171.07976604 464.30158257 C175.34676604 464.30051325 179.61375106 464.30539522 183.88074785 464.310188 C193.94679576 464.32128476 204.01280636 464.32171955 214.07885742 464.31567383 C224.46431992 464.3096322 234.84964699 464.32194949 245.23508638 464.3432439 C254.15156415 464.36085429 263.06799879 464.36686216 271.98449332 464.36360615 C277.30997592 464.36179234 282.63536192 464.36443933 287.96082878 464.37832069 C292.9685386 464.39088531 297.97603714 464.38896783 302.98374367 464.37590981 C304.82115627 464.37354154 306.65858368 464.37628763 308.49597931 464.38453293 C311.00525058 464.39498097 313.51381035 464.38691559 316.02305603 464.3742218 C316.74923046 464.38159609 317.47540488 464.38897037 318.22358459 464.39656812 C322.86591103 464.34720059 326.14456534 463.62629204 330 461 C332.57538257 456.89270885 332.28240032 452.38169622 332.25828552 447.67428589 C332.26379908 446.42148573 332.26379908 446.42148573 332.26942402 445.14337647 C332.27939894 442.34666139 332.27525428 439.55014532 332.27124023 436.75341797 C332.27562744 434.7477192 332.28092958 432.74202226 332.28707886 430.73632812 C332.29857817 426.41856649 332.30403821 422.10085393 332.30496025 417.78307724 C332.30689949 410.96000443 332.32494337 404.13703335 332.34571838 397.31399536 C332.39492157 380.369759 332.42582398 363.42549507 332.44702148 346.48120117 C332.46352467 333.30796442 332.48627482 320.13481489 332.53004223 306.96163666 C332.55187286 300.17426643 332.55987147 293.38706167 332.55764949 286.59965873 C332.55931153 282.38430674 332.57333047 278.16906365 332.59086227 273.95375061 C332.59648017 271.99414483 332.59693022 270.03451665 332.59192467 268.07490921 C332.58582233 265.40693716 332.59794354 262.73965834 332.61473083 260.07174683 C332.60851902 259.2901425 332.6023072 258.50853817 332.59590715 257.70324886 C332.65560688 252.52324688 332.65560688 252.52324688 334.29361057 250.03457832 C336.72184417 248.56234824 339.03536998 248.35070714 341.8371582 248.45507812 C344.52295644 249.1317574 345.76813507 250.21670485 347.79296875 252.09375 C348.48720947 252.72974121 349.1814502 253.36573242 349.89672852 254.02099609 C350.9378479 255.00060303 350.9378479 255.00060303 352 256 C352.63284912 256.58475098 353.26569824 257.16950195 353.91772461 257.77197266 C355.83016332 259.54593733 357.72890719 261.33358334 359.625 263.125 C361.01274757 264.43127995 362.40077445 265.73726323 363.7890625 267.04296875 C364.83175293 268.02402588 364.83175293 268.02402588 365.89550781 269.02490234 C369.25199594 272.17501707 372.62499394 275.30724963 376 278.4375 C376.60537598 278.99904785 377.21075195 279.5605957 377.83447266 280.13916016 C379.22267786 281.42643458 380.61128839 282.7132719 382 284 C386.26956653 281.64217968 389.84968245 278.70048147 393.5 275.5 C394.74578168 274.42021276 395.99188271 273.34079388 397.23828125 272.26171875 C397.86557129 271.71692871 398.49286133 271.17213867 399.13916016 270.61083984 C401.97209753 268.15850177 404.82718335 265.73280109 407.6875 263.3125 C408.21641846 262.86390625 408.74533691 262.4153125 409.2902832 261.953125 C413.75018296 258.18237629 418.28702131 254.51370485 422.85546875 250.875 C425.18904035 248.99949562 425.18904035 248.99949562 427 246 C426.38253906 245.33355469 425.76507813 244.66710937 425.12890625 243.98046875 C419.96024356 238.3555162 415.01468511 232.63067311 410.21484375 226.68359375 C408.04367173 224.05291443 405.79758643 221.52057576 403.5 219 C400.38541332 215.58260628 397.4081338 212.0947765 394.5 208.5 C390.81284531 203.94262524 386.96598316 199.57177573 383.01953125 195.23828125 C380.59747853 192.55387852 378.28517492 189.80118216 376 187 C372.89927665 190.10072335 372.90418592 194.30044662 372.23242188 198.50195312 C371.73514686 201.3070238 371.28738924 203.58432687 369.65234375 205.94921875 C367.6287594 207.23608445 366.38863391 207.40214357 364 207.375 C362.9790625 207.38660156 362.9790625 207.38660156 361.9375 207.3984375 C359.30105461 206.85626526 358.54184667 206.22007835 357 204 C356.26171875 200.77734375 356.26171875 200.77734375 355.6875 196.9375 C354.06362548 187.64271959 350.47690149 180.09977757 342.8984375 174.2421875 C336.44736501 170.02111538 330.22408882 168.46633579 322.6015625 167.58984375 C319.73479869 166.93987177 318.74831308 166.31779616 317 164 C315.98952374 161.04630017 315.91589631 159.36164586 316.625 156.3125 C318.43549639 153.26757425 319.58886397 152.88986157 323 152 C325.66687496 151.57448748 328.31044239 151.27351433 331 151 C331 150.67 331 150.34 331 150 C326.89338458 149.42250121 322.7857367 148.85318806 318.67700195 148.29101562 C317.28314603 148.0991814 315.88958091 147.90522042 314.49633789 147.70898438 C306.96874677 146.65020586 299.61676834 145.7300813 292 146 C291.71640625 146.86109375 291.4328125 147.7221875 291.140625 148.609375 C284.77022708 167.54603732 276.47008925 182.74928574 258.3046875 192.4375 C255.57148289 193.7457005 252.8237095 194.90189075 250 196 C249.21882812 196.32097656 248.43765625 196.64195312 247.6328125 196.97265625 C232.56760406 202.14680931 214.32873044 200.08514062 200.05859375 193.6796875 C184.93610958 185.98173311 173.78749132 174.06370623 168 158 C167.11532997 155.05233893 166.30655172 152.10712509 165.578125 149.1171875 C165.19655961 147.03127032 165.19655961 147.03127032 164 146 C158.10098676 145.79252204 152.3861947 146.27049781 146.53125 146.953125 Z M363 148 C361.63457856 149.40890619 360.33057101 150.87787333 359.0625 152.375 C356.75625016 155.09077084 354.98351216 157.01099189 352 159 C352 159.66 352 160.32 352 161 C353.68805632 162.66877721 353.68805632 162.66877721 355.8125 164.375 C358.06250857 166.23566282 359.90350285 167.86872703 361.63671875 170.2265625 C362.08660156 170.81179687 362.53648437 171.39703125 363 172 C363.66 172 364.32 172 365 172 C366.66877721 170.31194368 366.66877721 170.31194368 368.375 168.1875 C370.23566282 165.93749143 371.86872703 164.09649715 374.2265625 162.36328125 C374.81179688 161.91339844 375.39703125 161.46351563 376 161 C376 160.34 376 159.68 376 159 C374.31194368 157.33122279 374.31194368 157.33122279 372.1875 155.625 C369.93749143 153.76433718 368.09649715 152.13127297 366.36328125 149.7734375 C365.91339844 149.18820313 365.46351563 148.60296875 365 148 C364.34 148 363.68 148 363 148 Z M83 383 C81.92580696 384.31224136 80.91573391 385.67724678 79.9375 387.0625 C76.24440427 391.98662764 72.00558812 395.46998208 67 399 C68.13994851 402.41984554 68.73796394 402.71888739 71.625 404.625 C76.39763717 408.03648794 79.62321121 412.25139076 83 417 C86.55716979 415.81427674 87.07266425 414.81144761 89.1875 411.8125 C92.58188026 407.27215376 96.29501788 404.11628686 101 401 C99.86005149 397.58015446 99.26203606 397.28111261 96.375 395.375 C92.18142463 392.38820891 89.40977499 388.93563639 86.4453125 384.7578125 C85.96835938 384.17773438 85.49140625 383.59765625 85 383 C84.34 383 83.68 383 83 383 Z " fill="#313132" transform="translate(28,16)"/>
<path d="M0 0 C3.03344435 0.6870373 4.14643131 2.02283821 6.03515625 4.4609375 C6.94140625 7.484375 6.94140625 7.484375 7.53515625 10.8359375 C9.25210411 19.04423368 12.3730727 23.56634551 19.03515625 28.4609375 C23.658188 30.56872655 28.44540056 31.51493596 33.390625 32.58203125 C36.03515625 33.4609375 36.03515625 33.4609375 38.03515625 36.4609375 C38.71144156 43.56193323 38.71144156 43.56193323 36.41015625 46.62109375 C33.49782561 48.87719199 31.27253252 49.32098273 27.66015625 49.9609375 C19.45186007 51.67788536 14.92974824 54.79885395 10.03515625 61.4609375 C7.9273672 66.08396925 6.98115779 70.87118181 5.9140625 75.81640625 C5.03515625 78.4609375 5.03515625 78.4609375 2.03515625 80.4609375 C-5.06583948 81.13722281 -5.06583948 81.13722281 -8.125 78.8359375 C-10.38109824 75.92360686 -10.82488898 73.69831377 -11.46484375 70.0859375 C-13.18179161 61.87764132 -16.3027602 57.35552949 -22.96484375 52.4609375 C-27.5878755 50.35314845 -32.37508806 49.40693904 -37.3203125 48.33984375 C-39.96484375 47.4609375 -39.96484375 47.4609375 -41.96484375 44.4609375 C-42.64112906 37.35994177 -42.64112906 37.35994177 -40.33984375 34.30078125 C-37.42751311 32.04468301 -35.20222002 31.60089227 -31.58984375 30.9609375 C-23.38154757 29.24398964 -18.85943574 26.12302105 -13.96484375 19.4609375 C-11.8570547 14.83790575 -10.91084529 10.05069319 -9.84375 5.10546875 C-8.17241688 0.07661309 -4.78058425 0.20264519 0 0 Z M-5.58984375 36.9609375 C-6.37359375 37.7859375 -7.15734375 38.6109375 -7.96484375 39.4609375 C-6.67184681 42.34531529 -5.30543012 44.33313171 -2.96484375 46.4609375 C-0.08046596 45.16794056 1.90735046 43.80152387 4.03515625 41.4609375 C2.7499606 38.59396258 1.46386371 36.48486038 -0.96484375 34.4609375 C-3.32763111 34.23105244 -3.32763111 34.23105244 -5.58984375 36.9609375 Z " fill="#313132" transform="translate(273.96484375,271.5390625)"/>
</svg>
